G75*
G70*
%OFA0B0*%
%FSLAX24Y24*%
%IPPOS*%
%LPD*%
%AMOC8*
5,1,8,0,0,1.08239X$1,22.5*
%
%ADD10OC8,0.0520*%
%ADD11C,0.0104*%
%ADD12C,0.0520*%
%ADD13C,0.0600*%
%ADD14C,0.0160*%
%ADD15C,0.0100*%
D10*
X001027Y015897D03*
X002027Y015897D03*
X003661Y015897D03*
X007661Y015897D03*
X015897Y007661D03*
X015897Y003661D03*
X015897Y002027D03*
X015897Y001027D03*
X024133Y015897D03*
X028133Y015897D03*
X029767Y015897D03*
X030767Y015897D03*
X015897Y024133D03*
X015897Y028133D03*
X015897Y029767D03*
X015897Y030767D03*
D11*
X005537Y005416D02*
X005589Y005468D01*
X005589Y005296D01*
X005468Y005175D01*
X005296Y005175D01*
X005175Y005296D01*
X005175Y005468D01*
X005296Y005589D01*
X005468Y005589D01*
X005589Y005468D01*
X005511Y005436D01*
X005511Y005328D01*
X005436Y005253D01*
X005328Y005253D01*
X005253Y005328D01*
X005253Y005436D01*
X005328Y005511D01*
X005436Y005511D01*
X005511Y005436D01*
X005433Y005403D01*
X005433Y005361D01*
X005403Y005331D01*
X005361Y005331D01*
X005331Y005361D01*
X005331Y005403D01*
X005361Y005433D01*
X005403Y005433D01*
X005433Y005403D01*
X006244Y006123D02*
X006296Y006175D01*
X006296Y006003D01*
X006175Y005882D01*
X006003Y005882D01*
X005882Y006003D01*
X005882Y006175D01*
X006003Y006296D01*
X006175Y006296D01*
X006296Y006175D01*
X006218Y006143D01*
X006218Y006035D01*
X006143Y005960D01*
X006035Y005960D01*
X005960Y006035D01*
X005960Y006143D01*
X006035Y006218D01*
X006143Y006218D01*
X006218Y006143D01*
X006140Y006110D01*
X006140Y006068D01*
X006110Y006038D01*
X006068Y006038D01*
X006038Y006068D01*
X006038Y006110D01*
X006068Y006140D01*
X006110Y006140D01*
X006140Y006110D01*
X007092Y007213D02*
X007040Y007161D01*
X007040Y007333D01*
X007161Y007454D01*
X007333Y007454D01*
X007454Y007333D01*
X007454Y007161D01*
X007333Y007040D01*
X007161Y007040D01*
X007040Y007161D01*
X007118Y007193D01*
X007118Y007301D01*
X007193Y007376D01*
X007301Y007376D01*
X007376Y007301D01*
X007376Y007193D01*
X007301Y007118D01*
X007193Y007118D01*
X007118Y007193D01*
X007196Y007226D01*
X007196Y007268D01*
X007226Y007298D01*
X007268Y007298D01*
X007298Y007268D01*
X007298Y007226D01*
X007268Y007196D01*
X007226Y007196D01*
X007196Y007226D01*
X005555Y009108D02*
X005503Y009056D01*
X005536Y009225D01*
X005679Y009320D01*
X005848Y009287D01*
X005943Y009144D01*
X005910Y008975D01*
X005767Y008880D01*
X005598Y008913D01*
X005503Y009056D01*
X005586Y009072D01*
X005607Y009178D01*
X005695Y009237D01*
X005801Y009216D01*
X005860Y009128D01*
X005839Y009022D01*
X005751Y008963D01*
X005645Y008984D01*
X005586Y009072D01*
X005669Y009089D01*
X005677Y009131D01*
X005712Y009154D01*
X005754Y009146D01*
X005777Y009111D01*
X005769Y009069D01*
X005734Y009046D01*
X005692Y009054D01*
X005669Y009089D01*
X004532Y008183D02*
X004584Y008235D01*
X004551Y008066D01*
X004408Y007971D01*
X004239Y008004D01*
X004144Y008147D01*
X004177Y008316D01*
X004320Y008411D01*
X004489Y008378D01*
X004584Y008235D01*
X004501Y008219D01*
X004480Y008113D01*
X004392Y008054D01*
X004286Y008075D01*
X004227Y008163D01*
X004248Y008269D01*
X004336Y008328D01*
X004442Y008307D01*
X004501Y008219D01*
X004418Y008202D01*
X004410Y008160D01*
X004375Y008137D01*
X004333Y008145D01*
X004310Y008180D01*
X004318Y008222D01*
X004353Y008245D01*
X004395Y008237D01*
X004418Y008202D01*
X003701Y007627D02*
X003753Y007679D01*
X003720Y007510D01*
X003577Y007415D01*
X003408Y007448D01*
X003313Y007591D01*
X003346Y007760D01*
X003489Y007855D01*
X003658Y007822D01*
X003753Y007679D01*
X003670Y007663D01*
X003649Y007557D01*
X003561Y007498D01*
X003455Y007519D01*
X003396Y007607D01*
X003417Y007713D01*
X003505Y007772D01*
X003611Y007751D01*
X003670Y007663D01*
X003587Y007646D01*
X003579Y007604D01*
X003544Y007581D01*
X003502Y007589D01*
X003479Y007624D01*
X003487Y007666D01*
X003522Y007689D01*
X003564Y007681D01*
X003587Y007646D01*
X002385Y010206D02*
X002319Y010047D01*
X002160Y009981D01*
X002001Y010047D01*
X001935Y010206D01*
X002001Y010365D01*
X002160Y010431D01*
X002319Y010365D01*
X002385Y010206D01*
X002300Y010206D01*
X002258Y010107D01*
X002160Y010066D01*
X002061Y010108D01*
X002020Y010206D01*
X002062Y010305D01*
X002160Y010346D01*
X002259Y010304D01*
X002300Y010206D01*
X002216Y010206D01*
X002199Y010166D01*
X002160Y010150D01*
X002120Y010167D01*
X002104Y010206D01*
X002121Y010246D01*
X002160Y010262D01*
X002200Y010245D01*
X002216Y010206D01*
X003309Y010589D02*
X003243Y010430D01*
X003084Y010364D01*
X002925Y010430D01*
X002859Y010589D01*
X002925Y010748D01*
X003084Y010814D01*
X003243Y010748D01*
X003309Y010589D01*
X003224Y010589D01*
X003182Y010490D01*
X003084Y010449D01*
X002985Y010491D01*
X002944Y010589D01*
X002986Y010688D01*
X003084Y010729D01*
X003183Y010687D01*
X003224Y010589D01*
X003140Y010589D01*
X003123Y010549D01*
X003084Y010533D01*
X003044Y010550D01*
X003028Y010589D01*
X003045Y010629D01*
X003084Y010645D01*
X003124Y010628D01*
X003140Y010589D01*
X004368Y011215D02*
X004434Y011374D01*
X004593Y011440D01*
X004752Y011374D01*
X004818Y011215D01*
X004752Y011056D01*
X004593Y010990D01*
X004434Y011056D01*
X004368Y011215D01*
X004453Y011215D01*
X004495Y011314D01*
X004593Y011355D01*
X004692Y011313D01*
X004733Y011215D01*
X004691Y011116D01*
X004593Y011075D01*
X004494Y011117D01*
X004453Y011215D01*
X004537Y011215D01*
X004554Y011255D01*
X004593Y011271D01*
X004633Y011254D01*
X004649Y011215D01*
X004632Y011175D01*
X004593Y011159D01*
X004553Y011176D01*
X004537Y011215D01*
X003729Y013500D02*
X003677Y013552D01*
X003772Y013696D01*
X003940Y013729D01*
X004084Y013634D01*
X004117Y013466D01*
X004022Y013322D01*
X003854Y013289D01*
X003710Y013384D01*
X003677Y013552D01*
X003760Y013535D01*
X003820Y013626D01*
X003923Y013646D01*
X004014Y013586D01*
X004034Y013483D01*
X003974Y013392D01*
X003871Y013372D01*
X003780Y013432D01*
X003760Y013535D01*
X003842Y013519D01*
X003867Y013555D01*
X003907Y013564D01*
X003943Y013539D01*
X003952Y013499D01*
X003927Y013463D01*
X003887Y013454D01*
X003851Y013479D01*
X003842Y013519D01*
X002461Y013201D02*
X002513Y013149D01*
X002418Y013005D01*
X002250Y012972D01*
X002106Y013067D01*
X002073Y013235D01*
X002168Y013379D01*
X002336Y013412D01*
X002480Y013317D01*
X002513Y013149D01*
X002430Y013166D01*
X002370Y013075D01*
X002267Y013055D01*
X002176Y013115D01*
X002156Y013218D01*
X002216Y013309D01*
X002319Y013329D01*
X002410Y013269D01*
X002430Y013166D01*
X002348Y013182D01*
X002323Y013146D01*
X002283Y013137D01*
X002247Y013162D01*
X002238Y013202D01*
X002263Y013238D01*
X002303Y013247D01*
X002339Y013222D01*
X002348Y013182D01*
X001480Y013005D02*
X001532Y012953D01*
X001437Y012809D01*
X001269Y012776D01*
X001125Y012871D01*
X001092Y013039D01*
X001187Y013183D01*
X001355Y013216D01*
X001499Y013121D01*
X001532Y012953D01*
X001449Y012970D01*
X001389Y012879D01*
X001286Y012859D01*
X001195Y012919D01*
X001175Y013022D01*
X001235Y013113D01*
X001338Y013133D01*
X001429Y013073D01*
X001449Y012970D01*
X001367Y012986D01*
X001342Y012950D01*
X001302Y012941D01*
X001266Y012966D01*
X001257Y013006D01*
X001282Y013042D01*
X001322Y013051D01*
X001358Y013026D01*
X001367Y012986D01*
X003761Y018354D02*
X003709Y018406D01*
X003853Y018502D01*
X004020Y018469D01*
X004116Y018325D01*
X004083Y018158D01*
X003939Y018062D01*
X003772Y018095D01*
X003676Y018239D01*
X003709Y018406D01*
X003779Y018359D01*
X003870Y018419D01*
X003973Y018399D01*
X004033Y018308D01*
X004013Y018205D01*
X003922Y018145D01*
X003819Y018165D01*
X003759Y018256D01*
X003779Y018359D01*
X003850Y018312D01*
X003886Y018337D01*
X003926Y018328D01*
X003951Y018292D01*
X003942Y018252D01*
X003906Y018227D01*
X003866Y018236D01*
X003841Y018272D01*
X003850Y018312D01*
X002428Y018531D02*
X002480Y018479D01*
X002336Y018383D01*
X002169Y018416D01*
X002073Y018560D01*
X002106Y018727D01*
X002250Y018823D01*
X002417Y018790D01*
X002513Y018646D01*
X002480Y018479D01*
X002410Y018526D01*
X002319Y018466D01*
X002216Y018486D01*
X002156Y018577D01*
X002176Y018680D01*
X002267Y018740D01*
X002370Y018720D01*
X002430Y018629D01*
X002410Y018526D01*
X002339Y018573D01*
X002303Y018548D01*
X002263Y018557D01*
X002238Y018593D01*
X002247Y018633D01*
X002283Y018658D01*
X002323Y018649D01*
X002348Y018613D01*
X002339Y018573D01*
X001447Y018726D02*
X001499Y018674D01*
X001355Y018578D01*
X001188Y018611D01*
X001092Y018755D01*
X001125Y018922D01*
X001269Y019018D01*
X001436Y018985D01*
X001532Y018841D01*
X001499Y018674D01*
X001429Y018721D01*
X001338Y018661D01*
X001235Y018681D01*
X001175Y018772D01*
X001195Y018875D01*
X001286Y018935D01*
X001389Y018915D01*
X001449Y018824D01*
X001429Y018721D01*
X001358Y018768D01*
X001322Y018743D01*
X001282Y018752D01*
X001257Y018788D01*
X001266Y018828D01*
X001302Y018853D01*
X001342Y018844D01*
X001367Y018808D01*
X001358Y018768D01*
X003191Y021099D02*
X003243Y021047D01*
X003084Y020981D01*
X002925Y021047D01*
X002859Y021206D01*
X002925Y021365D01*
X003084Y021431D01*
X003243Y021365D01*
X003309Y021206D01*
X003243Y021047D01*
X003183Y021108D01*
X003084Y021066D01*
X002986Y021107D01*
X002944Y021206D01*
X002985Y021304D01*
X003084Y021346D01*
X003182Y021305D01*
X003224Y021206D01*
X003183Y021108D01*
X003124Y021167D01*
X003084Y021150D01*
X003045Y021166D01*
X003028Y021206D01*
X003044Y021245D01*
X003084Y021262D01*
X003123Y021246D01*
X003140Y021206D01*
X003124Y021167D01*
X002267Y021482D02*
X002319Y021430D01*
X002160Y021364D01*
X002001Y021430D01*
X001935Y021589D01*
X002001Y021748D01*
X002160Y021814D01*
X002319Y021748D01*
X002385Y021589D01*
X002319Y021430D01*
X002259Y021491D01*
X002160Y021449D01*
X002062Y021490D01*
X002020Y021589D01*
X002061Y021687D01*
X002160Y021729D01*
X002258Y021688D01*
X002300Y021589D01*
X002259Y021491D01*
X002200Y021550D01*
X002160Y021533D01*
X002121Y021549D01*
X002104Y021589D01*
X002120Y021628D01*
X002160Y021645D01*
X002199Y021629D01*
X002216Y021589D01*
X002200Y021550D01*
X004437Y023470D02*
X004489Y023418D01*
X004321Y023384D01*
X004178Y023479D01*
X004144Y023647D01*
X004239Y023790D01*
X004407Y023824D01*
X004550Y023729D01*
X004584Y023561D01*
X004489Y023418D01*
X004442Y023488D01*
X004336Y023467D01*
X004248Y023526D01*
X004227Y023632D01*
X004286Y023720D01*
X004392Y023741D01*
X004480Y023682D01*
X004501Y023576D01*
X004442Y023488D01*
X004395Y023558D01*
X004353Y023550D01*
X004318Y023573D01*
X004310Y023615D01*
X004333Y023650D01*
X004375Y023658D01*
X004410Y023635D01*
X004418Y023593D01*
X004395Y023558D01*
X003605Y024025D02*
X003657Y023973D01*
X003489Y023939D01*
X003346Y024034D01*
X003312Y024202D01*
X003407Y024345D01*
X003575Y024379D01*
X003718Y024284D01*
X003752Y024116D01*
X003657Y023973D01*
X003610Y024043D01*
X003504Y024022D01*
X003416Y024081D01*
X003395Y024187D01*
X003454Y024275D01*
X003560Y024296D01*
X003648Y024237D01*
X003669Y024131D01*
X003610Y024043D01*
X003563Y024113D01*
X003521Y024105D01*
X003486Y024128D01*
X003478Y024170D01*
X003501Y024205D01*
X003543Y024213D01*
X003578Y024190D01*
X003586Y024148D01*
X003563Y024113D01*
X005649Y022826D02*
X005597Y022878D01*
X005765Y022912D01*
X005908Y022817D01*
X005942Y022649D01*
X005847Y022506D01*
X005679Y022472D01*
X005536Y022567D01*
X005502Y022735D01*
X005597Y022878D01*
X005644Y022808D01*
X005750Y022829D01*
X005838Y022770D01*
X005859Y022664D01*
X005800Y022576D01*
X005694Y022555D01*
X005606Y022614D01*
X005585Y022720D01*
X005644Y022808D01*
X005691Y022738D01*
X005733Y022746D01*
X005768Y022723D01*
X005776Y022681D01*
X005753Y022646D01*
X005711Y022638D01*
X005676Y022661D01*
X005668Y022703D01*
X005691Y022738D01*
X007213Y024703D02*
X007161Y024755D01*
X007333Y024755D01*
X007454Y024634D01*
X007454Y024462D01*
X007333Y024341D01*
X007161Y024341D01*
X007040Y024462D01*
X007040Y024634D01*
X007161Y024755D01*
X007193Y024677D01*
X007301Y024677D01*
X007376Y024602D01*
X007376Y024494D01*
X007301Y024419D01*
X007193Y024419D01*
X007118Y024494D01*
X007118Y024602D01*
X007193Y024677D01*
X007226Y024599D01*
X007268Y024599D01*
X007298Y024569D01*
X007298Y024527D01*
X007268Y024497D01*
X007226Y024497D01*
X007196Y024527D01*
X007196Y024569D01*
X007226Y024599D01*
X006123Y025550D02*
X006175Y025498D01*
X006003Y025498D01*
X005882Y025619D01*
X005882Y025791D01*
X006003Y025912D01*
X006175Y025912D01*
X006296Y025791D01*
X006296Y025619D01*
X006175Y025498D01*
X006143Y025576D01*
X006035Y025576D01*
X005960Y025651D01*
X005960Y025759D01*
X006035Y025834D01*
X006143Y025834D01*
X006218Y025759D01*
X006218Y025651D01*
X006143Y025576D01*
X006110Y025654D01*
X006068Y025654D01*
X006038Y025684D01*
X006038Y025726D01*
X006068Y025756D01*
X006110Y025756D01*
X006140Y025726D01*
X006140Y025684D01*
X006110Y025654D01*
X005416Y026257D02*
X005468Y026205D01*
X005296Y026205D01*
X005175Y026326D01*
X005175Y026498D01*
X005296Y026619D01*
X005468Y026619D01*
X005589Y026498D01*
X005589Y026326D01*
X005468Y026205D01*
X005436Y026283D01*
X005328Y026283D01*
X005253Y026358D01*
X005253Y026466D01*
X005328Y026541D01*
X005436Y026541D01*
X005511Y026466D01*
X005511Y026358D01*
X005436Y026283D01*
X005403Y026361D01*
X005361Y026361D01*
X005331Y026391D01*
X005331Y026433D01*
X005361Y026463D01*
X005403Y026463D01*
X005433Y026433D01*
X005433Y026391D01*
X005403Y026361D01*
X007627Y028094D02*
X007679Y028042D01*
X007510Y028075D01*
X007415Y028218D01*
X007448Y028387D01*
X007591Y028482D01*
X007760Y028449D01*
X007855Y028306D01*
X007822Y028137D01*
X007679Y028042D01*
X007663Y028125D01*
X007557Y028146D01*
X007498Y028234D01*
X007519Y028340D01*
X007607Y028399D01*
X007713Y028378D01*
X007772Y028290D01*
X007751Y028184D01*
X007663Y028125D01*
X007646Y028208D01*
X007604Y028216D01*
X007581Y028251D01*
X007589Y028293D01*
X007624Y028316D01*
X007666Y028308D01*
X007689Y028273D01*
X007681Y028231D01*
X007646Y028208D01*
X008183Y027263D02*
X008235Y027211D01*
X008066Y027244D01*
X007971Y027387D01*
X008004Y027556D01*
X008147Y027651D01*
X008316Y027618D01*
X008411Y027475D01*
X008378Y027306D01*
X008235Y027211D01*
X008219Y027294D01*
X008113Y027315D01*
X008054Y027403D01*
X008075Y027509D01*
X008163Y027568D01*
X008269Y027547D01*
X008328Y027459D01*
X008307Y027353D01*
X008219Y027294D01*
X008202Y027377D01*
X008160Y027385D01*
X008137Y027420D01*
X008145Y027462D01*
X008180Y027485D01*
X008222Y027477D01*
X008245Y027442D01*
X008237Y027400D01*
X008202Y027377D01*
X009108Y026239D02*
X009056Y026291D01*
X009225Y026258D01*
X009320Y026115D01*
X009287Y025946D01*
X009144Y025851D01*
X008975Y025884D01*
X008880Y026027D01*
X008913Y026196D01*
X009056Y026291D01*
X009072Y026208D01*
X009178Y026187D01*
X009237Y026099D01*
X009216Y025993D01*
X009128Y025934D01*
X009022Y025955D01*
X008963Y026043D01*
X008984Y026149D01*
X009072Y026208D01*
X009089Y026125D01*
X009131Y026117D01*
X009154Y026082D01*
X009146Y026040D01*
X009111Y026017D01*
X009069Y026025D01*
X009046Y026060D01*
X009054Y026102D01*
X009089Y026125D01*
X011215Y027427D02*
X011374Y027361D01*
X011440Y027202D01*
X011374Y027043D01*
X011215Y026977D01*
X011056Y027043D01*
X010990Y027202D01*
X011056Y027361D01*
X011215Y027427D01*
X011215Y027342D01*
X011314Y027300D01*
X011355Y027202D01*
X011313Y027103D01*
X011215Y027062D01*
X011116Y027104D01*
X011075Y027202D01*
X011117Y027301D01*
X011215Y027342D01*
X011215Y027258D01*
X011255Y027241D01*
X011271Y027202D01*
X011254Y027162D01*
X011215Y027146D01*
X011175Y027163D01*
X011159Y027202D01*
X011176Y027242D01*
X011215Y027258D01*
X010589Y028486D02*
X010430Y028552D01*
X010364Y028711D01*
X010430Y028870D01*
X010589Y028936D01*
X010748Y028870D01*
X010814Y028711D01*
X010748Y028552D01*
X010589Y028486D01*
X010589Y028571D01*
X010490Y028613D01*
X010449Y028711D01*
X010491Y028810D01*
X010589Y028851D01*
X010688Y028809D01*
X010729Y028711D01*
X010687Y028612D01*
X010589Y028571D01*
X010589Y028655D01*
X010549Y028672D01*
X010533Y028711D01*
X010550Y028751D01*
X010589Y028767D01*
X010629Y028750D01*
X010645Y028711D01*
X010628Y028671D01*
X010589Y028655D01*
X010206Y029410D02*
X010047Y029476D01*
X009981Y029635D01*
X010047Y029794D01*
X010206Y029860D01*
X010365Y029794D01*
X010431Y029635D01*
X010365Y029476D01*
X010206Y029410D01*
X010206Y029495D01*
X010107Y029537D01*
X010066Y029635D01*
X010108Y029734D01*
X010206Y029775D01*
X010305Y029733D01*
X010346Y029635D01*
X010304Y029536D01*
X010206Y029495D01*
X010206Y029579D01*
X010166Y029596D01*
X010150Y029635D01*
X010167Y029675D01*
X010206Y029691D01*
X010246Y029674D01*
X010262Y029635D01*
X010245Y029595D01*
X010206Y029579D01*
X013005Y030314D02*
X012953Y030262D01*
X012809Y030357D01*
X012776Y030525D01*
X012871Y030669D01*
X013039Y030702D01*
X013183Y030607D01*
X013216Y030439D01*
X013121Y030295D01*
X012953Y030262D01*
X012970Y030345D01*
X012879Y030405D01*
X012859Y030508D01*
X012919Y030599D01*
X013022Y030619D01*
X013113Y030559D01*
X013133Y030456D01*
X013073Y030365D01*
X012970Y030345D01*
X012986Y030427D01*
X012950Y030452D01*
X012941Y030492D01*
X012966Y030528D01*
X013006Y030537D01*
X013042Y030512D01*
X013051Y030472D01*
X013026Y030436D01*
X012986Y030427D01*
X013201Y029333D02*
X013149Y029281D01*
X013005Y029376D01*
X012972Y029544D01*
X013067Y029688D01*
X013235Y029721D01*
X013379Y029626D01*
X013412Y029458D01*
X013317Y029314D01*
X013149Y029281D01*
X013166Y029364D01*
X013075Y029424D01*
X013055Y029527D01*
X013115Y029618D01*
X013218Y029638D01*
X013309Y029578D01*
X013329Y029475D01*
X013269Y029384D01*
X013166Y029364D01*
X013182Y029446D01*
X013146Y029471D01*
X013137Y029511D01*
X013162Y029547D01*
X013202Y029556D01*
X013238Y029531D01*
X013247Y029491D01*
X013222Y029455D01*
X013182Y029446D01*
X013500Y028066D02*
X013552Y028118D01*
X013696Y028023D01*
X013729Y027855D01*
X013634Y027711D01*
X013466Y027678D01*
X013322Y027773D01*
X013289Y027941D01*
X013384Y028085D01*
X013552Y028118D01*
X013535Y028035D01*
X013626Y027975D01*
X013646Y027872D01*
X013586Y027781D01*
X013483Y027761D01*
X013392Y027821D01*
X013372Y027924D01*
X013432Y028015D01*
X013535Y028035D01*
X013519Y027953D01*
X013555Y027928D01*
X013564Y027888D01*
X013539Y027852D01*
X013499Y027843D01*
X013463Y027868D01*
X013454Y027908D01*
X013479Y027944D01*
X013519Y027953D01*
X014284Y024143D02*
X014336Y024195D01*
X014480Y024100D01*
X014513Y023932D01*
X014418Y023788D01*
X014250Y023755D01*
X014106Y023850D01*
X014073Y024018D01*
X014168Y024162D01*
X014336Y024195D01*
X014319Y024112D01*
X014410Y024052D01*
X014430Y023949D01*
X014370Y023858D01*
X014267Y023838D01*
X014176Y023898D01*
X014156Y024001D01*
X014216Y024092D01*
X014319Y024112D01*
X014303Y024030D01*
X014339Y024005D01*
X014348Y023965D01*
X014323Y023929D01*
X014283Y023920D01*
X014247Y023945D01*
X014238Y023985D01*
X014263Y024021D01*
X014303Y024030D01*
X012745Y023731D02*
X012904Y023665D01*
X012970Y023506D01*
X012904Y023347D01*
X012745Y023281D01*
X012586Y023347D01*
X012520Y023506D01*
X012586Y023665D01*
X012745Y023731D01*
X012745Y023646D01*
X012844Y023604D01*
X012885Y023506D01*
X012843Y023407D01*
X012745Y023366D01*
X012646Y023408D01*
X012605Y023506D01*
X012647Y023605D01*
X012745Y023646D01*
X012745Y023562D01*
X012785Y023545D01*
X012801Y023506D01*
X012784Y023466D01*
X012745Y023450D01*
X012705Y023467D01*
X012689Y023506D01*
X012706Y023546D01*
X012745Y023562D01*
X011333Y022915D02*
X011281Y022967D01*
X011450Y022934D01*
X011545Y022791D01*
X011512Y022622D01*
X011369Y022527D01*
X011200Y022560D01*
X011105Y022703D01*
X011138Y022872D01*
X011281Y022967D01*
X011297Y022884D01*
X011403Y022863D01*
X011462Y022775D01*
X011441Y022669D01*
X011353Y022610D01*
X011247Y022631D01*
X011188Y022719D01*
X011209Y022825D01*
X011297Y022884D01*
X011314Y022801D01*
X011356Y022793D01*
X011379Y022758D01*
X011371Y022716D01*
X011336Y022693D01*
X011294Y022701D01*
X011271Y022736D01*
X011279Y022778D01*
X011314Y022801D01*
X010041Y021874D02*
X009989Y021926D01*
X010161Y021926D01*
X010282Y021805D01*
X010282Y021633D01*
X010161Y021512D01*
X009989Y021512D01*
X009868Y021633D01*
X009868Y021805D01*
X009989Y021926D01*
X010021Y021848D01*
X010129Y021848D01*
X010204Y021773D01*
X010204Y021665D01*
X010129Y021590D01*
X010021Y021590D01*
X009946Y021665D01*
X009946Y021773D01*
X010021Y021848D01*
X010054Y021770D01*
X010096Y021770D01*
X010126Y021740D01*
X010126Y021698D01*
X010096Y021668D01*
X010054Y021668D01*
X010024Y021698D01*
X010024Y021740D01*
X010054Y021770D01*
X008976Y020607D02*
X008924Y020659D01*
X009092Y020693D01*
X009235Y020598D01*
X009269Y020430D01*
X009174Y020287D01*
X009006Y020253D01*
X008863Y020348D01*
X008829Y020516D01*
X008924Y020659D01*
X008971Y020589D01*
X009077Y020610D01*
X009165Y020551D01*
X009186Y020445D01*
X009127Y020357D01*
X009021Y020336D01*
X008933Y020395D01*
X008912Y020501D01*
X008971Y020589D01*
X009018Y020519D01*
X009060Y020527D01*
X009095Y020504D01*
X009103Y020462D01*
X009080Y020427D01*
X009038Y020419D01*
X009003Y020442D01*
X008995Y020484D01*
X009018Y020519D01*
X008181Y019156D02*
X008129Y019208D01*
X008288Y019274D01*
X008447Y019208D01*
X008513Y019049D01*
X008447Y018890D01*
X008288Y018824D01*
X008129Y018890D01*
X008063Y019049D01*
X008129Y019208D01*
X008189Y019147D01*
X008288Y019189D01*
X008386Y019148D01*
X008428Y019049D01*
X008387Y018951D01*
X008288Y018909D01*
X008190Y018950D01*
X008148Y019049D01*
X008189Y019147D01*
X008248Y019088D01*
X008288Y019105D01*
X008327Y019089D01*
X008344Y019049D01*
X008328Y019010D01*
X008288Y018993D01*
X008249Y019009D01*
X008232Y019049D01*
X008248Y019088D01*
X007685Y017577D02*
X007633Y017629D01*
X007777Y017725D01*
X007944Y017692D01*
X008040Y017548D01*
X008007Y017381D01*
X007863Y017285D01*
X007696Y017318D01*
X007600Y017462D01*
X007633Y017629D01*
X007703Y017582D01*
X007794Y017642D01*
X007897Y017622D01*
X007957Y017531D01*
X007937Y017428D01*
X007846Y017368D01*
X007743Y017388D01*
X007683Y017479D01*
X007703Y017582D01*
X007774Y017535D01*
X007810Y017560D01*
X007850Y017551D01*
X007875Y017515D01*
X007866Y017475D01*
X007830Y017450D01*
X007790Y017459D01*
X007765Y017495D01*
X007774Y017535D01*
X004486Y020687D02*
X004434Y020739D01*
X004593Y020805D01*
X004752Y020739D01*
X004818Y020580D01*
X004752Y020421D01*
X004593Y020355D01*
X004434Y020421D01*
X004368Y020580D01*
X004434Y020739D01*
X004494Y020678D01*
X004593Y020720D01*
X004691Y020679D01*
X004733Y020580D01*
X004692Y020482D01*
X004593Y020440D01*
X004495Y020481D01*
X004453Y020580D01*
X004494Y020678D01*
X004553Y020619D01*
X004593Y020636D01*
X004632Y020620D01*
X004649Y020580D01*
X004633Y020541D01*
X004593Y020524D01*
X004554Y020540D01*
X004537Y020580D01*
X004553Y020619D01*
X007651Y014284D02*
X007599Y014336D01*
X007694Y014480D01*
X007862Y014513D01*
X008006Y014418D01*
X008039Y014250D01*
X007944Y014106D01*
X007776Y014073D01*
X007632Y014168D01*
X007599Y014336D01*
X007682Y014319D01*
X007742Y014410D01*
X007845Y014430D01*
X007936Y014370D01*
X007956Y014267D01*
X007896Y014176D01*
X007793Y014156D01*
X007702Y014216D01*
X007682Y014319D01*
X007764Y014303D01*
X007789Y014339D01*
X007829Y014348D01*
X007865Y014323D01*
X007874Y014283D01*
X007849Y014247D01*
X007809Y014238D01*
X007773Y014263D01*
X007764Y014303D01*
X008063Y012745D02*
X008129Y012904D01*
X008288Y012970D01*
X008447Y012904D01*
X008513Y012745D01*
X008447Y012586D01*
X008288Y012520D01*
X008129Y012586D01*
X008063Y012745D01*
X008148Y012745D01*
X008190Y012844D01*
X008288Y012885D01*
X008387Y012843D01*
X008428Y012745D01*
X008386Y012646D01*
X008288Y012605D01*
X008189Y012647D01*
X008148Y012745D01*
X008232Y012745D01*
X008249Y012785D01*
X008288Y012801D01*
X008328Y012784D01*
X008344Y012745D01*
X008327Y012705D01*
X008288Y012689D01*
X008248Y012706D01*
X008232Y012745D01*
X008879Y011333D02*
X008827Y011281D01*
X008860Y011450D01*
X009003Y011545D01*
X009172Y011512D01*
X009267Y011369D01*
X009234Y011200D01*
X009091Y011105D01*
X008922Y011138D01*
X008827Y011281D01*
X008910Y011297D01*
X008931Y011403D01*
X009019Y011462D01*
X009125Y011441D01*
X009184Y011353D01*
X009163Y011247D01*
X009075Y011188D01*
X008969Y011209D01*
X008910Y011297D01*
X008993Y011314D01*
X009001Y011356D01*
X009036Y011379D01*
X009078Y011371D01*
X009101Y011336D01*
X009093Y011294D01*
X009058Y011271D01*
X009016Y011279D01*
X008993Y011314D01*
X009920Y010041D02*
X009868Y009989D01*
X009868Y010161D01*
X009989Y010282D01*
X010161Y010282D01*
X010282Y010161D01*
X010282Y009989D01*
X010161Y009868D01*
X009989Y009868D01*
X009868Y009989D01*
X009946Y010021D01*
X009946Y010129D01*
X010021Y010204D01*
X010129Y010204D01*
X010204Y010129D01*
X010204Y010021D01*
X010129Y009946D01*
X010021Y009946D01*
X009946Y010021D01*
X010024Y010054D01*
X010024Y010096D01*
X010054Y010126D01*
X010096Y010126D01*
X010126Y010096D01*
X010126Y010054D01*
X010096Y010024D01*
X010054Y010024D01*
X010024Y010054D01*
X011188Y008976D02*
X011136Y008924D01*
X011102Y009092D01*
X011197Y009235D01*
X011365Y009269D01*
X011508Y009174D01*
X011542Y009006D01*
X011447Y008863D01*
X011279Y008829D01*
X011136Y008924D01*
X011206Y008971D01*
X011185Y009077D01*
X011244Y009165D01*
X011350Y009186D01*
X011438Y009127D01*
X011459Y009021D01*
X011400Y008933D01*
X011294Y008912D01*
X011206Y008971D01*
X011276Y009018D01*
X011268Y009060D01*
X011291Y009095D01*
X011333Y009103D01*
X011368Y009080D01*
X011376Y009038D01*
X011353Y009003D01*
X011311Y008995D01*
X011276Y009018D01*
X012638Y008181D02*
X012586Y008129D01*
X012520Y008288D01*
X012586Y008447D01*
X012745Y008513D01*
X012904Y008447D01*
X012970Y008288D01*
X012904Y008129D01*
X012745Y008063D01*
X012586Y008129D01*
X012647Y008189D01*
X012605Y008288D01*
X012646Y008386D01*
X012745Y008428D01*
X012843Y008387D01*
X012885Y008288D01*
X012844Y008190D01*
X012745Y008148D01*
X012647Y008189D01*
X012706Y008248D01*
X012689Y008288D01*
X012705Y008327D01*
X012745Y008344D01*
X012784Y008328D01*
X012801Y008288D01*
X012785Y008249D01*
X012745Y008232D01*
X012706Y008248D01*
X014218Y007685D02*
X014166Y007633D01*
X014070Y007777D01*
X014103Y007944D01*
X014247Y008040D01*
X014414Y008007D01*
X014510Y007863D01*
X014477Y007696D01*
X014333Y007600D01*
X014166Y007633D01*
X014213Y007703D01*
X014153Y007794D01*
X014173Y007897D01*
X014264Y007957D01*
X014367Y007937D01*
X014427Y007846D01*
X014407Y007743D01*
X014316Y007683D01*
X014213Y007703D01*
X014260Y007774D01*
X014235Y007810D01*
X014244Y007850D01*
X014280Y007875D01*
X014320Y007866D01*
X014345Y007830D01*
X014336Y007790D01*
X014300Y007765D01*
X014260Y007774D01*
X011108Y004486D02*
X011056Y004434D01*
X010990Y004593D01*
X011056Y004752D01*
X011215Y004818D01*
X011374Y004752D01*
X011440Y004593D01*
X011374Y004434D01*
X011215Y004368D01*
X011056Y004434D01*
X011117Y004494D01*
X011075Y004593D01*
X011116Y004691D01*
X011215Y004733D01*
X011313Y004692D01*
X011355Y004593D01*
X011314Y004495D01*
X011215Y004453D01*
X011117Y004494D01*
X011176Y004553D01*
X011159Y004593D01*
X011175Y004632D01*
X011215Y004649D01*
X011254Y004633D01*
X011271Y004593D01*
X011255Y004554D01*
X011215Y004537D01*
X011176Y004553D01*
X010696Y003191D02*
X010748Y003243D01*
X010814Y003084D01*
X010748Y002925D01*
X010589Y002859D01*
X010430Y002925D01*
X010364Y003084D01*
X010430Y003243D01*
X010589Y003309D01*
X010748Y003243D01*
X010687Y003183D01*
X010729Y003084D01*
X010688Y002986D01*
X010589Y002944D01*
X010491Y002985D01*
X010449Y003084D01*
X010490Y003182D01*
X010589Y003224D01*
X010687Y003183D01*
X010628Y003124D01*
X010645Y003084D01*
X010629Y003045D01*
X010589Y003028D01*
X010550Y003044D01*
X010533Y003084D01*
X010549Y003123D01*
X010589Y003140D01*
X010628Y003124D01*
X010313Y002267D02*
X010365Y002319D01*
X010431Y002160D01*
X010365Y002001D01*
X010206Y001935D01*
X010047Y002001D01*
X009981Y002160D01*
X010047Y002319D01*
X010206Y002385D01*
X010365Y002319D01*
X010304Y002259D01*
X010346Y002160D01*
X010305Y002062D01*
X010206Y002020D01*
X010108Y002061D01*
X010066Y002160D01*
X010107Y002258D01*
X010206Y002300D01*
X010304Y002259D01*
X010245Y002200D01*
X010262Y002160D01*
X010246Y002121D01*
X010206Y002104D01*
X010167Y002120D01*
X010150Y002160D01*
X010166Y002199D01*
X010206Y002216D01*
X010245Y002200D01*
X008324Y004437D02*
X008376Y004489D01*
X008410Y004321D01*
X008315Y004178D01*
X008147Y004144D01*
X008004Y004239D01*
X007970Y004407D01*
X008065Y004550D01*
X008233Y004584D01*
X008376Y004489D01*
X008306Y004442D01*
X008327Y004336D01*
X008268Y004248D01*
X008162Y004227D01*
X008074Y004286D01*
X008053Y004392D01*
X008112Y004480D01*
X008218Y004501D01*
X008306Y004442D01*
X008236Y004395D01*
X008244Y004353D01*
X008221Y004318D01*
X008179Y004310D01*
X008144Y004333D01*
X008136Y004375D01*
X008159Y004410D01*
X008201Y004418D01*
X008236Y004395D01*
X007770Y003605D02*
X007822Y003657D01*
X007856Y003489D01*
X007761Y003346D01*
X007593Y003312D01*
X007450Y003407D01*
X007416Y003575D01*
X007511Y003718D01*
X007679Y003752D01*
X007822Y003657D01*
X007752Y003610D01*
X007773Y003504D01*
X007714Y003416D01*
X007608Y003395D01*
X007520Y003454D01*
X007499Y003560D01*
X007558Y003648D01*
X007664Y003669D01*
X007752Y003610D01*
X007682Y003563D01*
X007690Y003521D01*
X007667Y003486D01*
X007625Y003478D01*
X007590Y003501D01*
X007582Y003543D01*
X007605Y003578D01*
X007647Y003586D01*
X007682Y003563D01*
X008969Y005649D02*
X008917Y005597D01*
X008883Y005765D01*
X008978Y005908D01*
X009146Y005942D01*
X009289Y005847D01*
X009323Y005679D01*
X009228Y005536D01*
X009060Y005502D01*
X008917Y005597D01*
X008987Y005644D01*
X008966Y005750D01*
X009025Y005838D01*
X009131Y005859D01*
X009219Y005800D01*
X009240Y005694D01*
X009181Y005606D01*
X009075Y005585D01*
X008987Y005644D01*
X009057Y005691D01*
X009049Y005733D01*
X009072Y005768D01*
X009114Y005776D01*
X009149Y005753D01*
X009157Y005711D01*
X009134Y005676D01*
X009092Y005668D01*
X009057Y005691D01*
X013263Y002428D02*
X013315Y002480D01*
X013411Y002336D01*
X013378Y002169D01*
X013234Y002073D01*
X013067Y002106D01*
X012971Y002250D01*
X013004Y002417D01*
X013148Y002513D01*
X013315Y002480D01*
X013268Y002410D01*
X013328Y002319D01*
X013308Y002216D01*
X013217Y002156D01*
X013114Y002176D01*
X013054Y002267D01*
X013074Y002370D01*
X013165Y002430D01*
X013268Y002410D01*
X013221Y002339D01*
X013246Y002303D01*
X013237Y002263D01*
X013201Y002238D01*
X013161Y002247D01*
X013136Y002283D01*
X013145Y002323D01*
X013181Y002348D01*
X013221Y002339D01*
X013069Y001447D02*
X013121Y001499D01*
X013217Y001355D01*
X013184Y001188D01*
X013040Y001092D01*
X012873Y001125D01*
X012777Y001269D01*
X012810Y001436D01*
X012954Y001532D01*
X013121Y001499D01*
X013074Y001429D01*
X013134Y001338D01*
X013114Y001235D01*
X013023Y001175D01*
X012920Y001195D01*
X012860Y001286D01*
X012880Y001389D01*
X012971Y001449D01*
X013074Y001429D01*
X013027Y001358D01*
X013052Y001322D01*
X013043Y001282D01*
X013007Y001257D01*
X012967Y001266D01*
X012942Y001302D01*
X012951Y001342D01*
X012987Y001367D01*
X013027Y001358D01*
X013441Y003761D02*
X013389Y003709D01*
X013293Y003853D01*
X013326Y004020D01*
X013470Y004116D01*
X013637Y004083D01*
X013733Y003939D01*
X013700Y003772D01*
X013556Y003676D01*
X013389Y003709D01*
X013436Y003779D01*
X013376Y003870D01*
X013396Y003973D01*
X013487Y004033D01*
X013590Y004013D01*
X013650Y003922D01*
X013630Y003819D01*
X013539Y003759D01*
X013436Y003779D01*
X013483Y003850D01*
X013458Y003886D01*
X013467Y003926D01*
X013503Y003951D01*
X013543Y003942D01*
X013568Y003906D01*
X013559Y003866D01*
X013523Y003841D01*
X013483Y003850D01*
X017510Y007651D02*
X017458Y007599D01*
X017314Y007694D01*
X017281Y007862D01*
X017376Y008006D01*
X017544Y008039D01*
X017688Y007944D01*
X017721Y007776D01*
X017626Y007632D01*
X017458Y007599D01*
X017475Y007682D01*
X017384Y007742D01*
X017364Y007845D01*
X017424Y007936D01*
X017527Y007956D01*
X017618Y007896D01*
X017638Y007793D01*
X017578Y007702D01*
X017475Y007682D01*
X017491Y007764D01*
X017455Y007789D01*
X017446Y007829D01*
X017471Y007865D01*
X017511Y007874D01*
X017547Y007849D01*
X017556Y007809D01*
X017531Y007773D01*
X017491Y007764D01*
X019049Y008063D02*
X018890Y008129D01*
X018824Y008288D01*
X018890Y008447D01*
X019049Y008513D01*
X019208Y008447D01*
X019274Y008288D01*
X019208Y008129D01*
X019049Y008063D01*
X019049Y008148D01*
X018950Y008190D01*
X018909Y008288D01*
X018951Y008387D01*
X019049Y008428D01*
X019148Y008386D01*
X019189Y008288D01*
X019147Y008189D01*
X019049Y008148D01*
X019049Y008232D01*
X019009Y008249D01*
X018993Y008288D01*
X019010Y008328D01*
X019049Y008344D01*
X019089Y008327D01*
X019105Y008288D01*
X019088Y008248D01*
X019049Y008232D01*
X020462Y008879D02*
X020514Y008827D01*
X020345Y008860D01*
X020250Y009003D01*
X020283Y009172D01*
X020426Y009267D01*
X020595Y009234D01*
X020690Y009091D01*
X020657Y008922D01*
X020514Y008827D01*
X020498Y008910D01*
X020392Y008931D01*
X020333Y009019D01*
X020354Y009125D01*
X020442Y009184D01*
X020548Y009163D01*
X020607Y009075D01*
X020586Y008969D01*
X020498Y008910D01*
X020481Y008993D01*
X020439Y009001D01*
X020416Y009036D01*
X020424Y009078D01*
X020459Y009101D01*
X020501Y009093D01*
X020524Y009058D01*
X020516Y009016D01*
X020481Y008993D01*
X021753Y009920D02*
X021805Y009868D01*
X021633Y009868D01*
X021512Y009989D01*
X021512Y010161D01*
X021633Y010282D01*
X021805Y010282D01*
X021926Y010161D01*
X021926Y009989D01*
X021805Y009868D01*
X021773Y009946D01*
X021665Y009946D01*
X021590Y010021D01*
X021590Y010129D01*
X021665Y010204D01*
X021773Y010204D01*
X021848Y010129D01*
X021848Y010021D01*
X021773Y009946D01*
X021740Y010024D01*
X021698Y010024D01*
X021668Y010054D01*
X021668Y010096D01*
X021698Y010126D01*
X021740Y010126D01*
X021770Y010096D01*
X021770Y010054D01*
X021740Y010024D01*
X022818Y011188D02*
X022870Y011136D01*
X022702Y011102D01*
X022559Y011197D01*
X022525Y011365D01*
X022620Y011508D01*
X022788Y011542D01*
X022931Y011447D01*
X022965Y011279D01*
X022870Y011136D01*
X022823Y011206D01*
X022717Y011185D01*
X022629Y011244D01*
X022608Y011350D01*
X022667Y011438D01*
X022773Y011459D01*
X022861Y011400D01*
X022882Y011294D01*
X022823Y011206D01*
X022776Y011276D01*
X022734Y011268D01*
X022699Y011291D01*
X022691Y011333D01*
X022714Y011368D01*
X022756Y011376D01*
X022791Y011353D01*
X022799Y011311D01*
X022776Y011276D01*
X023613Y012638D02*
X023665Y012586D01*
X023506Y012520D01*
X023347Y012586D01*
X023281Y012745D01*
X023347Y012904D01*
X023506Y012970D01*
X023665Y012904D01*
X023731Y012745D01*
X023665Y012586D01*
X023605Y012647D01*
X023506Y012605D01*
X023408Y012646D01*
X023366Y012745D01*
X023407Y012843D01*
X023506Y012885D01*
X023604Y012844D01*
X023646Y012745D01*
X023605Y012647D01*
X023546Y012706D01*
X023506Y012689D01*
X023467Y012705D01*
X023450Y012745D01*
X023466Y012784D01*
X023506Y012801D01*
X023545Y012785D01*
X023562Y012745D01*
X023546Y012706D01*
X024110Y014218D02*
X024162Y014166D01*
X024018Y014070D01*
X023851Y014103D01*
X023755Y014247D01*
X023788Y014414D01*
X023932Y014510D01*
X024099Y014477D01*
X024195Y014333D01*
X024162Y014166D01*
X024092Y014213D01*
X024001Y014153D01*
X023898Y014173D01*
X023838Y014264D01*
X023858Y014367D01*
X023949Y014427D01*
X024052Y014407D01*
X024112Y014316D01*
X024092Y014213D01*
X024021Y014260D01*
X023985Y014235D01*
X023945Y014244D01*
X023920Y014280D01*
X023929Y014320D01*
X023965Y014345D01*
X024005Y014336D01*
X024030Y014300D01*
X024021Y014260D01*
X027309Y011108D02*
X027361Y011056D01*
X027202Y010990D01*
X027043Y011056D01*
X026977Y011215D01*
X027043Y011374D01*
X027202Y011440D01*
X027361Y011374D01*
X027427Y011215D01*
X027361Y011056D01*
X027301Y011117D01*
X027202Y011075D01*
X027104Y011116D01*
X027062Y011215D01*
X027103Y011313D01*
X027202Y011355D01*
X027300Y011314D01*
X027342Y011215D01*
X027301Y011117D01*
X027242Y011176D01*
X027202Y011159D01*
X027163Y011175D01*
X027146Y011215D01*
X027162Y011254D01*
X027202Y011271D01*
X027241Y011255D01*
X027258Y011215D01*
X027242Y011176D01*
X028604Y010696D02*
X028552Y010748D01*
X028711Y010814D01*
X028870Y010748D01*
X028936Y010589D01*
X028870Y010430D01*
X028711Y010364D01*
X028552Y010430D01*
X028486Y010589D01*
X028552Y010748D01*
X028612Y010687D01*
X028711Y010729D01*
X028809Y010688D01*
X028851Y010589D01*
X028810Y010491D01*
X028711Y010449D01*
X028613Y010490D01*
X028571Y010589D01*
X028612Y010687D01*
X028671Y010628D01*
X028711Y010645D01*
X028750Y010629D01*
X028767Y010589D01*
X028751Y010550D01*
X028711Y010533D01*
X028672Y010549D01*
X028655Y010589D01*
X028671Y010628D01*
X029528Y010313D02*
X029476Y010365D01*
X029635Y010431D01*
X029794Y010365D01*
X029860Y010206D01*
X029794Y010047D01*
X029635Y009981D01*
X029476Y010047D01*
X029410Y010206D01*
X029476Y010365D01*
X029536Y010304D01*
X029635Y010346D01*
X029733Y010305D01*
X029775Y010206D01*
X029734Y010108D01*
X029635Y010066D01*
X029537Y010107D01*
X029495Y010206D01*
X029536Y010304D01*
X029595Y010245D01*
X029635Y010262D01*
X029674Y010246D01*
X029691Y010206D01*
X029675Y010167D01*
X029635Y010150D01*
X029596Y010166D01*
X029579Y010206D01*
X029595Y010245D01*
X027357Y008324D02*
X027305Y008376D01*
X027473Y008410D01*
X027616Y008315D01*
X027650Y008147D01*
X027555Y008004D01*
X027387Y007970D01*
X027244Y008065D01*
X027210Y008233D01*
X027305Y008376D01*
X027352Y008306D01*
X027458Y008327D01*
X027546Y008268D01*
X027567Y008162D01*
X027508Y008074D01*
X027402Y008053D01*
X027314Y008112D01*
X027293Y008218D01*
X027352Y008306D01*
X027399Y008236D01*
X027441Y008244D01*
X027476Y008221D01*
X027484Y008179D01*
X027461Y008144D01*
X027419Y008136D01*
X027384Y008159D01*
X027376Y008201D01*
X027399Y008236D01*
X028189Y007770D02*
X028137Y007822D01*
X028305Y007856D01*
X028448Y007761D01*
X028482Y007593D01*
X028387Y007450D01*
X028219Y007416D01*
X028076Y007511D01*
X028042Y007679D01*
X028137Y007822D01*
X028184Y007752D01*
X028290Y007773D01*
X028378Y007714D01*
X028399Y007608D01*
X028340Y007520D01*
X028234Y007499D01*
X028146Y007558D01*
X028125Y007664D01*
X028184Y007752D01*
X028231Y007682D01*
X028273Y007690D01*
X028308Y007667D01*
X028316Y007625D01*
X028293Y007590D01*
X028251Y007582D01*
X028216Y007605D01*
X028208Y007647D01*
X028231Y007682D01*
X026146Y008969D02*
X026198Y008917D01*
X026030Y008883D01*
X025887Y008978D01*
X025853Y009146D01*
X025948Y009289D01*
X026116Y009323D01*
X026259Y009228D01*
X026293Y009060D01*
X026198Y008917D01*
X026151Y008987D01*
X026045Y008966D01*
X025957Y009025D01*
X025936Y009131D01*
X025995Y009219D01*
X026101Y009240D01*
X026189Y009181D01*
X026210Y009075D01*
X026151Y008987D01*
X026104Y009057D01*
X026062Y009049D01*
X026027Y009072D01*
X026019Y009114D01*
X026042Y009149D01*
X026084Y009157D01*
X026119Y009134D01*
X026127Y009092D01*
X026104Y009057D01*
X024582Y007092D02*
X024634Y007040D01*
X024462Y007040D01*
X024341Y007161D01*
X024341Y007333D01*
X024462Y007454D01*
X024634Y007454D01*
X024755Y007333D01*
X024755Y007161D01*
X024634Y007040D01*
X024602Y007118D01*
X024494Y007118D01*
X024419Y007193D01*
X024419Y007301D01*
X024494Y007376D01*
X024602Y007376D01*
X024677Y007301D01*
X024677Y007193D01*
X024602Y007118D01*
X024569Y007196D01*
X024527Y007196D01*
X024497Y007226D01*
X024497Y007268D01*
X024527Y007298D01*
X024569Y007298D01*
X024599Y007268D01*
X024599Y007226D01*
X024569Y007196D01*
X025671Y006244D02*
X025619Y006296D01*
X025791Y006296D01*
X025912Y006175D01*
X025912Y006003D01*
X025791Y005882D01*
X025619Y005882D01*
X025498Y006003D01*
X025498Y006175D01*
X025619Y006296D01*
X025651Y006218D01*
X025759Y006218D01*
X025834Y006143D01*
X025834Y006035D01*
X025759Y005960D01*
X025651Y005960D01*
X025576Y006035D01*
X025576Y006143D01*
X025651Y006218D01*
X025684Y006140D01*
X025726Y006140D01*
X025756Y006110D01*
X025756Y006068D01*
X025726Y006038D01*
X025684Y006038D01*
X025654Y006068D01*
X025654Y006110D01*
X025684Y006140D01*
X026378Y005537D02*
X026326Y005589D01*
X026498Y005589D01*
X026619Y005468D01*
X026619Y005296D01*
X026498Y005175D01*
X026326Y005175D01*
X026205Y005296D01*
X026205Y005468D01*
X026326Y005589D01*
X026358Y005511D01*
X026466Y005511D01*
X026541Y005436D01*
X026541Y005328D01*
X026466Y005253D01*
X026358Y005253D01*
X026283Y005328D01*
X026283Y005436D01*
X026358Y005511D01*
X026391Y005433D01*
X026433Y005433D01*
X026463Y005403D01*
X026463Y005361D01*
X026433Y005331D01*
X026391Y005331D01*
X026361Y005361D01*
X026361Y005403D01*
X026391Y005433D01*
X024168Y003701D02*
X024116Y003753D01*
X024285Y003720D01*
X024380Y003577D01*
X024347Y003408D01*
X024204Y003313D01*
X024035Y003346D01*
X023940Y003489D01*
X023973Y003658D01*
X024116Y003753D01*
X024132Y003670D01*
X024238Y003649D01*
X024297Y003561D01*
X024276Y003455D01*
X024188Y003396D01*
X024082Y003417D01*
X024023Y003505D01*
X024044Y003611D01*
X024132Y003670D01*
X024149Y003587D01*
X024191Y003579D01*
X024214Y003544D01*
X024206Y003502D01*
X024171Y003479D01*
X024129Y003487D01*
X024106Y003522D01*
X024114Y003564D01*
X024149Y003587D01*
X023611Y004532D02*
X023559Y004584D01*
X023728Y004551D01*
X023823Y004408D01*
X023790Y004239D01*
X023647Y004144D01*
X023478Y004177D01*
X023383Y004320D01*
X023416Y004489D01*
X023559Y004584D01*
X023575Y004501D01*
X023681Y004480D01*
X023740Y004392D01*
X023719Y004286D01*
X023631Y004227D01*
X023525Y004248D01*
X023466Y004336D01*
X023487Y004442D01*
X023575Y004501D01*
X023592Y004418D01*
X023634Y004410D01*
X023657Y004375D01*
X023649Y004333D01*
X023614Y004310D01*
X023572Y004318D01*
X023549Y004353D01*
X023557Y004395D01*
X023592Y004418D01*
X022687Y005555D02*
X022739Y005503D01*
X022570Y005536D01*
X022475Y005679D01*
X022508Y005848D01*
X022651Y005943D01*
X022820Y005910D01*
X022915Y005767D01*
X022882Y005598D01*
X022739Y005503D01*
X022723Y005586D01*
X022617Y005607D01*
X022558Y005695D01*
X022579Y005801D01*
X022667Y005860D01*
X022773Y005839D01*
X022832Y005751D01*
X022811Y005645D01*
X022723Y005586D01*
X022706Y005669D01*
X022664Y005677D01*
X022641Y005712D01*
X022649Y005754D01*
X022684Y005777D01*
X022726Y005769D01*
X022749Y005734D01*
X022741Y005692D01*
X022706Y005669D01*
X020580Y004368D02*
X020421Y004434D01*
X020355Y004593D01*
X020421Y004752D01*
X020580Y004818D01*
X020739Y004752D01*
X020805Y004593D01*
X020739Y004434D01*
X020580Y004368D01*
X020580Y004453D01*
X020481Y004495D01*
X020440Y004593D01*
X020482Y004692D01*
X020580Y004733D01*
X020679Y004691D01*
X020720Y004593D01*
X020678Y004494D01*
X020580Y004453D01*
X020580Y004537D01*
X020540Y004554D01*
X020524Y004593D01*
X020541Y004633D01*
X020580Y004649D01*
X020620Y004632D01*
X020636Y004593D01*
X020619Y004553D01*
X020580Y004537D01*
X021206Y003309D02*
X021365Y003243D01*
X021431Y003084D01*
X021365Y002925D01*
X021206Y002859D01*
X021047Y002925D01*
X020981Y003084D01*
X021047Y003243D01*
X021206Y003309D01*
X021206Y003224D01*
X021305Y003182D01*
X021346Y003084D01*
X021304Y002985D01*
X021206Y002944D01*
X021107Y002986D01*
X021066Y003084D01*
X021108Y003183D01*
X021206Y003224D01*
X021206Y003140D01*
X021246Y003123D01*
X021262Y003084D01*
X021245Y003044D01*
X021206Y003028D01*
X021166Y003045D01*
X021150Y003084D01*
X021167Y003124D01*
X021206Y003140D01*
X021589Y002385D02*
X021748Y002319D01*
X021814Y002160D01*
X021748Y002001D01*
X021589Y001935D01*
X021430Y002001D01*
X021364Y002160D01*
X021430Y002319D01*
X021589Y002385D01*
X021589Y002300D01*
X021688Y002258D01*
X021729Y002160D01*
X021687Y002061D01*
X021589Y002020D01*
X021490Y002062D01*
X021449Y002160D01*
X021491Y002259D01*
X021589Y002300D01*
X021589Y002216D01*
X021629Y002199D01*
X021645Y002160D01*
X021628Y002120D01*
X021589Y002104D01*
X021549Y002121D01*
X021533Y002160D01*
X021550Y002200D01*
X021589Y002216D01*
X018789Y001480D02*
X018841Y001532D01*
X018985Y001437D01*
X019018Y001269D01*
X018923Y001125D01*
X018755Y001092D01*
X018611Y001187D01*
X018578Y001355D01*
X018673Y001499D01*
X018841Y001532D01*
X018824Y001449D01*
X018915Y001389D01*
X018935Y001286D01*
X018875Y001195D01*
X018772Y001175D01*
X018681Y001235D01*
X018661Y001338D01*
X018721Y001429D01*
X018824Y001449D01*
X018808Y001367D01*
X018844Y001342D01*
X018853Y001302D01*
X018828Y001266D01*
X018788Y001257D01*
X018752Y001282D01*
X018743Y001322D01*
X018768Y001358D01*
X018808Y001367D01*
X018593Y002461D02*
X018645Y002513D01*
X018789Y002418D01*
X018822Y002250D01*
X018727Y002106D01*
X018559Y002073D01*
X018415Y002168D01*
X018382Y002336D01*
X018477Y002480D01*
X018645Y002513D01*
X018628Y002430D01*
X018719Y002370D01*
X018739Y002267D01*
X018679Y002176D01*
X018576Y002156D01*
X018485Y002216D01*
X018465Y002319D01*
X018525Y002410D01*
X018628Y002430D01*
X018612Y002348D01*
X018648Y002323D01*
X018657Y002283D01*
X018632Y002247D01*
X018592Y002238D01*
X018556Y002263D01*
X018547Y002303D01*
X018572Y002339D01*
X018612Y002348D01*
X018294Y003729D02*
X018242Y003677D01*
X018098Y003772D01*
X018065Y003940D01*
X018160Y004084D01*
X018328Y004117D01*
X018472Y004022D01*
X018505Y003854D01*
X018410Y003710D01*
X018242Y003677D01*
X018259Y003760D01*
X018168Y003820D01*
X018148Y003923D01*
X018208Y004014D01*
X018311Y004034D01*
X018402Y003974D01*
X018422Y003871D01*
X018362Y003780D01*
X018259Y003760D01*
X018275Y003842D01*
X018239Y003867D01*
X018230Y003907D01*
X018255Y003943D01*
X018295Y003952D01*
X018331Y003927D01*
X018340Y003887D01*
X018315Y003851D01*
X018275Y003842D01*
X028034Y013441D02*
X028086Y013389D01*
X027942Y013293D01*
X027775Y013326D01*
X027679Y013470D01*
X027712Y013637D01*
X027856Y013733D01*
X028023Y013700D01*
X028119Y013556D01*
X028086Y013389D01*
X028016Y013436D01*
X027925Y013376D01*
X027822Y013396D01*
X027762Y013487D01*
X027782Y013590D01*
X027873Y013650D01*
X027976Y013630D01*
X028036Y013539D01*
X028016Y013436D01*
X027945Y013483D01*
X027909Y013458D01*
X027869Y013467D01*
X027844Y013503D01*
X027853Y013543D01*
X027889Y013568D01*
X027929Y013559D01*
X027954Y013523D01*
X027945Y013483D01*
X029366Y013263D02*
X029314Y013315D01*
X029458Y013411D01*
X029625Y013378D01*
X029721Y013234D01*
X029688Y013067D01*
X029544Y012971D01*
X029377Y013004D01*
X029281Y013148D01*
X029314Y013315D01*
X029384Y013268D01*
X029475Y013328D01*
X029578Y013308D01*
X029638Y013217D01*
X029618Y013114D01*
X029527Y013054D01*
X029424Y013074D01*
X029364Y013165D01*
X029384Y013268D01*
X029455Y013221D01*
X029491Y013246D01*
X029531Y013237D01*
X029556Y013201D01*
X029547Y013161D01*
X029511Y013136D01*
X029471Y013145D01*
X029446Y013181D01*
X029455Y013221D01*
X030347Y013069D02*
X030295Y013121D01*
X030439Y013217D01*
X030606Y013184D01*
X030702Y013040D01*
X030669Y012873D01*
X030525Y012777D01*
X030358Y012810D01*
X030262Y012954D01*
X030295Y013121D01*
X030365Y013074D01*
X030456Y013134D01*
X030559Y013114D01*
X030619Y013023D01*
X030599Y012920D01*
X030508Y012860D01*
X030405Y012880D01*
X030345Y012971D01*
X030365Y013074D01*
X030436Y013027D01*
X030472Y013052D01*
X030512Y013043D01*
X030537Y013007D01*
X030528Y012967D01*
X030492Y012942D01*
X030452Y012951D01*
X030427Y012987D01*
X030436Y013027D01*
X028066Y018294D02*
X028118Y018242D01*
X028023Y018098D01*
X027855Y018065D01*
X027711Y018160D01*
X027678Y018328D01*
X027773Y018472D01*
X027941Y018505D01*
X028085Y018410D01*
X028118Y018242D01*
X028035Y018259D01*
X027975Y018168D01*
X027872Y018148D01*
X027781Y018208D01*
X027761Y018311D01*
X027821Y018402D01*
X027924Y018422D01*
X028015Y018362D01*
X028035Y018259D01*
X027953Y018275D01*
X027928Y018239D01*
X027888Y018230D01*
X027852Y018255D01*
X027843Y018295D01*
X027868Y018331D01*
X027908Y018340D01*
X027944Y018315D01*
X027953Y018275D01*
X029333Y018593D02*
X029281Y018645D01*
X029376Y018789D01*
X029544Y018822D01*
X029688Y018727D01*
X029721Y018559D01*
X029626Y018415D01*
X029458Y018382D01*
X029314Y018477D01*
X029281Y018645D01*
X029364Y018628D01*
X029424Y018719D01*
X029527Y018739D01*
X029618Y018679D01*
X029638Y018576D01*
X029578Y018485D01*
X029475Y018465D01*
X029384Y018525D01*
X029364Y018628D01*
X029446Y018612D01*
X029471Y018648D01*
X029511Y018657D01*
X029547Y018632D01*
X029556Y018592D01*
X029531Y018556D01*
X029491Y018547D01*
X029455Y018572D01*
X029446Y018612D01*
X030314Y018789D02*
X030262Y018841D01*
X030357Y018985D01*
X030525Y019018D01*
X030669Y018923D01*
X030702Y018755D01*
X030607Y018611D01*
X030439Y018578D01*
X030295Y018673D01*
X030262Y018841D01*
X030345Y018824D01*
X030405Y018915D01*
X030508Y018935D01*
X030599Y018875D01*
X030619Y018772D01*
X030559Y018681D01*
X030456Y018661D01*
X030365Y018721D01*
X030345Y018824D01*
X030427Y018808D01*
X030452Y018844D01*
X030492Y018853D01*
X030528Y018828D01*
X030537Y018788D01*
X030512Y018752D01*
X030472Y018743D01*
X030436Y018768D01*
X030427Y018808D01*
X028486Y021206D02*
X028552Y021365D01*
X028711Y021431D01*
X028870Y021365D01*
X028936Y021206D01*
X028870Y021047D01*
X028711Y020981D01*
X028552Y021047D01*
X028486Y021206D01*
X028571Y021206D01*
X028613Y021305D01*
X028711Y021346D01*
X028810Y021304D01*
X028851Y021206D01*
X028809Y021107D01*
X028711Y021066D01*
X028612Y021108D01*
X028571Y021206D01*
X028655Y021206D01*
X028672Y021246D01*
X028711Y021262D01*
X028751Y021245D01*
X028767Y021206D01*
X028750Y021166D01*
X028711Y021150D01*
X028671Y021167D01*
X028655Y021206D01*
X029410Y021589D02*
X029476Y021748D01*
X029635Y021814D01*
X029794Y021748D01*
X029860Y021589D01*
X029794Y021430D01*
X029635Y021364D01*
X029476Y021430D01*
X029410Y021589D01*
X029495Y021589D01*
X029537Y021688D01*
X029635Y021729D01*
X029734Y021687D01*
X029775Y021589D01*
X029733Y021490D01*
X029635Y021449D01*
X029536Y021491D01*
X029495Y021589D01*
X029579Y021589D01*
X029596Y021629D01*
X029635Y021645D01*
X029675Y021628D01*
X029691Y021589D01*
X029674Y021549D01*
X029635Y021533D01*
X029595Y021550D01*
X029579Y021589D01*
X027263Y023611D02*
X027211Y023559D01*
X027244Y023728D01*
X027387Y023823D01*
X027556Y023790D01*
X027651Y023647D01*
X027618Y023478D01*
X027475Y023383D01*
X027306Y023416D01*
X027211Y023559D01*
X027294Y023575D01*
X027315Y023681D01*
X027403Y023740D01*
X027509Y023719D01*
X027568Y023631D01*
X027547Y023525D01*
X027459Y023466D01*
X027353Y023487D01*
X027294Y023575D01*
X027377Y023592D01*
X027385Y023634D01*
X027420Y023657D01*
X027462Y023649D01*
X027485Y023614D01*
X027477Y023572D01*
X027442Y023549D01*
X027400Y023557D01*
X027377Y023592D01*
X028094Y024168D02*
X028042Y024116D01*
X028075Y024285D01*
X028218Y024380D01*
X028387Y024347D01*
X028482Y024204D01*
X028449Y024035D01*
X028306Y023940D01*
X028137Y023973D01*
X028042Y024116D01*
X028125Y024132D01*
X028146Y024238D01*
X028234Y024297D01*
X028340Y024276D01*
X028399Y024188D01*
X028378Y024082D01*
X028290Y024023D01*
X028184Y024044D01*
X028125Y024132D01*
X028208Y024149D01*
X028216Y024191D01*
X028251Y024214D01*
X028293Y024206D01*
X028316Y024171D01*
X028308Y024129D01*
X028273Y024106D01*
X028231Y024114D01*
X028208Y024149D01*
X026239Y022687D02*
X026291Y022739D01*
X026258Y022570D01*
X026115Y022475D01*
X025946Y022508D01*
X025851Y022651D01*
X025884Y022820D01*
X026027Y022915D01*
X026196Y022882D01*
X026291Y022739D01*
X026208Y022723D01*
X026187Y022617D01*
X026099Y022558D01*
X025993Y022579D01*
X025934Y022667D01*
X025955Y022773D01*
X026043Y022832D01*
X026149Y022811D01*
X026208Y022723D01*
X026125Y022706D01*
X026117Y022664D01*
X026082Y022641D01*
X026040Y022649D01*
X026017Y022684D01*
X026025Y022726D01*
X026060Y022749D01*
X026102Y022741D01*
X026125Y022706D01*
X024703Y024582D02*
X024755Y024634D01*
X024755Y024462D01*
X024634Y024341D01*
X024462Y024341D01*
X024341Y024462D01*
X024341Y024634D01*
X024462Y024755D01*
X024634Y024755D01*
X024755Y024634D01*
X024677Y024602D01*
X024677Y024494D01*
X024602Y024419D01*
X024494Y024419D01*
X024419Y024494D01*
X024419Y024602D01*
X024494Y024677D01*
X024602Y024677D01*
X024677Y024602D01*
X024599Y024569D01*
X024599Y024527D01*
X024569Y024497D01*
X024527Y024497D01*
X024497Y024527D01*
X024497Y024569D01*
X024527Y024599D01*
X024569Y024599D01*
X024599Y024569D01*
X025550Y025671D02*
X025498Y025619D01*
X025498Y025791D01*
X025619Y025912D01*
X025791Y025912D01*
X025912Y025791D01*
X025912Y025619D01*
X025791Y025498D01*
X025619Y025498D01*
X025498Y025619D01*
X025576Y025651D01*
X025576Y025759D01*
X025651Y025834D01*
X025759Y025834D01*
X025834Y025759D01*
X025834Y025651D01*
X025759Y025576D01*
X025651Y025576D01*
X025576Y025651D01*
X025654Y025684D01*
X025654Y025726D01*
X025684Y025756D01*
X025726Y025756D01*
X025756Y025726D01*
X025756Y025684D01*
X025726Y025654D01*
X025684Y025654D01*
X025654Y025684D01*
X026257Y026378D02*
X026205Y026326D01*
X026205Y026498D01*
X026326Y026619D01*
X026498Y026619D01*
X026619Y026498D01*
X026619Y026326D01*
X026498Y026205D01*
X026326Y026205D01*
X026205Y026326D01*
X026283Y026358D01*
X026283Y026466D01*
X026358Y026541D01*
X026466Y026541D01*
X026541Y026466D01*
X026541Y026358D01*
X026466Y026283D01*
X026358Y026283D01*
X026283Y026358D01*
X026361Y026391D01*
X026361Y026433D01*
X026391Y026463D01*
X026433Y026463D01*
X026463Y026433D01*
X026463Y026391D01*
X026433Y026361D01*
X026391Y026361D01*
X026361Y026391D01*
X024025Y028189D02*
X023973Y028137D01*
X023939Y028305D01*
X024034Y028448D01*
X024202Y028482D01*
X024345Y028387D01*
X024379Y028219D01*
X024284Y028076D01*
X024116Y028042D01*
X023973Y028137D01*
X024043Y028184D01*
X024022Y028290D01*
X024081Y028378D01*
X024187Y028399D01*
X024275Y028340D01*
X024296Y028234D01*
X024237Y028146D01*
X024131Y028125D01*
X024043Y028184D01*
X024113Y028231D01*
X024105Y028273D01*
X024128Y028308D01*
X024170Y028316D01*
X024205Y028293D01*
X024213Y028251D01*
X024190Y028216D01*
X024148Y028208D01*
X024113Y028231D01*
X023470Y027357D02*
X023418Y027305D01*
X023384Y027473D01*
X023479Y027616D01*
X023647Y027650D01*
X023790Y027555D01*
X023824Y027387D01*
X023729Y027244D01*
X023561Y027210D01*
X023418Y027305D01*
X023488Y027352D01*
X023467Y027458D01*
X023526Y027546D01*
X023632Y027567D01*
X023720Y027508D01*
X023741Y027402D01*
X023682Y027314D01*
X023576Y027293D01*
X023488Y027352D01*
X023558Y027399D01*
X023550Y027441D01*
X023573Y027476D01*
X023615Y027484D01*
X023650Y027461D01*
X023658Y027419D01*
X023635Y027384D01*
X023593Y027376D01*
X023558Y027399D01*
X022826Y026146D02*
X022878Y026198D01*
X022912Y026030D01*
X022817Y025887D01*
X022649Y025853D01*
X022506Y025948D01*
X022472Y026116D01*
X022567Y026259D01*
X022735Y026293D01*
X022878Y026198D01*
X022808Y026151D01*
X022829Y026045D01*
X022770Y025957D01*
X022664Y025936D01*
X022576Y025995D01*
X022555Y026101D01*
X022614Y026189D01*
X022720Y026210D01*
X022808Y026151D01*
X022738Y026104D01*
X022746Y026062D01*
X022723Y026027D01*
X022681Y026019D01*
X022646Y026042D01*
X022638Y026084D01*
X022661Y026119D01*
X022703Y026127D01*
X022738Y026104D01*
X020687Y027309D02*
X020739Y027361D01*
X020805Y027202D01*
X020739Y027043D01*
X020580Y026977D01*
X020421Y027043D01*
X020355Y027202D01*
X020421Y027361D01*
X020580Y027427D01*
X020739Y027361D01*
X020678Y027301D01*
X020720Y027202D01*
X020679Y027104D01*
X020580Y027062D01*
X020482Y027103D01*
X020440Y027202D01*
X020481Y027300D01*
X020580Y027342D01*
X020678Y027301D01*
X020619Y027242D01*
X020636Y027202D01*
X020620Y027163D01*
X020580Y027146D01*
X020541Y027162D01*
X020524Y027202D01*
X020540Y027241D01*
X020580Y027258D01*
X020619Y027242D01*
X021099Y028604D02*
X021047Y028552D01*
X020981Y028711D01*
X021047Y028870D01*
X021206Y028936D01*
X021365Y028870D01*
X021431Y028711D01*
X021365Y028552D01*
X021206Y028486D01*
X021047Y028552D01*
X021108Y028612D01*
X021066Y028711D01*
X021107Y028809D01*
X021206Y028851D01*
X021304Y028810D01*
X021346Y028711D01*
X021305Y028613D01*
X021206Y028571D01*
X021108Y028612D01*
X021167Y028671D01*
X021150Y028711D01*
X021166Y028750D01*
X021206Y028767D01*
X021245Y028751D01*
X021262Y028711D01*
X021246Y028672D01*
X021206Y028655D01*
X021167Y028671D01*
X021482Y029528D02*
X021430Y029476D01*
X021364Y029635D01*
X021430Y029794D01*
X021589Y029860D01*
X021748Y029794D01*
X021814Y029635D01*
X021748Y029476D01*
X021589Y029410D01*
X021430Y029476D01*
X021491Y029536D01*
X021449Y029635D01*
X021490Y029733D01*
X021589Y029775D01*
X021687Y029734D01*
X021729Y029635D01*
X021688Y029537D01*
X021589Y029495D01*
X021491Y029536D01*
X021550Y029595D01*
X021533Y029635D01*
X021549Y029674D01*
X021589Y029691D01*
X021628Y029675D01*
X021645Y029635D01*
X021629Y029596D01*
X021589Y029579D01*
X021550Y029595D01*
X018726Y030347D02*
X018674Y030295D01*
X018578Y030439D01*
X018611Y030606D01*
X018755Y030702D01*
X018922Y030669D01*
X019018Y030525D01*
X018985Y030358D01*
X018841Y030262D01*
X018674Y030295D01*
X018721Y030365D01*
X018661Y030456D01*
X018681Y030559D01*
X018772Y030619D01*
X018875Y030599D01*
X018935Y030508D01*
X018915Y030405D01*
X018824Y030345D01*
X018721Y030365D01*
X018768Y030436D01*
X018743Y030472D01*
X018752Y030512D01*
X018788Y030537D01*
X018828Y030528D01*
X018853Y030492D01*
X018844Y030452D01*
X018808Y030427D01*
X018768Y030436D01*
X018531Y029366D02*
X018479Y029314D01*
X018383Y029458D01*
X018416Y029625D01*
X018560Y029721D01*
X018727Y029688D01*
X018823Y029544D01*
X018790Y029377D01*
X018646Y029281D01*
X018479Y029314D01*
X018526Y029384D01*
X018466Y029475D01*
X018486Y029578D01*
X018577Y029638D01*
X018680Y029618D01*
X018740Y029527D01*
X018720Y029424D01*
X018629Y029364D01*
X018526Y029384D01*
X018573Y029455D01*
X018548Y029491D01*
X018557Y029531D01*
X018593Y029556D01*
X018633Y029547D01*
X018658Y029511D01*
X018649Y029471D01*
X018613Y029446D01*
X018573Y029455D01*
X018354Y028034D02*
X018406Y028086D01*
X018502Y027942D01*
X018469Y027775D01*
X018325Y027679D01*
X018158Y027712D01*
X018062Y027856D01*
X018095Y028023D01*
X018239Y028119D01*
X018406Y028086D01*
X018359Y028016D01*
X018419Y027925D01*
X018399Y027822D01*
X018308Y027762D01*
X018205Y027782D01*
X018145Y027873D01*
X018165Y027976D01*
X018256Y028036D01*
X018359Y028016D01*
X018312Y027945D01*
X018337Y027909D01*
X018328Y027869D01*
X018292Y027844D01*
X018252Y027853D01*
X018227Y027889D01*
X018236Y027929D01*
X018272Y027954D01*
X018312Y027945D01*
X017577Y024110D02*
X017629Y024162D01*
X017725Y024018D01*
X017692Y023851D01*
X017548Y023755D01*
X017381Y023788D01*
X017285Y023932D01*
X017318Y024099D01*
X017462Y024195D01*
X017629Y024162D01*
X017582Y024092D01*
X017642Y024001D01*
X017622Y023898D01*
X017531Y023838D01*
X017428Y023858D01*
X017368Y023949D01*
X017388Y024052D01*
X017479Y024112D01*
X017582Y024092D01*
X017535Y024021D01*
X017560Y023985D01*
X017551Y023945D01*
X017515Y023920D01*
X017475Y023929D01*
X017450Y023965D01*
X017459Y024005D01*
X017495Y024030D01*
X017535Y024021D01*
X019156Y023613D02*
X019208Y023665D01*
X019274Y023506D01*
X019208Y023347D01*
X019049Y023281D01*
X018890Y023347D01*
X018824Y023506D01*
X018890Y023665D01*
X019049Y023731D01*
X019208Y023665D01*
X019147Y023605D01*
X019189Y023506D01*
X019148Y023408D01*
X019049Y023366D01*
X018951Y023407D01*
X018909Y023506D01*
X018950Y023604D01*
X019049Y023646D01*
X019147Y023605D01*
X019088Y023546D01*
X019105Y023506D01*
X019089Y023467D01*
X019049Y023450D01*
X019010Y023466D01*
X018993Y023506D01*
X019009Y023545D01*
X019049Y023562D01*
X019088Y023546D01*
X020607Y022818D02*
X020659Y022870D01*
X020693Y022702D01*
X020598Y022559D01*
X020430Y022525D01*
X020287Y022620D01*
X020253Y022788D01*
X020348Y022931D01*
X020516Y022965D01*
X020659Y022870D01*
X020589Y022823D01*
X020610Y022717D01*
X020551Y022629D01*
X020445Y022608D01*
X020357Y022667D01*
X020336Y022773D01*
X020395Y022861D01*
X020501Y022882D01*
X020589Y022823D01*
X020519Y022776D01*
X020527Y022734D01*
X020504Y022699D01*
X020462Y022691D01*
X020427Y022714D01*
X020419Y022756D01*
X020442Y022791D01*
X020484Y022799D01*
X020519Y022776D01*
X021874Y021753D02*
X021926Y021805D01*
X021926Y021633D01*
X021805Y021512D01*
X021633Y021512D01*
X021512Y021633D01*
X021512Y021805D01*
X021633Y021926D01*
X021805Y021926D01*
X021926Y021805D01*
X021848Y021773D01*
X021848Y021665D01*
X021773Y021590D01*
X021665Y021590D01*
X021590Y021665D01*
X021590Y021773D01*
X021665Y021848D01*
X021773Y021848D01*
X021848Y021773D01*
X021770Y021740D01*
X021770Y021698D01*
X021740Y021668D01*
X021698Y021668D01*
X021668Y021698D01*
X021668Y021740D01*
X021698Y021770D01*
X021740Y021770D01*
X021770Y021740D01*
X022915Y020462D02*
X022967Y020514D01*
X022934Y020345D01*
X022791Y020250D01*
X022622Y020283D01*
X022527Y020426D01*
X022560Y020595D01*
X022703Y020690D01*
X022872Y020657D01*
X022967Y020514D01*
X022884Y020498D01*
X022863Y020392D01*
X022775Y020333D01*
X022669Y020354D01*
X022610Y020442D01*
X022631Y020548D01*
X022719Y020607D01*
X022825Y020586D01*
X022884Y020498D01*
X022801Y020481D01*
X022793Y020439D01*
X022758Y020416D01*
X022716Y020424D01*
X022693Y020459D01*
X022701Y020501D01*
X022736Y020524D01*
X022778Y020516D01*
X022801Y020481D01*
X023731Y019049D02*
X023665Y018890D01*
X023506Y018824D01*
X023347Y018890D01*
X023281Y019049D01*
X023347Y019208D01*
X023506Y019274D01*
X023665Y019208D01*
X023731Y019049D01*
X023646Y019049D01*
X023604Y018950D01*
X023506Y018909D01*
X023407Y018951D01*
X023366Y019049D01*
X023408Y019148D01*
X023506Y019189D01*
X023605Y019147D01*
X023646Y019049D01*
X023562Y019049D01*
X023545Y019009D01*
X023506Y018993D01*
X023466Y019010D01*
X023450Y019049D01*
X023467Y019089D01*
X023506Y019105D01*
X023546Y019088D01*
X023562Y019049D01*
X024143Y017510D02*
X024195Y017458D01*
X024100Y017314D01*
X023932Y017281D01*
X023788Y017376D01*
X023755Y017544D01*
X023850Y017688D01*
X024018Y017721D01*
X024162Y017626D01*
X024195Y017458D01*
X024112Y017475D01*
X024052Y017384D01*
X023949Y017364D01*
X023858Y017424D01*
X023838Y017527D01*
X023898Y017618D01*
X024001Y017638D01*
X024092Y017578D01*
X024112Y017475D01*
X024030Y017491D01*
X024005Y017455D01*
X023965Y017446D01*
X023929Y017471D01*
X023920Y017511D01*
X023945Y017547D01*
X023985Y017556D01*
X024021Y017531D01*
X024030Y017491D01*
X027427Y020580D02*
X027361Y020421D01*
X027202Y020355D01*
X027043Y020421D01*
X026977Y020580D01*
X027043Y020739D01*
X027202Y020805D01*
X027361Y020739D01*
X027427Y020580D01*
X027342Y020580D01*
X027300Y020481D01*
X027202Y020440D01*
X027103Y020482D01*
X027062Y020580D01*
X027104Y020679D01*
X027202Y020720D01*
X027301Y020678D01*
X027342Y020580D01*
X027258Y020580D01*
X027241Y020540D01*
X027202Y020524D01*
X027162Y020541D01*
X027146Y020580D01*
X027163Y020620D01*
X027202Y020636D01*
X027242Y020619D01*
X027258Y020580D01*
D12*
X020324Y017835D02*
X019956Y018202D01*
X019249Y017495D02*
X019617Y017128D01*
X018910Y016421D02*
X018542Y016788D01*
X017835Y016081D02*
X018202Y015713D01*
X017495Y015006D02*
X017128Y015374D01*
X016421Y014667D02*
X016788Y014299D01*
X016081Y013592D02*
X015713Y013960D01*
X015006Y013253D02*
X015374Y012885D01*
X014667Y012178D02*
X014299Y012546D01*
X013592Y011838D02*
X013960Y011471D01*
X011838Y013592D02*
X011471Y013960D01*
X012178Y014667D02*
X012546Y014299D01*
X013253Y015006D02*
X012885Y015374D01*
X013592Y016081D02*
X013960Y015713D01*
X014667Y016421D02*
X014299Y016788D01*
X015006Y017495D02*
X015374Y017128D01*
X016081Y017835D02*
X015713Y018202D01*
X016421Y018910D02*
X016788Y018542D01*
X017495Y019249D02*
X017128Y019617D01*
X017835Y020324D02*
X018202Y019956D01*
D13*
X013440Y017819D02*
X013016Y018243D01*
X012309Y017536D02*
X012733Y017112D01*
X012026Y016405D02*
X011602Y016829D01*
D14*
X009879Y016741D02*
X001169Y017340D01*
X001312Y018798D01*
X002160Y021589D01*
X003532Y024159D01*
X004364Y023604D02*
X005722Y022692D01*
X007247Y024548D02*
X006089Y025705D01*
X005382Y026412D02*
X006501Y027331D01*
X012330Y020355D01*
X011670Y010596D02*
X011951Y010403D01*
X012241Y010223D01*
X012539Y010057D01*
X012845Y009906D01*
X013157Y009770D01*
X013476Y009648D01*
X013800Y009542D01*
X014128Y009452D01*
X014461Y009377D01*
X014797Y009318D01*
X015135Y009275D01*
X015475Y009249D01*
X015816Y009238D01*
X016157Y009244D01*
X016497Y009266D01*
X016836Y009305D01*
X017173Y009359D01*
X017506Y009429D01*
X017836Y009516D01*
X018162Y009618D01*
X018482Y009735D01*
X018796Y009867D01*
X019104Y010014D01*
X019404Y010176D01*
X019404Y010177D02*
X019860Y010518D01*
X015897Y013776D01*
X015190Y013069D02*
X018669Y010423D01*
X018124Y010177D01*
X016943Y010214D02*
X016510Y010175D01*
X016943Y010214D02*
X014483Y012362D01*
X016604Y014483D02*
X019785Y011765D01*
X020899Y010759D01*
X020616Y010468D01*
X021447Y010878D02*
X020470Y009047D01*
X021447Y010878D02*
X016529Y015228D01*
X014904Y014996D01*
X013776Y015897D01*
X009879Y016741D02*
X009826Y016462D01*
X009787Y016181D01*
X009760Y015898D01*
X009748Y015614D01*
X009749Y015330D01*
X009765Y015046D01*
X009793Y014764D01*
X009836Y014483D01*
X009891Y014205D01*
X009961Y013929D01*
X010043Y013657D01*
X010139Y013390D01*
X010247Y013127D01*
X010368Y012870D01*
X010501Y012620D01*
X010646Y012375D01*
X010803Y012139D01*
X010971Y011909D01*
X011149Y011689D01*
X011339Y011477D01*
X011538Y011275D01*
X011747Y011082D01*
X011964Y010900D01*
X012191Y010728D01*
X012425Y010568D01*
X012667Y010419D01*
X012916Y010282D01*
X013171Y010157D01*
X013432Y010045D01*
X013698Y009945D01*
X013968Y009859D01*
X014243Y009785D01*
X014520Y009725D01*
X014800Y009678D01*
X015082Y009645D01*
X015366Y009626D01*
X015650Y009620D01*
X015934Y009628D01*
X016217Y009650D01*
X016498Y009685D01*
X016778Y009734D01*
X017055Y009796D01*
X017329Y009872D01*
X017599Y009960D01*
X017864Y010062D01*
X018124Y010177D01*
X020439Y012567D02*
X027132Y006210D01*
X026412Y005382D01*
X024160Y003533D01*
X021589Y002160D01*
X018798Y001312D01*
X018602Y002293D02*
X018285Y003897D01*
X020580Y004593D02*
X021206Y003084D01*
X023603Y004364D02*
X022695Y005723D01*
X024548Y007247D02*
X025705Y006089D01*
X027430Y008190D02*
X026073Y009103D01*
X028262Y007636D02*
X028873Y008780D01*
X020988Y013433D01*
X018019Y015897D01*
X017311Y015190D02*
X020439Y012567D01*
X021325Y014460D02*
X022146Y014254D01*
X022234Y014474D01*
X021325Y014460D02*
X018726Y016604D01*
X022453Y016293D02*
X022473Y016126D01*
X022484Y015958D01*
X022488Y015789D01*
X022484Y015621D01*
X022471Y015453D01*
X022451Y015286D01*
X022423Y015120D01*
X022387Y014955D01*
X022344Y014793D01*
X022292Y014632D01*
X022233Y014475D01*
X021913Y015492D02*
X021518Y015492D01*
X019433Y017311D01*
X021923Y015717D02*
X021913Y015492D01*
X022453Y016293D02*
X030748Y017378D01*
X030482Y018798D01*
X029635Y021589D01*
X028262Y024160D01*
X026412Y026412D01*
X025705Y025705D02*
X024548Y024548D01*
X026071Y022695D02*
X027431Y023603D01*
X028711Y021206D02*
X027202Y020580D01*
X027898Y018285D02*
X029501Y018602D01*
X029767Y015897D02*
X028133Y015897D01*
X027899Y013513D02*
X029501Y013191D01*
X030482Y012997D02*
X029635Y010206D01*
X028873Y008780D01*
X028711Y010589D02*
X027202Y011215D01*
X030482Y012997D02*
X030767Y015897D01*
X022692Y026073D02*
X023604Y027430D01*
X024159Y028262D02*
X025256Y027160D01*
X019937Y020437D01*
X020617Y010468D02*
X020339Y010252D01*
X020052Y010050D01*
X019756Y009862D01*
X019451Y009688D01*
X019138Y009529D01*
X018819Y009384D01*
X018492Y009254D01*
X018160Y009140D01*
X017823Y009042D01*
X017482Y008960D01*
X017137Y008894D01*
X016790Y008844D01*
X016440Y008810D01*
X016090Y008793D01*
X015739Y008793D01*
X015388Y008809D01*
X015039Y008841D01*
X015038Y008842D02*
X014275Y001187D01*
X012997Y001312D01*
X010206Y002160D01*
X007636Y003532D01*
X008190Y004364D02*
X009103Y005722D01*
X007247Y007247D02*
X006089Y006089D01*
X005382Y005382D02*
X006357Y004542D01*
X011670Y010596D01*
X016510Y010176D02*
X016229Y010158D01*
X015948Y010153D01*
X015666Y010162D01*
X015386Y010185D01*
X015107Y010222D01*
X014830Y010272D01*
X014556Y010336D01*
X014285Y010413D01*
X014019Y010503D01*
X013757Y010606D01*
X013501Y010722D01*
X013250Y010850D01*
X013006Y010990D01*
X012769Y011142D01*
X012540Y011306D01*
X012319Y011480D01*
X012107Y011665D01*
X011904Y011860D01*
X011711Y012065D01*
X011528Y012279D01*
X011356Y012501D01*
X011195Y012732D01*
X011046Y012970D01*
X010908Y013215D01*
X010782Y013467D01*
X010669Y013725D01*
X010568Y013988D01*
X010481Y014255D01*
X010406Y014526D01*
X010345Y014801D01*
X010298Y015078D01*
X010264Y015358D01*
X010244Y015638D01*
X010237Y015920D01*
X010244Y016201D01*
X010265Y016482D01*
X010300Y016761D01*
X010348Y017038D01*
X010410Y017313D01*
X010485Y017584D01*
X010573Y017851D01*
X010674Y018114D01*
X010788Y018371D01*
X010914Y018622D01*
X011052Y018867D01*
X011203Y019105D01*
X011364Y019336D01*
X011537Y019558D01*
X011720Y019771D01*
X011914Y019976D01*
X012117Y020170D01*
X012330Y020355D01*
X019937Y020437D02*
X020140Y020247D01*
X020335Y020048D01*
X020519Y019839D01*
X020694Y019622D01*
X020859Y019398D01*
X021013Y019165D01*
X021156Y018926D01*
X021287Y018681D01*
X021407Y018429D01*
X021515Y018173D01*
X021611Y017911D01*
X021695Y017645D01*
X021766Y017376D01*
X021824Y017104D01*
X021870Y016829D01*
X021902Y016552D01*
X021922Y016274D01*
X021929Y015996D01*
X021923Y015717D01*
X011215Y004593D02*
X010589Y003084D01*
X013191Y002293D02*
X013513Y003896D01*
X015897Y003661D02*
X015897Y002027D01*
X015897Y001027D02*
X014275Y001187D01*
X005723Y009100D02*
X004364Y008191D01*
X003533Y007635D02*
X002160Y010206D01*
X001312Y012996D01*
X002293Y013192D02*
X003897Y013509D01*
X004593Y011215D02*
X003084Y010589D01*
X003533Y007635D02*
X005382Y005382D01*
X003661Y015897D02*
X002027Y015897D01*
X001027Y015897D02*
X001152Y017164D01*
X001169Y017340D01*
X002293Y018603D02*
X003896Y018282D01*
X004593Y020580D02*
X003084Y021206D01*
X006501Y027331D02*
X007635Y028262D01*
X010206Y029635D01*
X012996Y030482D01*
X014344Y030531D01*
X013192Y029501D02*
X013509Y027898D01*
X011215Y027202D02*
X010589Y028711D01*
X008191Y027431D02*
X009100Y026071D01*
X015897Y028133D02*
X015897Y029767D01*
X015897Y030767D02*
X018798Y030482D01*
X021589Y029635D01*
X024159Y028262D01*
X021206Y028711D02*
X020580Y027202D01*
X018282Y027899D02*
X018603Y029501D01*
D15*
X017149Y018149D02*
X016149Y017149D01*
X015149Y017149D01*
X015190Y017311D01*
X015149Y017649D01*
X014149Y017649D01*
X013149Y016649D01*
X012149Y016649D01*
X011814Y016617D01*
X017149Y018149D02*
X020149Y018149D01*
X020140Y018019D01*
X020649Y009149D02*
X020470Y009047D01*
M02*
