G75*
G70*
%OFA0B0*%
%FSLAX24Y24*%
%IPPOS*%
%LPD*%
%AMOC8*
5,1,8,0,0,1.08239X$1,22.5*
%
%ADD10C,0.0098*%
%ADD11C,0.0000*%
%ADD12C,0.0080*%
%ADD13C,0.0100*%
%ADD14C,0.0060*%
%ADD15C,0.0050*%
%ADD16R,0.0240X0.0340*%
%ADD17R,0.0340X0.0240*%
%ADD18C,0.0070*%
D10*
X000149Y015897D02*
X000168Y016670D01*
X000225Y017441D01*
X000319Y018208D01*
X000452Y018969D01*
X000621Y019723D01*
X000827Y020468D01*
X001070Y021202D01*
X001348Y021923D01*
X001661Y022630D01*
X002009Y023321D01*
X002389Y023993D01*
X002803Y024646D01*
X003248Y025278D01*
X003724Y025887D01*
X004229Y026473D01*
X004761Y027033D01*
X005321Y027565D01*
X005907Y028070D01*
X006516Y028546D01*
X007148Y028991D01*
X007801Y029405D01*
X008473Y029785D01*
X009164Y030133D01*
X009871Y030446D01*
X010592Y030724D01*
X011326Y030967D01*
X012071Y031173D01*
X012825Y031342D01*
X013586Y031475D01*
X014353Y031569D01*
X015124Y031626D01*
X015897Y031645D01*
X016670Y031626D01*
X017441Y031569D01*
X018208Y031475D01*
X018969Y031342D01*
X019723Y031173D01*
X020468Y030967D01*
X021202Y030724D01*
X021923Y030446D01*
X022630Y030133D01*
X023321Y029785D01*
X023993Y029405D01*
X024646Y028991D01*
X025278Y028546D01*
X025887Y028070D01*
X026473Y027565D01*
X027033Y027033D01*
X027565Y026473D01*
X028070Y025887D01*
X028546Y025278D01*
X028991Y024646D01*
X029405Y023993D01*
X029785Y023321D01*
X030133Y022630D01*
X030446Y021923D01*
X030724Y021202D01*
X030967Y020468D01*
X031173Y019723D01*
X031342Y018969D01*
X031475Y018208D01*
X031569Y017441D01*
X031626Y016670D01*
X031645Y015897D01*
X031626Y015124D01*
X031569Y014353D01*
X031475Y013586D01*
X031342Y012825D01*
X031173Y012071D01*
X030967Y011326D01*
X030724Y010592D01*
X030446Y009871D01*
X030133Y009164D01*
X029785Y008473D01*
X029405Y007801D01*
X028991Y007148D01*
X028546Y006516D01*
X028070Y005907D01*
X027565Y005321D01*
X027033Y004761D01*
X026473Y004229D01*
X025887Y003724D01*
X025278Y003248D01*
X024646Y002803D01*
X023993Y002389D01*
X023321Y002009D01*
X022630Y001661D01*
X021923Y001348D01*
X021202Y001070D01*
X020468Y000827D01*
X019723Y000621D01*
X018969Y000452D01*
X018208Y000319D01*
X017441Y000225D01*
X016670Y000168D01*
X015897Y000149D01*
X015124Y000168D01*
X014353Y000225D01*
X013586Y000319D01*
X012825Y000452D01*
X012071Y000621D01*
X011326Y000827D01*
X010592Y001070D01*
X009871Y001348D01*
X009164Y001661D01*
X008473Y002009D01*
X007801Y002389D01*
X007148Y002803D01*
X006516Y003248D01*
X005907Y003724D01*
X005321Y004229D01*
X004761Y004761D01*
X004229Y005321D01*
X003724Y005907D01*
X003248Y006516D01*
X002803Y007148D01*
X002389Y007801D01*
X002009Y008473D01*
X001661Y009164D01*
X001348Y009871D01*
X001070Y010592D01*
X000827Y011326D01*
X000621Y012071D01*
X000452Y012825D01*
X000319Y013586D01*
X000225Y014353D01*
X000168Y015124D01*
X000149Y015897D01*
D11*
X014977Y019772D02*
X014979Y019793D01*
X014985Y019813D01*
X014994Y019833D01*
X015006Y019850D01*
X015021Y019864D01*
X015039Y019876D01*
X015059Y019884D01*
X015079Y019889D01*
X015100Y019890D01*
X015121Y019887D01*
X015141Y019881D01*
X015160Y019870D01*
X015177Y019857D01*
X015190Y019841D01*
X015201Y019823D01*
X015209Y019803D01*
X015213Y019783D01*
X015213Y019761D01*
X015209Y019741D01*
X015201Y019721D01*
X015190Y019703D01*
X015177Y019687D01*
X015160Y019674D01*
X015141Y019663D01*
X015121Y019657D01*
X015100Y019654D01*
X015079Y019655D01*
X015059Y019660D01*
X015039Y019668D01*
X015021Y019680D01*
X015006Y019694D01*
X014994Y019711D01*
X014985Y019731D01*
X014979Y019751D01*
X014977Y019772D01*
X016992Y028055D02*
X016994Y028076D01*
X017000Y028096D01*
X017009Y028116D01*
X017021Y028133D01*
X017036Y028147D01*
X017054Y028159D01*
X017074Y028167D01*
X017094Y028172D01*
X017115Y028173D01*
X017136Y028170D01*
X017156Y028164D01*
X017175Y028153D01*
X017192Y028140D01*
X017205Y028124D01*
X017216Y028106D01*
X017224Y028086D01*
X017228Y028066D01*
X017228Y028044D01*
X017224Y028024D01*
X017216Y028004D01*
X017205Y027986D01*
X017192Y027970D01*
X017175Y027957D01*
X017156Y027946D01*
X017136Y027940D01*
X017115Y027937D01*
X017094Y027938D01*
X017074Y027943D01*
X017054Y027951D01*
X017036Y027963D01*
X017021Y027977D01*
X017009Y027994D01*
X017000Y028014D01*
X016994Y028034D01*
X016992Y028055D01*
D12*
X017770Y029156D02*
X019242Y028865D01*
X020322Y028536D02*
X021707Y027962D01*
X022703Y027430D02*
X023951Y026598D01*
X024821Y025882D02*
X025882Y024821D01*
X026598Y023948D02*
X027432Y022702D01*
X027962Y021707D02*
X028536Y020322D01*
X028864Y019240D02*
X029158Y017769D01*
X029267Y016647D02*
X029267Y015147D01*
X029156Y014024D02*
X028865Y012553D01*
X028536Y011473D02*
X027962Y010087D01*
X027430Y009092D02*
X026598Y007844D01*
X025882Y006973D02*
X024821Y005913D01*
X023948Y005197D02*
X022702Y004362D01*
X021707Y003833D02*
X020322Y003259D01*
X019240Y002930D02*
X017769Y002636D01*
X016647Y002527D02*
X015147Y002527D01*
X014024Y002638D02*
X012553Y002929D01*
X011473Y003259D02*
X010087Y003833D01*
X009092Y004364D02*
X007844Y005197D01*
X006973Y005913D02*
X005913Y006973D01*
X005197Y007846D02*
X004362Y009093D01*
X003833Y010087D02*
X003259Y011473D01*
X002930Y012555D02*
X002636Y014026D01*
X002527Y015147D02*
X002527Y016647D01*
X002638Y017770D02*
X002929Y019242D01*
X003259Y020322D02*
X003833Y021707D01*
X004364Y022703D02*
X005197Y023951D01*
X005913Y024821D02*
X006973Y025882D01*
X007846Y026598D02*
X009093Y027432D01*
X010087Y027962D02*
X011473Y028536D01*
X012555Y028864D02*
X014026Y029158D01*
X015147Y029267D02*
X016647Y029267D01*
D13*
X005913Y006973D02*
X005844Y006981D01*
X005775Y006985D01*
X005705Y006986D01*
X005636Y006982D01*
X005567Y006975D01*
X005498Y006963D01*
X005431Y006948D01*
X005364Y006929D01*
X005298Y006907D01*
X005234Y006881D01*
X005171Y006851D01*
X005110Y006818D01*
X005051Y006782D01*
X004994Y006742D01*
X004940Y006699D01*
X004887Y006654D01*
X004838Y006605D01*
X004791Y006554D01*
X004747Y006500D01*
X004706Y006444D01*
X004668Y006386D01*
X004634Y006326D01*
X004603Y006264D01*
X004575Y006200D01*
X004551Y006135D01*
X004531Y006069D01*
X004514Y006001D01*
X004502Y005933D01*
X004493Y005864D01*
X004487Y005795D01*
X004486Y005726D01*
X004489Y005656D01*
X004495Y005587D01*
X004505Y005519D01*
X004519Y005451D01*
X004537Y005384D01*
X004558Y005318D01*
X004583Y005253D01*
X004612Y005190D01*
X004644Y005128D01*
X004679Y005068D01*
X004718Y005011D01*
X004760Y004955D01*
X004804Y004903D01*
X004852Y004852D01*
X004903Y004804D01*
X004955Y004760D01*
X005011Y004718D01*
X005068Y004679D01*
X005128Y004644D01*
X005190Y004612D01*
X005253Y004583D01*
X005318Y004558D01*
X005384Y004537D01*
X005451Y004519D01*
X005519Y004505D01*
X005587Y004495D01*
X005656Y004489D01*
X005726Y004486D01*
X005795Y004487D01*
X005864Y004493D01*
X005933Y004502D01*
X006001Y004514D01*
X006069Y004531D01*
X006135Y004551D01*
X006200Y004575D01*
X006264Y004603D01*
X006326Y004634D01*
X006386Y004668D01*
X006444Y004706D01*
X006500Y004747D01*
X006554Y004791D01*
X006605Y004838D01*
X006654Y004887D01*
X006699Y004940D01*
X006742Y004994D01*
X006782Y005051D01*
X006818Y005110D01*
X006851Y005171D01*
X006881Y005234D01*
X006907Y005298D01*
X006929Y005364D01*
X006948Y005431D01*
X006963Y005498D01*
X006975Y005567D01*
X006982Y005636D01*
X006986Y005705D01*
X006985Y005775D01*
X006981Y005844D01*
X006973Y005913D01*
X007844Y005196D02*
X007775Y005190D01*
X007706Y005181D01*
X007638Y005167D01*
X007571Y005150D01*
X007505Y005129D01*
X007440Y005105D01*
X007376Y005077D01*
X007314Y005045D01*
X007254Y005010D01*
X007196Y004972D01*
X007141Y004931D01*
X007087Y004887D01*
X007037Y004839D01*
X006988Y004789D01*
X006943Y004737D01*
X006901Y004682D01*
X006862Y004624D01*
X006826Y004565D01*
X006793Y004504D01*
X006764Y004441D01*
X006739Y004376D01*
X006717Y004310D01*
X006698Y004244D01*
X006684Y004176D01*
X006673Y004107D01*
X006666Y004038D01*
X006663Y003969D01*
X006664Y003899D01*
X006669Y003830D01*
X006677Y003761D01*
X006689Y003693D01*
X006705Y003626D01*
X006725Y003559D01*
X006748Y003494D01*
X006775Y003430D01*
X006806Y003367D01*
X006840Y003307D01*
X006877Y003248D01*
X006918Y003192D01*
X006961Y003138D01*
X007007Y003086D01*
X007057Y003037D01*
X007108Y002991D01*
X007163Y002948D01*
X007219Y002908D01*
X007278Y002871D01*
X007339Y002838D01*
X007401Y002807D01*
X007466Y002781D01*
X007531Y002758D01*
X007598Y002738D01*
X007665Y002723D01*
X007734Y002711D01*
X007802Y002703D01*
X007872Y002699D01*
X007941Y002698D01*
X008010Y002702D01*
X008079Y002709D01*
X008148Y002720D01*
X008216Y002735D01*
X008282Y002754D01*
X008348Y002776D01*
X008412Y002802D01*
X008475Y002832D01*
X008536Y002865D01*
X008596Y002901D01*
X008653Y002940D01*
X008707Y002983D01*
X008760Y003028D01*
X008809Y003077D01*
X008856Y003128D01*
X008900Y003181D01*
X008941Y003237D01*
X008979Y003296D01*
X009014Y003356D01*
X009045Y003418D01*
X009073Y003481D01*
X009097Y003546D01*
X009117Y003613D01*
X009134Y003680D01*
X009147Y003748D01*
X009156Y003817D01*
X009161Y003886D01*
X009163Y003956D01*
X009161Y004025D01*
X009154Y004094D01*
X009144Y004163D01*
X009131Y004231D01*
X009113Y004298D01*
X009092Y004364D01*
X010087Y003833D02*
X010020Y003814D01*
X009955Y003791D01*
X009890Y003765D01*
X009828Y003735D01*
X009767Y003702D01*
X009708Y003665D01*
X009651Y003625D01*
X009597Y003582D01*
X009545Y003536D01*
X009495Y003488D01*
X009449Y003436D01*
X009405Y003382D01*
X009364Y003326D01*
X009327Y003268D01*
X009292Y003207D01*
X009262Y003145D01*
X009234Y003081D01*
X009211Y003016D01*
X009191Y002950D01*
X009174Y002882D01*
X009162Y002814D01*
X009153Y002745D01*
X009148Y002676D01*
X009147Y002607D01*
X009150Y002537D01*
X009156Y002468D01*
X009167Y002400D01*
X009181Y002332D01*
X009199Y002265D01*
X009221Y002199D01*
X009246Y002134D01*
X009275Y002071D01*
X009307Y002010D01*
X009343Y001950D01*
X009382Y001893D01*
X009424Y001837D01*
X009469Y001785D01*
X009517Y001734D01*
X009567Y001687D01*
X009621Y001642D01*
X009676Y001601D01*
X009734Y001562D01*
X009794Y001527D01*
X009855Y001495D01*
X009919Y001467D01*
X009983Y001442D01*
X010050Y001421D01*
X010117Y001404D01*
X010185Y001390D01*
X010253Y001380D01*
X010323Y001374D01*
X010392Y001372D01*
X010461Y001374D01*
X010530Y001379D01*
X010599Y001388D01*
X010667Y001402D01*
X010735Y001418D01*
X010801Y001439D01*
X010866Y001463D01*
X010929Y001491D01*
X010991Y001522D01*
X011051Y001557D01*
X011110Y001595D01*
X011165Y001636D01*
X011219Y001680D01*
X011270Y001727D01*
X011318Y001777D01*
X011364Y001830D01*
X011406Y001884D01*
X011446Y001942D01*
X011482Y002001D01*
X011514Y002062D01*
X011544Y002125D01*
X011570Y002189D01*
X011592Y002255D01*
X011610Y002322D01*
X011625Y002390D01*
X011636Y002458D01*
X011643Y002527D01*
X011647Y002596D01*
X011646Y002666D01*
X011642Y002735D01*
X011634Y002804D01*
X011622Y002872D01*
X011606Y002940D01*
X011586Y003006D01*
X011563Y003072D01*
X011537Y003136D01*
X011506Y003198D01*
X011473Y003259D01*
X012553Y002930D02*
X012491Y002898D01*
X012431Y002863D01*
X012373Y002824D01*
X012318Y002783D01*
X012265Y002738D01*
X012214Y002691D01*
X012166Y002640D01*
X012121Y002588D01*
X012079Y002532D01*
X012040Y002475D01*
X012004Y002416D01*
X011972Y002354D01*
X011943Y002291D01*
X011918Y002226D01*
X011896Y002161D01*
X011878Y002094D01*
X011864Y002026D01*
X011854Y001957D01*
X011847Y001888D01*
X011844Y001819D01*
X011845Y001749D01*
X011850Y001680D01*
X011859Y001611D01*
X011871Y001543D01*
X011888Y001476D01*
X011908Y001409D01*
X011931Y001344D01*
X011959Y001280D01*
X011989Y001218D01*
X012024Y001158D01*
X012061Y001099D01*
X012102Y001043D01*
X012145Y000989D01*
X012192Y000938D01*
X012241Y000889D01*
X012293Y000843D01*
X012348Y000800D01*
X012405Y000760D01*
X012464Y000724D01*
X012525Y000690D01*
X012587Y000660D01*
X012651Y000634D01*
X012717Y000611D01*
X012784Y000592D01*
X012851Y000577D01*
X012920Y000565D01*
X012989Y000557D01*
X013058Y000554D01*
X013127Y000553D01*
X013196Y000557D01*
X013265Y000565D01*
X013334Y000576D01*
X013402Y000591D01*
X013468Y000610D01*
X013534Y000633D01*
X013598Y000659D01*
X013661Y000689D01*
X013722Y000722D01*
X013781Y000759D01*
X013838Y000798D01*
X013892Y000841D01*
X013944Y000887D01*
X013994Y000935D01*
X014041Y000987D01*
X014085Y001041D01*
X014125Y001097D01*
X014163Y001155D01*
X014197Y001215D01*
X014228Y001277D01*
X014256Y001341D01*
X014279Y001406D01*
X014300Y001473D01*
X014316Y001540D01*
X014329Y001608D01*
X014338Y001677D01*
X014343Y001746D01*
X014344Y001816D01*
X014341Y001885D01*
X014335Y001954D01*
X014325Y002023D01*
X014310Y002091D01*
X014293Y002158D01*
X014271Y002224D01*
X014246Y002288D01*
X014217Y002351D01*
X014185Y002413D01*
X014150Y002473D01*
X014111Y002530D01*
X014069Y002585D01*
X014024Y002638D01*
X015147Y002527D02*
X015093Y002484D01*
X015041Y002438D01*
X014992Y002389D01*
X014945Y002337D01*
X014902Y002283D01*
X014861Y002227D01*
X014824Y002168D01*
X014790Y002108D01*
X014760Y002045D01*
X014733Y001982D01*
X014709Y001916D01*
X014689Y001850D01*
X014673Y001782D01*
X014661Y001714D01*
X014653Y001645D01*
X014648Y001576D01*
X014647Y001506D01*
X014650Y001437D01*
X014657Y001368D01*
X014668Y001300D01*
X014682Y001232D01*
X014701Y001165D01*
X014723Y001099D01*
X014748Y001034D01*
X014777Y000971D01*
X014810Y000910D01*
X014846Y000851D01*
X014885Y000794D01*
X014927Y000738D01*
X014972Y000686D01*
X015020Y000636D01*
X015071Y000589D01*
X015125Y000544D01*
X015180Y000503D01*
X015238Y000465D01*
X015298Y000430D01*
X015360Y000398D01*
X015423Y000370D01*
X015488Y000346D01*
X015554Y000325D01*
X015622Y000308D01*
X015690Y000294D01*
X015759Y000285D01*
X015828Y000279D01*
X015897Y000277D01*
X015966Y000279D01*
X016035Y000285D01*
X016104Y000294D01*
X016172Y000308D01*
X016240Y000325D01*
X016306Y000346D01*
X016371Y000370D01*
X016434Y000398D01*
X016496Y000430D01*
X016556Y000465D01*
X016614Y000503D01*
X016669Y000544D01*
X016723Y000589D01*
X016774Y000636D01*
X016822Y000686D01*
X016867Y000738D01*
X016909Y000794D01*
X016948Y000851D01*
X016984Y000910D01*
X017017Y000971D01*
X017046Y001034D01*
X017071Y001099D01*
X017093Y001165D01*
X017112Y001232D01*
X017126Y001300D01*
X017137Y001368D01*
X017144Y001437D01*
X017147Y001506D01*
X017146Y001576D01*
X017141Y001645D01*
X017133Y001714D01*
X017121Y001782D01*
X017105Y001850D01*
X017085Y001916D01*
X017061Y001982D01*
X017034Y002045D01*
X017004Y002108D01*
X016970Y002168D01*
X016933Y002227D01*
X016892Y002283D01*
X016849Y002337D01*
X016802Y002389D01*
X016753Y002438D01*
X016701Y002484D01*
X016647Y002527D01*
X017769Y002637D02*
X017724Y002584D01*
X017682Y002528D01*
X017643Y002471D01*
X017608Y002411D01*
X017576Y002350D01*
X017547Y002286D01*
X017522Y002222D01*
X017501Y002156D01*
X017483Y002089D01*
X017469Y002021D01*
X017459Y001952D01*
X017453Y001883D01*
X017450Y001814D01*
X017451Y001744D01*
X017457Y001675D01*
X017466Y001606D01*
X017478Y001538D01*
X017495Y001471D01*
X017515Y001404D01*
X017539Y001339D01*
X017567Y001275D01*
X017598Y001213D01*
X017632Y001153D01*
X017670Y001095D01*
X017711Y001039D01*
X017755Y000985D01*
X017802Y000934D01*
X017851Y000885D01*
X017903Y000840D01*
X017958Y000797D01*
X018015Y000757D01*
X018074Y000721D01*
X018135Y000688D01*
X018198Y000658D01*
X018262Y000632D01*
X018328Y000610D01*
X018395Y000591D01*
X018462Y000576D01*
X018531Y000565D01*
X018600Y000557D01*
X018669Y000553D01*
X018738Y000554D01*
X018808Y000558D01*
X018877Y000566D01*
X018945Y000577D01*
X019013Y000593D01*
X019079Y000612D01*
X019145Y000635D01*
X019209Y000661D01*
X019271Y000691D01*
X019332Y000725D01*
X019391Y000761D01*
X019448Y000801D01*
X019502Y000844D01*
X019554Y000890D01*
X019604Y000939D01*
X019650Y000991D01*
X019694Y001045D01*
X019734Y001101D01*
X019772Y001159D01*
X019806Y001220D01*
X019836Y001282D01*
X019863Y001346D01*
X019887Y001411D01*
X019907Y001478D01*
X019923Y001545D01*
X019936Y001613D01*
X019944Y001682D01*
X019949Y001751D01*
X019950Y001821D01*
X019947Y001890D01*
X019940Y001959D01*
X019930Y002028D01*
X019915Y002096D01*
X019897Y002163D01*
X019875Y002228D01*
X019850Y002293D01*
X019821Y002356D01*
X019789Y002417D01*
X019753Y002477D01*
X019714Y002534D01*
X019672Y002589D01*
X019627Y002642D01*
X019579Y002692D01*
X019528Y002740D01*
X019475Y002784D01*
X019419Y002826D01*
X019361Y002864D01*
X019301Y002899D01*
X019240Y002931D01*
X020321Y003259D02*
X020288Y003198D01*
X020257Y003136D01*
X020231Y003072D01*
X020208Y003006D01*
X020188Y002940D01*
X020172Y002872D01*
X020160Y002804D01*
X020152Y002735D01*
X020148Y002666D01*
X020147Y002596D01*
X020151Y002527D01*
X020158Y002458D01*
X020169Y002390D01*
X020184Y002322D01*
X020202Y002255D01*
X020224Y002189D01*
X020250Y002125D01*
X020280Y002062D01*
X020312Y002001D01*
X020348Y001942D01*
X020388Y001884D01*
X020430Y001830D01*
X020476Y001777D01*
X020524Y001727D01*
X020575Y001680D01*
X020629Y001636D01*
X020684Y001595D01*
X020743Y001557D01*
X020803Y001522D01*
X020865Y001491D01*
X020928Y001463D01*
X020993Y001439D01*
X021059Y001418D01*
X021127Y001402D01*
X021195Y001388D01*
X021264Y001379D01*
X021333Y001374D01*
X021402Y001372D01*
X021471Y001374D01*
X021541Y001380D01*
X021609Y001390D01*
X021677Y001404D01*
X021744Y001421D01*
X021811Y001442D01*
X021875Y001467D01*
X021939Y001495D01*
X022000Y001527D01*
X022060Y001562D01*
X022118Y001601D01*
X022173Y001642D01*
X022227Y001687D01*
X022277Y001734D01*
X022325Y001785D01*
X022370Y001837D01*
X022412Y001893D01*
X022451Y001950D01*
X022487Y002010D01*
X022519Y002071D01*
X022548Y002134D01*
X022573Y002199D01*
X022595Y002265D01*
X022613Y002332D01*
X022627Y002400D01*
X022638Y002468D01*
X022644Y002537D01*
X022647Y002607D01*
X022646Y002676D01*
X022641Y002745D01*
X022632Y002814D01*
X022620Y002882D01*
X022603Y002950D01*
X022583Y003016D01*
X022560Y003081D01*
X022532Y003145D01*
X022502Y003207D01*
X022467Y003268D01*
X022430Y003326D01*
X022389Y003382D01*
X022345Y003436D01*
X022299Y003488D01*
X022249Y003536D01*
X022197Y003582D01*
X022143Y003625D01*
X022086Y003665D01*
X022027Y003702D01*
X021966Y003735D01*
X021904Y003765D01*
X021839Y003791D01*
X021774Y003814D01*
X021707Y003833D01*
X022701Y004362D02*
X022680Y004296D01*
X022663Y004229D01*
X022649Y004161D01*
X022639Y004092D01*
X022633Y004023D01*
X022631Y003953D01*
X022633Y003884D01*
X022638Y003815D01*
X022647Y003746D01*
X022661Y003678D01*
X022677Y003611D01*
X022698Y003544D01*
X022722Y003479D01*
X022750Y003416D01*
X022781Y003354D01*
X022816Y003294D01*
X022854Y003236D01*
X022895Y003180D01*
X022939Y003126D01*
X022986Y003075D01*
X023036Y003027D01*
X023088Y002981D01*
X023143Y002939D01*
X023200Y002900D01*
X023260Y002863D01*
X023321Y002831D01*
X023384Y002801D01*
X023448Y002775D01*
X023514Y002753D01*
X023581Y002735D01*
X023648Y002720D01*
X023717Y002709D01*
X023786Y002702D01*
X023855Y002698D01*
X023924Y002699D01*
X023994Y002703D01*
X024063Y002711D01*
X024131Y002723D01*
X024199Y002739D01*
X024265Y002758D01*
X024331Y002782D01*
X024395Y002808D01*
X024457Y002839D01*
X024518Y002872D01*
X024576Y002909D01*
X024633Y002949D01*
X024687Y002993D01*
X024739Y003039D01*
X024788Y003088D01*
X024834Y003140D01*
X024878Y003194D01*
X024918Y003250D01*
X024955Y003309D01*
X024989Y003369D01*
X025019Y003432D01*
X025046Y003496D01*
X025070Y003561D01*
X025089Y003628D01*
X025105Y003695D01*
X025117Y003763D01*
X025126Y003832D01*
X025130Y003902D01*
X025131Y003971D01*
X025128Y004040D01*
X025121Y004109D01*
X025110Y004178D01*
X025095Y004246D01*
X025077Y004313D01*
X025055Y004378D01*
X025029Y004443D01*
X025000Y004506D01*
X024967Y004567D01*
X024931Y004626D01*
X024892Y004683D01*
X024849Y004738D01*
X024804Y004791D01*
X024756Y004841D01*
X024705Y004888D01*
X024652Y004932D01*
X024596Y004973D01*
X024538Y005012D01*
X024478Y005046D01*
X024416Y005078D01*
X024352Y005106D01*
X024287Y005130D01*
X024221Y005151D01*
X024154Y005168D01*
X024086Y005181D01*
X024017Y005191D01*
X023948Y005196D01*
X024822Y005913D02*
X024814Y005844D01*
X024810Y005775D01*
X024809Y005705D01*
X024813Y005636D01*
X024820Y005567D01*
X024832Y005498D01*
X024847Y005431D01*
X024866Y005364D01*
X024888Y005298D01*
X024914Y005234D01*
X024944Y005171D01*
X024977Y005110D01*
X025013Y005051D01*
X025053Y004994D01*
X025096Y004940D01*
X025141Y004887D01*
X025190Y004838D01*
X025241Y004791D01*
X025295Y004747D01*
X025351Y004706D01*
X025409Y004668D01*
X025469Y004634D01*
X025531Y004603D01*
X025595Y004575D01*
X025660Y004551D01*
X025726Y004531D01*
X025794Y004514D01*
X025862Y004502D01*
X025931Y004493D01*
X026000Y004487D01*
X026069Y004486D01*
X026139Y004489D01*
X026208Y004495D01*
X026276Y004505D01*
X026344Y004519D01*
X026411Y004537D01*
X026477Y004558D01*
X026542Y004583D01*
X026605Y004612D01*
X026667Y004644D01*
X026727Y004679D01*
X026784Y004718D01*
X026840Y004760D01*
X026892Y004804D01*
X026943Y004852D01*
X026991Y004903D01*
X027035Y004955D01*
X027077Y005011D01*
X027116Y005068D01*
X027151Y005128D01*
X027183Y005190D01*
X027212Y005253D01*
X027237Y005318D01*
X027258Y005384D01*
X027276Y005451D01*
X027290Y005519D01*
X027300Y005587D01*
X027306Y005656D01*
X027309Y005726D01*
X027308Y005795D01*
X027302Y005864D01*
X027293Y005933D01*
X027281Y006001D01*
X027264Y006069D01*
X027244Y006135D01*
X027220Y006200D01*
X027192Y006264D01*
X027161Y006326D01*
X027127Y006386D01*
X027089Y006444D01*
X027048Y006500D01*
X027004Y006554D01*
X026957Y006605D01*
X026908Y006654D01*
X026855Y006699D01*
X026801Y006742D01*
X026744Y006782D01*
X026685Y006818D01*
X026624Y006851D01*
X026561Y006881D01*
X026497Y006907D01*
X026431Y006929D01*
X026364Y006948D01*
X026297Y006963D01*
X026228Y006975D01*
X026159Y006982D01*
X026090Y006986D01*
X026020Y006985D01*
X025951Y006981D01*
X025882Y006973D01*
X026598Y007844D02*
X026604Y007775D01*
X026613Y007706D01*
X026627Y007638D01*
X026644Y007571D01*
X026665Y007505D01*
X026689Y007440D01*
X026717Y007376D01*
X026749Y007314D01*
X026784Y007254D01*
X026822Y007196D01*
X026863Y007141D01*
X026907Y007087D01*
X026955Y007037D01*
X027005Y006988D01*
X027057Y006943D01*
X027112Y006901D01*
X027170Y006862D01*
X027229Y006826D01*
X027290Y006793D01*
X027353Y006764D01*
X027418Y006739D01*
X027484Y006717D01*
X027550Y006698D01*
X027618Y006684D01*
X027687Y006673D01*
X027756Y006666D01*
X027825Y006663D01*
X027895Y006664D01*
X027964Y006669D01*
X028033Y006677D01*
X028101Y006689D01*
X028168Y006705D01*
X028235Y006725D01*
X028300Y006748D01*
X028364Y006775D01*
X028427Y006806D01*
X028487Y006840D01*
X028546Y006877D01*
X028602Y006918D01*
X028656Y006961D01*
X028708Y007007D01*
X028757Y007057D01*
X028803Y007108D01*
X028846Y007163D01*
X028886Y007219D01*
X028923Y007278D01*
X028956Y007339D01*
X028987Y007401D01*
X029013Y007466D01*
X029036Y007531D01*
X029056Y007598D01*
X029071Y007665D01*
X029083Y007734D01*
X029091Y007802D01*
X029095Y007872D01*
X029096Y007941D01*
X029092Y008010D01*
X029085Y008079D01*
X029074Y008148D01*
X029059Y008216D01*
X029040Y008282D01*
X029018Y008348D01*
X028992Y008412D01*
X028962Y008475D01*
X028929Y008536D01*
X028893Y008596D01*
X028854Y008653D01*
X028811Y008707D01*
X028766Y008760D01*
X028717Y008809D01*
X028666Y008856D01*
X028613Y008900D01*
X028557Y008941D01*
X028498Y008979D01*
X028438Y009014D01*
X028376Y009045D01*
X028313Y009073D01*
X028248Y009097D01*
X028181Y009117D01*
X028114Y009134D01*
X028046Y009147D01*
X027977Y009156D01*
X027908Y009161D01*
X027838Y009163D01*
X027769Y009161D01*
X027700Y009154D01*
X027631Y009144D01*
X027563Y009131D01*
X027496Y009113D01*
X027430Y009092D01*
X027962Y010087D02*
X027981Y010020D01*
X028004Y009955D01*
X028030Y009890D01*
X028060Y009828D01*
X028093Y009767D01*
X028130Y009708D01*
X028170Y009651D01*
X028213Y009597D01*
X028259Y009545D01*
X028307Y009495D01*
X028359Y009449D01*
X028413Y009405D01*
X028469Y009364D01*
X028527Y009327D01*
X028588Y009292D01*
X028650Y009262D01*
X028714Y009234D01*
X028779Y009211D01*
X028845Y009191D01*
X028913Y009174D01*
X028981Y009162D01*
X029050Y009153D01*
X029119Y009148D01*
X029188Y009147D01*
X029258Y009150D01*
X029327Y009156D01*
X029395Y009167D01*
X029463Y009181D01*
X029530Y009199D01*
X029596Y009221D01*
X029661Y009246D01*
X029724Y009275D01*
X029785Y009307D01*
X029845Y009343D01*
X029902Y009382D01*
X029958Y009424D01*
X030010Y009469D01*
X030061Y009517D01*
X030108Y009567D01*
X030153Y009621D01*
X030194Y009676D01*
X030233Y009734D01*
X030268Y009794D01*
X030300Y009855D01*
X030328Y009919D01*
X030353Y009983D01*
X030374Y010050D01*
X030391Y010117D01*
X030405Y010185D01*
X030415Y010253D01*
X030421Y010323D01*
X030423Y010392D01*
X030421Y010461D01*
X030416Y010530D01*
X030407Y010599D01*
X030393Y010667D01*
X030377Y010735D01*
X030356Y010801D01*
X030332Y010866D01*
X030304Y010929D01*
X030273Y010991D01*
X030238Y011051D01*
X030200Y011110D01*
X030159Y011165D01*
X030115Y011219D01*
X030068Y011270D01*
X030018Y011318D01*
X029965Y011364D01*
X029911Y011406D01*
X029853Y011446D01*
X029794Y011482D01*
X029733Y011514D01*
X029670Y011544D01*
X029606Y011570D01*
X029540Y011592D01*
X029473Y011610D01*
X029405Y011625D01*
X029337Y011636D01*
X029268Y011643D01*
X029199Y011647D01*
X029129Y011646D01*
X029060Y011642D01*
X028991Y011634D01*
X028923Y011622D01*
X028855Y011606D01*
X028789Y011586D01*
X028723Y011563D01*
X028659Y011537D01*
X028597Y011506D01*
X028536Y011473D01*
X028865Y012553D02*
X028897Y012491D01*
X028932Y012431D01*
X028971Y012373D01*
X029012Y012318D01*
X029057Y012265D01*
X029104Y012214D01*
X029155Y012166D01*
X029207Y012121D01*
X029263Y012079D01*
X029320Y012040D01*
X029379Y012004D01*
X029441Y011972D01*
X029504Y011943D01*
X029569Y011918D01*
X029634Y011896D01*
X029701Y011878D01*
X029769Y011864D01*
X029838Y011854D01*
X029907Y011847D01*
X029976Y011844D01*
X030046Y011845D01*
X030115Y011850D01*
X030184Y011859D01*
X030252Y011871D01*
X030319Y011888D01*
X030386Y011908D01*
X030451Y011931D01*
X030515Y011959D01*
X030577Y011989D01*
X030637Y012024D01*
X030696Y012061D01*
X030752Y012102D01*
X030806Y012145D01*
X030857Y012192D01*
X030906Y012241D01*
X030952Y012293D01*
X030995Y012348D01*
X031035Y012405D01*
X031071Y012464D01*
X031105Y012525D01*
X031135Y012587D01*
X031161Y012651D01*
X031184Y012717D01*
X031203Y012784D01*
X031218Y012851D01*
X031230Y012920D01*
X031238Y012989D01*
X031241Y013058D01*
X031242Y013127D01*
X031238Y013196D01*
X031230Y013265D01*
X031219Y013334D01*
X031204Y013402D01*
X031185Y013468D01*
X031162Y013534D01*
X031136Y013598D01*
X031106Y013661D01*
X031073Y013722D01*
X031036Y013781D01*
X030997Y013838D01*
X030954Y013892D01*
X030908Y013944D01*
X030860Y013994D01*
X030808Y014041D01*
X030754Y014085D01*
X030698Y014125D01*
X030640Y014163D01*
X030580Y014197D01*
X030518Y014228D01*
X030454Y014256D01*
X030389Y014279D01*
X030322Y014300D01*
X030255Y014316D01*
X030187Y014329D01*
X030118Y014338D01*
X030049Y014343D01*
X029979Y014344D01*
X029910Y014341D01*
X029841Y014335D01*
X029772Y014325D01*
X029704Y014310D01*
X029637Y014293D01*
X029571Y014271D01*
X029507Y014246D01*
X029444Y014217D01*
X029382Y014185D01*
X029322Y014150D01*
X029265Y014111D01*
X029210Y014069D01*
X029157Y014024D01*
X029267Y015147D02*
X029310Y015093D01*
X029356Y015041D01*
X029405Y014992D01*
X029457Y014945D01*
X029511Y014902D01*
X029567Y014861D01*
X029626Y014824D01*
X029686Y014790D01*
X029749Y014760D01*
X029812Y014733D01*
X029878Y014709D01*
X029944Y014689D01*
X030012Y014673D01*
X030080Y014661D01*
X030149Y014653D01*
X030218Y014648D01*
X030288Y014647D01*
X030357Y014650D01*
X030426Y014657D01*
X030494Y014668D01*
X030562Y014682D01*
X030629Y014701D01*
X030695Y014723D01*
X030760Y014748D01*
X030823Y014777D01*
X030884Y014810D01*
X030943Y014846D01*
X031000Y014885D01*
X031056Y014927D01*
X031108Y014972D01*
X031158Y015020D01*
X031205Y015071D01*
X031250Y015125D01*
X031291Y015180D01*
X031329Y015238D01*
X031364Y015298D01*
X031396Y015360D01*
X031424Y015423D01*
X031448Y015488D01*
X031469Y015554D01*
X031486Y015622D01*
X031500Y015690D01*
X031509Y015759D01*
X031515Y015828D01*
X031517Y015897D01*
X031515Y015966D01*
X031509Y016035D01*
X031500Y016104D01*
X031486Y016172D01*
X031469Y016240D01*
X031448Y016306D01*
X031424Y016371D01*
X031396Y016434D01*
X031364Y016496D01*
X031329Y016556D01*
X031291Y016614D01*
X031250Y016669D01*
X031205Y016723D01*
X031158Y016774D01*
X031108Y016822D01*
X031056Y016867D01*
X031000Y016909D01*
X030943Y016948D01*
X030884Y016984D01*
X030823Y017017D01*
X030760Y017046D01*
X030695Y017071D01*
X030629Y017093D01*
X030562Y017112D01*
X030494Y017126D01*
X030426Y017137D01*
X030357Y017144D01*
X030288Y017147D01*
X030218Y017146D01*
X030149Y017141D01*
X030080Y017133D01*
X030012Y017121D01*
X029944Y017105D01*
X029878Y017085D01*
X029812Y017061D01*
X029749Y017034D01*
X029686Y017004D01*
X029626Y016970D01*
X029567Y016933D01*
X029511Y016892D01*
X029457Y016849D01*
X029405Y016802D01*
X029356Y016753D01*
X029310Y016701D01*
X029267Y016647D01*
X029158Y017769D02*
X029211Y017724D01*
X029267Y017682D01*
X029324Y017643D01*
X029384Y017608D01*
X029445Y017576D01*
X029509Y017547D01*
X029573Y017522D01*
X029639Y017501D01*
X029706Y017483D01*
X029774Y017469D01*
X029843Y017459D01*
X029912Y017453D01*
X029981Y017450D01*
X030051Y017451D01*
X030120Y017457D01*
X030189Y017466D01*
X030257Y017478D01*
X030324Y017495D01*
X030391Y017515D01*
X030456Y017539D01*
X030520Y017567D01*
X030582Y017598D01*
X030642Y017632D01*
X030700Y017670D01*
X030756Y017711D01*
X030810Y017755D01*
X030861Y017802D01*
X030910Y017851D01*
X030955Y017903D01*
X030998Y017958D01*
X031038Y018015D01*
X031074Y018074D01*
X031107Y018135D01*
X031137Y018198D01*
X031163Y018262D01*
X031185Y018328D01*
X031204Y018395D01*
X031219Y018462D01*
X031230Y018531D01*
X031238Y018600D01*
X031242Y018669D01*
X031241Y018738D01*
X031237Y018808D01*
X031229Y018877D01*
X031218Y018945D01*
X031202Y019013D01*
X031183Y019079D01*
X031160Y019145D01*
X031134Y019209D01*
X031104Y019271D01*
X031070Y019332D01*
X031034Y019391D01*
X030994Y019448D01*
X030951Y019502D01*
X030905Y019554D01*
X030856Y019604D01*
X030804Y019650D01*
X030750Y019694D01*
X030694Y019734D01*
X030636Y019772D01*
X030575Y019806D01*
X030513Y019836D01*
X030449Y019863D01*
X030384Y019887D01*
X030317Y019907D01*
X030250Y019923D01*
X030182Y019936D01*
X030113Y019944D01*
X030044Y019949D01*
X029974Y019950D01*
X029905Y019947D01*
X029836Y019940D01*
X029767Y019930D01*
X029699Y019915D01*
X029632Y019897D01*
X029567Y019875D01*
X029502Y019850D01*
X029439Y019821D01*
X029378Y019789D01*
X029318Y019753D01*
X029261Y019714D01*
X029206Y019672D01*
X029153Y019627D01*
X029103Y019579D01*
X029055Y019528D01*
X029011Y019475D01*
X028969Y019419D01*
X028931Y019361D01*
X028896Y019301D01*
X028864Y019240D01*
X028536Y020321D02*
X028597Y020288D01*
X028659Y020257D01*
X028723Y020231D01*
X028789Y020208D01*
X028855Y020188D01*
X028923Y020172D01*
X028991Y020160D01*
X029060Y020152D01*
X029129Y020148D01*
X029199Y020147D01*
X029268Y020151D01*
X029337Y020158D01*
X029405Y020169D01*
X029473Y020184D01*
X029540Y020202D01*
X029606Y020224D01*
X029670Y020250D01*
X029733Y020280D01*
X029794Y020312D01*
X029853Y020348D01*
X029911Y020388D01*
X029965Y020430D01*
X030018Y020476D01*
X030068Y020524D01*
X030115Y020575D01*
X030159Y020629D01*
X030200Y020684D01*
X030238Y020743D01*
X030273Y020803D01*
X030304Y020865D01*
X030332Y020928D01*
X030356Y020993D01*
X030377Y021059D01*
X030393Y021127D01*
X030407Y021195D01*
X030416Y021264D01*
X030421Y021333D01*
X030423Y021402D01*
X030421Y021471D01*
X030415Y021541D01*
X030405Y021609D01*
X030391Y021677D01*
X030374Y021744D01*
X030353Y021811D01*
X030328Y021875D01*
X030300Y021939D01*
X030268Y022000D01*
X030233Y022060D01*
X030194Y022118D01*
X030153Y022173D01*
X030108Y022227D01*
X030061Y022277D01*
X030010Y022325D01*
X029958Y022370D01*
X029902Y022412D01*
X029845Y022451D01*
X029785Y022487D01*
X029724Y022519D01*
X029661Y022548D01*
X029596Y022573D01*
X029530Y022595D01*
X029463Y022613D01*
X029395Y022627D01*
X029327Y022638D01*
X029258Y022644D01*
X029188Y022647D01*
X029119Y022646D01*
X029050Y022641D01*
X028981Y022632D01*
X028913Y022620D01*
X028845Y022603D01*
X028779Y022583D01*
X028714Y022560D01*
X028650Y022532D01*
X028588Y022502D01*
X028527Y022467D01*
X028469Y022430D01*
X028413Y022389D01*
X028359Y022345D01*
X028307Y022299D01*
X028259Y022249D01*
X028213Y022197D01*
X028170Y022143D01*
X028130Y022086D01*
X028093Y022027D01*
X028060Y021966D01*
X028030Y021904D01*
X028004Y021839D01*
X027981Y021774D01*
X027962Y021707D01*
X027432Y022701D02*
X027498Y022680D01*
X027565Y022663D01*
X027633Y022649D01*
X027702Y022639D01*
X027771Y022633D01*
X027841Y022631D01*
X027910Y022633D01*
X027979Y022638D01*
X028048Y022647D01*
X028116Y022661D01*
X028183Y022677D01*
X028250Y022698D01*
X028315Y022722D01*
X028378Y022750D01*
X028440Y022781D01*
X028500Y022816D01*
X028558Y022854D01*
X028614Y022895D01*
X028668Y022939D01*
X028719Y022986D01*
X028767Y023036D01*
X028813Y023088D01*
X028855Y023143D01*
X028894Y023200D01*
X028931Y023260D01*
X028963Y023321D01*
X028993Y023384D01*
X029019Y023448D01*
X029041Y023514D01*
X029059Y023581D01*
X029074Y023648D01*
X029085Y023717D01*
X029092Y023786D01*
X029096Y023855D01*
X029095Y023924D01*
X029091Y023994D01*
X029083Y024063D01*
X029071Y024131D01*
X029055Y024199D01*
X029036Y024265D01*
X029012Y024331D01*
X028986Y024395D01*
X028955Y024457D01*
X028922Y024518D01*
X028885Y024576D01*
X028845Y024633D01*
X028801Y024687D01*
X028755Y024739D01*
X028706Y024788D01*
X028654Y024834D01*
X028600Y024878D01*
X028544Y024918D01*
X028485Y024955D01*
X028425Y024989D01*
X028362Y025019D01*
X028298Y025046D01*
X028233Y025070D01*
X028166Y025089D01*
X028099Y025105D01*
X028031Y025117D01*
X027962Y025126D01*
X027892Y025130D01*
X027823Y025131D01*
X027754Y025128D01*
X027685Y025121D01*
X027616Y025110D01*
X027548Y025095D01*
X027481Y025077D01*
X027416Y025055D01*
X027351Y025029D01*
X027288Y025000D01*
X027227Y024967D01*
X027168Y024931D01*
X027111Y024892D01*
X027056Y024849D01*
X027003Y024804D01*
X026953Y024756D01*
X026906Y024705D01*
X026862Y024652D01*
X026821Y024596D01*
X026782Y024538D01*
X026748Y024478D01*
X026716Y024416D01*
X026688Y024352D01*
X026664Y024287D01*
X026643Y024221D01*
X026626Y024154D01*
X026613Y024086D01*
X026603Y024017D01*
X026598Y023948D01*
X025882Y024822D02*
X025951Y024814D01*
X026020Y024810D01*
X026090Y024809D01*
X026159Y024813D01*
X026228Y024820D01*
X026297Y024832D01*
X026364Y024847D01*
X026431Y024866D01*
X026497Y024888D01*
X026561Y024914D01*
X026624Y024944D01*
X026685Y024977D01*
X026744Y025013D01*
X026801Y025053D01*
X026855Y025096D01*
X026908Y025141D01*
X026957Y025190D01*
X027004Y025241D01*
X027048Y025295D01*
X027089Y025351D01*
X027127Y025409D01*
X027161Y025469D01*
X027192Y025531D01*
X027220Y025595D01*
X027244Y025660D01*
X027264Y025726D01*
X027281Y025794D01*
X027293Y025862D01*
X027302Y025931D01*
X027308Y026000D01*
X027309Y026069D01*
X027306Y026139D01*
X027300Y026208D01*
X027290Y026276D01*
X027276Y026344D01*
X027258Y026411D01*
X027237Y026477D01*
X027212Y026542D01*
X027183Y026605D01*
X027151Y026667D01*
X027116Y026727D01*
X027077Y026784D01*
X027035Y026840D01*
X026991Y026892D01*
X026943Y026943D01*
X026892Y026991D01*
X026840Y027035D01*
X026784Y027077D01*
X026727Y027116D01*
X026667Y027151D01*
X026605Y027183D01*
X026542Y027212D01*
X026477Y027237D01*
X026411Y027258D01*
X026344Y027276D01*
X026276Y027290D01*
X026208Y027300D01*
X026139Y027306D01*
X026069Y027309D01*
X026000Y027308D01*
X025931Y027302D01*
X025862Y027293D01*
X025794Y027281D01*
X025726Y027264D01*
X025660Y027244D01*
X025595Y027220D01*
X025531Y027192D01*
X025469Y027161D01*
X025409Y027127D01*
X025351Y027089D01*
X025295Y027048D01*
X025241Y027004D01*
X025190Y026957D01*
X025141Y026908D01*
X025096Y026855D01*
X025053Y026801D01*
X025013Y026744D01*
X024977Y026685D01*
X024944Y026624D01*
X024914Y026561D01*
X024888Y026497D01*
X024866Y026431D01*
X024847Y026364D01*
X024832Y026297D01*
X024820Y026228D01*
X024813Y026159D01*
X024809Y026090D01*
X024810Y026020D01*
X024814Y025951D01*
X024822Y025882D01*
X023950Y026598D02*
X024019Y026604D01*
X024088Y026613D01*
X024156Y026627D01*
X024223Y026644D01*
X024289Y026665D01*
X024354Y026689D01*
X024418Y026717D01*
X024480Y026749D01*
X024540Y026784D01*
X024598Y026822D01*
X024653Y026863D01*
X024707Y026907D01*
X024757Y026955D01*
X024806Y027005D01*
X024851Y027057D01*
X024893Y027112D01*
X024932Y027170D01*
X024968Y027229D01*
X025001Y027290D01*
X025030Y027353D01*
X025055Y027418D01*
X025077Y027484D01*
X025096Y027550D01*
X025110Y027618D01*
X025121Y027687D01*
X025128Y027756D01*
X025131Y027825D01*
X025130Y027895D01*
X025125Y027964D01*
X025117Y028033D01*
X025105Y028101D01*
X025089Y028168D01*
X025069Y028235D01*
X025046Y028300D01*
X025019Y028364D01*
X024988Y028427D01*
X024954Y028487D01*
X024917Y028546D01*
X024876Y028602D01*
X024833Y028656D01*
X024787Y028708D01*
X024737Y028757D01*
X024686Y028803D01*
X024631Y028846D01*
X024575Y028886D01*
X024516Y028923D01*
X024455Y028956D01*
X024393Y028987D01*
X024328Y029013D01*
X024263Y029036D01*
X024196Y029056D01*
X024129Y029071D01*
X024060Y029083D01*
X023992Y029091D01*
X023922Y029095D01*
X023853Y029096D01*
X023784Y029092D01*
X023715Y029085D01*
X023646Y029074D01*
X023578Y029059D01*
X023512Y029040D01*
X023446Y029018D01*
X023382Y028992D01*
X023319Y028962D01*
X023258Y028929D01*
X023198Y028893D01*
X023141Y028854D01*
X023087Y028811D01*
X023034Y028766D01*
X022985Y028717D01*
X022938Y028666D01*
X022894Y028613D01*
X022853Y028557D01*
X022815Y028498D01*
X022780Y028438D01*
X022749Y028376D01*
X022721Y028313D01*
X022697Y028248D01*
X022677Y028181D01*
X022660Y028114D01*
X022647Y028046D01*
X022638Y027977D01*
X022633Y027908D01*
X022631Y027838D01*
X022633Y027769D01*
X022640Y027700D01*
X022650Y027631D01*
X022663Y027563D01*
X022681Y027496D01*
X022702Y027430D01*
X021707Y027962D02*
X021774Y027981D01*
X021839Y028004D01*
X021904Y028030D01*
X021966Y028060D01*
X022027Y028093D01*
X022086Y028130D01*
X022143Y028170D01*
X022197Y028213D01*
X022249Y028259D01*
X022299Y028307D01*
X022345Y028359D01*
X022389Y028413D01*
X022430Y028469D01*
X022467Y028527D01*
X022502Y028588D01*
X022532Y028650D01*
X022560Y028714D01*
X022583Y028779D01*
X022603Y028845D01*
X022620Y028913D01*
X022632Y028981D01*
X022641Y029050D01*
X022646Y029119D01*
X022647Y029188D01*
X022644Y029258D01*
X022638Y029327D01*
X022627Y029395D01*
X022613Y029463D01*
X022595Y029530D01*
X022573Y029596D01*
X022548Y029661D01*
X022519Y029724D01*
X022487Y029785D01*
X022451Y029845D01*
X022412Y029902D01*
X022370Y029958D01*
X022325Y030010D01*
X022277Y030061D01*
X022227Y030108D01*
X022173Y030153D01*
X022118Y030194D01*
X022060Y030233D01*
X022000Y030268D01*
X021939Y030300D01*
X021875Y030328D01*
X021811Y030353D01*
X021744Y030374D01*
X021677Y030391D01*
X021609Y030405D01*
X021541Y030415D01*
X021471Y030421D01*
X021402Y030423D01*
X021333Y030421D01*
X021264Y030416D01*
X021195Y030407D01*
X021127Y030393D01*
X021059Y030377D01*
X020993Y030356D01*
X020928Y030332D01*
X020865Y030304D01*
X020803Y030273D01*
X020743Y030238D01*
X020684Y030200D01*
X020629Y030159D01*
X020575Y030115D01*
X020524Y030068D01*
X020476Y030018D01*
X020430Y029965D01*
X020388Y029911D01*
X020348Y029853D01*
X020312Y029794D01*
X020280Y029733D01*
X020250Y029670D01*
X020224Y029606D01*
X020202Y029540D01*
X020184Y029473D01*
X020169Y029405D01*
X020158Y029337D01*
X020151Y029268D01*
X020147Y029199D01*
X020148Y029129D01*
X020152Y029060D01*
X020160Y028991D01*
X020172Y028923D01*
X020188Y028855D01*
X020208Y028789D01*
X020231Y028723D01*
X020257Y028659D01*
X020288Y028597D01*
X020321Y028536D01*
X019241Y028865D02*
X019303Y028897D01*
X019363Y028932D01*
X019421Y028971D01*
X019476Y029012D01*
X019529Y029057D01*
X019580Y029104D01*
X019628Y029155D01*
X019673Y029207D01*
X019715Y029263D01*
X019754Y029320D01*
X019790Y029379D01*
X019822Y029441D01*
X019851Y029504D01*
X019876Y029569D01*
X019898Y029634D01*
X019916Y029701D01*
X019930Y029769D01*
X019940Y029838D01*
X019947Y029907D01*
X019950Y029976D01*
X019949Y030046D01*
X019944Y030115D01*
X019935Y030184D01*
X019923Y030252D01*
X019906Y030319D01*
X019886Y030386D01*
X019863Y030451D01*
X019835Y030515D01*
X019805Y030577D01*
X019770Y030637D01*
X019733Y030696D01*
X019692Y030752D01*
X019649Y030806D01*
X019602Y030857D01*
X019553Y030906D01*
X019501Y030952D01*
X019446Y030995D01*
X019389Y031035D01*
X019330Y031071D01*
X019269Y031105D01*
X019207Y031135D01*
X019143Y031161D01*
X019077Y031184D01*
X019010Y031203D01*
X018943Y031218D01*
X018874Y031230D01*
X018805Y031238D01*
X018736Y031241D01*
X018667Y031242D01*
X018598Y031238D01*
X018529Y031230D01*
X018460Y031219D01*
X018392Y031204D01*
X018326Y031185D01*
X018260Y031162D01*
X018196Y031136D01*
X018133Y031106D01*
X018072Y031073D01*
X018013Y031036D01*
X017956Y030997D01*
X017902Y030954D01*
X017850Y030908D01*
X017800Y030860D01*
X017753Y030808D01*
X017709Y030754D01*
X017669Y030698D01*
X017631Y030640D01*
X017597Y030580D01*
X017566Y030518D01*
X017538Y030454D01*
X017515Y030389D01*
X017494Y030322D01*
X017478Y030255D01*
X017465Y030187D01*
X017456Y030118D01*
X017451Y030049D01*
X017450Y029979D01*
X017453Y029910D01*
X017459Y029841D01*
X017469Y029772D01*
X017484Y029704D01*
X017501Y029637D01*
X017523Y029571D01*
X017548Y029507D01*
X017577Y029444D01*
X017609Y029382D01*
X017644Y029322D01*
X017683Y029265D01*
X017725Y029210D01*
X017770Y029157D01*
X016647Y029267D02*
X016701Y029310D01*
X016753Y029356D01*
X016802Y029405D01*
X016849Y029457D01*
X016892Y029511D01*
X016933Y029567D01*
X016970Y029626D01*
X017004Y029686D01*
X017034Y029749D01*
X017061Y029812D01*
X017085Y029878D01*
X017105Y029944D01*
X017121Y030012D01*
X017133Y030080D01*
X017141Y030149D01*
X017146Y030218D01*
X017147Y030288D01*
X017144Y030357D01*
X017137Y030426D01*
X017126Y030494D01*
X017112Y030562D01*
X017093Y030629D01*
X017071Y030695D01*
X017046Y030760D01*
X017017Y030823D01*
X016984Y030884D01*
X016948Y030943D01*
X016909Y031000D01*
X016867Y031056D01*
X016822Y031108D01*
X016774Y031158D01*
X016723Y031205D01*
X016669Y031250D01*
X016614Y031291D01*
X016556Y031329D01*
X016496Y031364D01*
X016434Y031396D01*
X016371Y031424D01*
X016306Y031448D01*
X016240Y031469D01*
X016172Y031486D01*
X016104Y031500D01*
X016035Y031509D01*
X015966Y031515D01*
X015897Y031517D01*
X015828Y031515D01*
X015759Y031509D01*
X015690Y031500D01*
X015622Y031486D01*
X015554Y031469D01*
X015488Y031448D01*
X015423Y031424D01*
X015360Y031396D01*
X015298Y031364D01*
X015238Y031329D01*
X015180Y031291D01*
X015125Y031250D01*
X015071Y031205D01*
X015020Y031158D01*
X014972Y031108D01*
X014927Y031056D01*
X014885Y031000D01*
X014846Y030943D01*
X014810Y030884D01*
X014777Y030823D01*
X014748Y030760D01*
X014723Y030695D01*
X014701Y030629D01*
X014682Y030562D01*
X014668Y030494D01*
X014657Y030426D01*
X014650Y030357D01*
X014647Y030288D01*
X014648Y030218D01*
X014653Y030149D01*
X014661Y030080D01*
X014673Y030012D01*
X014689Y029944D01*
X014709Y029878D01*
X014733Y029812D01*
X014760Y029749D01*
X014790Y029686D01*
X014824Y029626D01*
X014861Y029567D01*
X014902Y029511D01*
X014945Y029457D01*
X014992Y029405D01*
X015041Y029356D01*
X015093Y029310D01*
X015147Y029267D01*
X014025Y029158D02*
X014070Y029211D01*
X014112Y029267D01*
X014151Y029324D01*
X014186Y029384D01*
X014218Y029445D01*
X014247Y029509D01*
X014272Y029573D01*
X014293Y029639D01*
X014311Y029706D01*
X014325Y029774D01*
X014335Y029843D01*
X014341Y029912D01*
X014344Y029981D01*
X014343Y030051D01*
X014337Y030120D01*
X014328Y030189D01*
X014316Y030257D01*
X014299Y030324D01*
X014279Y030391D01*
X014255Y030456D01*
X014227Y030520D01*
X014196Y030582D01*
X014162Y030642D01*
X014124Y030700D01*
X014083Y030756D01*
X014039Y030810D01*
X013992Y030861D01*
X013943Y030910D01*
X013891Y030955D01*
X013836Y030998D01*
X013779Y031038D01*
X013720Y031074D01*
X013659Y031107D01*
X013596Y031137D01*
X013532Y031163D01*
X013466Y031185D01*
X013399Y031204D01*
X013332Y031219D01*
X013263Y031230D01*
X013194Y031238D01*
X013125Y031242D01*
X013056Y031241D01*
X012986Y031237D01*
X012917Y031229D01*
X012849Y031218D01*
X012781Y031202D01*
X012715Y031183D01*
X012649Y031160D01*
X012585Y031134D01*
X012523Y031104D01*
X012462Y031070D01*
X012403Y031034D01*
X012346Y030994D01*
X012292Y030951D01*
X012240Y030905D01*
X012190Y030856D01*
X012144Y030804D01*
X012100Y030750D01*
X012060Y030694D01*
X012022Y030636D01*
X011988Y030575D01*
X011958Y030513D01*
X011931Y030449D01*
X011907Y030384D01*
X011887Y030317D01*
X011871Y030250D01*
X011858Y030182D01*
X011850Y030113D01*
X011845Y030044D01*
X011844Y029974D01*
X011847Y029905D01*
X011854Y029836D01*
X011864Y029767D01*
X011879Y029699D01*
X011897Y029632D01*
X011919Y029567D01*
X011944Y029502D01*
X011973Y029439D01*
X012005Y029378D01*
X012041Y029318D01*
X012080Y029261D01*
X012122Y029206D01*
X012167Y029153D01*
X012215Y029103D01*
X012266Y029055D01*
X012319Y029011D01*
X012375Y028969D01*
X012433Y028931D01*
X012493Y028896D01*
X012554Y028864D01*
X011473Y028536D02*
X011506Y028597D01*
X011537Y028659D01*
X011563Y028723D01*
X011586Y028789D01*
X011606Y028855D01*
X011622Y028923D01*
X011634Y028991D01*
X011642Y029060D01*
X011646Y029129D01*
X011647Y029199D01*
X011643Y029268D01*
X011636Y029337D01*
X011625Y029405D01*
X011610Y029473D01*
X011592Y029540D01*
X011570Y029606D01*
X011544Y029670D01*
X011514Y029733D01*
X011482Y029794D01*
X011446Y029853D01*
X011406Y029911D01*
X011364Y029965D01*
X011318Y030018D01*
X011270Y030068D01*
X011219Y030115D01*
X011165Y030159D01*
X011110Y030200D01*
X011051Y030238D01*
X010991Y030273D01*
X010929Y030304D01*
X010866Y030332D01*
X010801Y030356D01*
X010735Y030377D01*
X010667Y030393D01*
X010599Y030407D01*
X010530Y030416D01*
X010461Y030421D01*
X010392Y030423D01*
X010323Y030421D01*
X010253Y030415D01*
X010185Y030405D01*
X010117Y030391D01*
X010050Y030374D01*
X009983Y030353D01*
X009919Y030328D01*
X009855Y030300D01*
X009794Y030268D01*
X009734Y030233D01*
X009676Y030194D01*
X009621Y030153D01*
X009567Y030108D01*
X009517Y030061D01*
X009469Y030010D01*
X009424Y029958D01*
X009382Y029902D01*
X009343Y029845D01*
X009307Y029785D01*
X009275Y029724D01*
X009246Y029661D01*
X009221Y029596D01*
X009199Y029530D01*
X009181Y029463D01*
X009167Y029395D01*
X009156Y029327D01*
X009150Y029258D01*
X009147Y029188D01*
X009148Y029119D01*
X009153Y029050D01*
X009162Y028981D01*
X009174Y028913D01*
X009191Y028845D01*
X009211Y028779D01*
X009234Y028714D01*
X009262Y028650D01*
X009292Y028588D01*
X009327Y028527D01*
X009364Y028469D01*
X009405Y028413D01*
X009449Y028359D01*
X009495Y028307D01*
X009545Y028259D01*
X009597Y028213D01*
X009651Y028170D01*
X009708Y028130D01*
X009767Y028093D01*
X009828Y028060D01*
X009890Y028030D01*
X009955Y028004D01*
X010020Y027981D01*
X010087Y027962D01*
X009093Y027432D02*
X009114Y027498D01*
X009131Y027565D01*
X009145Y027633D01*
X009155Y027702D01*
X009161Y027771D01*
X009163Y027841D01*
X009161Y027910D01*
X009156Y027979D01*
X009147Y028048D01*
X009133Y028116D01*
X009117Y028183D01*
X009096Y028250D01*
X009072Y028315D01*
X009044Y028378D01*
X009013Y028440D01*
X008978Y028500D01*
X008940Y028558D01*
X008899Y028614D01*
X008855Y028668D01*
X008808Y028719D01*
X008758Y028767D01*
X008706Y028813D01*
X008651Y028855D01*
X008594Y028894D01*
X008534Y028931D01*
X008473Y028963D01*
X008410Y028993D01*
X008346Y029019D01*
X008280Y029041D01*
X008213Y029059D01*
X008146Y029074D01*
X008077Y029085D01*
X008008Y029092D01*
X007939Y029096D01*
X007870Y029095D01*
X007800Y029091D01*
X007731Y029083D01*
X007663Y029071D01*
X007595Y029055D01*
X007529Y029036D01*
X007463Y029012D01*
X007399Y028986D01*
X007337Y028955D01*
X007276Y028922D01*
X007218Y028885D01*
X007161Y028845D01*
X007107Y028801D01*
X007055Y028755D01*
X007006Y028706D01*
X006960Y028654D01*
X006916Y028600D01*
X006876Y028544D01*
X006839Y028485D01*
X006805Y028425D01*
X006775Y028362D01*
X006748Y028298D01*
X006724Y028233D01*
X006705Y028166D01*
X006689Y028099D01*
X006677Y028031D01*
X006668Y027962D01*
X006664Y027892D01*
X006663Y027823D01*
X006666Y027754D01*
X006673Y027685D01*
X006684Y027616D01*
X006699Y027548D01*
X006717Y027481D01*
X006739Y027416D01*
X006765Y027351D01*
X006794Y027288D01*
X006827Y027227D01*
X006863Y027168D01*
X006902Y027111D01*
X006945Y027056D01*
X006990Y027003D01*
X007038Y026953D01*
X007089Y026906D01*
X007142Y026862D01*
X007198Y026821D01*
X007256Y026782D01*
X007316Y026748D01*
X007378Y026716D01*
X007442Y026688D01*
X007507Y026664D01*
X007573Y026643D01*
X007640Y026626D01*
X007708Y026613D01*
X007777Y026603D01*
X007846Y026598D01*
X006973Y025882D02*
X006981Y025951D01*
X006985Y026020D01*
X006986Y026090D01*
X006982Y026159D01*
X006975Y026228D01*
X006963Y026297D01*
X006948Y026364D01*
X006929Y026431D01*
X006907Y026497D01*
X006881Y026561D01*
X006851Y026624D01*
X006818Y026685D01*
X006782Y026744D01*
X006742Y026801D01*
X006699Y026855D01*
X006654Y026908D01*
X006605Y026957D01*
X006554Y027004D01*
X006500Y027048D01*
X006444Y027089D01*
X006386Y027127D01*
X006326Y027161D01*
X006264Y027192D01*
X006200Y027220D01*
X006135Y027244D01*
X006069Y027264D01*
X006001Y027281D01*
X005933Y027293D01*
X005864Y027302D01*
X005795Y027308D01*
X005726Y027309D01*
X005656Y027306D01*
X005587Y027300D01*
X005519Y027290D01*
X005451Y027276D01*
X005384Y027258D01*
X005318Y027237D01*
X005253Y027212D01*
X005190Y027183D01*
X005128Y027151D01*
X005068Y027116D01*
X005011Y027077D01*
X004955Y027035D01*
X004903Y026991D01*
X004852Y026943D01*
X004804Y026892D01*
X004760Y026840D01*
X004718Y026784D01*
X004679Y026727D01*
X004644Y026667D01*
X004612Y026605D01*
X004583Y026542D01*
X004558Y026477D01*
X004537Y026411D01*
X004519Y026344D01*
X004505Y026276D01*
X004495Y026208D01*
X004489Y026139D01*
X004486Y026069D01*
X004487Y026000D01*
X004493Y025931D01*
X004502Y025862D01*
X004514Y025794D01*
X004531Y025726D01*
X004551Y025660D01*
X004575Y025595D01*
X004603Y025531D01*
X004634Y025469D01*
X004668Y025409D01*
X004706Y025351D01*
X004747Y025295D01*
X004791Y025241D01*
X004838Y025190D01*
X004887Y025141D01*
X004940Y025096D01*
X004994Y025053D01*
X005051Y025013D01*
X005110Y024977D01*
X005171Y024944D01*
X005234Y024914D01*
X005298Y024888D01*
X005364Y024866D01*
X005431Y024847D01*
X005498Y024832D01*
X005567Y024820D01*
X005636Y024813D01*
X005705Y024809D01*
X005775Y024810D01*
X005844Y024814D01*
X005913Y024822D01*
X005196Y023950D02*
X005190Y024019D01*
X005181Y024088D01*
X005167Y024156D01*
X005150Y024223D01*
X005129Y024289D01*
X005105Y024354D01*
X005077Y024418D01*
X005045Y024480D01*
X005010Y024540D01*
X004972Y024598D01*
X004931Y024653D01*
X004887Y024707D01*
X004839Y024757D01*
X004789Y024806D01*
X004737Y024851D01*
X004682Y024893D01*
X004624Y024932D01*
X004565Y024968D01*
X004504Y025001D01*
X004441Y025030D01*
X004376Y025055D01*
X004310Y025077D01*
X004244Y025096D01*
X004176Y025110D01*
X004107Y025121D01*
X004038Y025128D01*
X003969Y025131D01*
X003899Y025130D01*
X003830Y025125D01*
X003761Y025117D01*
X003693Y025105D01*
X003626Y025089D01*
X003559Y025069D01*
X003494Y025046D01*
X003430Y025019D01*
X003367Y024988D01*
X003307Y024954D01*
X003248Y024917D01*
X003192Y024876D01*
X003138Y024833D01*
X003086Y024787D01*
X003037Y024737D01*
X002991Y024686D01*
X002948Y024631D01*
X002908Y024575D01*
X002871Y024516D01*
X002838Y024455D01*
X002807Y024393D01*
X002781Y024328D01*
X002758Y024263D01*
X002738Y024196D01*
X002723Y024129D01*
X002711Y024060D01*
X002703Y023992D01*
X002699Y023922D01*
X002698Y023853D01*
X002702Y023784D01*
X002709Y023715D01*
X002720Y023646D01*
X002735Y023578D01*
X002754Y023512D01*
X002776Y023446D01*
X002802Y023382D01*
X002832Y023319D01*
X002865Y023258D01*
X002901Y023198D01*
X002940Y023141D01*
X002983Y023087D01*
X003028Y023034D01*
X003077Y022985D01*
X003128Y022938D01*
X003181Y022894D01*
X003237Y022853D01*
X003296Y022815D01*
X003356Y022780D01*
X003418Y022749D01*
X003481Y022721D01*
X003546Y022697D01*
X003613Y022677D01*
X003680Y022660D01*
X003748Y022647D01*
X003817Y022638D01*
X003886Y022633D01*
X003956Y022631D01*
X004025Y022633D01*
X004094Y022640D01*
X004163Y022650D01*
X004231Y022663D01*
X004298Y022681D01*
X004364Y022702D01*
X003833Y021707D02*
X003814Y021774D01*
X003791Y021839D01*
X003765Y021904D01*
X003735Y021966D01*
X003702Y022027D01*
X003665Y022086D01*
X003625Y022143D01*
X003582Y022197D01*
X003536Y022249D01*
X003488Y022299D01*
X003436Y022345D01*
X003382Y022389D01*
X003326Y022430D01*
X003268Y022467D01*
X003207Y022502D01*
X003145Y022532D01*
X003081Y022560D01*
X003016Y022583D01*
X002950Y022603D01*
X002882Y022620D01*
X002814Y022632D01*
X002745Y022641D01*
X002676Y022646D01*
X002607Y022647D01*
X002537Y022644D01*
X002468Y022638D01*
X002400Y022627D01*
X002332Y022613D01*
X002265Y022595D01*
X002199Y022573D01*
X002134Y022548D01*
X002071Y022519D01*
X002010Y022487D01*
X001950Y022451D01*
X001893Y022412D01*
X001837Y022370D01*
X001785Y022325D01*
X001734Y022277D01*
X001687Y022227D01*
X001642Y022173D01*
X001601Y022118D01*
X001562Y022060D01*
X001527Y022000D01*
X001495Y021939D01*
X001467Y021875D01*
X001442Y021811D01*
X001421Y021744D01*
X001404Y021677D01*
X001390Y021609D01*
X001380Y021541D01*
X001374Y021471D01*
X001372Y021402D01*
X001374Y021333D01*
X001379Y021264D01*
X001388Y021195D01*
X001402Y021127D01*
X001418Y021059D01*
X001439Y020993D01*
X001463Y020928D01*
X001491Y020865D01*
X001522Y020803D01*
X001557Y020743D01*
X001595Y020684D01*
X001636Y020629D01*
X001680Y020575D01*
X001727Y020524D01*
X001777Y020476D01*
X001830Y020430D01*
X001884Y020388D01*
X001942Y020348D01*
X002001Y020312D01*
X002062Y020280D01*
X002125Y020250D01*
X002189Y020224D01*
X002255Y020202D01*
X002322Y020184D01*
X002390Y020169D01*
X002458Y020158D01*
X002527Y020151D01*
X002596Y020147D01*
X002666Y020148D01*
X002735Y020152D01*
X002804Y020160D01*
X002872Y020172D01*
X002940Y020188D01*
X003006Y020208D01*
X003072Y020231D01*
X003136Y020257D01*
X003198Y020288D01*
X003259Y020321D01*
X002930Y019241D02*
X002898Y019303D01*
X002863Y019363D01*
X002824Y019421D01*
X002783Y019476D01*
X002738Y019529D01*
X002691Y019580D01*
X002640Y019628D01*
X002588Y019673D01*
X002532Y019715D01*
X002475Y019754D01*
X002416Y019790D01*
X002354Y019822D01*
X002291Y019851D01*
X002226Y019876D01*
X002161Y019898D01*
X002094Y019916D01*
X002026Y019930D01*
X001957Y019940D01*
X001888Y019947D01*
X001819Y019950D01*
X001749Y019949D01*
X001680Y019944D01*
X001611Y019935D01*
X001543Y019923D01*
X001476Y019906D01*
X001409Y019886D01*
X001344Y019863D01*
X001280Y019835D01*
X001218Y019805D01*
X001158Y019770D01*
X001099Y019733D01*
X001043Y019692D01*
X000989Y019649D01*
X000938Y019602D01*
X000889Y019553D01*
X000843Y019501D01*
X000800Y019446D01*
X000760Y019389D01*
X000724Y019330D01*
X000690Y019269D01*
X000660Y019207D01*
X000634Y019143D01*
X000611Y019077D01*
X000592Y019010D01*
X000577Y018943D01*
X000565Y018874D01*
X000557Y018805D01*
X000554Y018736D01*
X000553Y018667D01*
X000557Y018598D01*
X000565Y018529D01*
X000576Y018460D01*
X000591Y018392D01*
X000610Y018326D01*
X000633Y018260D01*
X000659Y018196D01*
X000689Y018133D01*
X000722Y018072D01*
X000759Y018013D01*
X000798Y017956D01*
X000841Y017902D01*
X000887Y017850D01*
X000935Y017800D01*
X000987Y017753D01*
X001041Y017709D01*
X001097Y017669D01*
X001155Y017631D01*
X001215Y017597D01*
X001277Y017566D01*
X001341Y017538D01*
X001406Y017515D01*
X001473Y017494D01*
X001540Y017478D01*
X001608Y017465D01*
X001677Y017456D01*
X001746Y017451D01*
X001816Y017450D01*
X001885Y017453D01*
X001954Y017459D01*
X002023Y017469D01*
X002091Y017484D01*
X002158Y017501D01*
X002224Y017523D01*
X002288Y017548D01*
X002351Y017577D01*
X002413Y017609D01*
X002473Y017644D01*
X002530Y017683D01*
X002585Y017725D01*
X002638Y017770D01*
X002527Y016647D02*
X002484Y016701D01*
X002438Y016753D01*
X002389Y016802D01*
X002337Y016849D01*
X002283Y016892D01*
X002227Y016933D01*
X002168Y016970D01*
X002108Y017004D01*
X002045Y017034D01*
X001982Y017061D01*
X001916Y017085D01*
X001850Y017105D01*
X001782Y017121D01*
X001714Y017133D01*
X001645Y017141D01*
X001576Y017146D01*
X001506Y017147D01*
X001437Y017144D01*
X001368Y017137D01*
X001300Y017126D01*
X001232Y017112D01*
X001165Y017093D01*
X001099Y017071D01*
X001034Y017046D01*
X000971Y017017D01*
X000910Y016984D01*
X000851Y016948D01*
X000794Y016909D01*
X000738Y016867D01*
X000686Y016822D01*
X000636Y016774D01*
X000589Y016723D01*
X000544Y016669D01*
X000503Y016614D01*
X000465Y016556D01*
X000430Y016496D01*
X000398Y016434D01*
X000370Y016371D01*
X000346Y016306D01*
X000325Y016240D01*
X000308Y016172D01*
X000294Y016104D01*
X000285Y016035D01*
X000279Y015966D01*
X000277Y015897D01*
X000279Y015828D01*
X000285Y015759D01*
X000294Y015690D01*
X000308Y015622D01*
X000325Y015554D01*
X000346Y015488D01*
X000370Y015423D01*
X000398Y015360D01*
X000430Y015298D01*
X000465Y015238D01*
X000503Y015180D01*
X000544Y015125D01*
X000589Y015071D01*
X000636Y015020D01*
X000686Y014972D01*
X000738Y014927D01*
X000794Y014885D01*
X000851Y014846D01*
X000910Y014810D01*
X000971Y014777D01*
X001034Y014748D01*
X001099Y014723D01*
X001165Y014701D01*
X001232Y014682D01*
X001300Y014668D01*
X001368Y014657D01*
X001437Y014650D01*
X001506Y014647D01*
X001576Y014648D01*
X001645Y014653D01*
X001714Y014661D01*
X001782Y014673D01*
X001850Y014689D01*
X001916Y014709D01*
X001982Y014733D01*
X002045Y014760D01*
X002108Y014790D01*
X002168Y014824D01*
X002227Y014861D01*
X002283Y014902D01*
X002337Y014945D01*
X002389Y014992D01*
X002438Y015041D01*
X002484Y015093D01*
X002527Y015147D01*
X002637Y014025D02*
X002584Y014070D01*
X002528Y014112D01*
X002471Y014151D01*
X002411Y014186D01*
X002350Y014218D01*
X002286Y014247D01*
X002222Y014272D01*
X002156Y014293D01*
X002089Y014311D01*
X002021Y014325D01*
X001952Y014335D01*
X001883Y014341D01*
X001814Y014344D01*
X001744Y014343D01*
X001675Y014337D01*
X001606Y014328D01*
X001538Y014316D01*
X001471Y014299D01*
X001404Y014279D01*
X001339Y014255D01*
X001275Y014227D01*
X001213Y014196D01*
X001153Y014162D01*
X001095Y014124D01*
X001039Y014083D01*
X000985Y014039D01*
X000934Y013992D01*
X000885Y013943D01*
X000840Y013891D01*
X000797Y013836D01*
X000757Y013779D01*
X000721Y013720D01*
X000688Y013659D01*
X000658Y013596D01*
X000632Y013532D01*
X000610Y013466D01*
X000591Y013399D01*
X000576Y013332D01*
X000565Y013263D01*
X000557Y013194D01*
X000553Y013125D01*
X000554Y013056D01*
X000558Y012986D01*
X000566Y012917D01*
X000577Y012849D01*
X000593Y012781D01*
X000612Y012715D01*
X000635Y012649D01*
X000661Y012585D01*
X000691Y012523D01*
X000725Y012462D01*
X000761Y012403D01*
X000801Y012346D01*
X000844Y012292D01*
X000890Y012240D01*
X000939Y012190D01*
X000991Y012144D01*
X001045Y012100D01*
X001101Y012060D01*
X001159Y012022D01*
X001220Y011988D01*
X001282Y011958D01*
X001346Y011931D01*
X001411Y011907D01*
X001478Y011887D01*
X001545Y011871D01*
X001613Y011858D01*
X001682Y011850D01*
X001751Y011845D01*
X001821Y011844D01*
X001890Y011847D01*
X001959Y011854D01*
X002028Y011864D01*
X002096Y011879D01*
X002163Y011897D01*
X002228Y011919D01*
X002293Y011944D01*
X002356Y011973D01*
X002417Y012005D01*
X002477Y012041D01*
X002534Y012080D01*
X002589Y012122D01*
X002642Y012167D01*
X002692Y012215D01*
X002740Y012266D01*
X002784Y012319D01*
X002826Y012375D01*
X002864Y012433D01*
X002899Y012493D01*
X002931Y012554D01*
X003259Y011473D02*
X003198Y011506D01*
X003136Y011537D01*
X003072Y011563D01*
X003006Y011586D01*
X002940Y011606D01*
X002872Y011622D01*
X002804Y011634D01*
X002735Y011642D01*
X002666Y011646D01*
X002596Y011647D01*
X002527Y011643D01*
X002458Y011636D01*
X002390Y011625D01*
X002322Y011610D01*
X002255Y011592D01*
X002189Y011570D01*
X002125Y011544D01*
X002062Y011514D01*
X002001Y011482D01*
X001942Y011446D01*
X001884Y011406D01*
X001830Y011364D01*
X001777Y011318D01*
X001727Y011270D01*
X001680Y011219D01*
X001636Y011165D01*
X001595Y011110D01*
X001557Y011051D01*
X001522Y010991D01*
X001491Y010929D01*
X001463Y010866D01*
X001439Y010801D01*
X001418Y010735D01*
X001402Y010667D01*
X001388Y010599D01*
X001379Y010530D01*
X001374Y010461D01*
X001372Y010392D01*
X001374Y010323D01*
X001380Y010253D01*
X001390Y010185D01*
X001404Y010117D01*
X001421Y010050D01*
X001442Y009983D01*
X001467Y009919D01*
X001495Y009855D01*
X001527Y009794D01*
X001562Y009734D01*
X001601Y009676D01*
X001642Y009621D01*
X001687Y009567D01*
X001734Y009517D01*
X001785Y009469D01*
X001837Y009424D01*
X001893Y009382D01*
X001950Y009343D01*
X002010Y009307D01*
X002071Y009275D01*
X002134Y009246D01*
X002199Y009221D01*
X002265Y009199D01*
X002332Y009181D01*
X002400Y009167D01*
X002468Y009156D01*
X002537Y009150D01*
X002607Y009147D01*
X002676Y009148D01*
X002745Y009153D01*
X002814Y009162D01*
X002882Y009174D01*
X002950Y009191D01*
X003016Y009211D01*
X003081Y009234D01*
X003145Y009262D01*
X003207Y009292D01*
X003268Y009327D01*
X003326Y009364D01*
X003382Y009405D01*
X003436Y009449D01*
X003488Y009495D01*
X003536Y009545D01*
X003582Y009597D01*
X003625Y009651D01*
X003665Y009708D01*
X003702Y009767D01*
X003735Y009828D01*
X003765Y009890D01*
X003791Y009955D01*
X003814Y010020D01*
X003833Y010087D01*
X004362Y009093D02*
X004296Y009114D01*
X004229Y009131D01*
X004161Y009145D01*
X004092Y009155D01*
X004023Y009161D01*
X003953Y009163D01*
X003884Y009161D01*
X003815Y009156D01*
X003746Y009147D01*
X003678Y009133D01*
X003611Y009117D01*
X003544Y009096D01*
X003479Y009072D01*
X003416Y009044D01*
X003354Y009013D01*
X003294Y008978D01*
X003236Y008940D01*
X003180Y008899D01*
X003126Y008855D01*
X003075Y008808D01*
X003027Y008758D01*
X002981Y008706D01*
X002939Y008651D01*
X002900Y008594D01*
X002863Y008534D01*
X002831Y008473D01*
X002801Y008410D01*
X002775Y008346D01*
X002753Y008280D01*
X002735Y008213D01*
X002720Y008146D01*
X002709Y008077D01*
X002702Y008008D01*
X002698Y007939D01*
X002699Y007870D01*
X002703Y007800D01*
X002711Y007731D01*
X002723Y007663D01*
X002739Y007595D01*
X002758Y007529D01*
X002782Y007463D01*
X002808Y007399D01*
X002839Y007337D01*
X002872Y007276D01*
X002909Y007218D01*
X002949Y007161D01*
X002993Y007107D01*
X003039Y007055D01*
X003088Y007006D01*
X003140Y006960D01*
X003194Y006916D01*
X003250Y006876D01*
X003309Y006839D01*
X003369Y006805D01*
X003432Y006775D01*
X003496Y006748D01*
X003561Y006724D01*
X003628Y006705D01*
X003695Y006689D01*
X003763Y006677D01*
X003832Y006668D01*
X003902Y006664D01*
X003971Y006663D01*
X004040Y006666D01*
X004109Y006673D01*
X004178Y006684D01*
X004246Y006699D01*
X004313Y006717D01*
X004378Y006739D01*
X004443Y006765D01*
X004506Y006794D01*
X004567Y006827D01*
X004626Y006863D01*
X004683Y006902D01*
X004738Y006945D01*
X004791Y006990D01*
X004841Y007038D01*
X004888Y007089D01*
X004932Y007142D01*
X004973Y007198D01*
X005012Y007256D01*
X005046Y007316D01*
X005078Y007378D01*
X005106Y007442D01*
X005130Y007507D01*
X005151Y007573D01*
X005168Y007640D01*
X005181Y007708D01*
X005191Y007777D01*
X005196Y007846D01*
D14*
X002948Y007913D02*
X002950Y007976D01*
X002956Y008038D01*
X002966Y008100D01*
X002979Y008162D01*
X002997Y008222D01*
X003018Y008281D01*
X003043Y008339D01*
X003072Y008395D01*
X003104Y008449D01*
X003139Y008501D01*
X003177Y008550D01*
X003219Y008598D01*
X003263Y008642D01*
X003311Y008684D01*
X003360Y008722D01*
X003412Y008757D01*
X003466Y008789D01*
X003522Y008818D01*
X003580Y008843D01*
X003639Y008864D01*
X003699Y008882D01*
X003761Y008895D01*
X003823Y008905D01*
X003885Y008911D01*
X003948Y008913D01*
X004011Y008911D01*
X004073Y008905D01*
X004135Y008895D01*
X004197Y008882D01*
X004257Y008864D01*
X004316Y008843D01*
X004374Y008818D01*
X004430Y008789D01*
X004484Y008757D01*
X004536Y008722D01*
X004585Y008684D01*
X004633Y008642D01*
X004677Y008598D01*
X004719Y008550D01*
X004757Y008501D01*
X004792Y008449D01*
X004824Y008395D01*
X004853Y008339D01*
X004878Y008281D01*
X004899Y008222D01*
X004917Y008162D01*
X004930Y008100D01*
X004940Y008038D01*
X004946Y007976D01*
X004948Y007913D01*
X004946Y007850D01*
X004940Y007788D01*
X004930Y007726D01*
X004917Y007664D01*
X004899Y007604D01*
X004878Y007545D01*
X004853Y007487D01*
X004824Y007431D01*
X004792Y007377D01*
X004757Y007325D01*
X004719Y007276D01*
X004677Y007228D01*
X004633Y007184D01*
X004585Y007142D01*
X004536Y007104D01*
X004484Y007069D01*
X004430Y007037D01*
X004374Y007008D01*
X004316Y006983D01*
X004257Y006962D01*
X004197Y006944D01*
X004135Y006931D01*
X004073Y006921D01*
X004011Y006915D01*
X003948Y006913D01*
X003885Y006915D01*
X003823Y006921D01*
X003761Y006931D01*
X003699Y006944D01*
X003639Y006962D01*
X003580Y006983D01*
X003522Y007008D01*
X003466Y007037D01*
X003412Y007069D01*
X003360Y007104D01*
X003311Y007142D01*
X003263Y007184D01*
X003219Y007228D01*
X003177Y007276D01*
X003139Y007325D01*
X003104Y007377D01*
X003072Y007431D01*
X003043Y007487D01*
X003018Y007545D01*
X002997Y007604D01*
X002979Y007664D01*
X002966Y007726D01*
X002956Y007788D01*
X002950Y007850D01*
X002948Y007913D01*
X001622Y010397D02*
X001624Y010460D01*
X001630Y010522D01*
X001640Y010584D01*
X001653Y010646D01*
X001671Y010706D01*
X001692Y010765D01*
X001717Y010823D01*
X001746Y010879D01*
X001778Y010933D01*
X001813Y010985D01*
X001851Y011034D01*
X001893Y011082D01*
X001937Y011126D01*
X001985Y011168D01*
X002034Y011206D01*
X002086Y011241D01*
X002140Y011273D01*
X002196Y011302D01*
X002254Y011327D01*
X002313Y011348D01*
X002373Y011366D01*
X002435Y011379D01*
X002497Y011389D01*
X002559Y011395D01*
X002622Y011397D01*
X002685Y011395D01*
X002747Y011389D01*
X002809Y011379D01*
X002871Y011366D01*
X002931Y011348D01*
X002990Y011327D01*
X003048Y011302D01*
X003104Y011273D01*
X003158Y011241D01*
X003210Y011206D01*
X003259Y011168D01*
X003307Y011126D01*
X003351Y011082D01*
X003393Y011034D01*
X003431Y010985D01*
X003466Y010933D01*
X003498Y010879D01*
X003527Y010823D01*
X003552Y010765D01*
X003573Y010706D01*
X003591Y010646D01*
X003604Y010584D01*
X003614Y010522D01*
X003620Y010460D01*
X003622Y010397D01*
X003620Y010334D01*
X003614Y010272D01*
X003604Y010210D01*
X003591Y010148D01*
X003573Y010088D01*
X003552Y010029D01*
X003527Y009971D01*
X003498Y009915D01*
X003466Y009861D01*
X003431Y009809D01*
X003393Y009760D01*
X003351Y009712D01*
X003307Y009668D01*
X003259Y009626D01*
X003210Y009588D01*
X003158Y009553D01*
X003104Y009521D01*
X003048Y009492D01*
X002990Y009467D01*
X002931Y009446D01*
X002871Y009428D01*
X002809Y009415D01*
X002747Y009405D01*
X002685Y009399D01*
X002622Y009397D01*
X002559Y009399D01*
X002497Y009405D01*
X002435Y009415D01*
X002373Y009428D01*
X002313Y009446D01*
X002254Y009467D01*
X002196Y009492D01*
X002140Y009521D01*
X002086Y009553D01*
X002034Y009588D01*
X001985Y009626D01*
X001937Y009668D01*
X001893Y009712D01*
X001851Y009760D01*
X001813Y009809D01*
X001778Y009861D01*
X001746Y009915D01*
X001717Y009971D01*
X001692Y010029D01*
X001671Y010088D01*
X001653Y010148D01*
X001640Y010210D01*
X001630Y010272D01*
X001624Y010334D01*
X001622Y010397D01*
X000803Y013094D02*
X000805Y013157D01*
X000811Y013219D01*
X000821Y013281D01*
X000834Y013343D01*
X000852Y013403D01*
X000873Y013462D01*
X000898Y013520D01*
X000927Y013576D01*
X000959Y013630D01*
X000994Y013682D01*
X001032Y013731D01*
X001074Y013779D01*
X001118Y013823D01*
X001166Y013865D01*
X001215Y013903D01*
X001267Y013938D01*
X001321Y013970D01*
X001377Y013999D01*
X001435Y014024D01*
X001494Y014045D01*
X001554Y014063D01*
X001616Y014076D01*
X001678Y014086D01*
X001740Y014092D01*
X001803Y014094D01*
X001866Y014092D01*
X001928Y014086D01*
X001990Y014076D01*
X002052Y014063D01*
X002112Y014045D01*
X002171Y014024D01*
X002229Y013999D01*
X002285Y013970D01*
X002339Y013938D01*
X002391Y013903D01*
X002440Y013865D01*
X002488Y013823D01*
X002532Y013779D01*
X002574Y013731D01*
X002612Y013682D01*
X002647Y013630D01*
X002679Y013576D01*
X002708Y013520D01*
X002733Y013462D01*
X002754Y013403D01*
X002772Y013343D01*
X002785Y013281D01*
X002795Y013219D01*
X002801Y013157D01*
X002803Y013094D01*
X002801Y013031D01*
X002795Y012969D01*
X002785Y012907D01*
X002772Y012845D01*
X002754Y012785D01*
X002733Y012726D01*
X002708Y012668D01*
X002679Y012612D01*
X002647Y012558D01*
X002612Y012506D01*
X002574Y012457D01*
X002532Y012409D01*
X002488Y012365D01*
X002440Y012323D01*
X002391Y012285D01*
X002339Y012250D01*
X002285Y012218D01*
X002229Y012189D01*
X002171Y012164D01*
X002112Y012143D01*
X002052Y012125D01*
X001990Y012112D01*
X001928Y012102D01*
X001866Y012096D01*
X001803Y012094D01*
X001740Y012096D01*
X001678Y012102D01*
X001616Y012112D01*
X001554Y012125D01*
X001494Y012143D01*
X001435Y012164D01*
X001377Y012189D01*
X001321Y012218D01*
X001267Y012250D01*
X001215Y012285D01*
X001166Y012323D01*
X001118Y012365D01*
X001074Y012409D01*
X001032Y012457D01*
X000994Y012506D01*
X000959Y012558D01*
X000927Y012612D01*
X000898Y012668D01*
X000873Y012726D01*
X000852Y012785D01*
X000834Y012845D01*
X000821Y012907D01*
X000811Y012969D01*
X000805Y013031D01*
X000803Y013094D01*
X000527Y015897D02*
X000529Y015960D01*
X000535Y016022D01*
X000545Y016084D01*
X000558Y016146D01*
X000576Y016206D01*
X000597Y016265D01*
X000622Y016323D01*
X000651Y016379D01*
X000683Y016433D01*
X000718Y016485D01*
X000756Y016534D01*
X000798Y016582D01*
X000842Y016626D01*
X000890Y016668D01*
X000939Y016706D01*
X000991Y016741D01*
X001045Y016773D01*
X001101Y016802D01*
X001159Y016827D01*
X001218Y016848D01*
X001278Y016866D01*
X001340Y016879D01*
X001402Y016889D01*
X001464Y016895D01*
X001527Y016897D01*
X001590Y016895D01*
X001652Y016889D01*
X001714Y016879D01*
X001776Y016866D01*
X001836Y016848D01*
X001895Y016827D01*
X001953Y016802D01*
X002009Y016773D01*
X002063Y016741D01*
X002115Y016706D01*
X002164Y016668D01*
X002212Y016626D01*
X002256Y016582D01*
X002298Y016534D01*
X002336Y016485D01*
X002371Y016433D01*
X002403Y016379D01*
X002432Y016323D01*
X002457Y016265D01*
X002478Y016206D01*
X002496Y016146D01*
X002509Y016084D01*
X002519Y016022D01*
X002525Y015960D01*
X002527Y015897D01*
X002525Y015834D01*
X002519Y015772D01*
X002509Y015710D01*
X002496Y015648D01*
X002478Y015588D01*
X002457Y015529D01*
X002432Y015471D01*
X002403Y015415D01*
X002371Y015361D01*
X002336Y015309D01*
X002298Y015260D01*
X002256Y015212D01*
X002212Y015168D01*
X002164Y015126D01*
X002115Y015088D01*
X002063Y015053D01*
X002009Y015021D01*
X001953Y014992D01*
X001895Y014967D01*
X001836Y014946D01*
X001776Y014928D01*
X001714Y014915D01*
X001652Y014905D01*
X001590Y014899D01*
X001527Y014897D01*
X001464Y014899D01*
X001402Y014905D01*
X001340Y014915D01*
X001278Y014928D01*
X001218Y014946D01*
X001159Y014967D01*
X001101Y014992D01*
X001045Y015021D01*
X000991Y015053D01*
X000939Y015088D01*
X000890Y015126D01*
X000842Y015168D01*
X000798Y015212D01*
X000756Y015260D01*
X000718Y015309D01*
X000683Y015361D01*
X000651Y015415D01*
X000622Y015471D01*
X000597Y015529D01*
X000576Y015588D01*
X000558Y015648D01*
X000545Y015710D01*
X000535Y015772D01*
X000529Y015834D01*
X000527Y015897D01*
X000803Y018700D02*
X000805Y018763D01*
X000811Y018825D01*
X000821Y018887D01*
X000834Y018949D01*
X000852Y019009D01*
X000873Y019068D01*
X000898Y019126D01*
X000927Y019182D01*
X000959Y019236D01*
X000994Y019288D01*
X001032Y019337D01*
X001074Y019385D01*
X001118Y019429D01*
X001166Y019471D01*
X001215Y019509D01*
X001267Y019544D01*
X001321Y019576D01*
X001377Y019605D01*
X001435Y019630D01*
X001494Y019651D01*
X001554Y019669D01*
X001616Y019682D01*
X001678Y019692D01*
X001740Y019698D01*
X001803Y019700D01*
X001866Y019698D01*
X001928Y019692D01*
X001990Y019682D01*
X002052Y019669D01*
X002112Y019651D01*
X002171Y019630D01*
X002229Y019605D01*
X002285Y019576D01*
X002339Y019544D01*
X002391Y019509D01*
X002440Y019471D01*
X002488Y019429D01*
X002532Y019385D01*
X002574Y019337D01*
X002612Y019288D01*
X002647Y019236D01*
X002679Y019182D01*
X002708Y019126D01*
X002733Y019068D01*
X002754Y019009D01*
X002772Y018949D01*
X002785Y018887D01*
X002795Y018825D01*
X002801Y018763D01*
X002803Y018700D01*
X002801Y018637D01*
X002795Y018575D01*
X002785Y018513D01*
X002772Y018451D01*
X002754Y018391D01*
X002733Y018332D01*
X002708Y018274D01*
X002679Y018218D01*
X002647Y018164D01*
X002612Y018112D01*
X002574Y018063D01*
X002532Y018015D01*
X002488Y017971D01*
X002440Y017929D01*
X002391Y017891D01*
X002339Y017856D01*
X002285Y017824D01*
X002229Y017795D01*
X002171Y017770D01*
X002112Y017749D01*
X002052Y017731D01*
X001990Y017718D01*
X001928Y017708D01*
X001866Y017702D01*
X001803Y017700D01*
X001740Y017702D01*
X001678Y017708D01*
X001616Y017718D01*
X001554Y017731D01*
X001494Y017749D01*
X001435Y017770D01*
X001377Y017795D01*
X001321Y017824D01*
X001267Y017856D01*
X001215Y017891D01*
X001166Y017929D01*
X001118Y017971D01*
X001074Y018015D01*
X001032Y018063D01*
X000994Y018112D01*
X000959Y018164D01*
X000927Y018218D01*
X000898Y018274D01*
X000873Y018332D01*
X000852Y018391D01*
X000834Y018451D01*
X000821Y018513D01*
X000811Y018575D01*
X000805Y018637D01*
X000803Y018700D01*
X001622Y021397D02*
X001624Y021460D01*
X001630Y021522D01*
X001640Y021584D01*
X001653Y021646D01*
X001671Y021706D01*
X001692Y021765D01*
X001717Y021823D01*
X001746Y021879D01*
X001778Y021933D01*
X001813Y021985D01*
X001851Y022034D01*
X001893Y022082D01*
X001937Y022126D01*
X001985Y022168D01*
X002034Y022206D01*
X002086Y022241D01*
X002140Y022273D01*
X002196Y022302D01*
X002254Y022327D01*
X002313Y022348D01*
X002373Y022366D01*
X002435Y022379D01*
X002497Y022389D01*
X002559Y022395D01*
X002622Y022397D01*
X002685Y022395D01*
X002747Y022389D01*
X002809Y022379D01*
X002871Y022366D01*
X002931Y022348D01*
X002990Y022327D01*
X003048Y022302D01*
X003104Y022273D01*
X003158Y022241D01*
X003210Y022206D01*
X003259Y022168D01*
X003307Y022126D01*
X003351Y022082D01*
X003393Y022034D01*
X003431Y021985D01*
X003466Y021933D01*
X003498Y021879D01*
X003527Y021823D01*
X003552Y021765D01*
X003573Y021706D01*
X003591Y021646D01*
X003604Y021584D01*
X003614Y021522D01*
X003620Y021460D01*
X003622Y021397D01*
X003620Y021334D01*
X003614Y021272D01*
X003604Y021210D01*
X003591Y021148D01*
X003573Y021088D01*
X003552Y021029D01*
X003527Y020971D01*
X003498Y020915D01*
X003466Y020861D01*
X003431Y020809D01*
X003393Y020760D01*
X003351Y020712D01*
X003307Y020668D01*
X003259Y020626D01*
X003210Y020588D01*
X003158Y020553D01*
X003104Y020521D01*
X003048Y020492D01*
X002990Y020467D01*
X002931Y020446D01*
X002871Y020428D01*
X002809Y020415D01*
X002747Y020405D01*
X002685Y020399D01*
X002622Y020397D01*
X002559Y020399D01*
X002497Y020405D01*
X002435Y020415D01*
X002373Y020428D01*
X002313Y020446D01*
X002254Y020467D01*
X002196Y020492D01*
X002140Y020521D01*
X002086Y020553D01*
X002034Y020588D01*
X001985Y020626D01*
X001937Y020668D01*
X001893Y020712D01*
X001851Y020760D01*
X001813Y020809D01*
X001778Y020861D01*
X001746Y020915D01*
X001717Y020971D01*
X001692Y021029D01*
X001671Y021088D01*
X001653Y021148D01*
X001640Y021210D01*
X001630Y021272D01*
X001624Y021334D01*
X001622Y021397D01*
X002948Y023881D02*
X002950Y023944D01*
X002956Y024006D01*
X002966Y024068D01*
X002979Y024130D01*
X002997Y024190D01*
X003018Y024249D01*
X003043Y024307D01*
X003072Y024363D01*
X003104Y024417D01*
X003139Y024469D01*
X003177Y024518D01*
X003219Y024566D01*
X003263Y024610D01*
X003311Y024652D01*
X003360Y024690D01*
X003412Y024725D01*
X003466Y024757D01*
X003522Y024786D01*
X003580Y024811D01*
X003639Y024832D01*
X003699Y024850D01*
X003761Y024863D01*
X003823Y024873D01*
X003885Y024879D01*
X003948Y024881D01*
X004011Y024879D01*
X004073Y024873D01*
X004135Y024863D01*
X004197Y024850D01*
X004257Y024832D01*
X004316Y024811D01*
X004374Y024786D01*
X004430Y024757D01*
X004484Y024725D01*
X004536Y024690D01*
X004585Y024652D01*
X004633Y024610D01*
X004677Y024566D01*
X004719Y024518D01*
X004757Y024469D01*
X004792Y024417D01*
X004824Y024363D01*
X004853Y024307D01*
X004878Y024249D01*
X004899Y024190D01*
X004917Y024130D01*
X004930Y024068D01*
X004940Y024006D01*
X004946Y023944D01*
X004948Y023881D01*
X004946Y023818D01*
X004940Y023756D01*
X004930Y023694D01*
X004917Y023632D01*
X004899Y023572D01*
X004878Y023513D01*
X004853Y023455D01*
X004824Y023399D01*
X004792Y023345D01*
X004757Y023293D01*
X004719Y023244D01*
X004677Y023196D01*
X004633Y023152D01*
X004585Y023110D01*
X004536Y023072D01*
X004484Y023037D01*
X004430Y023005D01*
X004374Y022976D01*
X004316Y022951D01*
X004257Y022930D01*
X004197Y022912D01*
X004135Y022899D01*
X004073Y022889D01*
X004011Y022883D01*
X003948Y022881D01*
X003885Y022883D01*
X003823Y022889D01*
X003761Y022899D01*
X003699Y022912D01*
X003639Y022930D01*
X003580Y022951D01*
X003522Y022976D01*
X003466Y023005D01*
X003412Y023037D01*
X003360Y023072D01*
X003311Y023110D01*
X003263Y023152D01*
X003219Y023196D01*
X003177Y023244D01*
X003139Y023293D01*
X003104Y023345D01*
X003072Y023399D01*
X003043Y023455D01*
X003018Y023513D01*
X002997Y023572D01*
X002979Y023632D01*
X002966Y023694D01*
X002956Y023756D01*
X002950Y023818D01*
X002948Y023881D01*
X004736Y026059D02*
X004738Y026122D01*
X004744Y026184D01*
X004754Y026246D01*
X004767Y026308D01*
X004785Y026368D01*
X004806Y026427D01*
X004831Y026485D01*
X004860Y026541D01*
X004892Y026595D01*
X004927Y026647D01*
X004965Y026696D01*
X005007Y026744D01*
X005051Y026788D01*
X005099Y026830D01*
X005148Y026868D01*
X005200Y026903D01*
X005254Y026935D01*
X005310Y026964D01*
X005368Y026989D01*
X005427Y027010D01*
X005487Y027028D01*
X005549Y027041D01*
X005611Y027051D01*
X005673Y027057D01*
X005736Y027059D01*
X005799Y027057D01*
X005861Y027051D01*
X005923Y027041D01*
X005985Y027028D01*
X006045Y027010D01*
X006104Y026989D01*
X006162Y026964D01*
X006218Y026935D01*
X006272Y026903D01*
X006324Y026868D01*
X006373Y026830D01*
X006421Y026788D01*
X006465Y026744D01*
X006507Y026696D01*
X006545Y026647D01*
X006580Y026595D01*
X006612Y026541D01*
X006641Y026485D01*
X006666Y026427D01*
X006687Y026368D01*
X006705Y026308D01*
X006718Y026246D01*
X006728Y026184D01*
X006734Y026122D01*
X006736Y026059D01*
X006734Y025996D01*
X006728Y025934D01*
X006718Y025872D01*
X006705Y025810D01*
X006687Y025750D01*
X006666Y025691D01*
X006641Y025633D01*
X006612Y025577D01*
X006580Y025523D01*
X006545Y025471D01*
X006507Y025422D01*
X006465Y025374D01*
X006421Y025330D01*
X006373Y025288D01*
X006324Y025250D01*
X006272Y025215D01*
X006218Y025183D01*
X006162Y025154D01*
X006104Y025129D01*
X006045Y025108D01*
X005985Y025090D01*
X005923Y025077D01*
X005861Y025067D01*
X005799Y025061D01*
X005736Y025059D01*
X005673Y025061D01*
X005611Y025067D01*
X005549Y025077D01*
X005487Y025090D01*
X005427Y025108D01*
X005368Y025129D01*
X005310Y025154D01*
X005254Y025183D01*
X005200Y025215D01*
X005148Y025250D01*
X005099Y025288D01*
X005051Y025330D01*
X005007Y025374D01*
X004965Y025422D01*
X004927Y025471D01*
X004892Y025523D01*
X004860Y025577D01*
X004831Y025633D01*
X004806Y025691D01*
X004785Y025750D01*
X004767Y025810D01*
X004754Y025872D01*
X004744Y025934D01*
X004738Y025996D01*
X004736Y026059D01*
X007530Y023770D02*
X008025Y024265D01*
X008024Y024265D02*
X008038Y024276D01*
X008053Y024285D01*
X008069Y024291D01*
X008086Y024294D01*
X008104Y024294D01*
X008121Y024291D01*
X008137Y024285D01*
X008152Y024276D01*
X008166Y024265D01*
X008272Y024159D01*
X008272Y024088D01*
X009616Y022745D01*
X009686Y022745D01*
X009792Y022638D01*
X009793Y022639D02*
X009804Y022625D01*
X009813Y022610D01*
X009819Y022594D01*
X009822Y022577D01*
X009822Y022559D01*
X009819Y022542D01*
X009813Y022526D01*
X009804Y022511D01*
X009793Y022497D01*
X009792Y022497D02*
X009297Y022002D01*
X009298Y022002D02*
X009284Y021991D01*
X009269Y021982D01*
X009253Y021976D01*
X009236Y021973D01*
X009218Y021973D01*
X009201Y021976D01*
X009185Y021982D01*
X009170Y021991D01*
X009156Y022002D01*
X009050Y022108D01*
X009050Y022179D01*
X007706Y023522D01*
X007636Y023522D01*
X007530Y023628D01*
X007529Y023628D02*
X007518Y023642D01*
X007509Y023657D01*
X007503Y023673D01*
X007500Y023690D01*
X007500Y023708D01*
X007503Y023725D01*
X007509Y023741D01*
X007518Y023756D01*
X007529Y023770D01*
X006678Y022595D02*
X006803Y022512D01*
X006817Y022442D01*
X008398Y021388D01*
X008467Y021402D01*
X008592Y021319D01*
X008591Y021318D02*
X008605Y021307D01*
X008617Y021294D01*
X008626Y021279D01*
X008632Y021263D01*
X008635Y021246D01*
X008636Y021229D01*
X008633Y021211D01*
X008628Y021195D01*
X008619Y021180D01*
X008620Y021180D02*
X008231Y020598D01*
X008220Y020584D01*
X008207Y020572D01*
X008192Y020563D01*
X008176Y020557D01*
X008159Y020554D01*
X008142Y020553D01*
X008124Y020556D01*
X008108Y020561D01*
X008093Y020570D01*
X007968Y020653D01*
X007954Y020722D01*
X006373Y021777D01*
X006304Y021763D01*
X006179Y021846D01*
X006165Y021857D01*
X006153Y021870D01*
X006144Y021885D01*
X006138Y021901D01*
X006135Y021918D01*
X006134Y021935D01*
X006137Y021953D01*
X006142Y021969D01*
X006151Y021984D01*
X006151Y021985D02*
X006540Y022567D01*
X006552Y022583D01*
X006567Y022595D01*
X006585Y022604D01*
X006603Y022610D01*
X006623Y022612D01*
X006642Y022610D01*
X006661Y022604D01*
X006678Y022595D01*
X005689Y020613D02*
X005550Y020670D01*
X005534Y020676D01*
X005516Y020678D01*
X005499Y020677D01*
X005482Y020673D01*
X005466Y020667D01*
X005451Y020657D01*
X005438Y020646D01*
X005428Y020632D01*
X005420Y020616D01*
X005152Y019970D01*
X005152Y019969D02*
X005146Y019953D01*
X005144Y019935D01*
X005145Y019918D01*
X005149Y019901D01*
X005155Y019885D01*
X005165Y019870D01*
X005176Y019857D01*
X005190Y019847D01*
X005206Y019839D01*
X005344Y019782D01*
X005410Y019809D01*
X007165Y019081D01*
X007192Y019016D01*
X007331Y018959D01*
X007347Y018953D01*
X007365Y018951D01*
X007382Y018952D01*
X007399Y018956D01*
X007415Y018962D01*
X007430Y018972D01*
X007443Y018983D01*
X007453Y018997D01*
X007461Y019013D01*
X007729Y019660D01*
X007735Y019676D01*
X007737Y019694D01*
X007736Y019711D01*
X007732Y019728D01*
X007726Y019744D01*
X007716Y019759D01*
X007705Y019772D01*
X007691Y019782D01*
X007675Y019790D01*
X007537Y019848D01*
X007471Y019821D01*
X005716Y020548D01*
X005689Y020613D01*
X004964Y018529D02*
X004817Y018558D01*
X004800Y018560D01*
X004783Y018559D01*
X004766Y018555D01*
X004750Y018548D01*
X004735Y018538D01*
X004723Y018526D01*
X004712Y018512D01*
X004705Y018496D01*
X004700Y018479D01*
X004564Y017793D01*
X004564Y017792D02*
X004562Y017775D01*
X004563Y017758D01*
X004567Y017741D01*
X004574Y017725D01*
X004584Y017710D01*
X004596Y017698D01*
X004610Y017687D01*
X004626Y017680D01*
X004643Y017675D01*
X004642Y017675D02*
X004790Y017646D01*
X004848Y017685D01*
X006712Y017316D01*
X006751Y017258D01*
X006899Y017229D01*
X006916Y017227D01*
X006933Y017228D01*
X006950Y017232D01*
X006966Y017239D01*
X006981Y017249D01*
X006993Y017261D01*
X007004Y017275D01*
X007011Y017291D01*
X007016Y017308D01*
X007016Y017307D02*
X007152Y017994D01*
X007154Y018011D01*
X007153Y018028D01*
X007149Y018045D01*
X007142Y018061D01*
X007132Y018076D01*
X007120Y018088D01*
X007106Y018099D01*
X007090Y018106D01*
X007073Y018111D01*
X006926Y018141D01*
X006867Y018101D01*
X005004Y018470D01*
X004964Y018529D01*
X004661Y016347D02*
X004511Y016347D01*
X004494Y016345D01*
X004477Y016341D01*
X004461Y016334D01*
X004447Y016324D01*
X004434Y016311D01*
X004424Y016297D01*
X004417Y016281D01*
X004413Y016264D01*
X004411Y016247D01*
X004411Y015547D01*
X004413Y015530D01*
X004417Y015513D01*
X004424Y015497D01*
X004434Y015483D01*
X004447Y015470D01*
X004461Y015460D01*
X004477Y015453D01*
X004494Y015449D01*
X004511Y015447D01*
X004661Y015447D01*
X004711Y015497D01*
X006611Y015497D01*
X006661Y015447D01*
X006811Y015447D01*
X006828Y015449D01*
X006845Y015453D01*
X006861Y015460D01*
X006875Y015470D01*
X006888Y015483D01*
X006898Y015497D01*
X006905Y015513D01*
X006909Y015530D01*
X006911Y015547D01*
X006911Y016247D01*
X006909Y016264D01*
X006905Y016281D01*
X006898Y016297D01*
X006888Y016311D01*
X006875Y016324D01*
X006861Y016334D01*
X006845Y016341D01*
X006828Y016345D01*
X006811Y016347D01*
X006661Y016347D01*
X006611Y016297D01*
X004711Y016297D01*
X004661Y016347D01*
X004789Y014147D02*
X004642Y014117D01*
X004626Y014112D01*
X004610Y014104D01*
X004596Y014094D01*
X004584Y014082D01*
X004574Y014067D01*
X004567Y014051D01*
X004563Y014034D01*
X004562Y014017D01*
X004564Y013999D01*
X004701Y013313D01*
X004706Y013297D01*
X004714Y013281D01*
X004724Y013267D01*
X004736Y013255D01*
X004751Y013245D01*
X004767Y013238D01*
X004784Y013234D01*
X004801Y013233D01*
X004819Y013235D01*
X004818Y013235D02*
X004965Y013264D01*
X005005Y013323D01*
X006868Y013695D01*
X006927Y013656D01*
X007074Y013685D01*
X007090Y013690D01*
X007106Y013698D01*
X007120Y013708D01*
X007132Y013720D01*
X007142Y013735D01*
X007149Y013751D01*
X007153Y013768D01*
X007154Y013785D01*
X007152Y013803D01*
X007015Y014489D01*
X007015Y014490D02*
X007010Y014506D01*
X007002Y014522D01*
X006992Y014536D01*
X006980Y014548D01*
X006965Y014558D01*
X006949Y014565D01*
X006932Y014569D01*
X006915Y014570D01*
X006897Y014568D01*
X006750Y014538D01*
X006711Y014480D01*
X004848Y014107D01*
X004789Y014147D01*
X005344Y012013D02*
X005206Y011956D01*
X005206Y011955D02*
X005190Y011947D01*
X005176Y011937D01*
X005165Y011924D01*
X005155Y011909D01*
X005149Y011893D01*
X005145Y011876D01*
X005144Y011859D01*
X005146Y011841D01*
X005152Y011825D01*
X005420Y011178D01*
X005428Y011162D01*
X005438Y011148D01*
X005451Y011137D01*
X005466Y011127D01*
X005482Y011121D01*
X005499Y011117D01*
X005516Y011116D01*
X005534Y011118D01*
X005550Y011124D01*
X005689Y011181D01*
X005716Y011247D01*
X007471Y011974D01*
X007537Y011947D01*
X007675Y012004D01*
X007675Y012005D02*
X007691Y012013D01*
X007705Y012023D01*
X007716Y012036D01*
X007726Y012051D01*
X007732Y012067D01*
X007736Y012084D01*
X007737Y012101D01*
X007735Y012119D01*
X007729Y012135D01*
X007461Y012782D01*
X007461Y012781D02*
X007453Y012797D01*
X007443Y012811D01*
X007430Y012822D01*
X007415Y012832D01*
X007399Y012838D01*
X007382Y012842D01*
X007365Y012843D01*
X007347Y012841D01*
X007331Y012835D01*
X007331Y012836D02*
X007192Y012778D01*
X007165Y012713D01*
X005410Y011986D01*
X005344Y012013D01*
X006304Y010030D02*
X006179Y009946D01*
X006166Y009935D01*
X006154Y009922D01*
X006145Y009907D01*
X006139Y009891D01*
X006136Y009874D01*
X006135Y009856D01*
X006138Y009839D01*
X006144Y009823D01*
X006152Y009807D01*
X006152Y009808D02*
X006541Y009226D01*
X006542Y009226D02*
X006553Y009213D01*
X006566Y009201D01*
X006581Y009192D01*
X006597Y009186D01*
X006614Y009183D01*
X006632Y009182D01*
X006649Y009185D01*
X006665Y009191D01*
X006681Y009199D01*
X006680Y009199D02*
X006805Y009282D01*
X006819Y009351D01*
X008397Y010408D01*
X008467Y010395D01*
X008591Y010478D01*
X008592Y010478D02*
X008605Y010489D01*
X008617Y010502D01*
X008626Y010517D01*
X008632Y010533D01*
X008635Y010550D01*
X008636Y010568D01*
X008633Y010585D01*
X008627Y010601D01*
X008619Y010617D01*
X008229Y011198D01*
X008229Y011199D02*
X008218Y011212D01*
X008205Y011224D01*
X008190Y011233D01*
X008174Y011239D01*
X008157Y011242D01*
X008139Y011243D01*
X008122Y011240D01*
X008106Y011234D01*
X008090Y011226D01*
X008091Y011226D02*
X007966Y011142D01*
X007952Y011073D01*
X006373Y010016D01*
X006304Y010030D01*
X007636Y008272D02*
X007530Y008166D01*
X007529Y008166D02*
X007518Y008152D01*
X007509Y008137D01*
X007503Y008121D01*
X007500Y008104D01*
X007500Y008086D01*
X007503Y008069D01*
X007509Y008053D01*
X007518Y008038D01*
X007529Y008024D01*
X007530Y008025D02*
X008025Y007530D01*
X008024Y007529D02*
X008038Y007518D01*
X008053Y007509D01*
X008069Y007503D01*
X008086Y007500D01*
X008104Y007500D01*
X008121Y007503D01*
X008137Y007509D01*
X008152Y007518D01*
X008166Y007529D01*
X008166Y007530D02*
X008272Y007636D01*
X008272Y007706D01*
X009616Y009050D01*
X009686Y009050D01*
X009792Y009156D01*
X009793Y009156D02*
X009804Y009170D01*
X009813Y009185D01*
X009819Y009201D01*
X009822Y009218D01*
X009822Y009236D01*
X009819Y009253D01*
X009813Y009269D01*
X009804Y009284D01*
X009793Y009298D01*
X009792Y009297D02*
X009297Y009792D01*
X009298Y009793D02*
X009284Y009804D01*
X009269Y009813D01*
X009253Y009819D01*
X009236Y009822D01*
X009218Y009822D01*
X009201Y009819D01*
X009185Y009813D01*
X009170Y009804D01*
X009156Y009793D01*
X009156Y009792D02*
X009050Y009686D01*
X009050Y009616D01*
X007706Y008272D01*
X007636Y008272D01*
X009283Y006803D02*
X009200Y006678D01*
X009191Y006663D01*
X009186Y006647D01*
X009183Y006629D01*
X009184Y006612D01*
X009187Y006595D01*
X009193Y006579D01*
X009202Y006564D01*
X009214Y006551D01*
X009228Y006540D01*
X009227Y006540D02*
X009810Y006151D01*
X009825Y006142D01*
X009841Y006137D01*
X009859Y006134D01*
X009876Y006135D01*
X009893Y006138D01*
X009909Y006144D01*
X009924Y006153D01*
X009937Y006165D01*
X009948Y006179D01*
X009949Y006179D02*
X010032Y006304D01*
X010018Y006373D01*
X011072Y007954D01*
X011141Y007968D01*
X011225Y008093D01*
X011224Y008093D02*
X011233Y008108D01*
X011238Y008124D01*
X011241Y008142D01*
X011240Y008159D01*
X011237Y008176D01*
X011231Y008192D01*
X011222Y008207D01*
X011210Y008220D01*
X011196Y008231D01*
X011197Y008231D02*
X010615Y008620D01*
X010614Y008619D02*
X010597Y008628D01*
X010578Y008634D01*
X010559Y008636D01*
X010539Y008634D01*
X010521Y008628D01*
X010503Y008619D01*
X010488Y008607D01*
X010476Y008591D01*
X010476Y008592D02*
X010393Y008467D01*
X010407Y008398D01*
X009352Y006817D01*
X009283Y006803D01*
X011181Y005689D02*
X011124Y005550D01*
X011118Y005534D01*
X011116Y005516D01*
X011117Y005499D01*
X011121Y005482D01*
X011127Y005466D01*
X011137Y005451D01*
X011148Y005438D01*
X011162Y005428D01*
X011178Y005420D01*
X011825Y005152D01*
X011841Y005146D01*
X011859Y005144D01*
X011876Y005145D01*
X011893Y005149D01*
X011909Y005155D01*
X011924Y005165D01*
X011937Y005176D01*
X011947Y005190D01*
X011955Y005206D01*
X011956Y005206D02*
X012013Y005344D01*
X011986Y005410D01*
X012713Y007165D01*
X012778Y007192D01*
X012836Y007331D01*
X012835Y007331D02*
X012841Y007347D01*
X012843Y007365D01*
X012842Y007382D01*
X012838Y007399D01*
X012832Y007415D01*
X012822Y007430D01*
X012811Y007443D01*
X012797Y007453D01*
X012781Y007461D01*
X012782Y007461D02*
X012135Y007729D01*
X012119Y007735D01*
X012101Y007737D01*
X012084Y007736D01*
X012067Y007732D01*
X012051Y007726D01*
X012036Y007716D01*
X012023Y007705D01*
X012013Y007691D01*
X012005Y007675D01*
X012004Y007675D02*
X011947Y007537D01*
X011974Y007471D01*
X011247Y005716D01*
X011181Y005689D01*
X013266Y004964D02*
X013236Y004817D01*
X013234Y004800D01*
X013235Y004783D01*
X013239Y004766D01*
X013246Y004750D01*
X013256Y004735D01*
X013268Y004723D01*
X013282Y004712D01*
X013298Y004705D01*
X013315Y004700D01*
X014002Y004564D01*
X014019Y004562D01*
X014036Y004563D01*
X014053Y004567D01*
X014069Y004574D01*
X014084Y004584D01*
X014096Y004596D01*
X014107Y004610D01*
X014114Y004626D01*
X014119Y004643D01*
X014119Y004642D02*
X014148Y004790D01*
X014109Y004848D01*
X014478Y006712D01*
X014537Y006751D01*
X014566Y006899D01*
X014568Y006916D01*
X014567Y006933D01*
X014563Y006950D01*
X014556Y006966D01*
X014546Y006981D01*
X014534Y006993D01*
X014520Y007004D01*
X014504Y007011D01*
X014487Y007016D01*
X013801Y007152D01*
X013800Y007152D02*
X013781Y007154D01*
X013761Y007152D01*
X013743Y007146D01*
X013725Y007137D01*
X013710Y007125D01*
X013698Y007109D01*
X013689Y007092D01*
X013683Y007073D01*
X013654Y006926D01*
X013693Y006867D01*
X013324Y005004D01*
X013266Y004964D01*
X015447Y004661D02*
X015447Y004511D01*
X015449Y004494D01*
X015453Y004477D01*
X015460Y004461D01*
X015470Y004447D01*
X015483Y004434D01*
X015497Y004424D01*
X015513Y004417D01*
X015530Y004413D01*
X015547Y004411D01*
X016247Y004411D01*
X016264Y004413D01*
X016281Y004417D01*
X016297Y004424D01*
X016311Y004434D01*
X016324Y004447D01*
X016334Y004461D01*
X016341Y004477D01*
X016345Y004494D01*
X016347Y004511D01*
X016347Y004661D01*
X016297Y004711D01*
X016297Y006611D01*
X016347Y006661D01*
X016347Y006811D01*
X016345Y006828D01*
X016341Y006845D01*
X016334Y006861D01*
X016324Y006875D01*
X016311Y006888D01*
X016297Y006898D01*
X016281Y006905D01*
X016264Y006909D01*
X016247Y006911D01*
X015547Y006911D01*
X015530Y006909D01*
X015513Y006905D01*
X015497Y006898D01*
X015483Y006888D01*
X015470Y006875D01*
X015460Y006861D01*
X015453Y006845D01*
X015449Y006828D01*
X015447Y006811D01*
X015447Y006661D01*
X015497Y006611D01*
X015497Y004711D01*
X015447Y004661D01*
X017648Y004789D02*
X017677Y004642D01*
X017682Y004626D01*
X017690Y004610D01*
X017700Y004596D01*
X017712Y004584D01*
X017727Y004574D01*
X017743Y004567D01*
X017760Y004563D01*
X017777Y004562D01*
X017795Y004564D01*
X018481Y004701D01*
X018482Y004701D02*
X018498Y004706D01*
X018514Y004714D01*
X018528Y004724D01*
X018540Y004736D01*
X018550Y004751D01*
X018557Y004767D01*
X018561Y004784D01*
X018562Y004801D01*
X018560Y004819D01*
X018560Y004818D02*
X018531Y004965D01*
X018472Y005005D01*
X018099Y006868D01*
X018139Y006927D01*
X018109Y007074D01*
X018104Y007090D01*
X018096Y007106D01*
X018086Y007120D01*
X018074Y007132D01*
X018059Y007142D01*
X018043Y007149D01*
X018026Y007153D01*
X018009Y007154D01*
X017991Y007152D01*
X017992Y007152D02*
X017305Y007015D01*
X017289Y007010D01*
X017273Y007002D01*
X017259Y006992D01*
X017247Y006980D01*
X017237Y006965D01*
X017230Y006949D01*
X017226Y006932D01*
X017225Y006915D01*
X017227Y006897D01*
X017256Y006750D01*
X017315Y006711D01*
X017687Y004848D01*
X017648Y004789D01*
X019782Y005344D02*
X019839Y005206D01*
X019847Y005190D01*
X019857Y005176D01*
X019870Y005165D01*
X019885Y005155D01*
X019901Y005149D01*
X019918Y005145D01*
X019935Y005144D01*
X019953Y005146D01*
X019969Y005152D01*
X019970Y005152D02*
X020616Y005420D01*
X020632Y005428D01*
X020646Y005438D01*
X020657Y005451D01*
X020667Y005466D01*
X020673Y005482D01*
X020677Y005499D01*
X020678Y005516D01*
X020676Y005534D01*
X020670Y005550D01*
X020613Y005689D01*
X020548Y005716D01*
X019821Y007471D01*
X019848Y007537D01*
X019790Y007675D01*
X019782Y007691D01*
X019772Y007705D01*
X019759Y007716D01*
X019744Y007726D01*
X019728Y007732D01*
X019711Y007736D01*
X019694Y007737D01*
X019676Y007735D01*
X019660Y007729D01*
X019013Y007461D01*
X018995Y007452D01*
X018980Y007440D01*
X018968Y007425D01*
X018959Y007407D01*
X018953Y007389D01*
X018951Y007369D01*
X018953Y007349D01*
X018959Y007331D01*
X019016Y007192D01*
X019081Y007165D01*
X019809Y005410D01*
X019782Y005344D01*
X021765Y006304D02*
X021848Y006179D01*
X021859Y006166D01*
X021872Y006154D01*
X021887Y006145D01*
X021903Y006139D01*
X021920Y006136D01*
X021938Y006135D01*
X021955Y006138D01*
X021971Y006144D01*
X021987Y006152D01*
X022568Y006541D01*
X022569Y006542D02*
X022582Y006553D01*
X022594Y006566D01*
X022603Y006581D01*
X022609Y006597D01*
X022612Y006614D01*
X022613Y006632D01*
X022610Y006649D01*
X022604Y006665D01*
X022596Y006681D01*
X022596Y006680D02*
X022513Y006805D01*
X022443Y006819D01*
X021386Y008397D01*
X021400Y008467D01*
X021316Y008591D01*
X021316Y008592D02*
X021305Y008605D01*
X021292Y008617D01*
X021277Y008626D01*
X021261Y008632D01*
X021244Y008635D01*
X021226Y008636D01*
X021209Y008633D01*
X021193Y008627D01*
X021177Y008619D01*
X021178Y008619D02*
X020596Y008229D01*
X020583Y008218D01*
X020571Y008205D01*
X020562Y008190D01*
X020556Y008174D01*
X020553Y008157D01*
X020552Y008139D01*
X020555Y008122D01*
X020561Y008106D01*
X020569Y008090D01*
X020569Y008091D02*
X020652Y007966D01*
X020721Y007952D01*
X021778Y006373D01*
X021765Y006304D01*
X023522Y007636D02*
X023628Y007530D01*
X023628Y007529D02*
X023642Y007518D01*
X023657Y007509D01*
X023673Y007503D01*
X023690Y007500D01*
X023708Y007500D01*
X023725Y007503D01*
X023741Y007509D01*
X023756Y007518D01*
X023770Y007529D01*
X023770Y007530D02*
X024265Y008025D01*
X024265Y008024D02*
X024276Y008038D01*
X024285Y008053D01*
X024291Y008069D01*
X024294Y008086D01*
X024294Y008104D01*
X024291Y008121D01*
X024285Y008137D01*
X024276Y008152D01*
X024265Y008166D01*
X024159Y008272D01*
X024088Y008272D01*
X022745Y009616D01*
X022745Y009686D01*
X022638Y009792D01*
X022639Y009793D02*
X022625Y009804D01*
X022610Y009813D01*
X022594Y009819D01*
X022577Y009822D01*
X022559Y009822D01*
X022542Y009819D01*
X022526Y009813D01*
X022511Y009804D01*
X022497Y009793D01*
X022497Y009792D02*
X022002Y009297D01*
X022002Y009298D02*
X021991Y009284D01*
X021982Y009269D01*
X021976Y009253D01*
X021973Y009236D01*
X021973Y009218D01*
X021976Y009201D01*
X021982Y009185D01*
X021991Y009170D01*
X022002Y009156D01*
X022108Y009050D01*
X022179Y009050D01*
X023522Y007706D01*
X023522Y007636D01*
X024991Y009283D02*
X025116Y009200D01*
X025117Y009200D02*
X025132Y009191D01*
X025148Y009186D01*
X025166Y009183D01*
X025183Y009184D01*
X025200Y009187D01*
X025216Y009193D01*
X025231Y009202D01*
X025244Y009214D01*
X025255Y009228D01*
X025255Y009227D02*
X025643Y009810D01*
X025652Y009825D01*
X025657Y009841D01*
X025660Y009859D01*
X025659Y009876D01*
X025656Y009893D01*
X025650Y009909D01*
X025641Y009924D01*
X025629Y009937D01*
X025615Y009948D01*
X025615Y009949D02*
X025491Y010032D01*
X025421Y010018D01*
X023841Y011072D01*
X023827Y011141D01*
X023702Y011225D01*
X023702Y011224D02*
X023685Y011233D01*
X023666Y011239D01*
X023647Y011241D01*
X023627Y011239D01*
X023609Y011233D01*
X023591Y011224D01*
X023576Y011212D01*
X023564Y011196D01*
X023563Y011197D02*
X023175Y010615D01*
X023175Y010614D02*
X023166Y010599D01*
X023161Y010583D01*
X023158Y010565D01*
X023159Y010548D01*
X023162Y010531D01*
X023168Y010515D01*
X023177Y010500D01*
X023189Y010487D01*
X023203Y010476D01*
X023327Y010393D01*
X023397Y010407D01*
X024977Y009352D01*
X024991Y009283D01*
X026106Y011181D02*
X026244Y011124D01*
X026260Y011118D01*
X026278Y011116D01*
X026295Y011117D01*
X026312Y011121D01*
X026328Y011127D01*
X026343Y011137D01*
X026356Y011148D01*
X026366Y011162D01*
X026374Y011178D01*
X026375Y011178D02*
X026643Y011825D01*
X026642Y011825D02*
X026648Y011841D01*
X026650Y011859D01*
X026649Y011876D01*
X026645Y011893D01*
X026639Y011909D01*
X026629Y011924D01*
X026618Y011937D01*
X026604Y011947D01*
X026588Y011955D01*
X026589Y011956D02*
X026450Y012013D01*
X026385Y011986D01*
X024629Y012713D01*
X024602Y012778D01*
X024464Y012836D01*
X024463Y012835D02*
X024447Y012841D01*
X024429Y012843D01*
X024412Y012842D01*
X024395Y012838D01*
X024379Y012832D01*
X024364Y012822D01*
X024351Y012811D01*
X024341Y012797D01*
X024333Y012781D01*
X024333Y012782D02*
X024065Y012135D01*
X024066Y012135D02*
X024060Y012119D01*
X024058Y012101D01*
X024059Y012084D01*
X024063Y012067D01*
X024069Y012051D01*
X024079Y012036D01*
X024090Y012023D01*
X024104Y012013D01*
X024120Y012005D01*
X024119Y012004D02*
X024258Y011947D01*
X024323Y011974D01*
X026079Y011247D01*
X026106Y011181D01*
X026830Y013266D02*
X026977Y013236D01*
X026978Y013236D02*
X026995Y013234D01*
X027012Y013235D01*
X027029Y013239D01*
X027045Y013246D01*
X027060Y013256D01*
X027072Y013268D01*
X027083Y013282D01*
X027090Y013298D01*
X027095Y013315D01*
X027231Y014002D01*
X027233Y014019D01*
X027232Y014036D01*
X027228Y014053D01*
X027221Y014069D01*
X027211Y014084D01*
X027199Y014096D01*
X027185Y014107D01*
X027169Y014114D01*
X027152Y014119D01*
X027005Y014148D01*
X026946Y014109D01*
X025082Y014478D01*
X025043Y014537D01*
X024896Y014566D01*
X024895Y014566D02*
X024878Y014568D01*
X024861Y014567D01*
X024844Y014563D01*
X024828Y014556D01*
X024813Y014546D01*
X024801Y014534D01*
X024790Y014520D01*
X024783Y014504D01*
X024778Y014487D01*
X024642Y013801D01*
X024643Y013800D02*
X024641Y013783D01*
X024642Y013766D01*
X024646Y013749D01*
X024653Y013733D01*
X024663Y013718D01*
X024675Y013706D01*
X024689Y013695D01*
X024705Y013688D01*
X024722Y013683D01*
X024721Y013683D02*
X024868Y013654D01*
X024927Y013693D01*
X026791Y013324D01*
X026830Y013266D01*
X027133Y015447D02*
X027283Y015447D01*
X027300Y015449D01*
X027317Y015453D01*
X027333Y015460D01*
X027347Y015470D01*
X027360Y015483D01*
X027370Y015497D01*
X027377Y015513D01*
X027381Y015530D01*
X027383Y015547D01*
X027383Y016247D01*
X027381Y016264D01*
X027377Y016281D01*
X027370Y016297D01*
X027360Y016311D01*
X027347Y016324D01*
X027333Y016334D01*
X027317Y016341D01*
X027300Y016345D01*
X027283Y016347D01*
X027133Y016347D01*
X027083Y016297D01*
X025183Y016297D01*
X025133Y016347D01*
X024983Y016347D01*
X024966Y016345D01*
X024949Y016341D01*
X024933Y016334D01*
X024919Y016324D01*
X024906Y016311D01*
X024896Y016297D01*
X024889Y016281D01*
X024885Y016264D01*
X024883Y016247D01*
X024883Y015547D01*
X024885Y015530D01*
X024889Y015513D01*
X024896Y015497D01*
X024906Y015483D01*
X024919Y015470D01*
X024933Y015460D01*
X024949Y015453D01*
X024966Y015449D01*
X024983Y015447D01*
X025133Y015447D01*
X025183Y015497D01*
X027083Y015497D01*
X027133Y015447D01*
X027005Y017648D02*
X027152Y017677D01*
X027153Y017677D02*
X027169Y017682D01*
X027185Y017690D01*
X027199Y017700D01*
X027211Y017712D01*
X027221Y017727D01*
X027228Y017743D01*
X027232Y017760D01*
X027233Y017777D01*
X027231Y017795D01*
X027094Y018481D01*
X027094Y018482D02*
X027089Y018498D01*
X027081Y018514D01*
X027071Y018528D01*
X027059Y018540D01*
X027044Y018550D01*
X027028Y018557D01*
X027011Y018561D01*
X026994Y018562D01*
X026976Y018560D01*
X026829Y018531D01*
X026790Y018472D01*
X024927Y018099D01*
X024868Y018139D01*
X024721Y018109D01*
X024720Y018109D02*
X024704Y018104D01*
X024688Y018096D01*
X024674Y018086D01*
X024662Y018074D01*
X024652Y018059D01*
X024645Y018043D01*
X024641Y018026D01*
X024640Y018009D01*
X024642Y017991D01*
X024642Y017992D02*
X024779Y017305D01*
X024784Y017289D01*
X024792Y017273D01*
X024802Y017259D01*
X024814Y017247D01*
X024829Y017237D01*
X024845Y017230D01*
X024862Y017226D01*
X024879Y017225D01*
X024897Y017227D01*
X025044Y017256D01*
X025083Y017315D01*
X026947Y017687D01*
X027005Y017648D01*
X026450Y019782D02*
X026385Y019809D01*
X024629Y019081D01*
X024602Y019016D01*
X024464Y018959D01*
X024463Y018959D02*
X024447Y018953D01*
X024429Y018951D01*
X024412Y018952D01*
X024395Y018956D01*
X024379Y018962D01*
X024364Y018972D01*
X024351Y018983D01*
X024341Y018997D01*
X024333Y019013D01*
X024065Y019660D01*
X024066Y019660D02*
X024060Y019676D01*
X024058Y019694D01*
X024059Y019711D01*
X024063Y019728D01*
X024069Y019744D01*
X024079Y019759D01*
X024090Y019772D01*
X024104Y019782D01*
X024120Y019790D01*
X024119Y019790D02*
X024258Y019848D01*
X024323Y019821D01*
X026079Y020548D01*
X026106Y020613D01*
X026244Y020670D01*
X026260Y020676D01*
X026278Y020678D01*
X026295Y020677D01*
X026312Y020673D01*
X026328Y020667D01*
X026343Y020657D01*
X026356Y020646D01*
X026366Y020632D01*
X026374Y020616D01*
X026375Y020616D02*
X026643Y019970D01*
X026642Y019969D02*
X026648Y019953D01*
X026650Y019935D01*
X026649Y019918D01*
X026645Y019901D01*
X026639Y019885D01*
X026629Y019870D01*
X026618Y019857D01*
X026604Y019847D01*
X026588Y019839D01*
X026589Y019839D02*
X026450Y019782D01*
X025490Y021765D02*
X025421Y021778D01*
X023842Y020721D01*
X023828Y020652D01*
X023704Y020569D01*
X023688Y020561D01*
X023672Y020555D01*
X023655Y020552D01*
X023637Y020553D01*
X023620Y020556D01*
X023604Y020562D01*
X023589Y020571D01*
X023576Y020583D01*
X023565Y020596D01*
X023176Y021178D01*
X023176Y021177D02*
X023168Y021193D01*
X023162Y021209D01*
X023159Y021226D01*
X023160Y021244D01*
X023163Y021261D01*
X023169Y021277D01*
X023178Y021292D01*
X023190Y021305D01*
X023203Y021316D01*
X023328Y021400D01*
X023397Y021386D01*
X024976Y022443D01*
X024990Y022513D01*
X025114Y022596D01*
X025130Y022604D01*
X025146Y022610D01*
X025163Y022613D01*
X025181Y022612D01*
X025198Y022609D01*
X025214Y022603D01*
X025229Y022594D01*
X025242Y022582D01*
X025253Y022569D01*
X025253Y022568D02*
X025642Y021987D01*
X025650Y021971D01*
X025656Y021955D01*
X025659Y021938D01*
X025658Y021920D01*
X025655Y021903D01*
X025649Y021887D01*
X025640Y021872D01*
X025628Y021859D01*
X025615Y021848D01*
X025490Y021765D01*
X024159Y023522D02*
X024265Y023628D01*
X024276Y023642D01*
X024285Y023657D01*
X024291Y023673D01*
X024294Y023690D01*
X024294Y023708D01*
X024291Y023725D01*
X024285Y023741D01*
X024276Y023756D01*
X024265Y023770D01*
X023770Y024265D01*
X023756Y024276D01*
X023741Y024285D01*
X023725Y024291D01*
X023708Y024294D01*
X023690Y024294D01*
X023673Y024291D01*
X023657Y024285D01*
X023642Y024276D01*
X023628Y024265D01*
X023522Y024159D01*
X023522Y024088D01*
X022179Y022745D01*
X022108Y022745D01*
X022002Y022638D01*
X022002Y022639D02*
X021991Y022625D01*
X021982Y022610D01*
X021976Y022594D01*
X021973Y022577D01*
X021973Y022559D01*
X021976Y022542D01*
X021982Y022526D01*
X021991Y022511D01*
X022002Y022497D01*
X022497Y022002D01*
X022511Y021991D01*
X022526Y021982D01*
X022542Y021976D01*
X022559Y021973D01*
X022577Y021973D01*
X022594Y021976D01*
X022610Y021982D01*
X022625Y021991D01*
X022639Y022002D01*
X022638Y022002D02*
X022745Y022108D01*
X022745Y022179D01*
X024088Y023522D01*
X024159Y023522D01*
X022512Y024991D02*
X022595Y025116D01*
X022595Y025117D02*
X022604Y025132D01*
X022609Y025148D01*
X022612Y025166D01*
X022611Y025183D01*
X022608Y025200D01*
X022602Y025216D01*
X022593Y025231D01*
X022581Y025244D01*
X022567Y025255D01*
X021985Y025643D01*
X021984Y025643D02*
X021967Y025652D01*
X021948Y025658D01*
X021929Y025660D01*
X021909Y025658D01*
X021891Y025652D01*
X021873Y025643D01*
X021858Y025631D01*
X021846Y025615D01*
X021763Y025491D01*
X021777Y025421D01*
X020722Y023841D01*
X020653Y023827D01*
X020570Y023702D01*
X020561Y023687D01*
X020556Y023671D01*
X020553Y023653D01*
X020554Y023636D01*
X020557Y023619D01*
X020563Y023603D01*
X020572Y023588D01*
X020584Y023575D01*
X020598Y023564D01*
X020598Y023563D02*
X021180Y023175D01*
X021195Y023166D01*
X021211Y023161D01*
X021229Y023158D01*
X021246Y023159D01*
X021263Y023162D01*
X021279Y023168D01*
X021294Y023177D01*
X021307Y023189D01*
X021318Y023203D01*
X021319Y023203D02*
X021402Y023327D01*
X021388Y023397D01*
X022442Y024977D01*
X022512Y024991D01*
X020613Y026106D02*
X020670Y026244D01*
X020676Y026260D01*
X020678Y026278D01*
X020677Y026295D01*
X020673Y026312D01*
X020667Y026328D01*
X020657Y026343D01*
X020646Y026356D01*
X020632Y026366D01*
X020616Y026374D01*
X020616Y026375D02*
X019970Y026643D01*
X019969Y026642D02*
X019953Y026648D01*
X019935Y026650D01*
X019918Y026649D01*
X019901Y026645D01*
X019885Y026639D01*
X019870Y026629D01*
X019857Y026618D01*
X019847Y026604D01*
X019839Y026588D01*
X019839Y026589D02*
X019782Y026450D01*
X019809Y026385D01*
X019081Y024629D01*
X019016Y024602D01*
X018959Y024464D01*
X018959Y024463D02*
X018953Y024447D01*
X018951Y024429D01*
X018952Y024412D01*
X018956Y024395D01*
X018962Y024379D01*
X018972Y024364D01*
X018983Y024351D01*
X018997Y024341D01*
X019013Y024333D01*
X019660Y024065D01*
X019660Y024066D02*
X019676Y024060D01*
X019694Y024058D01*
X019711Y024059D01*
X019728Y024063D01*
X019744Y024069D01*
X019759Y024079D01*
X019772Y024090D01*
X019782Y024104D01*
X019790Y024120D01*
X019790Y024119D02*
X019848Y024258D01*
X019821Y024323D01*
X020548Y026079D01*
X020613Y026106D01*
X018529Y026830D02*
X018558Y026977D01*
X018558Y026978D02*
X018560Y026995D01*
X018559Y027012D01*
X018555Y027029D01*
X018548Y027045D01*
X018538Y027060D01*
X018526Y027072D01*
X018512Y027083D01*
X018496Y027090D01*
X018479Y027095D01*
X017793Y027231D01*
X017792Y027231D02*
X017773Y027233D01*
X017753Y027231D01*
X017735Y027225D01*
X017717Y027216D01*
X017702Y027204D01*
X017690Y027188D01*
X017681Y027171D01*
X017675Y027152D01*
X017646Y027005D01*
X017685Y026946D01*
X017316Y025082D01*
X017258Y025043D01*
X017229Y024896D01*
X017229Y024895D02*
X017227Y024878D01*
X017228Y024861D01*
X017232Y024844D01*
X017239Y024828D01*
X017249Y024813D01*
X017261Y024801D01*
X017275Y024790D01*
X017291Y024783D01*
X017308Y024778D01*
X017307Y024778D02*
X017994Y024642D01*
X017994Y024643D02*
X018011Y024641D01*
X018028Y024642D01*
X018045Y024646D01*
X018061Y024653D01*
X018076Y024663D01*
X018088Y024675D01*
X018099Y024689D01*
X018106Y024705D01*
X018111Y024722D01*
X018111Y024721D02*
X018141Y024868D01*
X018101Y024927D01*
X018470Y026791D01*
X018529Y026830D01*
X016347Y027133D02*
X016347Y027283D01*
X016345Y027300D01*
X016341Y027317D01*
X016334Y027333D01*
X016324Y027347D01*
X016311Y027360D01*
X016297Y027370D01*
X016281Y027377D01*
X016264Y027381D01*
X016247Y027383D01*
X015547Y027383D01*
X015530Y027381D01*
X015513Y027377D01*
X015497Y027370D01*
X015483Y027360D01*
X015470Y027347D01*
X015460Y027333D01*
X015453Y027317D01*
X015449Y027300D01*
X015447Y027283D01*
X015447Y027133D01*
X015497Y027083D01*
X015497Y025183D01*
X015447Y025133D01*
X015447Y024983D01*
X015449Y024966D01*
X015453Y024949D01*
X015460Y024933D01*
X015470Y024919D01*
X015483Y024906D01*
X015497Y024896D01*
X015513Y024889D01*
X015530Y024885D01*
X015547Y024883D01*
X016247Y024883D01*
X016264Y024885D01*
X016281Y024889D01*
X016297Y024896D01*
X016311Y024906D01*
X016324Y024919D01*
X016334Y024933D01*
X016341Y024949D01*
X016345Y024966D01*
X016347Y024983D01*
X016347Y025133D01*
X016297Y025183D01*
X016297Y027083D01*
X016347Y027133D01*
X014147Y027005D02*
X014117Y027152D01*
X014117Y027153D02*
X014112Y027169D01*
X014104Y027185D01*
X014094Y027199D01*
X014082Y027211D01*
X014067Y027221D01*
X014051Y027228D01*
X014034Y027232D01*
X014017Y027233D01*
X013999Y027231D01*
X013313Y027094D01*
X013297Y027089D01*
X013281Y027081D01*
X013267Y027071D01*
X013255Y027059D01*
X013245Y027044D01*
X013238Y027028D01*
X013234Y027011D01*
X013233Y026994D01*
X013235Y026976D01*
X013264Y026829D01*
X013323Y026790D01*
X013695Y024927D01*
X013656Y024868D01*
X013685Y024721D01*
X013685Y024720D02*
X013690Y024704D01*
X013698Y024688D01*
X013708Y024674D01*
X013720Y024662D01*
X013735Y024652D01*
X013751Y024645D01*
X013768Y024641D01*
X013785Y024640D01*
X013803Y024642D01*
X014489Y024779D01*
X014490Y024779D02*
X014506Y024784D01*
X014522Y024792D01*
X014536Y024802D01*
X014548Y024814D01*
X014558Y024829D01*
X014565Y024845D01*
X014569Y024862D01*
X014570Y024879D01*
X014568Y024897D01*
X014538Y025044D01*
X014480Y025083D01*
X014107Y026947D01*
X014147Y027005D01*
X012013Y026450D02*
X011986Y026385D01*
X012713Y024629D01*
X012778Y024602D01*
X012836Y024464D01*
X012835Y024463D02*
X012841Y024447D01*
X012843Y024429D01*
X012842Y024412D01*
X012838Y024395D01*
X012832Y024379D01*
X012822Y024364D01*
X012811Y024351D01*
X012797Y024341D01*
X012781Y024333D01*
X012782Y024333D02*
X012135Y024065D01*
X012135Y024066D02*
X012119Y024060D01*
X012101Y024058D01*
X012084Y024059D01*
X012067Y024063D01*
X012051Y024069D01*
X012036Y024079D01*
X012023Y024090D01*
X012013Y024104D01*
X012005Y024120D01*
X012004Y024119D02*
X011947Y024258D01*
X011974Y024323D01*
X011247Y026079D01*
X011181Y026106D01*
X011124Y026244D01*
X011118Y026262D01*
X011116Y026282D01*
X011118Y026302D01*
X011124Y026320D01*
X011133Y026338D01*
X011145Y026353D01*
X011160Y026365D01*
X011178Y026374D01*
X011178Y026375D02*
X011825Y026643D01*
X011825Y026642D02*
X011841Y026648D01*
X011859Y026650D01*
X011876Y026649D01*
X011893Y026645D01*
X011909Y026639D01*
X011924Y026629D01*
X011937Y026618D01*
X011947Y026604D01*
X011955Y026588D01*
X011956Y026589D02*
X012013Y026450D01*
X010030Y025490D02*
X010016Y025421D01*
X011073Y023842D01*
X011142Y023828D01*
X011226Y023704D01*
X011234Y023688D01*
X011240Y023672D01*
X011243Y023655D01*
X011242Y023637D01*
X011239Y023620D01*
X011233Y023604D01*
X011224Y023589D01*
X011212Y023576D01*
X011199Y023565D01*
X011198Y023565D02*
X010617Y023176D01*
X010601Y023168D01*
X010585Y023162D01*
X010568Y023159D01*
X010550Y023160D01*
X010533Y023163D01*
X010517Y023169D01*
X010502Y023178D01*
X010489Y023190D01*
X010478Y023203D01*
X010395Y023328D01*
X010408Y023397D01*
X009351Y024976D01*
X009282Y024990D01*
X009199Y025114D01*
X009191Y025130D01*
X009185Y025146D01*
X009182Y025163D01*
X009183Y025181D01*
X009186Y025198D01*
X009192Y025214D01*
X009201Y025229D01*
X009213Y025242D01*
X009226Y025253D01*
X009808Y025642D01*
X009807Y025642D02*
X009823Y025650D01*
X009839Y025656D01*
X009856Y025659D01*
X009874Y025658D01*
X009891Y025655D01*
X009907Y025649D01*
X009922Y025640D01*
X009935Y025628D01*
X009946Y025615D01*
X010030Y025490D01*
X006913Y027846D02*
X006915Y027909D01*
X006921Y027971D01*
X006931Y028033D01*
X006944Y028095D01*
X006962Y028155D01*
X006983Y028214D01*
X007008Y028272D01*
X007037Y028328D01*
X007069Y028382D01*
X007104Y028434D01*
X007142Y028483D01*
X007184Y028531D01*
X007228Y028575D01*
X007276Y028617D01*
X007325Y028655D01*
X007377Y028690D01*
X007431Y028722D01*
X007487Y028751D01*
X007545Y028776D01*
X007604Y028797D01*
X007664Y028815D01*
X007726Y028828D01*
X007788Y028838D01*
X007850Y028844D01*
X007913Y028846D01*
X007976Y028844D01*
X008038Y028838D01*
X008100Y028828D01*
X008162Y028815D01*
X008222Y028797D01*
X008281Y028776D01*
X008339Y028751D01*
X008395Y028722D01*
X008449Y028690D01*
X008501Y028655D01*
X008550Y028617D01*
X008598Y028575D01*
X008642Y028531D01*
X008684Y028483D01*
X008722Y028434D01*
X008757Y028382D01*
X008789Y028328D01*
X008818Y028272D01*
X008843Y028214D01*
X008864Y028155D01*
X008882Y028095D01*
X008895Y028033D01*
X008905Y027971D01*
X008911Y027909D01*
X008913Y027846D01*
X008911Y027783D01*
X008905Y027721D01*
X008895Y027659D01*
X008882Y027597D01*
X008864Y027537D01*
X008843Y027478D01*
X008818Y027420D01*
X008789Y027364D01*
X008757Y027310D01*
X008722Y027258D01*
X008684Y027209D01*
X008642Y027161D01*
X008598Y027117D01*
X008550Y027075D01*
X008501Y027037D01*
X008449Y027002D01*
X008395Y026970D01*
X008339Y026941D01*
X008281Y026916D01*
X008222Y026895D01*
X008162Y026877D01*
X008100Y026864D01*
X008038Y026854D01*
X007976Y026848D01*
X007913Y026846D01*
X007850Y026848D01*
X007788Y026854D01*
X007726Y026864D01*
X007664Y026877D01*
X007604Y026895D01*
X007545Y026916D01*
X007487Y026941D01*
X007431Y026970D01*
X007377Y027002D01*
X007325Y027037D01*
X007276Y027075D01*
X007228Y027117D01*
X007184Y027161D01*
X007142Y027209D01*
X007104Y027258D01*
X007069Y027310D01*
X007037Y027364D01*
X007008Y027420D01*
X006983Y027478D01*
X006962Y027537D01*
X006944Y027597D01*
X006931Y027659D01*
X006921Y027721D01*
X006915Y027783D01*
X006913Y027846D01*
X009397Y029173D02*
X009399Y029236D01*
X009405Y029298D01*
X009415Y029360D01*
X009428Y029422D01*
X009446Y029482D01*
X009467Y029541D01*
X009492Y029599D01*
X009521Y029655D01*
X009553Y029709D01*
X009588Y029761D01*
X009626Y029810D01*
X009668Y029858D01*
X009712Y029902D01*
X009760Y029944D01*
X009809Y029982D01*
X009861Y030017D01*
X009915Y030049D01*
X009971Y030078D01*
X010029Y030103D01*
X010088Y030124D01*
X010148Y030142D01*
X010210Y030155D01*
X010272Y030165D01*
X010334Y030171D01*
X010397Y030173D01*
X010460Y030171D01*
X010522Y030165D01*
X010584Y030155D01*
X010646Y030142D01*
X010706Y030124D01*
X010765Y030103D01*
X010823Y030078D01*
X010879Y030049D01*
X010933Y030017D01*
X010985Y029982D01*
X011034Y029944D01*
X011082Y029902D01*
X011126Y029858D01*
X011168Y029810D01*
X011206Y029761D01*
X011241Y029709D01*
X011273Y029655D01*
X011302Y029599D01*
X011327Y029541D01*
X011348Y029482D01*
X011366Y029422D01*
X011379Y029360D01*
X011389Y029298D01*
X011395Y029236D01*
X011397Y029173D01*
X011395Y029110D01*
X011389Y029048D01*
X011379Y028986D01*
X011366Y028924D01*
X011348Y028864D01*
X011327Y028805D01*
X011302Y028747D01*
X011273Y028691D01*
X011241Y028637D01*
X011206Y028585D01*
X011168Y028536D01*
X011126Y028488D01*
X011082Y028444D01*
X011034Y028402D01*
X010985Y028364D01*
X010933Y028329D01*
X010879Y028297D01*
X010823Y028268D01*
X010765Y028243D01*
X010706Y028222D01*
X010646Y028204D01*
X010584Y028191D01*
X010522Y028181D01*
X010460Y028175D01*
X010397Y028173D01*
X010334Y028175D01*
X010272Y028181D01*
X010210Y028191D01*
X010148Y028204D01*
X010088Y028222D01*
X010029Y028243D01*
X009971Y028268D01*
X009915Y028297D01*
X009861Y028329D01*
X009809Y028364D01*
X009760Y028402D01*
X009712Y028444D01*
X009668Y028488D01*
X009626Y028536D01*
X009588Y028585D01*
X009553Y028637D01*
X009521Y028691D01*
X009492Y028747D01*
X009467Y028805D01*
X009446Y028864D01*
X009428Y028924D01*
X009415Y028986D01*
X009405Y029048D01*
X009399Y029110D01*
X009397Y029173D01*
X012094Y029992D02*
X012096Y030055D01*
X012102Y030117D01*
X012112Y030179D01*
X012125Y030241D01*
X012143Y030301D01*
X012164Y030360D01*
X012189Y030418D01*
X012218Y030474D01*
X012250Y030528D01*
X012285Y030580D01*
X012323Y030629D01*
X012365Y030677D01*
X012409Y030721D01*
X012457Y030763D01*
X012506Y030801D01*
X012558Y030836D01*
X012612Y030868D01*
X012668Y030897D01*
X012726Y030922D01*
X012785Y030943D01*
X012845Y030961D01*
X012907Y030974D01*
X012969Y030984D01*
X013031Y030990D01*
X013094Y030992D01*
X013157Y030990D01*
X013219Y030984D01*
X013281Y030974D01*
X013343Y030961D01*
X013403Y030943D01*
X013462Y030922D01*
X013520Y030897D01*
X013576Y030868D01*
X013630Y030836D01*
X013682Y030801D01*
X013731Y030763D01*
X013779Y030721D01*
X013823Y030677D01*
X013865Y030629D01*
X013903Y030580D01*
X013938Y030528D01*
X013970Y030474D01*
X013999Y030418D01*
X014024Y030360D01*
X014045Y030301D01*
X014063Y030241D01*
X014076Y030179D01*
X014086Y030117D01*
X014092Y030055D01*
X014094Y029992D01*
X014092Y029929D01*
X014086Y029867D01*
X014076Y029805D01*
X014063Y029743D01*
X014045Y029683D01*
X014024Y029624D01*
X013999Y029566D01*
X013970Y029510D01*
X013938Y029456D01*
X013903Y029404D01*
X013865Y029355D01*
X013823Y029307D01*
X013779Y029263D01*
X013731Y029221D01*
X013682Y029183D01*
X013630Y029148D01*
X013576Y029116D01*
X013520Y029087D01*
X013462Y029062D01*
X013403Y029041D01*
X013343Y029023D01*
X013281Y029010D01*
X013219Y029000D01*
X013157Y028994D01*
X013094Y028992D01*
X013031Y028994D01*
X012969Y029000D01*
X012907Y029010D01*
X012845Y029023D01*
X012785Y029041D01*
X012726Y029062D01*
X012668Y029087D01*
X012612Y029116D01*
X012558Y029148D01*
X012506Y029183D01*
X012457Y029221D01*
X012409Y029263D01*
X012365Y029307D01*
X012323Y029355D01*
X012285Y029404D01*
X012250Y029456D01*
X012218Y029510D01*
X012189Y029566D01*
X012164Y029624D01*
X012143Y029683D01*
X012125Y029743D01*
X012112Y029805D01*
X012102Y029867D01*
X012096Y029929D01*
X012094Y029992D01*
X014897Y030267D02*
X014899Y030330D01*
X014905Y030392D01*
X014915Y030454D01*
X014928Y030516D01*
X014946Y030576D01*
X014967Y030635D01*
X014992Y030693D01*
X015021Y030749D01*
X015053Y030803D01*
X015088Y030855D01*
X015126Y030904D01*
X015168Y030952D01*
X015212Y030996D01*
X015260Y031038D01*
X015309Y031076D01*
X015361Y031111D01*
X015415Y031143D01*
X015471Y031172D01*
X015529Y031197D01*
X015588Y031218D01*
X015648Y031236D01*
X015710Y031249D01*
X015772Y031259D01*
X015834Y031265D01*
X015897Y031267D01*
X015960Y031265D01*
X016022Y031259D01*
X016084Y031249D01*
X016146Y031236D01*
X016206Y031218D01*
X016265Y031197D01*
X016323Y031172D01*
X016379Y031143D01*
X016433Y031111D01*
X016485Y031076D01*
X016534Y031038D01*
X016582Y030996D01*
X016626Y030952D01*
X016668Y030904D01*
X016706Y030855D01*
X016741Y030803D01*
X016773Y030749D01*
X016802Y030693D01*
X016827Y030635D01*
X016848Y030576D01*
X016866Y030516D01*
X016879Y030454D01*
X016889Y030392D01*
X016895Y030330D01*
X016897Y030267D01*
X016895Y030204D01*
X016889Y030142D01*
X016879Y030080D01*
X016866Y030018D01*
X016848Y029958D01*
X016827Y029899D01*
X016802Y029841D01*
X016773Y029785D01*
X016741Y029731D01*
X016706Y029679D01*
X016668Y029630D01*
X016626Y029582D01*
X016582Y029538D01*
X016534Y029496D01*
X016485Y029458D01*
X016433Y029423D01*
X016379Y029391D01*
X016323Y029362D01*
X016265Y029337D01*
X016206Y029316D01*
X016146Y029298D01*
X016084Y029285D01*
X016022Y029275D01*
X015960Y029269D01*
X015897Y029267D01*
X015834Y029269D01*
X015772Y029275D01*
X015710Y029285D01*
X015648Y029298D01*
X015588Y029316D01*
X015529Y029337D01*
X015471Y029362D01*
X015415Y029391D01*
X015361Y029423D01*
X015309Y029458D01*
X015260Y029496D01*
X015212Y029538D01*
X015168Y029582D01*
X015126Y029630D01*
X015088Y029679D01*
X015053Y029731D01*
X015021Y029785D01*
X014992Y029841D01*
X014967Y029899D01*
X014946Y029958D01*
X014928Y030018D01*
X014915Y030080D01*
X014905Y030142D01*
X014899Y030204D01*
X014897Y030267D01*
X017700Y029992D02*
X017702Y030055D01*
X017708Y030117D01*
X017718Y030179D01*
X017731Y030241D01*
X017749Y030301D01*
X017770Y030360D01*
X017795Y030418D01*
X017824Y030474D01*
X017856Y030528D01*
X017891Y030580D01*
X017929Y030629D01*
X017971Y030677D01*
X018015Y030721D01*
X018063Y030763D01*
X018112Y030801D01*
X018164Y030836D01*
X018218Y030868D01*
X018274Y030897D01*
X018332Y030922D01*
X018391Y030943D01*
X018451Y030961D01*
X018513Y030974D01*
X018575Y030984D01*
X018637Y030990D01*
X018700Y030992D01*
X018763Y030990D01*
X018825Y030984D01*
X018887Y030974D01*
X018949Y030961D01*
X019009Y030943D01*
X019068Y030922D01*
X019126Y030897D01*
X019182Y030868D01*
X019236Y030836D01*
X019288Y030801D01*
X019337Y030763D01*
X019385Y030721D01*
X019429Y030677D01*
X019471Y030629D01*
X019509Y030580D01*
X019544Y030528D01*
X019576Y030474D01*
X019605Y030418D01*
X019630Y030360D01*
X019651Y030301D01*
X019669Y030241D01*
X019682Y030179D01*
X019692Y030117D01*
X019698Y030055D01*
X019700Y029992D01*
X019698Y029929D01*
X019692Y029867D01*
X019682Y029805D01*
X019669Y029743D01*
X019651Y029683D01*
X019630Y029624D01*
X019605Y029566D01*
X019576Y029510D01*
X019544Y029456D01*
X019509Y029404D01*
X019471Y029355D01*
X019429Y029307D01*
X019385Y029263D01*
X019337Y029221D01*
X019288Y029183D01*
X019236Y029148D01*
X019182Y029116D01*
X019126Y029087D01*
X019068Y029062D01*
X019009Y029041D01*
X018949Y029023D01*
X018887Y029010D01*
X018825Y029000D01*
X018763Y028994D01*
X018700Y028992D01*
X018637Y028994D01*
X018575Y029000D01*
X018513Y029010D01*
X018451Y029023D01*
X018391Y029041D01*
X018332Y029062D01*
X018274Y029087D01*
X018218Y029116D01*
X018164Y029148D01*
X018112Y029183D01*
X018063Y029221D01*
X018015Y029263D01*
X017971Y029307D01*
X017929Y029355D01*
X017891Y029404D01*
X017856Y029456D01*
X017824Y029510D01*
X017795Y029566D01*
X017770Y029624D01*
X017749Y029683D01*
X017731Y029743D01*
X017718Y029805D01*
X017708Y029867D01*
X017702Y029929D01*
X017700Y029992D01*
X020397Y029173D02*
X020399Y029236D01*
X020405Y029298D01*
X020415Y029360D01*
X020428Y029422D01*
X020446Y029482D01*
X020467Y029541D01*
X020492Y029599D01*
X020521Y029655D01*
X020553Y029709D01*
X020588Y029761D01*
X020626Y029810D01*
X020668Y029858D01*
X020712Y029902D01*
X020760Y029944D01*
X020809Y029982D01*
X020861Y030017D01*
X020915Y030049D01*
X020971Y030078D01*
X021029Y030103D01*
X021088Y030124D01*
X021148Y030142D01*
X021210Y030155D01*
X021272Y030165D01*
X021334Y030171D01*
X021397Y030173D01*
X021460Y030171D01*
X021522Y030165D01*
X021584Y030155D01*
X021646Y030142D01*
X021706Y030124D01*
X021765Y030103D01*
X021823Y030078D01*
X021879Y030049D01*
X021933Y030017D01*
X021985Y029982D01*
X022034Y029944D01*
X022082Y029902D01*
X022126Y029858D01*
X022168Y029810D01*
X022206Y029761D01*
X022241Y029709D01*
X022273Y029655D01*
X022302Y029599D01*
X022327Y029541D01*
X022348Y029482D01*
X022366Y029422D01*
X022379Y029360D01*
X022389Y029298D01*
X022395Y029236D01*
X022397Y029173D01*
X022395Y029110D01*
X022389Y029048D01*
X022379Y028986D01*
X022366Y028924D01*
X022348Y028864D01*
X022327Y028805D01*
X022302Y028747D01*
X022273Y028691D01*
X022241Y028637D01*
X022206Y028585D01*
X022168Y028536D01*
X022126Y028488D01*
X022082Y028444D01*
X022034Y028402D01*
X021985Y028364D01*
X021933Y028329D01*
X021879Y028297D01*
X021823Y028268D01*
X021765Y028243D01*
X021706Y028222D01*
X021646Y028204D01*
X021584Y028191D01*
X021522Y028181D01*
X021460Y028175D01*
X021397Y028173D01*
X021334Y028175D01*
X021272Y028181D01*
X021210Y028191D01*
X021148Y028204D01*
X021088Y028222D01*
X021029Y028243D01*
X020971Y028268D01*
X020915Y028297D01*
X020861Y028329D01*
X020809Y028364D01*
X020760Y028402D01*
X020712Y028444D01*
X020668Y028488D01*
X020626Y028536D01*
X020588Y028585D01*
X020553Y028637D01*
X020521Y028691D01*
X020492Y028747D01*
X020467Y028805D01*
X020446Y028864D01*
X020428Y028924D01*
X020415Y028986D01*
X020405Y029048D01*
X020399Y029110D01*
X020397Y029173D01*
X022881Y027846D02*
X022883Y027909D01*
X022889Y027971D01*
X022899Y028033D01*
X022912Y028095D01*
X022930Y028155D01*
X022951Y028214D01*
X022976Y028272D01*
X023005Y028328D01*
X023037Y028382D01*
X023072Y028434D01*
X023110Y028483D01*
X023152Y028531D01*
X023196Y028575D01*
X023244Y028617D01*
X023293Y028655D01*
X023345Y028690D01*
X023399Y028722D01*
X023455Y028751D01*
X023513Y028776D01*
X023572Y028797D01*
X023632Y028815D01*
X023694Y028828D01*
X023756Y028838D01*
X023818Y028844D01*
X023881Y028846D01*
X023944Y028844D01*
X024006Y028838D01*
X024068Y028828D01*
X024130Y028815D01*
X024190Y028797D01*
X024249Y028776D01*
X024307Y028751D01*
X024363Y028722D01*
X024417Y028690D01*
X024469Y028655D01*
X024518Y028617D01*
X024566Y028575D01*
X024610Y028531D01*
X024652Y028483D01*
X024690Y028434D01*
X024725Y028382D01*
X024757Y028328D01*
X024786Y028272D01*
X024811Y028214D01*
X024832Y028155D01*
X024850Y028095D01*
X024863Y028033D01*
X024873Y027971D01*
X024879Y027909D01*
X024881Y027846D01*
X024879Y027783D01*
X024873Y027721D01*
X024863Y027659D01*
X024850Y027597D01*
X024832Y027537D01*
X024811Y027478D01*
X024786Y027420D01*
X024757Y027364D01*
X024725Y027310D01*
X024690Y027258D01*
X024652Y027209D01*
X024610Y027161D01*
X024566Y027117D01*
X024518Y027075D01*
X024469Y027037D01*
X024417Y027002D01*
X024363Y026970D01*
X024307Y026941D01*
X024249Y026916D01*
X024190Y026895D01*
X024130Y026877D01*
X024068Y026864D01*
X024006Y026854D01*
X023944Y026848D01*
X023881Y026846D01*
X023818Y026848D01*
X023756Y026854D01*
X023694Y026864D01*
X023632Y026877D01*
X023572Y026895D01*
X023513Y026916D01*
X023455Y026941D01*
X023399Y026970D01*
X023345Y027002D01*
X023293Y027037D01*
X023244Y027075D01*
X023196Y027117D01*
X023152Y027161D01*
X023110Y027209D01*
X023072Y027258D01*
X023037Y027310D01*
X023005Y027364D01*
X022976Y027420D01*
X022951Y027478D01*
X022930Y027537D01*
X022912Y027597D01*
X022899Y027659D01*
X022889Y027721D01*
X022883Y027783D01*
X022881Y027846D01*
X025059Y026059D02*
X025061Y026122D01*
X025067Y026184D01*
X025077Y026246D01*
X025090Y026308D01*
X025108Y026368D01*
X025129Y026427D01*
X025154Y026485D01*
X025183Y026541D01*
X025215Y026595D01*
X025250Y026647D01*
X025288Y026696D01*
X025330Y026744D01*
X025374Y026788D01*
X025422Y026830D01*
X025471Y026868D01*
X025523Y026903D01*
X025577Y026935D01*
X025633Y026964D01*
X025691Y026989D01*
X025750Y027010D01*
X025810Y027028D01*
X025872Y027041D01*
X025934Y027051D01*
X025996Y027057D01*
X026059Y027059D01*
X026122Y027057D01*
X026184Y027051D01*
X026246Y027041D01*
X026308Y027028D01*
X026368Y027010D01*
X026427Y026989D01*
X026485Y026964D01*
X026541Y026935D01*
X026595Y026903D01*
X026647Y026868D01*
X026696Y026830D01*
X026744Y026788D01*
X026788Y026744D01*
X026830Y026696D01*
X026868Y026647D01*
X026903Y026595D01*
X026935Y026541D01*
X026964Y026485D01*
X026989Y026427D01*
X027010Y026368D01*
X027028Y026308D01*
X027041Y026246D01*
X027051Y026184D01*
X027057Y026122D01*
X027059Y026059D01*
X027057Y025996D01*
X027051Y025934D01*
X027041Y025872D01*
X027028Y025810D01*
X027010Y025750D01*
X026989Y025691D01*
X026964Y025633D01*
X026935Y025577D01*
X026903Y025523D01*
X026868Y025471D01*
X026830Y025422D01*
X026788Y025374D01*
X026744Y025330D01*
X026696Y025288D01*
X026647Y025250D01*
X026595Y025215D01*
X026541Y025183D01*
X026485Y025154D01*
X026427Y025129D01*
X026368Y025108D01*
X026308Y025090D01*
X026246Y025077D01*
X026184Y025067D01*
X026122Y025061D01*
X026059Y025059D01*
X025996Y025061D01*
X025934Y025067D01*
X025872Y025077D01*
X025810Y025090D01*
X025750Y025108D01*
X025691Y025129D01*
X025633Y025154D01*
X025577Y025183D01*
X025523Y025215D01*
X025471Y025250D01*
X025422Y025288D01*
X025374Y025330D01*
X025330Y025374D01*
X025288Y025422D01*
X025250Y025471D01*
X025215Y025523D01*
X025183Y025577D01*
X025154Y025633D01*
X025129Y025691D01*
X025108Y025750D01*
X025090Y025810D01*
X025077Y025872D01*
X025067Y025934D01*
X025061Y025996D01*
X025059Y026059D01*
X026846Y023881D02*
X026848Y023944D01*
X026854Y024006D01*
X026864Y024068D01*
X026877Y024130D01*
X026895Y024190D01*
X026916Y024249D01*
X026941Y024307D01*
X026970Y024363D01*
X027002Y024417D01*
X027037Y024469D01*
X027075Y024518D01*
X027117Y024566D01*
X027161Y024610D01*
X027209Y024652D01*
X027258Y024690D01*
X027310Y024725D01*
X027364Y024757D01*
X027420Y024786D01*
X027478Y024811D01*
X027537Y024832D01*
X027597Y024850D01*
X027659Y024863D01*
X027721Y024873D01*
X027783Y024879D01*
X027846Y024881D01*
X027909Y024879D01*
X027971Y024873D01*
X028033Y024863D01*
X028095Y024850D01*
X028155Y024832D01*
X028214Y024811D01*
X028272Y024786D01*
X028328Y024757D01*
X028382Y024725D01*
X028434Y024690D01*
X028483Y024652D01*
X028531Y024610D01*
X028575Y024566D01*
X028617Y024518D01*
X028655Y024469D01*
X028690Y024417D01*
X028722Y024363D01*
X028751Y024307D01*
X028776Y024249D01*
X028797Y024190D01*
X028815Y024130D01*
X028828Y024068D01*
X028838Y024006D01*
X028844Y023944D01*
X028846Y023881D01*
X028844Y023818D01*
X028838Y023756D01*
X028828Y023694D01*
X028815Y023632D01*
X028797Y023572D01*
X028776Y023513D01*
X028751Y023455D01*
X028722Y023399D01*
X028690Y023345D01*
X028655Y023293D01*
X028617Y023244D01*
X028575Y023196D01*
X028531Y023152D01*
X028483Y023110D01*
X028434Y023072D01*
X028382Y023037D01*
X028328Y023005D01*
X028272Y022976D01*
X028214Y022951D01*
X028155Y022930D01*
X028095Y022912D01*
X028033Y022899D01*
X027971Y022889D01*
X027909Y022883D01*
X027846Y022881D01*
X027783Y022883D01*
X027721Y022889D01*
X027659Y022899D01*
X027597Y022912D01*
X027537Y022930D01*
X027478Y022951D01*
X027420Y022976D01*
X027364Y023005D01*
X027310Y023037D01*
X027258Y023072D01*
X027209Y023110D01*
X027161Y023152D01*
X027117Y023196D01*
X027075Y023244D01*
X027037Y023293D01*
X027002Y023345D01*
X026970Y023399D01*
X026941Y023455D01*
X026916Y023513D01*
X026895Y023572D01*
X026877Y023632D01*
X026864Y023694D01*
X026854Y023756D01*
X026848Y023818D01*
X026846Y023881D01*
X028173Y021397D02*
X028175Y021460D01*
X028181Y021522D01*
X028191Y021584D01*
X028204Y021646D01*
X028222Y021706D01*
X028243Y021765D01*
X028268Y021823D01*
X028297Y021879D01*
X028329Y021933D01*
X028364Y021985D01*
X028402Y022034D01*
X028444Y022082D01*
X028488Y022126D01*
X028536Y022168D01*
X028585Y022206D01*
X028637Y022241D01*
X028691Y022273D01*
X028747Y022302D01*
X028805Y022327D01*
X028864Y022348D01*
X028924Y022366D01*
X028986Y022379D01*
X029048Y022389D01*
X029110Y022395D01*
X029173Y022397D01*
X029236Y022395D01*
X029298Y022389D01*
X029360Y022379D01*
X029422Y022366D01*
X029482Y022348D01*
X029541Y022327D01*
X029599Y022302D01*
X029655Y022273D01*
X029709Y022241D01*
X029761Y022206D01*
X029810Y022168D01*
X029858Y022126D01*
X029902Y022082D01*
X029944Y022034D01*
X029982Y021985D01*
X030017Y021933D01*
X030049Y021879D01*
X030078Y021823D01*
X030103Y021765D01*
X030124Y021706D01*
X030142Y021646D01*
X030155Y021584D01*
X030165Y021522D01*
X030171Y021460D01*
X030173Y021397D01*
X030171Y021334D01*
X030165Y021272D01*
X030155Y021210D01*
X030142Y021148D01*
X030124Y021088D01*
X030103Y021029D01*
X030078Y020971D01*
X030049Y020915D01*
X030017Y020861D01*
X029982Y020809D01*
X029944Y020760D01*
X029902Y020712D01*
X029858Y020668D01*
X029810Y020626D01*
X029761Y020588D01*
X029709Y020553D01*
X029655Y020521D01*
X029599Y020492D01*
X029541Y020467D01*
X029482Y020446D01*
X029422Y020428D01*
X029360Y020415D01*
X029298Y020405D01*
X029236Y020399D01*
X029173Y020397D01*
X029110Y020399D01*
X029048Y020405D01*
X028986Y020415D01*
X028924Y020428D01*
X028864Y020446D01*
X028805Y020467D01*
X028747Y020492D01*
X028691Y020521D01*
X028637Y020553D01*
X028585Y020588D01*
X028536Y020626D01*
X028488Y020668D01*
X028444Y020712D01*
X028402Y020760D01*
X028364Y020809D01*
X028329Y020861D01*
X028297Y020915D01*
X028268Y020971D01*
X028243Y021029D01*
X028222Y021088D01*
X028204Y021148D01*
X028191Y021210D01*
X028181Y021272D01*
X028175Y021334D01*
X028173Y021397D01*
X028992Y018700D02*
X028994Y018763D01*
X029000Y018825D01*
X029010Y018887D01*
X029023Y018949D01*
X029041Y019009D01*
X029062Y019068D01*
X029087Y019126D01*
X029116Y019182D01*
X029148Y019236D01*
X029183Y019288D01*
X029221Y019337D01*
X029263Y019385D01*
X029307Y019429D01*
X029355Y019471D01*
X029404Y019509D01*
X029456Y019544D01*
X029510Y019576D01*
X029566Y019605D01*
X029624Y019630D01*
X029683Y019651D01*
X029743Y019669D01*
X029805Y019682D01*
X029867Y019692D01*
X029929Y019698D01*
X029992Y019700D01*
X030055Y019698D01*
X030117Y019692D01*
X030179Y019682D01*
X030241Y019669D01*
X030301Y019651D01*
X030360Y019630D01*
X030418Y019605D01*
X030474Y019576D01*
X030528Y019544D01*
X030580Y019509D01*
X030629Y019471D01*
X030677Y019429D01*
X030721Y019385D01*
X030763Y019337D01*
X030801Y019288D01*
X030836Y019236D01*
X030868Y019182D01*
X030897Y019126D01*
X030922Y019068D01*
X030943Y019009D01*
X030961Y018949D01*
X030974Y018887D01*
X030984Y018825D01*
X030990Y018763D01*
X030992Y018700D01*
X030990Y018637D01*
X030984Y018575D01*
X030974Y018513D01*
X030961Y018451D01*
X030943Y018391D01*
X030922Y018332D01*
X030897Y018274D01*
X030868Y018218D01*
X030836Y018164D01*
X030801Y018112D01*
X030763Y018063D01*
X030721Y018015D01*
X030677Y017971D01*
X030629Y017929D01*
X030580Y017891D01*
X030528Y017856D01*
X030474Y017824D01*
X030418Y017795D01*
X030360Y017770D01*
X030301Y017749D01*
X030241Y017731D01*
X030179Y017718D01*
X030117Y017708D01*
X030055Y017702D01*
X029992Y017700D01*
X029929Y017702D01*
X029867Y017708D01*
X029805Y017718D01*
X029743Y017731D01*
X029683Y017749D01*
X029624Y017770D01*
X029566Y017795D01*
X029510Y017824D01*
X029456Y017856D01*
X029404Y017891D01*
X029355Y017929D01*
X029307Y017971D01*
X029263Y018015D01*
X029221Y018063D01*
X029183Y018112D01*
X029148Y018164D01*
X029116Y018218D01*
X029087Y018274D01*
X029062Y018332D01*
X029041Y018391D01*
X029023Y018451D01*
X029010Y018513D01*
X029000Y018575D01*
X028994Y018637D01*
X028992Y018700D01*
X029267Y015897D02*
X029269Y015960D01*
X029275Y016022D01*
X029285Y016084D01*
X029298Y016146D01*
X029316Y016206D01*
X029337Y016265D01*
X029362Y016323D01*
X029391Y016379D01*
X029423Y016433D01*
X029458Y016485D01*
X029496Y016534D01*
X029538Y016582D01*
X029582Y016626D01*
X029630Y016668D01*
X029679Y016706D01*
X029731Y016741D01*
X029785Y016773D01*
X029841Y016802D01*
X029899Y016827D01*
X029958Y016848D01*
X030018Y016866D01*
X030080Y016879D01*
X030142Y016889D01*
X030204Y016895D01*
X030267Y016897D01*
X030330Y016895D01*
X030392Y016889D01*
X030454Y016879D01*
X030516Y016866D01*
X030576Y016848D01*
X030635Y016827D01*
X030693Y016802D01*
X030749Y016773D01*
X030803Y016741D01*
X030855Y016706D01*
X030904Y016668D01*
X030952Y016626D01*
X030996Y016582D01*
X031038Y016534D01*
X031076Y016485D01*
X031111Y016433D01*
X031143Y016379D01*
X031172Y016323D01*
X031197Y016265D01*
X031218Y016206D01*
X031236Y016146D01*
X031249Y016084D01*
X031259Y016022D01*
X031265Y015960D01*
X031267Y015897D01*
X031265Y015834D01*
X031259Y015772D01*
X031249Y015710D01*
X031236Y015648D01*
X031218Y015588D01*
X031197Y015529D01*
X031172Y015471D01*
X031143Y015415D01*
X031111Y015361D01*
X031076Y015309D01*
X031038Y015260D01*
X030996Y015212D01*
X030952Y015168D01*
X030904Y015126D01*
X030855Y015088D01*
X030803Y015053D01*
X030749Y015021D01*
X030693Y014992D01*
X030635Y014967D01*
X030576Y014946D01*
X030516Y014928D01*
X030454Y014915D01*
X030392Y014905D01*
X030330Y014899D01*
X030267Y014897D01*
X030204Y014899D01*
X030142Y014905D01*
X030080Y014915D01*
X030018Y014928D01*
X029958Y014946D01*
X029899Y014967D01*
X029841Y014992D01*
X029785Y015021D01*
X029731Y015053D01*
X029679Y015088D01*
X029630Y015126D01*
X029582Y015168D01*
X029538Y015212D01*
X029496Y015260D01*
X029458Y015309D01*
X029423Y015361D01*
X029391Y015415D01*
X029362Y015471D01*
X029337Y015529D01*
X029316Y015588D01*
X029298Y015648D01*
X029285Y015710D01*
X029275Y015772D01*
X029269Y015834D01*
X029267Y015897D01*
X028992Y013094D02*
X028994Y013157D01*
X029000Y013219D01*
X029010Y013281D01*
X029023Y013343D01*
X029041Y013403D01*
X029062Y013462D01*
X029087Y013520D01*
X029116Y013576D01*
X029148Y013630D01*
X029183Y013682D01*
X029221Y013731D01*
X029263Y013779D01*
X029307Y013823D01*
X029355Y013865D01*
X029404Y013903D01*
X029456Y013938D01*
X029510Y013970D01*
X029566Y013999D01*
X029624Y014024D01*
X029683Y014045D01*
X029743Y014063D01*
X029805Y014076D01*
X029867Y014086D01*
X029929Y014092D01*
X029992Y014094D01*
X030055Y014092D01*
X030117Y014086D01*
X030179Y014076D01*
X030241Y014063D01*
X030301Y014045D01*
X030360Y014024D01*
X030418Y013999D01*
X030474Y013970D01*
X030528Y013938D01*
X030580Y013903D01*
X030629Y013865D01*
X030677Y013823D01*
X030721Y013779D01*
X030763Y013731D01*
X030801Y013682D01*
X030836Y013630D01*
X030868Y013576D01*
X030897Y013520D01*
X030922Y013462D01*
X030943Y013403D01*
X030961Y013343D01*
X030974Y013281D01*
X030984Y013219D01*
X030990Y013157D01*
X030992Y013094D01*
X030990Y013031D01*
X030984Y012969D01*
X030974Y012907D01*
X030961Y012845D01*
X030943Y012785D01*
X030922Y012726D01*
X030897Y012668D01*
X030868Y012612D01*
X030836Y012558D01*
X030801Y012506D01*
X030763Y012457D01*
X030721Y012409D01*
X030677Y012365D01*
X030629Y012323D01*
X030580Y012285D01*
X030528Y012250D01*
X030474Y012218D01*
X030418Y012189D01*
X030360Y012164D01*
X030301Y012143D01*
X030241Y012125D01*
X030179Y012112D01*
X030117Y012102D01*
X030055Y012096D01*
X029992Y012094D01*
X029929Y012096D01*
X029867Y012102D01*
X029805Y012112D01*
X029743Y012125D01*
X029683Y012143D01*
X029624Y012164D01*
X029566Y012189D01*
X029510Y012218D01*
X029456Y012250D01*
X029404Y012285D01*
X029355Y012323D01*
X029307Y012365D01*
X029263Y012409D01*
X029221Y012457D01*
X029183Y012506D01*
X029148Y012558D01*
X029116Y012612D01*
X029087Y012668D01*
X029062Y012726D01*
X029041Y012785D01*
X029023Y012845D01*
X029010Y012907D01*
X029000Y012969D01*
X028994Y013031D01*
X028992Y013094D01*
X028173Y010397D02*
X028175Y010460D01*
X028181Y010522D01*
X028191Y010584D01*
X028204Y010646D01*
X028222Y010706D01*
X028243Y010765D01*
X028268Y010823D01*
X028297Y010879D01*
X028329Y010933D01*
X028364Y010985D01*
X028402Y011034D01*
X028444Y011082D01*
X028488Y011126D01*
X028536Y011168D01*
X028585Y011206D01*
X028637Y011241D01*
X028691Y011273D01*
X028747Y011302D01*
X028805Y011327D01*
X028864Y011348D01*
X028924Y011366D01*
X028986Y011379D01*
X029048Y011389D01*
X029110Y011395D01*
X029173Y011397D01*
X029236Y011395D01*
X029298Y011389D01*
X029360Y011379D01*
X029422Y011366D01*
X029482Y011348D01*
X029541Y011327D01*
X029599Y011302D01*
X029655Y011273D01*
X029709Y011241D01*
X029761Y011206D01*
X029810Y011168D01*
X029858Y011126D01*
X029902Y011082D01*
X029944Y011034D01*
X029982Y010985D01*
X030017Y010933D01*
X030049Y010879D01*
X030078Y010823D01*
X030103Y010765D01*
X030124Y010706D01*
X030142Y010646D01*
X030155Y010584D01*
X030165Y010522D01*
X030171Y010460D01*
X030173Y010397D01*
X030171Y010334D01*
X030165Y010272D01*
X030155Y010210D01*
X030142Y010148D01*
X030124Y010088D01*
X030103Y010029D01*
X030078Y009971D01*
X030049Y009915D01*
X030017Y009861D01*
X029982Y009809D01*
X029944Y009760D01*
X029902Y009712D01*
X029858Y009668D01*
X029810Y009626D01*
X029761Y009588D01*
X029709Y009553D01*
X029655Y009521D01*
X029599Y009492D01*
X029541Y009467D01*
X029482Y009446D01*
X029422Y009428D01*
X029360Y009415D01*
X029298Y009405D01*
X029236Y009399D01*
X029173Y009397D01*
X029110Y009399D01*
X029048Y009405D01*
X028986Y009415D01*
X028924Y009428D01*
X028864Y009446D01*
X028805Y009467D01*
X028747Y009492D01*
X028691Y009521D01*
X028637Y009553D01*
X028585Y009588D01*
X028536Y009626D01*
X028488Y009668D01*
X028444Y009712D01*
X028402Y009760D01*
X028364Y009809D01*
X028329Y009861D01*
X028297Y009915D01*
X028268Y009971D01*
X028243Y010029D01*
X028222Y010088D01*
X028204Y010148D01*
X028191Y010210D01*
X028181Y010272D01*
X028175Y010334D01*
X028173Y010397D01*
X026846Y007913D02*
X026848Y007976D01*
X026854Y008038D01*
X026864Y008100D01*
X026877Y008162D01*
X026895Y008222D01*
X026916Y008281D01*
X026941Y008339D01*
X026970Y008395D01*
X027002Y008449D01*
X027037Y008501D01*
X027075Y008550D01*
X027117Y008598D01*
X027161Y008642D01*
X027209Y008684D01*
X027258Y008722D01*
X027310Y008757D01*
X027364Y008789D01*
X027420Y008818D01*
X027478Y008843D01*
X027537Y008864D01*
X027597Y008882D01*
X027659Y008895D01*
X027721Y008905D01*
X027783Y008911D01*
X027846Y008913D01*
X027909Y008911D01*
X027971Y008905D01*
X028033Y008895D01*
X028095Y008882D01*
X028155Y008864D01*
X028214Y008843D01*
X028272Y008818D01*
X028328Y008789D01*
X028382Y008757D01*
X028434Y008722D01*
X028483Y008684D01*
X028531Y008642D01*
X028575Y008598D01*
X028617Y008550D01*
X028655Y008501D01*
X028690Y008449D01*
X028722Y008395D01*
X028751Y008339D01*
X028776Y008281D01*
X028797Y008222D01*
X028815Y008162D01*
X028828Y008100D01*
X028838Y008038D01*
X028844Y007976D01*
X028846Y007913D01*
X028844Y007850D01*
X028838Y007788D01*
X028828Y007726D01*
X028815Y007664D01*
X028797Y007604D01*
X028776Y007545D01*
X028751Y007487D01*
X028722Y007431D01*
X028690Y007377D01*
X028655Y007325D01*
X028617Y007276D01*
X028575Y007228D01*
X028531Y007184D01*
X028483Y007142D01*
X028434Y007104D01*
X028382Y007069D01*
X028328Y007037D01*
X028272Y007008D01*
X028214Y006983D01*
X028155Y006962D01*
X028095Y006944D01*
X028033Y006931D01*
X027971Y006921D01*
X027909Y006915D01*
X027846Y006913D01*
X027783Y006915D01*
X027721Y006921D01*
X027659Y006931D01*
X027597Y006944D01*
X027537Y006962D01*
X027478Y006983D01*
X027420Y007008D01*
X027364Y007037D01*
X027310Y007069D01*
X027258Y007104D01*
X027209Y007142D01*
X027161Y007184D01*
X027117Y007228D01*
X027075Y007276D01*
X027037Y007325D01*
X027002Y007377D01*
X026970Y007431D01*
X026941Y007487D01*
X026916Y007545D01*
X026895Y007604D01*
X026877Y007664D01*
X026864Y007726D01*
X026854Y007788D01*
X026848Y007850D01*
X026846Y007913D01*
X025059Y005736D02*
X025061Y005799D01*
X025067Y005861D01*
X025077Y005923D01*
X025090Y005985D01*
X025108Y006045D01*
X025129Y006104D01*
X025154Y006162D01*
X025183Y006218D01*
X025215Y006272D01*
X025250Y006324D01*
X025288Y006373D01*
X025330Y006421D01*
X025374Y006465D01*
X025422Y006507D01*
X025471Y006545D01*
X025523Y006580D01*
X025577Y006612D01*
X025633Y006641D01*
X025691Y006666D01*
X025750Y006687D01*
X025810Y006705D01*
X025872Y006718D01*
X025934Y006728D01*
X025996Y006734D01*
X026059Y006736D01*
X026122Y006734D01*
X026184Y006728D01*
X026246Y006718D01*
X026308Y006705D01*
X026368Y006687D01*
X026427Y006666D01*
X026485Y006641D01*
X026541Y006612D01*
X026595Y006580D01*
X026647Y006545D01*
X026696Y006507D01*
X026744Y006465D01*
X026788Y006421D01*
X026830Y006373D01*
X026868Y006324D01*
X026903Y006272D01*
X026935Y006218D01*
X026964Y006162D01*
X026989Y006104D01*
X027010Y006045D01*
X027028Y005985D01*
X027041Y005923D01*
X027051Y005861D01*
X027057Y005799D01*
X027059Y005736D01*
X027057Y005673D01*
X027051Y005611D01*
X027041Y005549D01*
X027028Y005487D01*
X027010Y005427D01*
X026989Y005368D01*
X026964Y005310D01*
X026935Y005254D01*
X026903Y005200D01*
X026868Y005148D01*
X026830Y005099D01*
X026788Y005051D01*
X026744Y005007D01*
X026696Y004965D01*
X026647Y004927D01*
X026595Y004892D01*
X026541Y004860D01*
X026485Y004831D01*
X026427Y004806D01*
X026368Y004785D01*
X026308Y004767D01*
X026246Y004754D01*
X026184Y004744D01*
X026122Y004738D01*
X026059Y004736D01*
X025996Y004738D01*
X025934Y004744D01*
X025872Y004754D01*
X025810Y004767D01*
X025750Y004785D01*
X025691Y004806D01*
X025633Y004831D01*
X025577Y004860D01*
X025523Y004892D01*
X025471Y004927D01*
X025422Y004965D01*
X025374Y005007D01*
X025330Y005051D01*
X025288Y005099D01*
X025250Y005148D01*
X025215Y005200D01*
X025183Y005254D01*
X025154Y005310D01*
X025129Y005368D01*
X025108Y005427D01*
X025090Y005487D01*
X025077Y005549D01*
X025067Y005611D01*
X025061Y005673D01*
X025059Y005736D01*
X022881Y003948D02*
X022883Y004011D01*
X022889Y004073D01*
X022899Y004135D01*
X022912Y004197D01*
X022930Y004257D01*
X022951Y004316D01*
X022976Y004374D01*
X023005Y004430D01*
X023037Y004484D01*
X023072Y004536D01*
X023110Y004585D01*
X023152Y004633D01*
X023196Y004677D01*
X023244Y004719D01*
X023293Y004757D01*
X023345Y004792D01*
X023399Y004824D01*
X023455Y004853D01*
X023513Y004878D01*
X023572Y004899D01*
X023632Y004917D01*
X023694Y004930D01*
X023756Y004940D01*
X023818Y004946D01*
X023881Y004948D01*
X023944Y004946D01*
X024006Y004940D01*
X024068Y004930D01*
X024130Y004917D01*
X024190Y004899D01*
X024249Y004878D01*
X024307Y004853D01*
X024363Y004824D01*
X024417Y004792D01*
X024469Y004757D01*
X024518Y004719D01*
X024566Y004677D01*
X024610Y004633D01*
X024652Y004585D01*
X024690Y004536D01*
X024725Y004484D01*
X024757Y004430D01*
X024786Y004374D01*
X024811Y004316D01*
X024832Y004257D01*
X024850Y004197D01*
X024863Y004135D01*
X024873Y004073D01*
X024879Y004011D01*
X024881Y003948D01*
X024879Y003885D01*
X024873Y003823D01*
X024863Y003761D01*
X024850Y003699D01*
X024832Y003639D01*
X024811Y003580D01*
X024786Y003522D01*
X024757Y003466D01*
X024725Y003412D01*
X024690Y003360D01*
X024652Y003311D01*
X024610Y003263D01*
X024566Y003219D01*
X024518Y003177D01*
X024469Y003139D01*
X024417Y003104D01*
X024363Y003072D01*
X024307Y003043D01*
X024249Y003018D01*
X024190Y002997D01*
X024130Y002979D01*
X024068Y002966D01*
X024006Y002956D01*
X023944Y002950D01*
X023881Y002948D01*
X023818Y002950D01*
X023756Y002956D01*
X023694Y002966D01*
X023632Y002979D01*
X023572Y002997D01*
X023513Y003018D01*
X023455Y003043D01*
X023399Y003072D01*
X023345Y003104D01*
X023293Y003139D01*
X023244Y003177D01*
X023196Y003219D01*
X023152Y003263D01*
X023110Y003311D01*
X023072Y003360D01*
X023037Y003412D01*
X023005Y003466D01*
X022976Y003522D01*
X022951Y003580D01*
X022930Y003639D01*
X022912Y003699D01*
X022899Y003761D01*
X022889Y003823D01*
X022883Y003885D01*
X022881Y003948D01*
X020397Y002622D02*
X020399Y002685D01*
X020405Y002747D01*
X020415Y002809D01*
X020428Y002871D01*
X020446Y002931D01*
X020467Y002990D01*
X020492Y003048D01*
X020521Y003104D01*
X020553Y003158D01*
X020588Y003210D01*
X020626Y003259D01*
X020668Y003307D01*
X020712Y003351D01*
X020760Y003393D01*
X020809Y003431D01*
X020861Y003466D01*
X020915Y003498D01*
X020971Y003527D01*
X021029Y003552D01*
X021088Y003573D01*
X021148Y003591D01*
X021210Y003604D01*
X021272Y003614D01*
X021334Y003620D01*
X021397Y003622D01*
X021460Y003620D01*
X021522Y003614D01*
X021584Y003604D01*
X021646Y003591D01*
X021706Y003573D01*
X021765Y003552D01*
X021823Y003527D01*
X021879Y003498D01*
X021933Y003466D01*
X021985Y003431D01*
X022034Y003393D01*
X022082Y003351D01*
X022126Y003307D01*
X022168Y003259D01*
X022206Y003210D01*
X022241Y003158D01*
X022273Y003104D01*
X022302Y003048D01*
X022327Y002990D01*
X022348Y002931D01*
X022366Y002871D01*
X022379Y002809D01*
X022389Y002747D01*
X022395Y002685D01*
X022397Y002622D01*
X022395Y002559D01*
X022389Y002497D01*
X022379Y002435D01*
X022366Y002373D01*
X022348Y002313D01*
X022327Y002254D01*
X022302Y002196D01*
X022273Y002140D01*
X022241Y002086D01*
X022206Y002034D01*
X022168Y001985D01*
X022126Y001937D01*
X022082Y001893D01*
X022034Y001851D01*
X021985Y001813D01*
X021933Y001778D01*
X021879Y001746D01*
X021823Y001717D01*
X021765Y001692D01*
X021706Y001671D01*
X021646Y001653D01*
X021584Y001640D01*
X021522Y001630D01*
X021460Y001624D01*
X021397Y001622D01*
X021334Y001624D01*
X021272Y001630D01*
X021210Y001640D01*
X021148Y001653D01*
X021088Y001671D01*
X021029Y001692D01*
X020971Y001717D01*
X020915Y001746D01*
X020861Y001778D01*
X020809Y001813D01*
X020760Y001851D01*
X020712Y001893D01*
X020668Y001937D01*
X020626Y001985D01*
X020588Y002034D01*
X020553Y002086D01*
X020521Y002140D01*
X020492Y002196D01*
X020467Y002254D01*
X020446Y002313D01*
X020428Y002373D01*
X020415Y002435D01*
X020405Y002497D01*
X020399Y002559D01*
X020397Y002622D01*
X017700Y001803D02*
X017702Y001866D01*
X017708Y001928D01*
X017718Y001990D01*
X017731Y002052D01*
X017749Y002112D01*
X017770Y002171D01*
X017795Y002229D01*
X017824Y002285D01*
X017856Y002339D01*
X017891Y002391D01*
X017929Y002440D01*
X017971Y002488D01*
X018015Y002532D01*
X018063Y002574D01*
X018112Y002612D01*
X018164Y002647D01*
X018218Y002679D01*
X018274Y002708D01*
X018332Y002733D01*
X018391Y002754D01*
X018451Y002772D01*
X018513Y002785D01*
X018575Y002795D01*
X018637Y002801D01*
X018700Y002803D01*
X018763Y002801D01*
X018825Y002795D01*
X018887Y002785D01*
X018949Y002772D01*
X019009Y002754D01*
X019068Y002733D01*
X019126Y002708D01*
X019182Y002679D01*
X019236Y002647D01*
X019288Y002612D01*
X019337Y002574D01*
X019385Y002532D01*
X019429Y002488D01*
X019471Y002440D01*
X019509Y002391D01*
X019544Y002339D01*
X019576Y002285D01*
X019605Y002229D01*
X019630Y002171D01*
X019651Y002112D01*
X019669Y002052D01*
X019682Y001990D01*
X019692Y001928D01*
X019698Y001866D01*
X019700Y001803D01*
X019698Y001740D01*
X019692Y001678D01*
X019682Y001616D01*
X019669Y001554D01*
X019651Y001494D01*
X019630Y001435D01*
X019605Y001377D01*
X019576Y001321D01*
X019544Y001267D01*
X019509Y001215D01*
X019471Y001166D01*
X019429Y001118D01*
X019385Y001074D01*
X019337Y001032D01*
X019288Y000994D01*
X019236Y000959D01*
X019182Y000927D01*
X019126Y000898D01*
X019068Y000873D01*
X019009Y000852D01*
X018949Y000834D01*
X018887Y000821D01*
X018825Y000811D01*
X018763Y000805D01*
X018700Y000803D01*
X018637Y000805D01*
X018575Y000811D01*
X018513Y000821D01*
X018451Y000834D01*
X018391Y000852D01*
X018332Y000873D01*
X018274Y000898D01*
X018218Y000927D01*
X018164Y000959D01*
X018112Y000994D01*
X018063Y001032D01*
X018015Y001074D01*
X017971Y001118D01*
X017929Y001166D01*
X017891Y001215D01*
X017856Y001267D01*
X017824Y001321D01*
X017795Y001377D01*
X017770Y001435D01*
X017749Y001494D01*
X017731Y001554D01*
X017718Y001616D01*
X017708Y001678D01*
X017702Y001740D01*
X017700Y001803D01*
X014897Y001527D02*
X014899Y001590D01*
X014905Y001652D01*
X014915Y001714D01*
X014928Y001776D01*
X014946Y001836D01*
X014967Y001895D01*
X014992Y001953D01*
X015021Y002009D01*
X015053Y002063D01*
X015088Y002115D01*
X015126Y002164D01*
X015168Y002212D01*
X015212Y002256D01*
X015260Y002298D01*
X015309Y002336D01*
X015361Y002371D01*
X015415Y002403D01*
X015471Y002432D01*
X015529Y002457D01*
X015588Y002478D01*
X015648Y002496D01*
X015710Y002509D01*
X015772Y002519D01*
X015834Y002525D01*
X015897Y002527D01*
X015960Y002525D01*
X016022Y002519D01*
X016084Y002509D01*
X016146Y002496D01*
X016206Y002478D01*
X016265Y002457D01*
X016323Y002432D01*
X016379Y002403D01*
X016433Y002371D01*
X016485Y002336D01*
X016534Y002298D01*
X016582Y002256D01*
X016626Y002212D01*
X016668Y002164D01*
X016706Y002115D01*
X016741Y002063D01*
X016773Y002009D01*
X016802Y001953D01*
X016827Y001895D01*
X016848Y001836D01*
X016866Y001776D01*
X016879Y001714D01*
X016889Y001652D01*
X016895Y001590D01*
X016897Y001527D01*
X016895Y001464D01*
X016889Y001402D01*
X016879Y001340D01*
X016866Y001278D01*
X016848Y001218D01*
X016827Y001159D01*
X016802Y001101D01*
X016773Y001045D01*
X016741Y000991D01*
X016706Y000939D01*
X016668Y000890D01*
X016626Y000842D01*
X016582Y000798D01*
X016534Y000756D01*
X016485Y000718D01*
X016433Y000683D01*
X016379Y000651D01*
X016323Y000622D01*
X016265Y000597D01*
X016206Y000576D01*
X016146Y000558D01*
X016084Y000545D01*
X016022Y000535D01*
X015960Y000529D01*
X015897Y000527D01*
X015834Y000529D01*
X015772Y000535D01*
X015710Y000545D01*
X015648Y000558D01*
X015588Y000576D01*
X015529Y000597D01*
X015471Y000622D01*
X015415Y000651D01*
X015361Y000683D01*
X015309Y000718D01*
X015260Y000756D01*
X015212Y000798D01*
X015168Y000842D01*
X015126Y000890D01*
X015088Y000939D01*
X015053Y000991D01*
X015021Y001045D01*
X014992Y001101D01*
X014967Y001159D01*
X014946Y001218D01*
X014928Y001278D01*
X014915Y001340D01*
X014905Y001402D01*
X014899Y001464D01*
X014897Y001527D01*
X012094Y001803D02*
X012096Y001866D01*
X012102Y001928D01*
X012112Y001990D01*
X012125Y002052D01*
X012143Y002112D01*
X012164Y002171D01*
X012189Y002229D01*
X012218Y002285D01*
X012250Y002339D01*
X012285Y002391D01*
X012323Y002440D01*
X012365Y002488D01*
X012409Y002532D01*
X012457Y002574D01*
X012506Y002612D01*
X012558Y002647D01*
X012612Y002679D01*
X012668Y002708D01*
X012726Y002733D01*
X012785Y002754D01*
X012845Y002772D01*
X012907Y002785D01*
X012969Y002795D01*
X013031Y002801D01*
X013094Y002803D01*
X013157Y002801D01*
X013219Y002795D01*
X013281Y002785D01*
X013343Y002772D01*
X013403Y002754D01*
X013462Y002733D01*
X013520Y002708D01*
X013576Y002679D01*
X013630Y002647D01*
X013682Y002612D01*
X013731Y002574D01*
X013779Y002532D01*
X013823Y002488D01*
X013865Y002440D01*
X013903Y002391D01*
X013938Y002339D01*
X013970Y002285D01*
X013999Y002229D01*
X014024Y002171D01*
X014045Y002112D01*
X014063Y002052D01*
X014076Y001990D01*
X014086Y001928D01*
X014092Y001866D01*
X014094Y001803D01*
X014092Y001740D01*
X014086Y001678D01*
X014076Y001616D01*
X014063Y001554D01*
X014045Y001494D01*
X014024Y001435D01*
X013999Y001377D01*
X013970Y001321D01*
X013938Y001267D01*
X013903Y001215D01*
X013865Y001166D01*
X013823Y001118D01*
X013779Y001074D01*
X013731Y001032D01*
X013682Y000994D01*
X013630Y000959D01*
X013576Y000927D01*
X013520Y000898D01*
X013462Y000873D01*
X013403Y000852D01*
X013343Y000834D01*
X013281Y000821D01*
X013219Y000811D01*
X013157Y000805D01*
X013094Y000803D01*
X013031Y000805D01*
X012969Y000811D01*
X012907Y000821D01*
X012845Y000834D01*
X012785Y000852D01*
X012726Y000873D01*
X012668Y000898D01*
X012612Y000927D01*
X012558Y000959D01*
X012506Y000994D01*
X012457Y001032D01*
X012409Y001074D01*
X012365Y001118D01*
X012323Y001166D01*
X012285Y001215D01*
X012250Y001267D01*
X012218Y001321D01*
X012189Y001377D01*
X012164Y001435D01*
X012143Y001494D01*
X012125Y001554D01*
X012112Y001616D01*
X012102Y001678D01*
X012096Y001740D01*
X012094Y001803D01*
X009397Y002622D02*
X009399Y002685D01*
X009405Y002747D01*
X009415Y002809D01*
X009428Y002871D01*
X009446Y002931D01*
X009467Y002990D01*
X009492Y003048D01*
X009521Y003104D01*
X009553Y003158D01*
X009588Y003210D01*
X009626Y003259D01*
X009668Y003307D01*
X009712Y003351D01*
X009760Y003393D01*
X009809Y003431D01*
X009861Y003466D01*
X009915Y003498D01*
X009971Y003527D01*
X010029Y003552D01*
X010088Y003573D01*
X010148Y003591D01*
X010210Y003604D01*
X010272Y003614D01*
X010334Y003620D01*
X010397Y003622D01*
X010460Y003620D01*
X010522Y003614D01*
X010584Y003604D01*
X010646Y003591D01*
X010706Y003573D01*
X010765Y003552D01*
X010823Y003527D01*
X010879Y003498D01*
X010933Y003466D01*
X010985Y003431D01*
X011034Y003393D01*
X011082Y003351D01*
X011126Y003307D01*
X011168Y003259D01*
X011206Y003210D01*
X011241Y003158D01*
X011273Y003104D01*
X011302Y003048D01*
X011327Y002990D01*
X011348Y002931D01*
X011366Y002871D01*
X011379Y002809D01*
X011389Y002747D01*
X011395Y002685D01*
X011397Y002622D01*
X011395Y002559D01*
X011389Y002497D01*
X011379Y002435D01*
X011366Y002373D01*
X011348Y002313D01*
X011327Y002254D01*
X011302Y002196D01*
X011273Y002140D01*
X011241Y002086D01*
X011206Y002034D01*
X011168Y001985D01*
X011126Y001937D01*
X011082Y001893D01*
X011034Y001851D01*
X010985Y001813D01*
X010933Y001778D01*
X010879Y001746D01*
X010823Y001717D01*
X010765Y001692D01*
X010706Y001671D01*
X010646Y001653D01*
X010584Y001640D01*
X010522Y001630D01*
X010460Y001624D01*
X010397Y001622D01*
X010334Y001624D01*
X010272Y001630D01*
X010210Y001640D01*
X010148Y001653D01*
X010088Y001671D01*
X010029Y001692D01*
X009971Y001717D01*
X009915Y001746D01*
X009861Y001778D01*
X009809Y001813D01*
X009760Y001851D01*
X009712Y001893D01*
X009668Y001937D01*
X009626Y001985D01*
X009588Y002034D01*
X009553Y002086D01*
X009521Y002140D01*
X009492Y002196D01*
X009467Y002254D01*
X009446Y002313D01*
X009428Y002373D01*
X009415Y002435D01*
X009405Y002497D01*
X009399Y002559D01*
X009397Y002622D01*
X006913Y003948D02*
X006915Y004011D01*
X006921Y004073D01*
X006931Y004135D01*
X006944Y004197D01*
X006962Y004257D01*
X006983Y004316D01*
X007008Y004374D01*
X007037Y004430D01*
X007069Y004484D01*
X007104Y004536D01*
X007142Y004585D01*
X007184Y004633D01*
X007228Y004677D01*
X007276Y004719D01*
X007325Y004757D01*
X007377Y004792D01*
X007431Y004824D01*
X007487Y004853D01*
X007545Y004878D01*
X007604Y004899D01*
X007664Y004917D01*
X007726Y004930D01*
X007788Y004940D01*
X007850Y004946D01*
X007913Y004948D01*
X007976Y004946D01*
X008038Y004940D01*
X008100Y004930D01*
X008162Y004917D01*
X008222Y004899D01*
X008281Y004878D01*
X008339Y004853D01*
X008395Y004824D01*
X008449Y004792D01*
X008501Y004757D01*
X008550Y004719D01*
X008598Y004677D01*
X008642Y004633D01*
X008684Y004585D01*
X008722Y004536D01*
X008757Y004484D01*
X008789Y004430D01*
X008818Y004374D01*
X008843Y004316D01*
X008864Y004257D01*
X008882Y004197D01*
X008895Y004135D01*
X008905Y004073D01*
X008911Y004011D01*
X008913Y003948D01*
X008911Y003885D01*
X008905Y003823D01*
X008895Y003761D01*
X008882Y003699D01*
X008864Y003639D01*
X008843Y003580D01*
X008818Y003522D01*
X008789Y003466D01*
X008757Y003412D01*
X008722Y003360D01*
X008684Y003311D01*
X008642Y003263D01*
X008598Y003219D01*
X008550Y003177D01*
X008501Y003139D01*
X008449Y003104D01*
X008395Y003072D01*
X008339Y003043D01*
X008281Y003018D01*
X008222Y002997D01*
X008162Y002979D01*
X008100Y002966D01*
X008038Y002956D01*
X007976Y002950D01*
X007913Y002948D01*
X007850Y002950D01*
X007788Y002956D01*
X007726Y002966D01*
X007664Y002979D01*
X007604Y002997D01*
X007545Y003018D01*
X007487Y003043D01*
X007431Y003072D01*
X007377Y003104D01*
X007325Y003139D01*
X007276Y003177D01*
X007228Y003219D01*
X007184Y003263D01*
X007142Y003311D01*
X007104Y003360D01*
X007069Y003412D01*
X007037Y003466D01*
X007008Y003522D01*
X006983Y003580D01*
X006962Y003639D01*
X006944Y003699D01*
X006931Y003761D01*
X006921Y003823D01*
X006915Y003885D01*
X006913Y003948D01*
X004736Y005736D02*
X004738Y005799D01*
X004744Y005861D01*
X004754Y005923D01*
X004767Y005985D01*
X004785Y006045D01*
X004806Y006104D01*
X004831Y006162D01*
X004860Y006218D01*
X004892Y006272D01*
X004927Y006324D01*
X004965Y006373D01*
X005007Y006421D01*
X005051Y006465D01*
X005099Y006507D01*
X005148Y006545D01*
X005200Y006580D01*
X005254Y006612D01*
X005310Y006641D01*
X005368Y006666D01*
X005427Y006687D01*
X005487Y006705D01*
X005549Y006718D01*
X005611Y006728D01*
X005673Y006734D01*
X005736Y006736D01*
X005799Y006734D01*
X005861Y006728D01*
X005923Y006718D01*
X005985Y006705D01*
X006045Y006687D01*
X006104Y006666D01*
X006162Y006641D01*
X006218Y006612D01*
X006272Y006580D01*
X006324Y006545D01*
X006373Y006507D01*
X006421Y006465D01*
X006465Y006421D01*
X006507Y006373D01*
X006545Y006324D01*
X006580Y006272D01*
X006612Y006218D01*
X006641Y006162D01*
X006666Y006104D01*
X006687Y006045D01*
X006705Y005985D01*
X006718Y005923D01*
X006728Y005861D01*
X006734Y005799D01*
X006736Y005736D01*
X006734Y005673D01*
X006728Y005611D01*
X006718Y005549D01*
X006705Y005487D01*
X006687Y005427D01*
X006666Y005368D01*
X006641Y005310D01*
X006612Y005254D01*
X006580Y005200D01*
X006545Y005148D01*
X006507Y005099D01*
X006465Y005051D01*
X006421Y005007D01*
X006373Y004965D01*
X006324Y004927D01*
X006272Y004892D01*
X006218Y004860D01*
X006162Y004831D01*
X006104Y004806D01*
X006045Y004785D01*
X005985Y004767D01*
X005923Y004754D01*
X005861Y004744D01*
X005799Y004738D01*
X005736Y004736D01*
X005673Y004738D01*
X005611Y004744D01*
X005549Y004754D01*
X005487Y004767D01*
X005427Y004785D01*
X005368Y004806D01*
X005310Y004831D01*
X005254Y004860D01*
X005200Y004892D01*
X005148Y004927D01*
X005099Y004965D01*
X005051Y005007D01*
X005007Y005051D01*
X004965Y005099D01*
X004927Y005148D01*
X004892Y005200D01*
X004860Y005254D01*
X004831Y005310D01*
X004806Y005368D01*
X004785Y005427D01*
X004767Y005487D01*
X004754Y005549D01*
X004744Y005611D01*
X004738Y005673D01*
X004736Y005736D01*
X011442Y012998D02*
X018796Y020352D01*
X019397Y019751D01*
X019377Y019728D01*
X019360Y019703D01*
X019346Y019677D01*
X019335Y019648D01*
X019328Y019619D01*
X019324Y019589D01*
X019324Y019559D01*
X019328Y019529D01*
X019335Y019500D01*
X019346Y019471D01*
X019360Y019445D01*
X019377Y019420D01*
X019397Y019397D01*
X019420Y019377D01*
X019445Y019360D01*
X019471Y019346D01*
X019500Y019335D01*
X019529Y019328D01*
X019559Y019324D01*
X019589Y019324D01*
X019619Y019328D01*
X019648Y019335D01*
X019677Y019346D01*
X019703Y019360D01*
X019728Y019377D01*
X019751Y019397D01*
X020352Y018796D01*
X012998Y011442D01*
X011442Y012998D01*
X011637Y016087D02*
X011991Y016087D01*
X012344Y016440D01*
X012344Y016794D01*
X012698Y016794D01*
X013051Y017147D01*
X013051Y017501D01*
X013405Y017501D01*
X013758Y017854D01*
X013758Y018208D01*
X013405Y018562D01*
X013051Y018562D01*
X012698Y018208D01*
X012698Y017854D01*
X012344Y017854D01*
X011991Y017501D01*
X011991Y017147D01*
X011637Y017147D01*
X011283Y016794D01*
X011283Y016440D01*
X011637Y016087D01*
D15*
X011496Y015981D02*
X011283Y015768D01*
X011390Y015875D02*
X011071Y016193D01*
X011071Y015981D01*
X011054Y016811D02*
X010948Y016811D01*
X011054Y016811D02*
X011160Y016918D01*
X011160Y017024D01*
X011107Y017077D01*
X011001Y017077D01*
X010894Y016971D01*
X010788Y016971D01*
X010735Y017024D01*
X010735Y017130D01*
X010841Y017236D01*
X010948Y017236D01*
X011008Y017402D02*
X011220Y017190D01*
X011432Y017190D01*
X011432Y017402D01*
X011220Y017615D01*
X011386Y017675D02*
X011386Y017781D01*
X011492Y017887D01*
X011599Y017887D01*
X011652Y017834D01*
X011652Y017409D01*
X011864Y017622D01*
X007758Y020222D02*
X007737Y020326D01*
X007550Y020451D01*
X007467Y020326D01*
X007488Y020222D01*
X007612Y020139D01*
X007717Y020160D01*
X007758Y020222D01*
X007758Y020493D02*
X007550Y020451D01*
X007458Y020602D02*
X007500Y020665D01*
X007479Y020769D01*
X007354Y020852D01*
X007250Y020831D01*
X007117Y020920D02*
X007034Y020795D01*
X006930Y020775D01*
X006742Y020899D01*
X006659Y020775D02*
X006909Y021149D01*
X007096Y021024D01*
X007117Y020920D01*
X006867Y020816D02*
X006909Y020608D01*
X007042Y020519D02*
X007458Y020602D01*
X007292Y020353D02*
X007042Y020519D01*
X007758Y020493D02*
X007925Y020472D01*
X008654Y021620D02*
X008442Y021833D01*
X008548Y021727D02*
X008866Y022045D01*
X008654Y022045D01*
X008594Y022211D02*
X008488Y022105D01*
X008381Y022105D01*
X008222Y022264D01*
X008116Y022158D02*
X008434Y022477D01*
X008594Y022317D01*
X008594Y022211D01*
X008328Y022158D02*
X008328Y021946D01*
X007171Y022556D02*
X007005Y022577D01*
X006797Y022535D01*
X006984Y022410D01*
X007005Y022306D01*
X006963Y022244D01*
X006859Y022223D01*
X006734Y022306D01*
X006713Y022410D01*
X006797Y022535D01*
X006705Y022686D02*
X006747Y022749D01*
X006726Y022853D01*
X006601Y022936D01*
X006497Y022915D01*
X006364Y023004D02*
X006343Y023108D01*
X006155Y023233D01*
X005906Y022859D01*
X006093Y022734D01*
X006197Y022755D01*
X006364Y023004D01*
X006289Y022603D02*
X006705Y022686D01*
X006538Y022437D02*
X006289Y022603D01*
X005772Y022948D02*
X005523Y023114D01*
X005772Y023489D01*
X006022Y023322D01*
X005772Y023218D02*
X005648Y023301D01*
X005389Y023203D02*
X005140Y023370D01*
X005389Y023744D01*
X006804Y025323D02*
X007016Y025111D01*
X007129Y024998D02*
X007341Y024785D01*
X007455Y024672D02*
X007614Y024513D01*
X007720Y024513D01*
X007932Y024725D01*
X007932Y024831D01*
X007773Y024991D01*
X007455Y024672D01*
X007394Y025051D02*
X007288Y025157D01*
X007129Y024998D02*
X007448Y025316D01*
X007660Y025104D01*
X007993Y024559D02*
X008205Y024559D01*
X007886Y024240D01*
X007780Y024347D02*
X007993Y024134D01*
X009488Y023558D02*
X009862Y023809D01*
X009988Y023622D01*
X009967Y023518D01*
X009842Y023434D01*
X009738Y023455D01*
X009613Y023642D01*
X009696Y023517D02*
X009655Y023309D01*
X009807Y023217D02*
X009786Y023113D01*
X009870Y022989D01*
X009974Y022968D01*
X010223Y023135D01*
X010244Y023239D01*
X010160Y023364D01*
X010056Y023384D01*
X009994Y023343D01*
X009973Y023239D01*
X010098Y023051D01*
X011279Y024236D02*
X011349Y024265D01*
X011741Y024102D01*
X011810Y024131D01*
X011695Y024408D01*
X011577Y024695D02*
X011161Y024523D01*
X011103Y024661D02*
X011218Y024384D01*
X011381Y024776D02*
X011577Y024695D01*
X011389Y024953D02*
X011250Y024896D01*
X011152Y024936D01*
X011066Y025144D01*
X011123Y025006D02*
X011042Y024809D01*
X010927Y025087D02*
X011343Y025259D01*
X011429Y025051D01*
X011389Y024953D01*
X011807Y026383D02*
X011876Y026412D01*
X012269Y026250D01*
X012338Y026278D01*
X012223Y026556D01*
X012104Y026842D02*
X011908Y026924D01*
X011916Y027100D02*
X011957Y027198D01*
X011871Y027406D01*
X011455Y027234D01*
X011541Y027026D01*
X011639Y026985D01*
X011916Y027100D01*
X012104Y026842D02*
X011688Y026670D01*
X011631Y026809D02*
X011746Y026531D01*
X011393Y027382D02*
X011278Y027659D01*
X011695Y027832D01*
X011809Y027554D01*
X011544Y027607D02*
X011487Y027746D01*
X011217Y027807D02*
X011102Y028085D01*
X011518Y028257D01*
X013574Y028787D02*
X013633Y028493D01*
X013665Y028336D02*
X013723Y028042D01*
X013755Y027885D02*
X013799Y027664D01*
X013887Y027605D01*
X014182Y027664D01*
X014241Y027752D01*
X014196Y027973D01*
X013755Y027885D01*
X013915Y028233D02*
X013885Y028380D01*
X013665Y028336D02*
X014106Y028424D01*
X014165Y028130D01*
X014213Y027507D02*
X014301Y027448D01*
X014331Y027301D01*
X014272Y027212D01*
X014198Y027197D01*
X013845Y027433D01*
X013904Y027139D01*
X014009Y026996D02*
X013950Y026908D01*
X013979Y026761D01*
X014068Y026702D01*
X014215Y026731D01*
X014274Y026820D01*
X014259Y026893D01*
X014156Y027026D01*
X014377Y027070D01*
X014436Y026775D01*
X014897Y025719D02*
X014972Y025719D01*
X015047Y025644D01*
X015047Y025494D01*
X014972Y025419D01*
X014897Y025419D01*
X014822Y025494D01*
X014822Y025644D01*
X014897Y025719D01*
X015047Y025644D02*
X015122Y025719D01*
X015197Y025719D01*
X015272Y025644D01*
X015272Y025494D01*
X015197Y025419D01*
X015122Y025419D01*
X015047Y025494D01*
X015047Y025259D02*
X014897Y025259D01*
X014822Y025184D01*
X014822Y024958D01*
X015272Y024958D01*
X015122Y024958D02*
X015122Y025184D01*
X015047Y025259D01*
X015122Y025109D02*
X015272Y025259D01*
X016610Y024993D02*
X016654Y025214D01*
X016742Y025273D01*
X016889Y025244D01*
X016948Y025155D01*
X016905Y024935D01*
X016934Y025082D02*
X017110Y025200D01*
X017141Y025357D02*
X017200Y025652D01*
X017171Y025504D02*
X016729Y025592D01*
X016847Y025415D01*
X016610Y024993D02*
X017052Y024905D01*
X017157Y025823D02*
X017245Y025882D01*
X017275Y026030D01*
X017216Y026118D01*
X017142Y026132D01*
X017054Y026073D01*
X017010Y025852D01*
X017157Y025823D01*
X017010Y025852D02*
X016892Y026029D01*
X016847Y026191D01*
X016582Y027201D02*
X016132Y027201D01*
X016582Y027201D02*
X016582Y027501D01*
X016582Y027661D02*
X016582Y027961D01*
X016582Y028122D02*
X016582Y028347D01*
X016507Y028422D01*
X016207Y028422D01*
X016132Y028347D01*
X016132Y028122D01*
X016582Y028122D01*
X016357Y027811D02*
X016357Y027661D01*
X016132Y027661D02*
X016582Y027661D01*
X016132Y027661D02*
X016132Y027961D01*
X016207Y028582D02*
X016282Y028582D01*
X016357Y028657D01*
X016357Y028807D01*
X016432Y028882D01*
X016507Y028882D01*
X016582Y028807D01*
X016582Y028657D01*
X016507Y028582D01*
X016432Y028582D01*
X016357Y028657D01*
X016357Y028807D02*
X016282Y028882D01*
X016207Y028882D01*
X016132Y028807D01*
X016132Y028657D01*
X016207Y028582D01*
X014016Y028876D02*
X013574Y028787D01*
X013258Y025967D02*
X012816Y025879D01*
X012964Y025909D02*
X013008Y025688D01*
X013096Y025629D01*
X013243Y025658D01*
X013302Y025747D01*
X013258Y025967D01*
X012993Y025761D02*
X012875Y025585D01*
X012907Y025428D02*
X013260Y025192D01*
X013334Y025207D01*
X013392Y025295D01*
X013363Y025442D01*
X013275Y025501D01*
X012907Y025428D02*
X012965Y025133D01*
X013070Y024991D02*
X013012Y024903D01*
X013041Y024755D01*
X013129Y024696D01*
X013276Y024726D01*
X013335Y024814D01*
X013321Y024888D01*
X013218Y025020D01*
X013438Y025064D01*
X013497Y024770D01*
X010065Y025729D02*
X010085Y025833D01*
X010002Y025958D01*
X009898Y025978D01*
X009835Y025937D01*
X009815Y025832D01*
X009940Y025645D01*
X009815Y025562D02*
X010065Y025729D01*
X009815Y025562D02*
X009711Y025582D01*
X009628Y025707D01*
X009648Y025811D01*
X009559Y025944D02*
X009809Y026111D01*
X009829Y026216D01*
X009704Y026403D01*
X009330Y026152D01*
X009455Y025965D01*
X009559Y025944D01*
X009241Y026285D02*
X009074Y026535D01*
X009448Y026785D01*
X009615Y026536D01*
X009344Y026535D02*
X009261Y026660D01*
X008985Y026668D02*
X008818Y026917D01*
X009192Y027168D01*
X007122Y025642D02*
X006804Y025323D01*
X004765Y021251D02*
X004487Y021366D01*
X004315Y020950D01*
X004592Y020835D01*
X004740Y020774D02*
X004948Y020688D01*
X005046Y020729D01*
X005161Y021006D01*
X005121Y021104D01*
X004913Y021190D01*
X004740Y020774D01*
X004540Y021101D02*
X004401Y021158D01*
X004167Y021012D02*
X003890Y021126D01*
X004062Y021543D01*
X005280Y020875D02*
X005477Y020957D01*
X005304Y020540D01*
X005166Y020598D02*
X005443Y020483D01*
X005620Y020491D02*
X005648Y020560D01*
X005746Y020601D01*
X005885Y020544D01*
X005926Y020445D01*
X005897Y020376D01*
X005799Y020336D01*
X005660Y020393D01*
X005620Y020491D01*
X005746Y020601D02*
X005706Y020699D01*
X005735Y020768D01*
X005833Y020809D01*
X005971Y020752D01*
X006012Y020654D01*
X005983Y020584D01*
X005885Y020544D01*
X006057Y019297D02*
X006265Y019211D01*
X006306Y019113D01*
X006248Y018974D01*
X006150Y018934D01*
X005942Y019020D01*
X005885Y018881D02*
X006057Y019297D01*
X006081Y018962D02*
X006162Y018766D01*
X006310Y018705D02*
X006588Y018590D01*
X006449Y018648D02*
X006621Y019064D01*
X006425Y018982D01*
X006850Y018806D02*
X006891Y018708D01*
X007030Y018651D01*
X007070Y018553D01*
X007042Y018483D01*
X006944Y018443D01*
X006805Y018500D01*
X006764Y018598D01*
X006793Y018667D01*
X006891Y018708D01*
X006850Y018806D02*
X006879Y018876D01*
X006977Y018916D01*
X007116Y018859D01*
X007157Y018761D01*
X007128Y018691D01*
X007030Y018651D01*
X006182Y017192D02*
X006095Y016751D01*
X005947Y016780D02*
X006242Y016721D01*
X006414Y016764D02*
X006472Y017058D01*
X006560Y017117D01*
X006707Y017088D01*
X006767Y017000D01*
X006414Y016764D01*
X006473Y016676D01*
X006620Y016647D01*
X006708Y016706D01*
X006767Y017000D01*
X006182Y017192D02*
X006006Y017074D01*
X005834Y017032D02*
X005746Y016973D01*
X005525Y017016D01*
X005496Y016869D02*
X005583Y017311D01*
X005804Y017267D01*
X005863Y017179D01*
X005834Y017032D01*
X005672Y016987D02*
X005790Y016811D01*
X004484Y016508D02*
X004409Y016583D01*
X004258Y016583D01*
X004183Y016508D01*
X004023Y016508D02*
X004023Y016207D01*
X003948Y016132D01*
X003723Y016132D01*
X003723Y016583D01*
X003948Y016583D01*
X004023Y016508D01*
X004183Y016132D02*
X004484Y016433D01*
X004484Y016508D01*
X004484Y016132D02*
X004183Y016132D01*
X003563Y016132D02*
X003263Y016132D01*
X003263Y016583D01*
X003563Y016583D01*
X003413Y016357D02*
X003263Y016357D01*
X003102Y016132D02*
X002802Y016132D01*
X002802Y016583D01*
X003099Y018683D02*
X003394Y018625D01*
X003551Y018594D02*
X003638Y019036D01*
X003933Y018977D01*
X004090Y018946D02*
X004311Y018902D01*
X004370Y018814D01*
X004311Y018520D01*
X004223Y018461D01*
X004002Y018504D01*
X004090Y018946D01*
X003742Y018786D02*
X003594Y018815D01*
X003551Y018594D02*
X003845Y018536D01*
X004454Y018415D02*
X004749Y018357D01*
X004601Y018386D02*
X004689Y018828D01*
X004512Y018710D01*
X004979Y018694D02*
X004920Y018399D01*
X005273Y018635D01*
X005215Y018341D01*
X005127Y018282D01*
X004979Y018311D01*
X004920Y018399D01*
X004979Y018694D02*
X005067Y018753D01*
X005214Y018724D01*
X005273Y018635D01*
X003187Y019125D02*
X003099Y018683D01*
X005965Y015273D02*
X006190Y015273D01*
X006265Y015198D01*
X006265Y015047D01*
X006190Y014972D01*
X005965Y014972D01*
X005965Y014822D02*
X005965Y015273D01*
X006115Y014972D02*
X006265Y014822D01*
X006426Y014822D02*
X006726Y015123D01*
X006726Y015198D01*
X006651Y015273D01*
X006501Y015273D01*
X006426Y015198D01*
X006426Y014822D02*
X006726Y014822D01*
X007024Y013497D02*
X006730Y013438D01*
X006588Y013334D02*
X006499Y013392D01*
X006352Y013363D01*
X006293Y013275D01*
X006136Y013243D02*
X006166Y013096D01*
X006107Y013008D01*
X005886Y012964D01*
X006033Y012993D02*
X006210Y012875D01*
X006367Y012907D02*
X006602Y013260D01*
X006588Y013334D01*
X006804Y013070D02*
X006818Y012997D01*
X006804Y013070D02*
X007039Y013424D01*
X007024Y013497D01*
X006661Y012965D02*
X006367Y012907D01*
X006136Y013243D02*
X006048Y013302D01*
X005827Y013258D01*
X005915Y012816D01*
X005545Y012269D02*
X005447Y012309D01*
X005308Y012252D01*
X005267Y012154D01*
X005296Y012084D01*
X005394Y012044D01*
X005602Y012130D01*
X005660Y011991D02*
X005545Y012269D01*
X005660Y011991D02*
X005619Y011893D01*
X005480Y011836D01*
X005382Y011876D01*
X005263Y011746D02*
X004986Y011631D01*
X005124Y011688D02*
X004952Y012104D01*
X004871Y011908D01*
X004694Y011916D02*
X004809Y011639D01*
X004768Y011541D01*
X004560Y011455D01*
X004388Y011871D01*
X004596Y011957D01*
X004694Y011916D01*
X004240Y011809D02*
X003963Y011695D01*
X004135Y011278D01*
X004412Y011393D01*
X004188Y011544D02*
X004049Y011487D01*
X003987Y011217D02*
X003710Y011102D01*
X003537Y011518D01*
X003007Y013574D02*
X003301Y013633D01*
X003458Y013665D02*
X003753Y013723D01*
X003910Y013755D02*
X003822Y014196D01*
X004042Y014241D01*
X004131Y014182D01*
X004190Y013887D01*
X004131Y013799D01*
X003910Y013755D01*
X003562Y013915D02*
X003414Y013885D01*
X003458Y013665D02*
X003370Y014106D01*
X003665Y014165D01*
X004288Y014213D02*
X004347Y014301D01*
X004494Y014331D01*
X004582Y014272D01*
X004597Y014198D01*
X004361Y013845D01*
X004656Y013904D01*
X004813Y013935D02*
X004798Y014009D01*
X005034Y014362D01*
X005019Y014436D01*
X004725Y014377D01*
X002919Y014016D02*
X003007Y013574D01*
X006282Y010300D02*
X006532Y009926D01*
X006408Y009842D02*
X006657Y010009D01*
X006240Y010092D02*
X006282Y010300D01*
X005899Y010044D02*
X006150Y009669D01*
X006274Y009753D02*
X006025Y009586D01*
X005850Y009559D02*
X005683Y009809D01*
X005579Y009829D01*
X005392Y009704D01*
X005642Y009330D01*
X005829Y009455D01*
X005850Y009559D01*
X005858Y009835D02*
X005899Y010044D01*
X005259Y009615D02*
X005009Y009448D01*
X005260Y009074D01*
X005509Y009241D01*
X005259Y009344D02*
X005135Y009261D01*
X005127Y008985D02*
X004877Y008818D01*
X004627Y009192D01*
X006478Y007448D02*
X006797Y007129D01*
X007009Y007341D01*
X007122Y007455D02*
X007282Y007614D01*
X007282Y007720D01*
X007069Y007932D01*
X006963Y007932D01*
X006804Y007773D01*
X007122Y007455D01*
X006744Y007394D02*
X006638Y007288D01*
X006478Y007448D02*
X006691Y007660D01*
X007182Y008046D02*
X007182Y008152D01*
X007289Y008258D01*
X007395Y008258D01*
X007448Y008205D01*
X007448Y008099D01*
X007554Y008099D01*
X007607Y008046D01*
X007607Y007939D01*
X007501Y007833D01*
X007395Y007833D01*
X007395Y008046D02*
X007448Y008099D01*
X006684Y007016D02*
X006471Y006804D01*
X006153Y007122D01*
X008050Y005389D02*
X008425Y005140D01*
X008592Y005389D01*
X008680Y005523D02*
X008847Y005772D01*
X008936Y005906D02*
X008561Y006155D01*
X008686Y006343D01*
X008790Y006364D01*
X009040Y006197D01*
X009061Y006093D01*
X008936Y005906D01*
X009191Y006289D02*
X009108Y006705D01*
X009046Y006747D01*
X008941Y006726D01*
X008858Y006601D01*
X008879Y006497D01*
X009191Y006289D02*
X009358Y006538D01*
X009384Y006713D02*
X009322Y006755D01*
X009301Y006859D01*
X009384Y006984D01*
X009488Y007005D01*
X009551Y006963D01*
X009572Y006859D01*
X009488Y006734D01*
X009384Y006713D01*
X009301Y006859D02*
X009197Y006838D01*
X009134Y006880D01*
X009114Y006984D01*
X009197Y007109D01*
X009301Y007130D01*
X009363Y007088D01*
X009384Y006984D01*
X008472Y006022D02*
X008306Y005772D01*
X008680Y005523D01*
X008493Y005648D02*
X008576Y005772D01*
X010543Y004765D02*
X010428Y004487D01*
X010844Y004315D01*
X010959Y004592D01*
X011020Y004740D02*
X011107Y004948D01*
X011066Y005046D01*
X010789Y005161D01*
X010690Y005121D01*
X010604Y004913D01*
X011020Y004740D01*
X010694Y004540D02*
X010636Y004401D01*
X010783Y004167D02*
X010668Y003890D01*
X010252Y004062D01*
X010850Y005309D02*
X010809Y005407D01*
X010867Y005546D01*
X010965Y005587D01*
X011034Y005558D01*
X011197Y005166D01*
X011312Y005443D01*
X011303Y005620D02*
X011141Y006012D01*
X011418Y005897D01*
X011459Y005799D01*
X011402Y005660D01*
X011303Y005620D01*
X011026Y005735D01*
X010985Y005833D01*
X011043Y005971D01*
X011141Y006012D01*
X011020Y006659D02*
X010645Y006909D01*
X010770Y007096D01*
X010874Y007117D01*
X010999Y007034D01*
X011020Y006930D01*
X010895Y006742D01*
X010978Y006867D02*
X011186Y006909D01*
X011275Y007042D02*
X011192Y007458D01*
X011130Y007500D01*
X011026Y007479D01*
X010942Y007354D01*
X010963Y007250D01*
X011275Y007042D02*
X011442Y007292D01*
X011468Y007467D02*
X011406Y007508D01*
X011385Y007612D01*
X011468Y007737D01*
X011572Y007758D01*
X011635Y007717D01*
X011656Y007612D01*
X011572Y007488D01*
X011468Y007467D01*
X011385Y007612D02*
X011281Y007592D01*
X011219Y007633D01*
X011198Y007737D01*
X011281Y007862D01*
X011385Y007883D01*
X011448Y007841D01*
X011468Y007737D01*
X012936Y007116D02*
X012878Y006977D01*
X012919Y006879D01*
X013196Y006764D01*
X013034Y007157D01*
X013311Y007042D01*
X013352Y006944D01*
X013294Y006805D01*
X013196Y006764D01*
X013204Y006588D02*
X013090Y006310D01*
X012927Y006703D01*
X012858Y006731D01*
X012760Y006691D01*
X012702Y006552D01*
X012743Y006454D01*
X012681Y006306D02*
X012820Y006248D01*
X012861Y006150D01*
X012775Y005942D01*
X012913Y005885D02*
X012497Y006057D01*
X012583Y006265D01*
X012681Y006306D01*
X012832Y006081D02*
X013028Y006162D01*
X013159Y005273D02*
X013071Y005214D01*
X013042Y005067D01*
X013101Y004979D01*
X013159Y005273D02*
X013233Y005258D01*
X013469Y004906D01*
X013527Y005200D01*
X013438Y004749D02*
X013379Y004454D01*
X013409Y004601D02*
X012967Y004689D01*
X013085Y004512D01*
X012980Y004370D02*
X012892Y004311D01*
X012848Y004090D01*
X013290Y004002D01*
X013334Y004223D01*
X013275Y004311D01*
X012980Y004370D01*
X012817Y003933D02*
X012759Y003638D01*
X013201Y003551D01*
X013259Y003845D01*
X013009Y003742D02*
X012980Y003594D01*
X013170Y003394D02*
X013111Y003099D01*
X012669Y003187D01*
X014484Y005583D02*
X014527Y005804D01*
X014616Y005863D01*
X014763Y005834D01*
X014822Y005746D01*
X014778Y005525D01*
X014807Y005672D02*
X014984Y005790D01*
X015015Y005947D02*
X015073Y006242D01*
X015044Y006095D02*
X014602Y006182D01*
X014720Y006006D01*
X014484Y005583D02*
X014925Y005496D01*
X015104Y006399D02*
X014868Y006752D01*
X014794Y006767D01*
X014706Y006707D01*
X014677Y006560D01*
X014736Y006472D01*
X015104Y006399D02*
X015163Y006694D01*
X016522Y006651D02*
X016747Y006426D01*
X016747Y006726D01*
X016972Y006651D02*
X016522Y006651D01*
X016597Y006265D02*
X016522Y006190D01*
X016522Y005965D01*
X016972Y005965D01*
X016822Y005965D02*
X016822Y006190D01*
X016747Y006265D01*
X016597Y006265D01*
X016822Y006115D02*
X016972Y006265D01*
X017338Y005127D02*
X017396Y004833D01*
X017428Y004676D02*
X017487Y004381D01*
X017518Y004224D02*
X017562Y004003D01*
X017650Y003944D01*
X017945Y004003D01*
X018004Y004092D01*
X017960Y004312D01*
X017518Y004224D01*
X017678Y004573D02*
X017649Y004720D01*
X017869Y004764D02*
X017428Y004676D01*
X017869Y004764D02*
X017928Y004469D01*
X017976Y003846D02*
X018065Y003787D01*
X018094Y003640D01*
X018035Y003552D01*
X017961Y003537D01*
X017608Y003773D01*
X017667Y003478D01*
X017772Y003336D02*
X017713Y003248D01*
X017743Y003100D01*
X017831Y003042D01*
X018125Y003100D01*
X018184Y003189D01*
X018155Y003336D01*
X018066Y003395D01*
X017993Y003380D01*
X017934Y003292D01*
X017978Y003071D01*
X020058Y004065D02*
X019943Y004342D01*
X020336Y004179D01*
X020405Y004208D01*
X020446Y004306D01*
X020388Y004445D01*
X020290Y004486D01*
X020229Y004634D02*
X020269Y004732D01*
X020183Y004940D01*
X019767Y004767D01*
X019853Y004559D01*
X019951Y004519D01*
X020229Y004634D01*
X020122Y005088D02*
X020007Y005365D01*
X019591Y005193D01*
X019706Y004915D01*
X019856Y005140D02*
X019799Y005279D01*
X019530Y005341D02*
X019415Y005618D01*
X019831Y005790D01*
X020410Y006637D02*
X020295Y006915D01*
X020352Y006776D02*
X020768Y006948D01*
X020572Y007029D01*
X020511Y007177D02*
X020580Y007206D01*
X020621Y007304D01*
X020563Y007443D01*
X020465Y007484D01*
X020404Y007632D02*
X020265Y007574D01*
X020167Y007615D01*
X020081Y007823D01*
X019942Y007765D02*
X020358Y007938D01*
X020445Y007730D01*
X020404Y007632D01*
X020138Y007684D02*
X020057Y007488D01*
X020119Y007340D02*
X020511Y007177D01*
X020233Y007063D02*
X020119Y007340D01*
X018762Y007000D02*
X018703Y006912D01*
X018556Y006882D01*
X018467Y006941D01*
X018423Y007162D01*
X018276Y007133D02*
X018718Y007221D01*
X018762Y007000D01*
X018734Y006755D02*
X018823Y006696D01*
X018852Y006549D01*
X018793Y006460D01*
X018719Y006445D01*
X018366Y006681D01*
X018425Y006387D01*
X018530Y006244D02*
X018471Y006156D01*
X018501Y006009D01*
X018589Y005950D01*
X018883Y006009D01*
X018942Y006097D01*
X018913Y006244D01*
X018824Y006303D01*
X018751Y006288D01*
X018692Y006200D01*
X018736Y005979D01*
X018335Y006838D02*
X018453Y007015D01*
X017779Y005215D02*
X017338Y005127D01*
X015662Y004409D02*
X015212Y004409D01*
X015437Y004183D01*
X015437Y004484D01*
X015287Y004023D02*
X015212Y003948D01*
X015212Y003723D01*
X015662Y003723D01*
X015662Y003948D01*
X015587Y004023D01*
X015287Y004023D01*
X015212Y003563D02*
X015212Y003263D01*
X015662Y003263D01*
X015662Y003563D01*
X015437Y003413D02*
X015437Y003263D01*
X015662Y003102D02*
X015662Y002802D01*
X015212Y002802D01*
X013034Y007157D02*
X012936Y007116D01*
X010121Y008601D02*
X010015Y008495D01*
X009909Y008495D01*
X009849Y008328D02*
X009636Y008328D01*
X009689Y008381D02*
X009530Y008222D01*
X009636Y008116D02*
X009318Y008434D01*
X009477Y008594D01*
X009583Y008594D01*
X009689Y008488D01*
X009689Y008381D01*
X009696Y008707D02*
X009696Y008813D01*
X009803Y008919D01*
X009909Y008919D01*
X009962Y008866D01*
X009962Y008760D01*
X010068Y008760D01*
X010121Y008707D01*
X010121Y008601D01*
X009962Y008760D02*
X009909Y008707D01*
X008868Y009911D02*
X008619Y009744D01*
X008744Y009828D02*
X008493Y010202D01*
X008452Y009994D01*
X008486Y009655D02*
X008236Y009488D01*
X008361Y009572D02*
X008110Y009946D01*
X008069Y009738D01*
X007894Y009711D02*
X007978Y009586D01*
X007957Y009482D01*
X007770Y009357D01*
X007895Y009440D02*
X008103Y009399D01*
X007854Y009232D02*
X007603Y009606D01*
X007790Y009732D01*
X007894Y009711D01*
X007410Y011218D02*
X007133Y011103D01*
X007272Y011161D02*
X007099Y011577D01*
X007018Y011381D01*
X006899Y011250D02*
X006841Y011389D01*
X006743Y011429D01*
X006535Y011343D01*
X006708Y010927D01*
X006650Y011066D02*
X006858Y011152D01*
X006899Y011250D01*
X006789Y011123D02*
X006985Y011042D01*
X007530Y011349D02*
X007628Y011308D01*
X007766Y011366D01*
X007807Y011464D01*
X007692Y011741D01*
X007594Y011782D01*
X007455Y011724D01*
X007415Y011626D01*
X007443Y011557D01*
X007542Y011516D01*
X007750Y011602D01*
X020119Y003917D02*
X020234Y003639D01*
X020177Y003778D02*
X020593Y003950D01*
X020397Y004032D01*
X022202Y005226D02*
X022576Y005476D01*
X022368Y005518D01*
X022341Y005692D02*
X022362Y005796D01*
X022237Y005984D01*
X021862Y005733D01*
X021988Y005546D01*
X022092Y005525D01*
X022341Y005692D01*
X022119Y005350D02*
X022286Y005101D01*
X022437Y005010D02*
X022416Y004906D01*
X022500Y004781D01*
X022604Y004760D01*
X022666Y004802D01*
X022687Y004906D01*
X022645Y004968D01*
X022687Y004906D02*
X022791Y004885D01*
X022854Y004927D01*
X022874Y005031D01*
X022791Y005156D01*
X022687Y005177D01*
X022148Y006117D02*
X021981Y006366D01*
X021606Y006116D01*
X021773Y005866D01*
X021877Y006116D02*
X021793Y006241D01*
X021517Y006249D02*
X021350Y006498D01*
X021724Y006749D01*
X022086Y007757D02*
X022002Y007882D01*
X022023Y007986D01*
X021871Y008077D02*
X021704Y008327D01*
X021788Y008202D02*
X022162Y008453D01*
X021954Y008494D01*
X021927Y008669D02*
X021802Y008585D01*
X021698Y008606D01*
X021573Y008793D01*
X021656Y008668D02*
X021615Y008460D01*
X021448Y008710D02*
X021822Y008960D01*
X021948Y008773D01*
X021927Y008669D01*
X022272Y008153D02*
X022376Y008133D01*
X022460Y008008D01*
X022439Y007904D01*
X022377Y007862D01*
X022273Y007883D01*
X022252Y007778D01*
X022190Y007737D01*
X022086Y007757D01*
X022273Y007883D02*
X022231Y007945D01*
X023406Y007420D02*
X023618Y007208D01*
X023731Y007094D02*
X023944Y006882D01*
X024057Y006769D02*
X024216Y006610D01*
X024322Y006610D01*
X024535Y006822D01*
X024535Y006928D01*
X024375Y007087D01*
X024057Y006769D01*
X023997Y007147D02*
X023891Y007254D01*
X024050Y007413D02*
X023731Y007094D01*
X024050Y007413D02*
X024262Y007200D01*
X024701Y006762D02*
X024542Y006602D01*
X024701Y006549D01*
X024754Y006496D01*
X024754Y006390D01*
X024648Y006284D01*
X024542Y006284D01*
X024436Y006390D01*
X024436Y006496D01*
X024701Y006762D02*
X024913Y006549D01*
X023724Y007738D02*
X023406Y007420D01*
X024532Y009300D02*
X024782Y009133D01*
X024915Y009045D02*
X025165Y008878D01*
X025298Y008789D02*
X025485Y008664D01*
X025589Y008685D01*
X025756Y008935D01*
X025735Y009039D01*
X025548Y009164D01*
X025298Y008789D01*
X025165Y009149D02*
X025040Y009232D01*
X025165Y009419D02*
X024915Y009045D01*
X025165Y009419D02*
X025414Y009253D01*
X025889Y008846D02*
X025993Y008867D01*
X026118Y008783D01*
X026139Y008679D01*
X026097Y008617D01*
X025993Y008596D01*
X026014Y008492D01*
X025972Y008430D01*
X025868Y008409D01*
X025743Y008492D01*
X025722Y008596D01*
X025931Y008638D02*
X025993Y008596D01*
X026105Y008341D02*
X026522Y008424D01*
X026355Y008174D01*
X026251Y008153D01*
X026126Y008237D01*
X026105Y008341D01*
X026272Y008590D01*
X026376Y008611D01*
X026501Y008528D01*
X026522Y008424D01*
X024782Y009675D02*
X024532Y009300D01*
X023601Y009714D02*
X023389Y009927D01*
X023229Y009768D01*
X023389Y009714D01*
X023442Y009661D01*
X023442Y009555D01*
X023335Y009449D01*
X023229Y009449D01*
X023123Y009555D01*
X023123Y009661D01*
X022957Y009722D02*
X022957Y009934D01*
X023010Y009881D02*
X022851Y010040D01*
X022745Y009934D02*
X023063Y010252D01*
X023222Y010093D01*
X023222Y009987D01*
X023116Y009881D01*
X023010Y009881D01*
X024028Y011218D02*
X023986Y011426D01*
X024049Y011384D02*
X023862Y011509D01*
X023778Y011384D02*
X024028Y011759D01*
X024216Y011634D01*
X024236Y011530D01*
X024153Y011405D01*
X024049Y011384D01*
X024203Y011191D02*
X024224Y011087D01*
X024349Y011004D01*
X024453Y011025D01*
X024494Y011087D01*
X024474Y011191D01*
X024411Y011233D01*
X024474Y011191D02*
X024578Y011212D01*
X024619Y011274D01*
X024599Y011378D01*
X024474Y011462D01*
X024370Y011441D01*
X024753Y011185D02*
X024586Y010936D01*
X025002Y011019D01*
X024836Y010769D01*
X024732Y010748D01*
X024607Y010832D01*
X024586Y010936D01*
X024753Y011185D02*
X024857Y011206D01*
X024982Y011123D01*
X025002Y011019D01*
X025652Y011114D02*
X025930Y010999D01*
X026078Y010938D02*
X026250Y011354D01*
X026527Y011239D01*
X026675Y011178D02*
X026883Y011092D01*
X026924Y010994D01*
X026809Y010716D01*
X026711Y010676D01*
X026503Y010762D01*
X026675Y011178D01*
X026302Y011089D02*
X026164Y011146D01*
X026078Y010938D02*
X026355Y010823D01*
X026928Y010586D02*
X027321Y010748D01*
X027349Y010817D01*
X027309Y010915D01*
X027170Y010973D01*
X027072Y010932D01*
X026928Y010586D02*
X027206Y010471D01*
X027354Y010409D02*
X027746Y010572D01*
X027775Y010641D01*
X027734Y010739D01*
X027595Y010797D01*
X027497Y010756D01*
X027354Y010409D02*
X027631Y010294D01*
X025652Y011114D02*
X025825Y011530D01*
X025636Y012540D02*
X025358Y012655D01*
X025751Y012817D01*
X025779Y012886D01*
X025739Y012985D01*
X025600Y013042D01*
X025502Y013001D01*
X025354Y013063D02*
X025313Y013161D01*
X025175Y013218D01*
X025077Y013178D01*
X024929Y013239D02*
X024871Y013100D01*
X024773Y013060D01*
X024565Y013146D01*
X024704Y013088D02*
X024785Y012892D01*
X024933Y012831D02*
X025325Y012993D01*
X025354Y013063D01*
X025210Y012716D02*
X024933Y012831D01*
X024929Y013239D02*
X024888Y013337D01*
X024680Y013423D01*
X024508Y013007D01*
X025357Y014653D02*
X025652Y014595D01*
X025504Y014624D02*
X025592Y015066D01*
X025415Y014948D01*
X025273Y015052D02*
X025244Y014905D01*
X025155Y014846D01*
X024935Y014890D01*
X025082Y014861D02*
X025200Y014684D01*
X024905Y014743D02*
X024993Y015184D01*
X025214Y015141D01*
X025273Y015052D01*
X025852Y014785D02*
X026147Y014726D01*
X026030Y014520D02*
X026117Y014962D01*
X025852Y014785D01*
X026486Y013549D02*
X026399Y013107D01*
X026693Y013049D01*
X026851Y013018D02*
X027145Y012959D01*
X027302Y012928D02*
X027523Y012885D01*
X027611Y012944D01*
X027670Y013238D01*
X027611Y013326D01*
X027390Y013370D01*
X027302Y012928D01*
X027042Y013210D02*
X026894Y013239D01*
X026938Y013460D02*
X026851Y013018D01*
X026938Y013460D02*
X027233Y013401D01*
X027812Y013133D02*
X027989Y013252D01*
X027901Y012810D01*
X027754Y012839D02*
X028048Y012781D01*
X028249Y012970D02*
X028544Y012912D01*
X028426Y012706D02*
X028514Y013148D01*
X028249Y012970D01*
X028347Y015212D02*
X028122Y015212D01*
X028122Y015663D01*
X028347Y015663D01*
X028422Y015588D01*
X028422Y015287D01*
X028347Y015212D01*
X028582Y015287D02*
X028657Y015212D01*
X028807Y015212D01*
X028882Y015287D01*
X028882Y015362D01*
X028807Y015437D01*
X028582Y015437D01*
X028582Y015287D01*
X028582Y015437D02*
X028732Y015588D01*
X028882Y015663D01*
X027961Y015663D02*
X027661Y015663D01*
X027661Y015212D01*
X027961Y015212D01*
X027811Y015437D02*
X027661Y015437D01*
X027501Y015212D02*
X027201Y015212D01*
X027201Y015663D01*
X026962Y017396D02*
X026667Y017338D01*
X026579Y017779D01*
X027031Y017869D02*
X027119Y017428D01*
X027413Y017487D01*
X027570Y017518D02*
X027791Y017562D01*
X027850Y017650D01*
X027791Y017945D01*
X027703Y018004D01*
X027482Y017960D01*
X027570Y017518D01*
X027222Y017678D02*
X027075Y017649D01*
X027031Y017869D02*
X027325Y017928D01*
X027948Y017976D02*
X028007Y018065D01*
X028154Y018094D01*
X028243Y018035D01*
X028257Y017961D01*
X028198Y017873D01*
X028287Y017814D01*
X028301Y017741D01*
X028243Y017652D01*
X028095Y017623D01*
X028007Y017682D01*
X028125Y017858D02*
X028198Y017873D01*
X028414Y017993D02*
X028532Y018169D01*
X028620Y017728D01*
X028473Y017698D02*
X028768Y017757D01*
X026879Y019706D02*
X026602Y019591D01*
X026429Y020007D01*
X026707Y020122D01*
X026855Y020183D02*
X027063Y020269D01*
X027161Y020229D01*
X027276Y019951D01*
X027235Y019853D01*
X027027Y019767D01*
X026855Y020183D01*
X026654Y019856D02*
X026516Y019799D01*
X026454Y019530D02*
X026176Y019415D01*
X026004Y019831D01*
X025088Y020381D02*
X025129Y020479D01*
X025100Y020548D01*
X025002Y020589D01*
X024932Y020560D01*
X025002Y020589D02*
X025042Y020687D01*
X025014Y020756D01*
X024916Y020797D01*
X024777Y020740D01*
X024736Y020641D01*
X024588Y020580D02*
X024490Y020621D01*
X024352Y020563D01*
X024311Y020465D01*
X024163Y020404D02*
X024220Y020265D01*
X024180Y020167D01*
X023972Y020081D01*
X024110Y020138D02*
X024307Y020057D01*
X024455Y020119D02*
X024617Y020511D01*
X024588Y020580D01*
X024851Y020364D02*
X024949Y020323D01*
X025088Y020381D01*
X024732Y020233D02*
X024455Y020119D01*
X024163Y020404D02*
X024065Y020445D01*
X023857Y020358D01*
X024029Y019942D01*
X024574Y018718D02*
X024794Y018762D01*
X024883Y018703D01*
X024912Y018556D01*
X024853Y018467D01*
X024633Y018423D01*
X024780Y018453D02*
X024956Y018335D01*
X025099Y018440D02*
X025187Y018381D01*
X025334Y018410D01*
X025393Y018499D01*
X025378Y018572D01*
X025290Y018631D01*
X025216Y018616D01*
X025290Y018631D02*
X025349Y018719D01*
X025334Y018793D01*
X025246Y018852D01*
X025099Y018823D01*
X025040Y018734D01*
X024574Y018718D02*
X024662Y018276D01*
X025565Y018456D02*
X025859Y018515D01*
X025712Y018486D02*
X025624Y018927D01*
X025506Y018751D01*
X025719Y016973D02*
X025569Y016898D01*
X025419Y016747D01*
X025644Y016747D01*
X025719Y016672D01*
X025719Y016597D01*
X025644Y016522D01*
X025494Y016522D01*
X025419Y016597D01*
X025419Y016747D01*
X025259Y016747D02*
X025184Y016672D01*
X024958Y016672D01*
X024958Y016522D02*
X024958Y016973D01*
X025184Y016973D01*
X025259Y016898D01*
X025259Y016747D01*
X025109Y016672D02*
X025259Y016522D01*
X027453Y019943D02*
X027615Y020336D01*
X027586Y020405D01*
X027488Y020446D01*
X027350Y020388D01*
X027309Y020290D01*
X027453Y019943D02*
X027730Y020058D01*
X027849Y020189D02*
X027947Y020148D01*
X028086Y020206D01*
X028127Y020304D01*
X028098Y020373D01*
X028000Y020414D01*
X027930Y020385D01*
X028000Y020414D02*
X028040Y020512D01*
X028012Y020581D01*
X027914Y020622D01*
X027775Y020564D01*
X027734Y020466D01*
X026569Y022202D02*
X026318Y022576D01*
X026277Y022368D01*
X026102Y022341D02*
X025998Y022362D01*
X025811Y022237D01*
X026061Y021862D01*
X026249Y021988D01*
X026269Y022092D01*
X026102Y022341D01*
X026444Y022119D02*
X026694Y022286D01*
X026785Y022437D02*
X026889Y022416D01*
X027014Y022500D01*
X027034Y022604D01*
X026951Y022729D01*
X026847Y022749D01*
X026784Y022708D01*
X026701Y022562D01*
X026576Y022749D01*
X026826Y022916D01*
X025678Y022148D02*
X025428Y021981D01*
X025679Y021606D01*
X025928Y021773D01*
X025678Y021877D02*
X025554Y021793D01*
X025546Y021517D02*
X025296Y021350D01*
X025046Y021724D01*
X024037Y022086D02*
X023912Y022002D01*
X023808Y022023D01*
X023725Y022147D02*
X023808Y022293D01*
X023870Y022335D01*
X023974Y022314D01*
X024058Y022190D01*
X024037Y022086D01*
X023725Y022147D02*
X023600Y022334D01*
X023849Y022502D01*
X023342Y022162D02*
X023592Y021788D01*
X023468Y021704D02*
X023717Y021871D01*
X023301Y021954D02*
X023342Y022162D01*
X023126Y021927D02*
X023209Y021802D01*
X023189Y021698D01*
X023001Y021573D01*
X023126Y021656D02*
X023334Y021615D01*
X023085Y021448D02*
X022834Y021822D01*
X023022Y021948D01*
X023126Y021927D01*
X022073Y022957D02*
X021861Y022957D01*
X021914Y023010D02*
X021755Y022851D01*
X021861Y022745D02*
X021542Y023063D01*
X021701Y023222D01*
X021808Y023222D01*
X021914Y023116D01*
X021914Y023010D01*
X022133Y023123D02*
X022186Y023070D01*
X022133Y023123D02*
X022133Y023548D01*
X022080Y023601D01*
X021868Y023389D01*
X020707Y024224D02*
X020603Y024203D01*
X020707Y024224D02*
X020791Y024349D01*
X020770Y024453D01*
X020708Y024494D01*
X020603Y024474D01*
X020562Y024411D01*
X020603Y024474D02*
X020583Y024578D01*
X020520Y024619D01*
X020416Y024599D01*
X020333Y024474D01*
X020354Y024370D01*
X020265Y024236D02*
X020390Y024153D01*
X020410Y024049D01*
X020285Y023862D01*
X020369Y023986D02*
X020577Y024028D01*
X020410Y023778D02*
X020036Y024028D01*
X020161Y024216D01*
X020265Y024236D01*
X020609Y024753D02*
X020588Y024857D01*
X020672Y024982D01*
X020776Y025002D01*
X020838Y024961D01*
X020921Y024544D01*
X021088Y024794D01*
X020680Y025652D02*
X020795Y025930D01*
X020857Y026078D02*
X020440Y026250D01*
X020555Y026527D01*
X020617Y026675D02*
X020703Y026883D01*
X020801Y026924D01*
X021078Y026809D01*
X021119Y026711D01*
X021033Y026503D01*
X020617Y026675D01*
X020706Y026302D02*
X020649Y026164D01*
X020857Y026078D02*
X020971Y026355D01*
X021209Y026928D02*
X021046Y027321D01*
X020977Y027349D01*
X020879Y027309D01*
X020822Y027170D01*
X020862Y027072D01*
X021209Y026928D02*
X021324Y027206D01*
X021177Y027440D02*
X021292Y027717D01*
X021471Y027562D02*
X021055Y027734D01*
X021177Y027440D01*
X020264Y025825D02*
X020680Y025652D01*
X022120Y024782D02*
X022494Y024532D01*
X022661Y024782D01*
X022750Y024915D02*
X022917Y025165D01*
X023005Y025298D02*
X023130Y025485D01*
X023110Y025589D01*
X022860Y025756D01*
X022756Y025735D01*
X022631Y025548D01*
X023005Y025298D01*
X022646Y025165D02*
X022563Y025040D01*
X022750Y024915D02*
X022375Y025165D01*
X022542Y025414D01*
X022949Y025889D02*
X022928Y025993D01*
X023011Y026118D01*
X023115Y026139D01*
X023178Y026097D01*
X023198Y025993D01*
X023302Y026014D01*
X023365Y025972D01*
X023386Y025868D01*
X023302Y025743D01*
X023198Y025722D01*
X023157Y025931D02*
X023198Y025993D01*
X023204Y026272D02*
X023183Y026376D01*
X023266Y026501D01*
X023371Y026522D01*
X023433Y026480D01*
X023516Y026064D01*
X023683Y026314D01*
X025245Y024913D02*
X025033Y024701D01*
X024973Y024535D02*
X024866Y024535D01*
X024707Y024375D01*
X025026Y024057D01*
X025185Y024216D01*
X025185Y024322D01*
X024973Y024535D01*
X025298Y024436D02*
X025351Y024383D01*
X025298Y024436D02*
X025298Y024860D01*
X025245Y024913D01*
X024594Y024262D02*
X024382Y024050D01*
X024700Y023731D01*
X024912Y023944D01*
X024647Y023997D02*
X024541Y023891D01*
X024587Y023618D02*
X024375Y023406D01*
X024056Y023724D01*
X019226Y025566D02*
X018810Y025739D01*
X018932Y025444D01*
X019047Y025722D01*
X018801Y025325D02*
X018732Y025354D01*
X018634Y025313D01*
X018576Y025175D01*
X018617Y025077D01*
X018556Y024929D02*
X018694Y024871D01*
X018735Y024773D01*
X018649Y024565D01*
X018787Y024508D02*
X018371Y024680D01*
X018458Y024888D01*
X018556Y024929D01*
X018706Y024704D02*
X018902Y024785D01*
X018964Y024933D02*
X018801Y025325D01*
X019079Y025210D02*
X018964Y024933D01*
X018687Y026399D02*
X018245Y026486D01*
X018687Y026399D02*
X018746Y026693D01*
X018777Y026851D02*
X018335Y026938D01*
X018393Y027233D01*
X018424Y027390D02*
X018468Y027611D01*
X018556Y027670D01*
X018851Y027611D01*
X018910Y027523D01*
X018866Y027302D01*
X018424Y027390D01*
X018585Y027042D02*
X018556Y026894D01*
X018777Y026851D02*
X018835Y027145D01*
X018956Y027754D02*
X019014Y028048D01*
X018985Y027901D02*
X018543Y027989D01*
X018661Y027812D01*
X018824Y028249D02*
X018868Y028470D01*
X018956Y028529D01*
X019030Y028514D01*
X019089Y028426D01*
X019060Y028279D01*
X018971Y028220D01*
X018824Y028249D01*
X018706Y028426D01*
X018661Y028587D01*
D16*
X015897Y027553D03*
X015897Y024713D03*
X015897Y007081D03*
X015897Y004241D03*
D17*
G36*
X013475Y004322D02*
X013541Y004655D01*
X013775Y004608D01*
X013709Y004275D01*
X013475Y004322D01*
G37*
G36*
X011262Y005018D02*
X011392Y005331D01*
X011612Y005240D01*
X011482Y004927D01*
X011262Y005018D01*
G37*
G36*
X009230Y006130D02*
X009419Y006412D01*
X009618Y006278D01*
X009429Y005996D01*
X009230Y006130D01*
G37*
G36*
X007452Y007622D02*
X007692Y007862D01*
X007862Y007692D01*
X007622Y007452D01*
X007452Y007622D01*
G37*
G36*
X005997Y009427D02*
X006279Y009616D01*
X006413Y009417D01*
X006131Y009228D01*
X005997Y009427D01*
G37*
G36*
X004927Y011482D02*
X005240Y011612D01*
X005331Y011392D01*
X005018Y011262D01*
X004927Y011482D01*
G37*
G36*
X004275Y013707D02*
X004608Y013773D01*
X004655Y013539D01*
X004322Y013473D01*
X004275Y013707D01*
G37*
X004241Y015897D03*
G36*
X004322Y018319D02*
X004655Y018253D01*
X004608Y018019D01*
X004275Y018085D01*
X004322Y018319D01*
G37*
G36*
X005018Y020533D02*
X005331Y020403D01*
X005240Y020183D01*
X004927Y020313D01*
X005018Y020533D01*
G37*
G36*
X006130Y022564D02*
X006412Y022375D01*
X006278Y022176D01*
X005996Y022365D01*
X006130Y022564D01*
G37*
G36*
X007622Y024343D02*
X007862Y024103D01*
X007692Y023933D01*
X007452Y024173D01*
X007622Y024343D01*
G37*
G36*
X009427Y025797D02*
X009616Y025515D01*
X009417Y025381D01*
X009228Y025663D01*
X009427Y025797D01*
G37*
G36*
X011482Y026868D02*
X011612Y026555D01*
X011392Y026464D01*
X011262Y026777D01*
X011482Y026868D01*
G37*
G36*
X013707Y027519D02*
X013773Y027186D01*
X013539Y027139D01*
X013473Y027472D01*
X013707Y027519D01*
G37*
G36*
X014263Y024734D02*
X014329Y024401D01*
X014095Y024354D01*
X014029Y024687D01*
X014263Y024734D01*
G37*
G36*
X012568Y024244D02*
X012698Y023931D01*
X012478Y023840D01*
X012348Y024153D01*
X012568Y024244D01*
G37*
G36*
X011007Y023437D02*
X011196Y023155D01*
X010997Y023021D01*
X010808Y023303D01*
X011007Y023437D01*
G37*
G36*
X009630Y022334D02*
X009870Y022094D01*
X009700Y021924D01*
X009460Y022164D01*
X009630Y022334D01*
G37*
G36*
X008493Y020988D02*
X008775Y020799D01*
X008641Y020600D01*
X008359Y020789D01*
X008493Y020988D01*
G37*
G36*
X007641Y019446D02*
X007954Y019316D01*
X007863Y019096D01*
X007550Y019226D01*
X007641Y019446D01*
G37*
G36*
X007108Y017767D02*
X007441Y017701D01*
X007394Y017467D01*
X007061Y017533D01*
X007108Y017767D01*
G37*
X007081Y015897D03*
G36*
X007060Y014263D02*
X007393Y014329D01*
X007440Y014095D01*
X007107Y014029D01*
X007060Y014263D01*
G37*
G36*
X007550Y012568D02*
X007863Y012698D01*
X007954Y012478D01*
X007641Y012348D01*
X007550Y012568D01*
G37*
G36*
X008357Y011007D02*
X008639Y011196D01*
X008773Y010997D01*
X008491Y010808D01*
X008357Y011007D01*
G37*
G36*
X009460Y009630D02*
X009700Y009870D01*
X009870Y009700D01*
X009630Y009460D01*
X009460Y009630D01*
G37*
G36*
X010806Y008493D02*
X010995Y008775D01*
X011194Y008641D01*
X011005Y008359D01*
X010806Y008493D01*
G37*
G36*
X012348Y007641D02*
X012478Y007954D01*
X012698Y007863D01*
X012568Y007550D01*
X012348Y007641D01*
G37*
G36*
X014027Y007108D02*
X014093Y007441D01*
X014327Y007394D01*
X014261Y007061D01*
X014027Y007108D01*
G37*
G36*
X017531Y007060D02*
X017465Y007393D01*
X017699Y007440D01*
X017765Y007107D01*
X017531Y007060D01*
G37*
G36*
X019226Y007550D02*
X019096Y007863D01*
X019316Y007954D01*
X019446Y007641D01*
X019226Y007550D01*
G37*
G36*
X020787Y008357D02*
X020598Y008639D01*
X020797Y008773D01*
X020986Y008491D01*
X020787Y008357D01*
G37*
G36*
X022164Y009460D02*
X021924Y009700D01*
X022094Y009870D01*
X022334Y009630D01*
X022164Y009460D01*
G37*
G36*
X023302Y010806D02*
X023020Y010995D01*
X023154Y011194D01*
X023436Y011005D01*
X023302Y010806D01*
G37*
G36*
X024153Y012348D02*
X023840Y012478D01*
X023931Y012698D01*
X024244Y012568D01*
X024153Y012348D01*
G37*
G36*
X024687Y014027D02*
X024354Y014093D01*
X024401Y014327D01*
X024734Y014261D01*
X024687Y014027D01*
G37*
X024713Y015897D03*
G36*
X024734Y017531D02*
X024401Y017465D01*
X024354Y017699D01*
X024687Y017765D01*
X024734Y017531D01*
G37*
G36*
X024244Y019226D02*
X023931Y019096D01*
X023840Y019316D01*
X024153Y019446D01*
X024244Y019226D01*
G37*
G36*
X023437Y020787D02*
X023155Y020598D01*
X023021Y020797D01*
X023303Y020986D01*
X023437Y020787D01*
G37*
G36*
X022334Y022164D02*
X022094Y021924D01*
X021924Y022094D01*
X022164Y022334D01*
X022334Y022164D01*
G37*
G36*
X020988Y023302D02*
X020799Y023020D01*
X020600Y023154D01*
X020789Y023436D01*
X020988Y023302D01*
G37*
G36*
X019446Y024153D02*
X019316Y023840D01*
X019096Y023931D01*
X019226Y024244D01*
X019446Y024153D01*
G37*
G36*
X017767Y024687D02*
X017701Y024354D01*
X017467Y024401D01*
X017533Y024734D01*
X017767Y024687D01*
G37*
G36*
X018319Y027473D02*
X018253Y027140D01*
X018019Y027187D01*
X018085Y027520D01*
X018319Y027473D01*
G37*
G36*
X020533Y026777D02*
X020403Y026464D01*
X020183Y026555D01*
X020313Y026868D01*
X020533Y026777D01*
G37*
G36*
X022564Y025664D02*
X022375Y025382D01*
X022176Y025516D01*
X022365Y025798D01*
X022564Y025664D01*
G37*
G36*
X024343Y024173D02*
X024103Y023933D01*
X023933Y024103D01*
X024173Y024343D01*
X024343Y024173D01*
G37*
G36*
X025797Y022367D02*
X025515Y022178D01*
X025381Y022377D01*
X025663Y022566D01*
X025797Y022367D01*
G37*
G36*
X026868Y020313D02*
X026555Y020183D01*
X026464Y020403D01*
X026777Y020533D01*
X026868Y020313D01*
G37*
G36*
X027519Y018088D02*
X027186Y018022D01*
X027139Y018256D01*
X027472Y018322D01*
X027519Y018088D01*
G37*
X027553Y015897D03*
G36*
X027473Y013475D02*
X027140Y013541D01*
X027187Y013775D01*
X027520Y013709D01*
X027473Y013475D01*
G37*
G36*
X026777Y011262D02*
X026464Y011392D01*
X026555Y011612D01*
X026868Y011482D01*
X026777Y011262D01*
G37*
G36*
X025664Y009230D02*
X025382Y009419D01*
X025516Y009618D01*
X025798Y009429D01*
X025664Y009230D01*
G37*
G36*
X024173Y007452D02*
X023933Y007692D01*
X024103Y007862D01*
X024343Y007622D01*
X024173Y007452D01*
G37*
G36*
X022367Y005997D02*
X022178Y006279D01*
X022377Y006413D01*
X022566Y006131D01*
X022367Y005997D01*
G37*
G36*
X020313Y004927D02*
X020183Y005240D01*
X020403Y005331D01*
X020533Y005018D01*
X020313Y004927D01*
G37*
G36*
X018088Y004275D02*
X018022Y004608D01*
X018256Y004655D01*
X018322Y004322D01*
X018088Y004275D01*
G37*
D18*
X020058Y019309D02*
X019761Y019607D01*
X019910Y019458D02*
X020356Y019904D01*
X020058Y019904D01*
X019974Y020137D02*
X019974Y020285D01*
X019825Y020434D01*
X019677Y020434D01*
X019380Y020137D01*
X019380Y019988D01*
X019528Y019839D01*
X019677Y019839D01*
X019150Y020218D02*
X019001Y020366D01*
X019076Y020292D02*
X019522Y020738D01*
X019447Y020812D02*
X019596Y020663D01*
M02*
