G04 EAGLE Gerber RS-274X export*
G75*
%MOMM*%
%FSLAX34Y34*%
%LPD*%
%INTop Copper*%
%IPPOS*%
%AMOC8*
5,1,8,0,0,1.08239X$1,22.5*%
G01*
%ADD10P,1.429621X8X292.500000*%
%ADD11P,1.429621X8X281.300000*%
%ADD12P,1.429621X8X270.000000*%
%ADD13P,1.429621X8X258.800000*%
%ADD14P,1.429621X8X247.500000*%
%ADD15P,1.429621X8X236.300000*%
%ADD16P,1.429621X8X225.000000*%
%ADD17P,1.429621X8X213.800000*%
%ADD18P,1.429621X8X202.500000*%
%ADD19P,1.429621X8X191.300000*%
%ADD20P,1.429621X8X180.000000*%
%ADD21P,1.429621X8X168.800000*%
%ADD22P,1.429621X8X157.500000*%
%ADD23P,1.429621X8X146.300000*%
%ADD24P,1.429621X8X135.000000*%
%ADD25P,1.429621X8X123.800000*%
%ADD26P,1.429621X8X112.500000*%
%ADD27P,1.429621X8X101.300000*%
%ADD28P,1.429621X8X90.000000*%
%ADD29P,1.429621X8X78.800000*%
%ADD30P,1.429621X8X67.500000*%
%ADD31P,1.429621X8X56.300000*%
%ADD32P,1.429621X8X45.000000*%
%ADD33P,1.429621X8X33.800000*%
%ADD34P,1.429621X8X22.500000*%
%ADD35P,1.429621X8X371.300000*%
%ADD36P,1.429621X8X360.000000*%
%ADD37P,1.429621X8X348.800000*%
%ADD38P,1.429621X8X337.500000*%
%ADD39P,1.429621X8X326.300000*%
%ADD40P,1.429621X8X315.000000*%
%ADD41P,1.429621X8X303.800000*%
%ADD42C,1.320800*%
%ADD43C,1.524000*%
%ADD44C,0.254000*%
%ADD45C,0.406400*%


D10*
X400000Y777700D03*
X400000Y752300D03*
D11*
X473667Y770458D03*
X468733Y745542D03*
D12*
X544560Y748933D03*
X534840Y725467D03*
D13*
X609847Y714066D03*
X595753Y692934D03*
D14*
X667080Y667080D03*
X649120Y649120D03*
D15*
X714054Y609865D03*
X692946Y595735D03*
D16*
X748933Y544560D03*
X725467Y534840D03*
D17*
X770454Y473689D03*
X745546Y468711D03*
D18*
X777700Y400000D03*
X752300Y400000D03*
D19*
X770458Y326333D03*
X745542Y331267D03*
D20*
X748933Y255440D03*
X725467Y265160D03*
D21*
X714066Y190153D03*
X692934Y204247D03*
D22*
X667080Y132920D03*
X649120Y150880D03*
D23*
X609865Y85946D03*
X595735Y107054D03*
D24*
X544560Y51067D03*
X534840Y74533D03*
D25*
X473689Y29546D03*
X468711Y54454D03*
D26*
X400000Y22300D03*
X400000Y47700D03*
D27*
X326333Y29542D03*
X331267Y54458D03*
D28*
X255440Y51067D03*
X265160Y74533D03*
D29*
X190153Y85934D03*
X204247Y107066D03*
D30*
X132920Y132920D03*
X150880Y150880D03*
D31*
X85946Y190135D03*
X107054Y204265D03*
D32*
X51067Y255440D03*
X74533Y265160D03*
D33*
X29546Y326311D03*
X54454Y331289D03*
D34*
X22300Y400000D03*
X47700Y400000D03*
D35*
X29542Y473667D03*
X54458Y468733D03*
D36*
X51067Y544560D03*
X74533Y534840D03*
D37*
X85934Y609847D03*
X107066Y595753D03*
D38*
X132920Y667080D03*
X150880Y649120D03*
D39*
X190135Y714054D03*
X204265Y692946D03*
D40*
X255440Y748933D03*
X265160Y725467D03*
D41*
X326311Y770454D03*
X331289Y745546D03*
D26*
X400000Y609200D03*
X400000Y710800D03*
D27*
X440833Y605167D03*
X460567Y704833D03*
D28*
X480060Y593267D03*
X518940Y687133D03*
D29*
X516214Y573937D03*
X572586Y658463D03*
D30*
X547879Y547879D03*
X619721Y619721D03*
D31*
X573986Y516140D03*
X658414Y572660D03*
D32*
X593267Y480060D03*
X687133Y518940D03*
D33*
X605185Y440746D03*
X704815Y460654D03*
D34*
X609200Y400000D03*
X710800Y400000D03*
D35*
X605167Y359167D03*
X704833Y339433D03*
D36*
X593267Y319940D03*
X687133Y281060D03*
D37*
X573937Y283786D03*
X658463Y227414D03*
D38*
X547879Y252121D03*
X619721Y180279D03*
D39*
X516140Y226014D03*
X572660Y141586D03*
D40*
X480060Y206733D03*
X518940Y112867D03*
D41*
X440746Y194815D03*
X460654Y95185D03*
D10*
X400000Y190800D03*
X400000Y89200D03*
D11*
X359167Y194833D03*
X339433Y95167D03*
D12*
X319940Y206733D03*
X281060Y112867D03*
D13*
X283786Y226063D03*
X227414Y141537D03*
D14*
X252121Y252121D03*
X180279Y180279D03*
D15*
X226014Y283860D03*
X141586Y227340D03*
D16*
X206733Y319940D03*
X112867Y281060D03*
D17*
X194815Y359254D03*
X95185Y339346D03*
D18*
X190800Y400000D03*
X89200Y400000D03*
D19*
X194833Y440833D03*
X95167Y460567D03*
D20*
X206733Y480060D03*
X112867Y518940D03*
D21*
X226063Y516214D03*
X141537Y572586D03*
D22*
X252121Y547879D03*
X180279Y619721D03*
D23*
X283860Y573986D03*
X227340Y658414D03*
D24*
X319940Y593267D03*
X281060Y687133D03*
D25*
X359254Y605185D03*
X339346Y704815D03*
D42*
X449212Y512433D02*
X458551Y503093D01*
X440591Y485133D02*
X431251Y494472D01*
X413291Y476512D02*
X422630Y467172D01*
X404670Y449212D02*
X395330Y458551D01*
X377370Y440591D02*
X386709Y431251D01*
X368749Y413291D02*
X359409Y422630D01*
X341449Y404670D02*
X350788Y395330D01*
X332828Y377370D02*
X323488Y386709D01*
X305528Y368749D02*
X314867Y359409D01*
X296907Y341449D02*
X287567Y350788D01*
X341449Y296907D02*
X350788Y287567D01*
X368749Y305528D02*
X359409Y314867D01*
X377370Y332828D02*
X386709Y323488D01*
X404670Y341449D02*
X395330Y350788D01*
X413291Y368749D02*
X422630Y359409D01*
X440591Y377370D02*
X431251Y386709D01*
X449212Y404670D02*
X458551Y395330D01*
X476512Y413291D02*
X467172Y422630D01*
X485133Y440591D02*
X494472Y431251D01*
X512433Y449212D02*
X503093Y458551D01*
D43*
X301668Y412893D02*
X290892Y423670D01*
X308853Y441630D02*
X319629Y430854D01*
X337589Y448814D02*
X326813Y459591D01*
D44*
X292100Y381000D02*
X292100Y342900D01*
X292100Y381000D02*
X317500Y406400D01*
X317500Y431800D01*
X292237Y346118D02*
X292100Y342900D01*
X317500Y444500D02*
X330200Y457200D01*
X317500Y444500D02*
X317500Y431800D01*
X332201Y454202D02*
X330200Y457200D01*
X314241Y436242D02*
X317500Y431800D01*
D45*
X252121Y252121D02*
X216057Y216177D01*
X223013Y209843D01*
X223012Y209843D02*
X227938Y205466D01*
X232967Y201210D01*
X238099Y197076D01*
X243329Y193068D01*
X248654Y189188D01*
X254072Y185437D01*
X259578Y181819D01*
X265171Y178335D01*
X270846Y174987D01*
X276601Y171778D01*
X282432Y168709D01*
X288335Y165782D01*
X294307Y162998D01*
X300345Y160360D01*
X306445Y157869D01*
X312604Y155526D01*
X318817Y153332D01*
X325082Y151290D01*
X331394Y149400D01*
X337750Y147663D01*
X348916Y202881D01*
X348916Y202882D02*
X349051Y203510D01*
X349202Y204135D01*
X349367Y204756D01*
X349548Y205373D01*
X349744Y205986D01*
X349955Y206593D01*
X350181Y207195D01*
X350421Y207791D01*
X350676Y208381D01*
X350945Y208965D01*
X351228Y209542D01*
X351526Y210112D01*
X351837Y210675D01*
X352162Y211229D01*
X352501Y211776D01*
X352852Y212314D01*
X353217Y212843D01*
X353595Y213364D01*
X353985Y213874D01*
X354388Y214376D01*
X354803Y214867D01*
X355229Y215348D01*
X355668Y215818D01*
X356118Y216277D01*
X356578Y216725D01*
X357050Y217162D01*
X357532Y217587D01*
X358025Y218001D01*
X358527Y218402D01*
X359039Y218790D01*
X359561Y219166D01*
X360092Y219529D01*
X360631Y219879D01*
X361179Y220216D01*
X361734Y220539D01*
X362298Y220848D01*
X362869Y221144D01*
X363447Y221425D01*
X364031Y221693D01*
X364622Y221946D01*
X365219Y222184D01*
X365822Y222408D01*
X366430Y222616D01*
X367043Y222810D01*
X367661Y222989D01*
X368282Y223153D01*
X368908Y223301D01*
X369537Y223434D01*
X370169Y223552D01*
X370804Y223654D01*
X371441Y223740D01*
X372080Y223811D01*
X372720Y223867D01*
X373362Y223906D01*
X374004Y223930D01*
X374647Y223938D01*
X375290Y223930D01*
X375932Y223907D01*
X376574Y223868D01*
X377215Y223813D01*
X377854Y223743D01*
X378491Y223657D01*
X379126Y223555D01*
X379758Y223438D01*
X380387Y223305D01*
X381012Y223157D01*
X381634Y222994D01*
X382252Y222815D01*
X382865Y222622D01*
X383473Y222414D01*
X384076Y222190D01*
X384673Y221952D01*
X385264Y221700D01*
X385849Y221433D01*
X386427Y221152D01*
X386999Y220857D01*
X387562Y220548D01*
X388118Y220225D01*
X388666Y219889D01*
X389206Y219539D01*
X389736Y219176D01*
X390258Y218801D01*
X390771Y218412D01*
X391273Y218012D01*
X391766Y217599D01*
X392249Y217174D01*
X392721Y216738D01*
X393182Y216290D01*
X393632Y215831D01*
X394071Y215361D01*
X394498Y214880D01*
X394913Y214389D01*
X395316Y213888D01*
X395706Y213378D01*
X396085Y212858D01*
X396450Y212329D01*
X396802Y211791D01*
X397141Y211245D01*
X397466Y210690D01*
X397778Y210128D01*
X398076Y209558D01*
X398359Y208981D01*
X398629Y208398D01*
X398884Y207808D01*
X399125Y207212D01*
X399351Y206610D01*
X399562Y206002D01*
X399759Y205390D01*
X399940Y204774D01*
X400106Y204152D01*
X400257Y203528D01*
X400393Y202899D01*
X400513Y202268D01*
X400617Y201633D01*
X400706Y200997D01*
X400780Y200358D01*
X400838Y199718D01*
X400880Y199076D01*
X400906Y198434D01*
X400917Y197791D01*
X400912Y197148D01*
X400891Y196506D01*
X400854Y195864D01*
X400802Y195223D01*
X400734Y194584D01*
X400651Y193946D01*
X400552Y193311D01*
X400437Y192678D01*
X400307Y192049D01*
X400161Y191423D01*
X400001Y190800D01*
X400000Y190800D02*
X399960Y139993D01*
X408958Y139993D01*
X414750Y140064D01*
X420538Y140277D01*
X426319Y140631D01*
X432090Y141127D01*
X437848Y141764D01*
X443587Y142542D01*
X449306Y143460D01*
X455001Y144518D01*
X460668Y145715D01*
X466304Y147050D01*
X471906Y148523D01*
X477470Y150133D01*
X482993Y151879D01*
X488472Y153759D01*
X493903Y155773D01*
X499283Y157919D01*
X504608Y160196D01*
X509877Y162603D01*
X515085Y165139D01*
X520229Y167801D01*
X525306Y170588D01*
X530314Y173499D01*
X535249Y176532D01*
X502684Y223831D01*
X502320Y224373D01*
X501970Y224924D01*
X501633Y225483D01*
X501310Y226050D01*
X501002Y226625D01*
X500707Y227208D01*
X500426Y227797D01*
X500161Y228393D01*
X499909Y228996D01*
X499673Y229604D01*
X499452Y230218D01*
X499245Y230837D01*
X499054Y231462D01*
X498878Y232090D01*
X498718Y232723D01*
X498573Y233359D01*
X498444Y233999D01*
X498330Y234642D01*
X498232Y235287D01*
X498150Y235935D01*
X498084Y236584D01*
X498034Y237235D01*
X498000Y237887D01*
X497981Y238539D01*
X497979Y239192D01*
X497993Y239845D01*
X498022Y240497D01*
X498068Y241148D01*
X498129Y241798D01*
X498206Y242446D01*
X498299Y243092D01*
X498408Y243736D01*
X498533Y244376D01*
X498673Y245014D01*
X498829Y245648D01*
X499000Y246278D01*
X499187Y246903D01*
X499388Y247524D01*
X499605Y248140D01*
X499837Y248750D01*
X500084Y249354D01*
X500346Y249952D01*
X500622Y250543D01*
X500912Y251128D01*
X501217Y251705D01*
X501536Y252275D01*
X501868Y252837D01*
X502214Y253390D01*
X502574Y253935D01*
X502947Y254471D01*
X503332Y254997D01*
X503731Y255514D01*
X504142Y256021D01*
X504565Y256518D01*
X505001Y257004D01*
X505448Y257480D01*
X505907Y257944D01*
X506377Y258397D01*
X506857Y258839D01*
X507349Y259268D01*
X507851Y259686D01*
X508363Y260091D01*
X508884Y260483D01*
X509415Y260863D01*
X509955Y261229D01*
X510504Y261582D01*
X511062Y261922D01*
X511628Y262247D01*
X512201Y262559D01*
X512782Y262857D01*
X513370Y263141D01*
X513965Y263410D01*
X514566Y263664D01*
X515173Y263903D01*
X515786Y264128D01*
X516404Y264338D01*
X517027Y264532D01*
X517655Y264711D01*
X518287Y264875D01*
X518922Y265023D01*
X519561Y265156D01*
X520204Y265273D01*
X520848Y265374D01*
X521496Y265459D01*
X522145Y265529D01*
X522795Y265583D01*
X523447Y265620D01*
X524099Y265642D01*
X524752Y265648D01*
X525405Y265638D01*
X526057Y265612D01*
X526708Y265570D01*
X527358Y265512D01*
X528007Y265438D01*
X528653Y265348D01*
X529298Y265242D01*
X529939Y265121D01*
X530577Y264984D01*
X531212Y264832D01*
X531843Y264664D01*
X532469Y264481D01*
X533091Y264282D01*
X533708Y264068D01*
X534319Y263840D01*
X534925Y263596D01*
X535524Y263338D01*
X536117Y263065D01*
X536703Y262777D01*
X537282Y262476D01*
X537853Y262160D01*
X538417Y261831D01*
X538972Y261487D01*
X539519Y261131D01*
X540056Y260761D01*
X540585Y260378D01*
X541104Y259982D01*
X541613Y259573D01*
X542112Y259153D01*
X542601Y258720D01*
X543079Y258275D01*
X543545Y257819D01*
X544001Y257351D01*
X544445Y256873D01*
X544877Y256384D01*
X545297Y255884D01*
X545705Y255374D01*
X546100Y254855D01*
X546482Y254326D01*
X546851Y253787D01*
X547207Y253240D01*
X547550Y252684D01*
X547879Y252121D01*
X547879Y251672D01*
X583477Y216075D01*
X590207Y222449D01*
X590207Y222450D02*
X594037Y226167D01*
X597775Y229978D01*
X601419Y233879D01*
X604966Y237868D01*
X608414Y241943D01*
X611761Y246101D01*
X615005Y250340D01*
X618145Y254657D01*
X621177Y259049D01*
X624101Y263515D01*
X626915Y268051D01*
X629617Y272655D01*
X632205Y277323D01*
X634678Y282054D01*
X637035Y286843D01*
X639273Y291689D01*
X641392Y296588D01*
X643390Y301538D01*
X645266Y306536D01*
X647020Y311577D01*
X648649Y316660D01*
X650153Y321782D01*
X651531Y326939D01*
X652782Y332128D01*
X653906Y337346D01*
X653907Y337346D02*
X597234Y349159D01*
X597233Y349159D02*
X596612Y349296D01*
X595993Y349449D01*
X595379Y349616D01*
X594769Y349799D01*
X594164Y349996D01*
X593563Y350208D01*
X592968Y350435D01*
X592379Y350676D01*
X591796Y350932D01*
X591219Y351201D01*
X590649Y351485D01*
X590086Y351782D01*
X589530Y352093D01*
X588982Y352417D01*
X588442Y352755D01*
X587911Y353105D01*
X587388Y353469D01*
X586875Y353845D01*
X586370Y354234D01*
X585875Y354634D01*
X585391Y355047D01*
X584916Y355471D01*
X584452Y355907D01*
X583998Y356354D01*
X583556Y356812D01*
X583125Y357281D01*
X582705Y357760D01*
X582297Y358249D01*
X581902Y358748D01*
X581518Y359256D01*
X581147Y359773D01*
X580789Y360300D01*
X580444Y360835D01*
X580112Y361378D01*
X579793Y361929D01*
X579488Y362488D01*
X579196Y363054D01*
X578918Y363627D01*
X578655Y364206D01*
X578405Y364792D01*
X578170Y365384D01*
X577950Y365981D01*
X577744Y366584D01*
X577552Y367191D01*
X577376Y367803D01*
X577215Y368419D01*
X577068Y369038D01*
X576937Y369661D01*
X576821Y370288D01*
X576720Y370916D01*
X576635Y371547D01*
X576565Y372180D01*
X576511Y372814D01*
X576472Y373450D01*
X576448Y374086D01*
X576440Y374723D01*
X576448Y375360D01*
X576471Y375996D01*
X576509Y376631D01*
X576563Y377266D01*
X576633Y377899D01*
X576717Y378530D01*
X576818Y379159D01*
X576933Y379785D01*
X577064Y380408D01*
X577210Y381028D01*
X577371Y381644D01*
X577547Y382256D01*
X577737Y382863D01*
X577943Y383466D01*
X578163Y384063D01*
X578398Y384655D01*
X578647Y385241D01*
X578910Y385821D01*
X579187Y386394D01*
X579478Y386960D01*
X579783Y387519D01*
X580101Y388071D01*
X580433Y388614D01*
X580778Y389149D01*
X581136Y389676D01*
X581506Y390194D01*
X581889Y390702D01*
X582285Y391202D01*
X582692Y391691D01*
X583111Y392170D01*
X583542Y392639D01*
X583984Y393097D01*
X584437Y393545D01*
X584901Y393981D01*
X585375Y394406D01*
X585860Y394819D01*
X586354Y395220D01*
X586858Y395609D01*
X587372Y395985D01*
X587894Y396349D01*
X588425Y396700D01*
X588965Y397038D01*
X589513Y397363D01*
X590068Y397675D01*
X590631Y397972D01*
X591201Y398256D01*
X591777Y398526D01*
X592360Y398782D01*
X592950Y399023D01*
X593544Y399251D01*
X594145Y399463D01*
X594750Y399661D01*
X595360Y399844D01*
X595974Y400012D01*
X596592Y400165D01*
X597213Y400303D01*
X597838Y400426D01*
X598466Y400534D01*
X599096Y400626D01*
X599728Y400703D01*
X600362Y400764D01*
X600997Y400810D01*
X601633Y400840D01*
X602269Y400855D01*
X602906Y400855D01*
X603542Y400839D01*
X604178Y400807D01*
X604813Y400760D01*
X605447Y400697D01*
X606079Y400619D01*
X606709Y400526D01*
X607336Y400417D01*
X607961Y400294D01*
X608582Y400154D01*
X609200Y400000D01*
X660112Y399993D01*
X660025Y408992D01*
X659901Y414757D01*
X659640Y420518D01*
X659243Y426270D01*
X658709Y432012D01*
X658038Y437739D01*
X657232Y443449D01*
X656291Y449138D01*
X655215Y454803D01*
X654005Y460441D01*
X652661Y466049D01*
X651184Y471623D01*
X649575Y477161D01*
X647836Y482659D01*
X645966Y488113D01*
X643967Y493522D01*
X641840Y498882D01*
X639587Y504190D01*
X637208Y509443D01*
X634706Y514638D01*
X632080Y519772D01*
X629333Y524843D01*
X626467Y529846D01*
X623483Y534781D01*
X623483Y534780D02*
X576318Y502905D01*
X576318Y502904D02*
X575774Y502546D01*
X575222Y502202D01*
X574662Y501871D01*
X574093Y501554D01*
X573517Y501251D01*
X572934Y500963D01*
X572344Y500688D01*
X571748Y500428D01*
X571145Y500183D01*
X570537Y499952D01*
X569923Y499737D01*
X569304Y499536D01*
X568680Y499351D01*
X568052Y499181D01*
X567420Y499027D01*
X566784Y498888D01*
X566145Y498764D01*
X565503Y498656D01*
X564859Y498564D01*
X564213Y498488D01*
X563565Y498427D01*
X562916Y498382D01*
X562266Y498354D01*
X561615Y498341D01*
X560965Y498344D01*
X560314Y498363D01*
X559664Y498397D01*
X559016Y498448D01*
X558368Y498515D01*
X557723Y498597D01*
X557080Y498695D01*
X556439Y498809D01*
X555801Y498938D01*
X555167Y499083D01*
X554536Y499244D01*
X553910Y499419D01*
X553288Y499610D01*
X552671Y499817D01*
X552059Y500038D01*
X551452Y500274D01*
X550852Y500525D01*
X550258Y500790D01*
X549670Y501070D01*
X549090Y501364D01*
X548517Y501673D01*
X547952Y501995D01*
X547394Y502331D01*
X546845Y502680D01*
X546305Y503043D01*
X545774Y503419D01*
X545252Y503808D01*
X544740Y504209D01*
X544238Y504623D01*
X543746Y505049D01*
X543264Y505486D01*
X542794Y505936D01*
X542334Y506397D01*
X541886Y506869D01*
X541450Y507351D01*
X541026Y507845D01*
X540613Y508348D01*
X540214Y508861D01*
X539826Y509384D01*
X539452Y509917D01*
X539091Y510458D01*
X538743Y511008D01*
X538409Y511566D01*
X538089Y512133D01*
X537782Y512707D01*
X537490Y513288D01*
X537212Y513876D01*
X536948Y514471D01*
X536699Y515072D01*
X536465Y515679D01*
X536245Y516292D01*
X536041Y516910D01*
X535852Y517532D01*
X535678Y518159D01*
X535519Y518790D01*
X535376Y519425D01*
X535249Y520063D01*
X535137Y520704D01*
X535041Y521348D01*
X534961Y521994D01*
X534896Y522641D01*
X534847Y523290D01*
X534814Y523940D01*
X534798Y524590D01*
X534797Y525241D01*
X534811Y525892D01*
X534842Y526542D01*
X534889Y527191D01*
X534951Y527838D01*
X535030Y528484D01*
X535124Y529128D01*
X535233Y529770D01*
X535359Y530408D01*
X535500Y531043D01*
X535656Y531675D01*
X535828Y532303D01*
X536016Y532926D01*
X536218Y533544D01*
X536435Y534158D01*
X536668Y534765D01*
X536915Y535367D01*
X537177Y535963D01*
X537453Y536552D01*
X537743Y537134D01*
X538048Y537709D01*
X538367Y538277D01*
X538699Y538836D01*
X539045Y539387D01*
X539405Y539930D01*
X539777Y540463D01*
X540163Y540987D01*
X540561Y541502D01*
X540971Y542007D01*
X541394Y542501D01*
X541829Y542985D01*
X542276Y543459D01*
X542734Y543921D01*
X543203Y544372D01*
X543683Y544811D01*
X544173Y545239D01*
X544674Y545654D01*
X545185Y546057D01*
X545706Y546447D01*
X546236Y546825D01*
X546775Y547189D01*
X547323Y547541D01*
X547879Y547878D01*
X547879Y547879D02*
X583740Y583517D01*
X577847Y588790D01*
X577847Y588791D02*
X572626Y593354D01*
X567301Y597794D01*
X561873Y602108D01*
X556347Y606295D01*
X550724Y610351D01*
X545008Y614276D01*
X539202Y618066D01*
X533309Y621719D01*
X527332Y625234D01*
X521276Y628609D01*
X515142Y631841D01*
X508934Y634929D01*
X502656Y637872D01*
X496311Y640667D01*
X489903Y643314D01*
X483434Y645810D01*
X476909Y648155D01*
X470331Y650347D01*
X463704Y652385D01*
X451918Y596546D01*
X451775Y595908D01*
X451616Y595274D01*
X451443Y594644D01*
X451253Y594018D01*
X451049Y593397D01*
X450829Y592781D01*
X450595Y592171D01*
X450345Y591567D01*
X450081Y590969D01*
X449803Y590377D01*
X449510Y589793D01*
X449202Y589216D01*
X448881Y588647D01*
X448546Y588085D01*
X448197Y587532D01*
X447835Y586988D01*
X447460Y586453D01*
X447072Y585927D01*
X446671Y585411D01*
X446257Y584904D01*
X445831Y584408D01*
X445393Y583923D01*
X444944Y583448D01*
X444483Y582985D01*
X444011Y582533D01*
X443527Y582092D01*
X443034Y581664D01*
X442530Y581248D01*
X442015Y580844D01*
X441492Y580453D01*
X440958Y580074D01*
X440416Y579709D01*
X439865Y579358D01*
X439305Y579020D01*
X438738Y578695D01*
X438162Y578385D01*
X437580Y578089D01*
X436990Y577807D01*
X436393Y577540D01*
X435790Y577287D01*
X435181Y577049D01*
X434567Y576827D01*
X433947Y576619D01*
X433322Y576426D01*
X432693Y576249D01*
X432059Y576087D01*
X431422Y575941D01*
X430782Y575811D01*
X430138Y575696D01*
X429492Y575597D01*
X428844Y575513D01*
X428193Y575446D01*
X427542Y575394D01*
X426889Y575359D01*
X426235Y575339D01*
X425582Y575336D01*
X424928Y575348D01*
X424275Y575376D01*
X423623Y575421D01*
X422972Y575481D01*
X422323Y575557D01*
X421675Y575649D01*
X421031Y575757D01*
X420389Y575881D01*
X419750Y576020D01*
X419115Y576175D01*
X418484Y576345D01*
X417857Y576531D01*
X417235Y576732D01*
X416618Y576948D01*
X416006Y577179D01*
X415400Y577425D01*
X414801Y577686D01*
X414208Y577961D01*
X413622Y578251D01*
X413043Y578555D01*
X412472Y578873D01*
X411909Y579205D01*
X411354Y579550D01*
X410808Y579909D01*
X410270Y580281D01*
X409742Y580667D01*
X409224Y581065D01*
X408715Y581476D01*
X408217Y581899D01*
X407729Y582334D01*
X407252Y582781D01*
X406786Y583239D01*
X406331Y583709D01*
X405888Y584189D01*
X405456Y584681D01*
X405037Y585182D01*
X404631Y585694D01*
X404237Y586216D01*
X403855Y586747D01*
X403487Y587287D01*
X403133Y587836D01*
X402791Y588394D01*
X402464Y588960D01*
X402150Y589533D01*
X401851Y590114D01*
X401566Y590703D01*
X401295Y591298D01*
X401039Y591899D01*
X400798Y592507D01*
X400572Y593120D01*
X400360Y593739D01*
X400164Y594362D01*
X399984Y594991D01*
X399818Y595623D01*
X399668Y596260D01*
X399534Y596899D01*
X399416Y597542D01*
X399313Y598188D01*
X399226Y598836D01*
X399155Y599486D01*
X399100Y600137D01*
X399061Y600790D01*
X399037Y601443D01*
X399030Y602097D01*
X399039Y602750D01*
X399063Y603404D01*
X399104Y604056D01*
X399161Y604707D01*
X399233Y605357D01*
X399322Y606005D01*
X399426Y606650D01*
X399546Y607293D01*
X399681Y607932D01*
X399833Y608568D01*
X399999Y609200D01*
X400000Y609200D02*
X399809Y660140D01*
X394846Y659830D01*
X386961Y659245D01*
X379091Y658475D01*
X371241Y657523D01*
X363416Y656387D01*
X355619Y655069D01*
X347856Y653570D01*
X340129Y651890D01*
X332444Y650030D01*
X324804Y647991D01*
X317213Y645774D01*
X309677Y643381D01*
X302199Y640813D01*
X294782Y638071D01*
X287431Y635157D01*
X280151Y632072D01*
X272944Y628817D01*
X265816Y625396D01*
X296523Y576382D01*
X296857Y575833D01*
X297179Y575276D01*
X297486Y574711D01*
X297780Y574139D01*
X298060Y573560D01*
X298325Y572975D01*
X298576Y572383D01*
X298813Y571785D01*
X299035Y571181D01*
X299242Y570573D01*
X299434Y569959D01*
X299612Y569341D01*
X299774Y568719D01*
X299921Y568093D01*
X300053Y567464D01*
X300169Y566831D01*
X300270Y566196D01*
X300355Y565559D01*
X300425Y564920D01*
X300479Y564279D01*
X300518Y563637D01*
X300541Y562995D01*
X300548Y562352D01*
X300540Y561709D01*
X300516Y561066D01*
X300476Y560425D01*
X300420Y559784D01*
X300350Y559145D01*
X300263Y558508D01*
X300161Y557873D01*
X300044Y557241D01*
X299911Y556612D01*
X299763Y555986D01*
X299599Y555364D01*
X299421Y554746D01*
X299228Y554133D01*
X299019Y553525D01*
X298796Y552922D01*
X298559Y552324D01*
X298306Y551733D01*
X298040Y551148D01*
X297759Y550569D01*
X297465Y549998D01*
X297156Y549434D01*
X296834Y548877D01*
X296498Y548329D01*
X296149Y547789D01*
X295787Y547257D01*
X295412Y546735D01*
X295025Y546222D01*
X294625Y545718D01*
X294213Y545225D01*
X293789Y544741D01*
X293354Y544268D01*
X292907Y543806D01*
X292449Y543355D01*
X291980Y542915D01*
X291500Y542487D01*
X291010Y542070D01*
X290511Y541665D01*
X290001Y541273D01*
X289482Y540894D01*
X288954Y540527D01*
X288417Y540173D01*
X287872Y539832D01*
X287319Y539505D01*
X286757Y539191D01*
X286189Y538891D01*
X285613Y538605D01*
X285030Y538333D01*
X284441Y538075D01*
X283846Y537832D01*
X283245Y537604D01*
X282639Y537390D01*
X282027Y537191D01*
X281411Y537007D01*
X280791Y536838D01*
X280166Y536684D01*
X279539Y536545D01*
X278908Y536422D01*
X278274Y536314D01*
X277637Y536221D01*
X276999Y536145D01*
X276359Y536083D01*
X275718Y536038D01*
X275075Y536008D01*
X274432Y535993D01*
X273789Y535995D01*
X273147Y536012D01*
X272505Y536044D01*
X271863Y536093D01*
X271224Y536156D01*
X270586Y536236D01*
X269950Y536331D01*
X269316Y536441D01*
X268686Y536567D01*
X268058Y536708D01*
X267435Y536865D01*
X266815Y537036D01*
X266200Y537223D01*
X265589Y537425D01*
X264984Y537641D01*
X264384Y537872D01*
X263790Y538118D01*
X263201Y538378D01*
X262620Y538652D01*
X262045Y538941D01*
X261478Y539243D01*
X260918Y539559D01*
X260366Y539888D01*
X259822Y540231D01*
X259287Y540588D01*
X258760Y540957D01*
X258243Y541338D01*
X257735Y541733D01*
X257237Y542139D01*
X256748Y542558D01*
X256271Y542988D01*
X255804Y543430D01*
X255347Y543883D01*
X254902Y544347D01*
X254469Y544822D01*
X254047Y545307D01*
X253637Y545802D01*
X253239Y546307D01*
X252854Y546822D01*
X252481Y547346D01*
X252121Y547879D01*
X252121Y548205D01*
X216499Y583827D01*
X216499Y583206D01*
X214017Y580725D01*
X214018Y580724D02*
X209917Y576524D01*
X205917Y572227D01*
X202022Y567835D01*
X198232Y563352D01*
X194551Y558779D01*
X190980Y554120D01*
X187522Y549377D01*
X184178Y544552D01*
X180950Y539648D01*
X177841Y534669D01*
X174851Y529617D01*
X171983Y524495D01*
X169239Y519306D01*
X166619Y514053D01*
X164126Y508738D01*
X161760Y503366D01*
X159523Y497938D01*
X157417Y492459D01*
X155443Y486931D01*
X153601Y481357D01*
X151893Y475740D01*
X150320Y470085D01*
X148882Y464393D01*
X148882Y464394D02*
X203782Y451985D01*
X204418Y451833D01*
X205050Y451665D01*
X205678Y451483D01*
X206301Y451285D01*
X206919Y451071D01*
X207532Y450843D01*
X208139Y450600D01*
X208740Y450342D01*
X209334Y450070D01*
X209922Y449783D01*
X210502Y449482D01*
X211075Y449167D01*
X211640Y448838D01*
X212197Y448495D01*
X212745Y448139D01*
X213285Y447769D01*
X213815Y447387D01*
X214336Y446991D01*
X214847Y446583D01*
X215348Y446163D01*
X215838Y445731D01*
X216318Y445286D01*
X216787Y444831D01*
X217245Y444363D01*
X217691Y443885D01*
X218125Y443396D01*
X218547Y442897D01*
X218957Y442387D01*
X219354Y441868D01*
X219739Y441339D01*
X220110Y440801D01*
X220469Y440254D01*
X220813Y439699D01*
X221145Y439135D01*
X221462Y438563D01*
X221765Y437984D01*
X222054Y437397D01*
X222329Y436804D01*
X222589Y436204D01*
X222834Y435598D01*
X223065Y434986D01*
X223280Y434368D01*
X223480Y433746D01*
X223666Y433119D01*
X223835Y432487D01*
X223990Y431852D01*
X224128Y431213D01*
X224251Y430571D01*
X224359Y429926D01*
X224450Y429278D01*
X224526Y428629D01*
X224586Y427977D01*
X224630Y427325D01*
X224658Y426672D01*
X224670Y426018D01*
X224667Y425364D01*
X224647Y424711D01*
X224611Y424058D01*
X224560Y423406D01*
X224492Y422755D01*
X224409Y422107D01*
X224310Y421460D01*
X224195Y420817D01*
X224064Y420176D01*
X223918Y419539D01*
X223756Y418905D01*
X223579Y418276D01*
X223387Y417651D01*
X223179Y417031D01*
X222957Y416416D01*
X222719Y415807D01*
X222467Y415203D01*
X222200Y414607D01*
X221918Y414016D01*
X221622Y413433D01*
X221312Y412857D01*
X220988Y412289D01*
X220651Y411729D01*
X220299Y411178D01*
X219935Y410635D01*
X219557Y410101D01*
X219166Y409577D01*
X218763Y409062D01*
X218347Y408558D01*
X217919Y408063D01*
X217479Y407579D01*
X217028Y407106D01*
X216565Y406645D01*
X216091Y406194D01*
X215611Y405760D01*
X215120Y405337D01*
X214620Y404927D01*
X214110Y404528D01*
X213590Y404142D01*
X213061Y403769D01*
X212523Y403409D01*
X211977Y403061D01*
X211423Y402727D01*
X210860Y402407D01*
X210290Y402100D01*
X209713Y401807D01*
X209129Y401528D01*
X208538Y401263D01*
X207941Y401013D01*
X207338Y400777D01*
X206730Y400556D01*
X206116Y400349D01*
X205498Y400157D01*
X204875Y399981D01*
X204248Y399819D01*
X203618Y399673D01*
X202984Y399542D01*
X202347Y399426D01*
X201707Y399326D01*
X201066Y399241D01*
X200422Y399171D01*
X199777Y399118D01*
X199131Y399079D01*
X198484Y399057D01*
X197836Y399050D01*
X197189Y399059D01*
X196542Y399083D01*
X195896Y399123D01*
X195251Y399179D01*
X194608Y399250D01*
X193966Y399336D01*
X193327Y399439D01*
X192690Y399556D01*
X192057Y399689D01*
X191427Y399837D01*
X190800Y400001D01*
D44*
X215900Y406400D02*
X216091Y406194D01*
D45*
X354732Y428290D02*
X364079Y417961D01*
X354732Y428290D02*
X358082Y459946D01*
X331654Y484154D01*
X321976Y483782D01*
X270608Y429407D01*
X269120Y353060D01*
X222219Y312838D01*
X176435Y292355D01*
X165268Y328107D01*
X207330Y344122D01*
X207330Y344121D02*
X207996Y344384D01*
X208656Y344663D01*
X209308Y344959D01*
X209953Y345270D01*
X210590Y345597D01*
X211218Y345939D01*
X211839Y346297D01*
X212450Y346669D01*
X213052Y347057D01*
X213644Y347459D01*
X214227Y347876D01*
X214798Y348307D01*
X215360Y348751D01*
X215910Y349209D01*
X216448Y349681D01*
X216975Y350166D01*
X217490Y350663D01*
X217993Y351173D01*
X218483Y351695D01*
X218960Y352229D01*
X219424Y352774D01*
X219874Y353331D01*
X220311Y353898D01*
X220733Y354476D01*
X221141Y355065D01*
X221535Y355663D01*
X221914Y356270D01*
X222278Y356887D01*
X222626Y357512D01*
X222960Y358146D01*
X223277Y358787D01*
X223579Y359436D01*
X223865Y360093D01*
X224135Y360756D01*
X224388Y361426D01*
X224625Y362101D01*
X224845Y362783D01*
X225049Y363469D01*
X225235Y364160D01*
X225405Y364856D01*
X225557Y365555D01*
X225693Y366258D01*
X225811Y366965D01*
X225912Y367673D01*
X225995Y368384D01*
X226061Y369097D01*
X226109Y369812D01*
X226140Y370527D01*
X226153Y371243D01*
X226149Y371959D01*
X226127Y372674D01*
X226088Y373389D01*
X226031Y374103D01*
X225957Y374815D01*
X225866Y375525D01*
X225757Y376233D01*
X225630Y376937D01*
X225487Y377639D01*
X225326Y378337D01*
X225148Y379030D01*
X224954Y379719D01*
X224742Y380403D01*
X224514Y381082D01*
X224269Y381755D01*
X224008Y382421D01*
X223731Y383081D01*
X223437Y383734D01*
X223128Y384380D01*
X222803Y385018D01*
X222462Y385648D01*
X222106Y386269D01*
X221735Y386881D01*
X221349Y387484D01*
X220948Y388077D01*
X220533Y388661D01*
X220104Y389234D01*
X219661Y389796D01*
X219204Y390347D01*
X218734Y390887D01*
X218251Y391416D01*
X217755Y391932D01*
X217246Y392436D01*
X216725Y392927D01*
X216193Y393406D01*
X215649Y393871D01*
X215093Y394323D01*
X214527Y394761D01*
X213950Y395185D01*
X213363Y395595D01*
X212766Y395990D01*
X212159Y396370D01*
X211544Y396736D01*
X210919Y397086D01*
X210287Y397421D01*
X209646Y397741D01*
X208998Y398044D01*
X208342Y398332D01*
X207679Y398603D01*
X207010Y398858D01*
X206335Y399097D01*
X205655Y399319D01*
X204969Y399524D01*
X204278Y399713D01*
X203583Y399884D01*
X202884Y400039D01*
X202181Y400176D01*
X201475Y400296D01*
X200767Y400398D01*
X200056Y400484D01*
X199343Y400551D01*
X198629Y400602D01*
X197914Y400635D01*
X197198Y400650D01*
X196482Y400648D01*
X195766Y400628D01*
X195051Y400590D01*
X194338Y400536D01*
X193625Y400463D01*
X192915Y400373D01*
X192207Y400266D01*
X191502Y400142D01*
X190800Y400000D01*
X516140Y226014D02*
X559276Y161635D01*
X570038Y168712D01*
X570038Y168711D02*
X575457Y172369D01*
X580786Y176158D01*
X586022Y180075D01*
X591161Y184117D01*
X596201Y188283D01*
X601138Y192569D01*
X605970Y196974D01*
X610694Y201495D01*
X615307Y206129D01*
X619807Y210873D01*
X624190Y215725D01*
X628454Y220682D01*
X632597Y225741D01*
X636616Y230898D01*
X640509Y236151D01*
X644273Y241497D01*
X647907Y246933D01*
X651409Y252455D01*
X654775Y258061D01*
X658004Y263746D01*
X661095Y269508D01*
X664046Y275343D01*
X666854Y281248D01*
X669518Y287219D01*
X672037Y293253D01*
X674409Y299346D01*
X676632Y305495D01*
X678706Y311696D01*
X680629Y317945D01*
X682400Y324239D01*
X684018Y330575D01*
X685482Y336947D01*
X686791Y343353D01*
X686791Y343354D02*
X605167Y359167D01*
X686758Y343321D01*
X687796Y349551D01*
X687796Y349550D02*
X688885Y356616D01*
X689803Y363707D01*
X690547Y370818D01*
X691118Y377944D01*
X691516Y385083D01*
X691739Y392229D01*
X691789Y399379D01*
X691665Y406527D01*
X691367Y413670D01*
X690895Y420804D01*
X690250Y427925D01*
X689431Y435028D01*
X688440Y442108D01*
X687277Y449163D01*
X685943Y456187D01*
X684438Y463176D01*
X682764Y470127D01*
X680921Y477035D01*
X678911Y483896D01*
X676734Y490706D01*
X674392Y497461D01*
X671886Y504157D01*
X669218Y510791D01*
X666390Y517357D01*
X663402Y523852D01*
X660258Y530273D01*
X656958Y536616D01*
X653505Y542876D01*
X649900Y549051D01*
X646147Y555136D01*
X642246Y561128D01*
X642247Y561128D02*
X573986Y516140D01*
X642153Y561058D01*
X638799Y566415D01*
X635415Y571678D01*
X631904Y576857D01*
X628271Y581951D01*
X624515Y586955D01*
X620640Y591867D01*
X616648Y596685D01*
X612540Y601404D01*
X608321Y606024D01*
X603991Y610540D01*
X599553Y614951D01*
X595010Y619253D01*
X590365Y623445D01*
X585621Y627524D01*
X580779Y631487D01*
X575843Y635332D01*
X570817Y639057D01*
X565701Y642660D01*
X560501Y646138D01*
X555218Y649491D01*
X549855Y652714D01*
X544417Y655808D01*
X538906Y658770D01*
X533325Y661598D01*
X527677Y664290D01*
X521966Y666846D01*
X516195Y669264D01*
X510368Y671541D01*
X504487Y673678D01*
X498556Y675672D01*
X492580Y677522D01*
X486560Y679228D01*
X480501Y680788D01*
X474406Y682202D01*
X468279Y683469D01*
X462123Y684587D01*
X455942Y685557D01*
X440833Y605167D01*
X456025Y685567D01*
X446304Y686902D01*
X438589Y687865D01*
X430852Y688641D01*
X423099Y689227D01*
X415334Y689624D01*
X407561Y689831D01*
X399786Y689848D01*
X392012Y689676D01*
X384245Y689314D01*
X376489Y688762D01*
X368749Y688022D01*
X361029Y687092D01*
X353335Y685975D01*
X345669Y684670D01*
X338038Y683178D01*
X330446Y681501D01*
X322897Y679638D01*
X315395Y677592D01*
X307946Y675364D01*
X300553Y672954D01*
X293222Y670365D01*
X285956Y667598D01*
X278759Y664654D01*
X271636Y661535D01*
X264592Y658243D01*
X257630Y654781D01*
X250755Y651149D01*
X243970Y647351D01*
X237280Y643388D01*
X237280Y643389D02*
X283860Y573986D01*
X237197Y643312D01*
X229387Y637104D01*
X223417Y632148D01*
X217567Y627052D01*
X211840Y621817D01*
X206240Y616447D01*
X200770Y610945D01*
X195433Y605313D01*
X190231Y599557D01*
X185169Y593677D01*
X180248Y587679D01*
X175472Y581564D01*
X170843Y575338D01*
X166364Y569002D01*
X162037Y562562D01*
X157866Y556020D01*
X153852Y549381D01*
X149997Y542647D01*
X146304Y535824D01*
X142775Y528914D01*
X139412Y521922D01*
X136217Y514852D01*
X133192Y507707D01*
X130338Y500493D01*
X127657Y493212D01*
X125150Y485869D01*
X122820Y478469D01*
X120666Y471015D01*
X118692Y463512D01*
X116896Y455964D01*
X194833Y440833D01*
X226014Y283860D02*
X156788Y238156D01*
X164512Y227331D01*
X168515Y221860D01*
X172648Y216486D01*
X176907Y211212D01*
X181292Y206042D01*
X185798Y200977D01*
X190425Y196022D01*
X195168Y191179D01*
X200026Y186450D01*
X204995Y181839D01*
X210073Y177348D01*
X215256Y172979D01*
X220543Y168735D01*
X225929Y164619D01*
X231413Y160633D01*
X236989Y156779D01*
X242657Y153059D01*
X248411Y149475D01*
X254250Y146030D01*
X260169Y142725D01*
X266165Y139563D01*
X272235Y136545D01*
X278376Y133673D01*
X284583Y130948D01*
X290854Y128372D01*
X297184Y125946D01*
X303571Y123673D01*
X310010Y121553D01*
X316498Y119587D01*
X323030Y117776D01*
X329605Y116122D01*
X336217Y114626D01*
X342862Y113288D01*
X359167Y194833D01*
X516140Y226014D02*
X559329Y161714D01*
X550101Y156090D01*
X550100Y156090D02*
X543699Y152293D01*
X537210Y148649D01*
X530637Y145159D01*
X523982Y141826D01*
X517251Y138652D01*
X510446Y135638D01*
X503572Y132786D01*
X496632Y130098D01*
X489630Y127575D01*
X482571Y125218D01*
X475457Y123030D01*
X468294Y121010D01*
X461085Y119161D01*
X453834Y117484D01*
X446545Y115979D01*
X439223Y114646D01*
X431872Y113488D01*
X424494Y112504D01*
X417096Y111695D01*
X409681Y111062D01*
X402252Y110605D01*
X394815Y110324D01*
X387374Y110219D01*
X379932Y110290D01*
X372493Y110538D01*
X365063Y110962D01*
X357645Y111562D01*
X350243Y112338D01*
X342861Y113288D01*
X319940Y206733D02*
X324883Y213498D01*
X324882Y213498D02*
X326194Y215251D01*
X327547Y216972D01*
X328940Y218660D01*
X330372Y220316D01*
X331842Y221938D01*
X333350Y223524D01*
X334895Y225075D01*
X336476Y226589D01*
X338092Y228066D01*
X339742Y229505D01*
X341425Y230904D01*
X343141Y232263D01*
X344888Y233582D01*
X346665Y234859D01*
X348473Y236095D01*
X350308Y237287D01*
X352171Y238437D01*
X354061Y239542D01*
X355975Y240602D01*
X358004Y241663D01*
X360057Y242674D01*
X362135Y243633D01*
X364236Y244542D01*
X366359Y245399D01*
X368502Y246203D01*
X370663Y246955D01*
X372843Y247653D01*
X375039Y248298D01*
X377251Y248889D01*
X379476Y249425D01*
X381714Y249906D01*
X383962Y250333D01*
X386221Y250704D01*
X388488Y251020D01*
X390762Y251279D01*
X393042Y251484D01*
X395326Y251632D01*
X397613Y251724D01*
X399902Y251759D01*
X402190Y251739D01*
X404478Y251663D01*
X406763Y251530D01*
X409044Y251342D01*
X411320Y251097D01*
X413589Y250797D01*
X415850Y250441D01*
X418102Y250030D01*
X420343Y249564D01*
X422571Y249043D01*
X424787Y248467D01*
X426987Y247838D01*
X429172Y247154D01*
X431339Y246417D01*
X433487Y245627D01*
X435615Y244785D01*
X437722Y243891D01*
X439807Y242945D01*
X441867Y241948D01*
X443903Y240902D01*
X445912Y239805D01*
X447893Y238660D01*
X449846Y237466D01*
X451770Y236225D01*
X453662Y234937D01*
X455522Y233603D01*
X457348Y232224D01*
X459141Y230800D01*
X460897Y229333D01*
X462618Y227823D01*
X464300Y226272D01*
X465945Y224679D01*
X467549Y223047D01*
X469113Y221376D01*
X470636Y219667D01*
X472116Y217921D01*
X473553Y216140D01*
X474946Y214323D01*
X476294Y212473D01*
X477596Y210591D01*
X478851Y208677D01*
X480060Y206733D01*
X475215Y214280D01*
X474181Y215936D01*
X473187Y217616D01*
X472234Y219320D01*
X471323Y221047D01*
X470454Y222796D01*
X469628Y224565D01*
X468846Y226353D01*
X468107Y228160D01*
X467412Y229985D01*
X466762Y231826D01*
X466157Y233682D01*
X465597Y235552D01*
X465083Y237436D01*
X464614Y239331D01*
X464193Y241237D01*
X463817Y243153D01*
X463489Y245078D01*
X463207Y247010D01*
X462972Y248948D01*
X462785Y250891D01*
X462645Y252839D01*
X462552Y254789D01*
X462507Y256741D01*
X462509Y258693D01*
X462559Y260645D01*
X462656Y262595D01*
X462801Y264542D01*
X462993Y266485D01*
X463232Y268422D01*
X463519Y270353D01*
X463852Y272277D01*
X464232Y274192D01*
X464658Y276097D01*
X465131Y277992D01*
X465650Y279874D01*
X466214Y281743D01*
X466824Y283598D01*
X467478Y285437D01*
X468177Y287260D01*
X468920Y289065D01*
X469707Y290852D01*
X470538Y292619D01*
X471411Y294365D01*
X472326Y296090D01*
X473283Y297792D01*
X474281Y299470D01*
X475319Y301123D01*
X476398Y302750D01*
X477515Y304351D01*
X478672Y305924D01*
X479866Y307469D01*
X481098Y308984D01*
X482366Y310468D01*
X483669Y311921D01*
X485008Y313342D01*
X486381Y314731D01*
X487787Y316085D01*
X489226Y317405D01*
X490697Y318689D01*
X492198Y319937D01*
X493729Y321148D01*
X495289Y322322D01*
X496878Y323457D01*
X498493Y324553D01*
X500135Y325610D01*
X501802Y326626D01*
X503493Y327602D01*
X505207Y328536D01*
X506944Y329428D01*
X508702Y330278D01*
X510480Y331084D01*
X512277Y331847D01*
X514092Y332566D01*
X515924Y333241D01*
X517772Y333871D01*
X519635Y334456D01*
X521511Y334995D01*
X523400Y335489D01*
X525300Y335936D01*
X527211Y336337D01*
X529131Y336691D01*
X531059Y336999D01*
X532994Y337260D01*
X534935Y337473D01*
X536880Y337639D01*
X538829Y337758D01*
X540780Y337829D01*
X542732Y337853D01*
X544684Y337829D01*
X546635Y337758D01*
X548584Y337639D01*
X550529Y337473D01*
X552470Y337260D01*
X554405Y337000D01*
X556333Y336692D01*
X558253Y336338D01*
X560163Y335937D01*
X562064Y335490D01*
X563953Y334996D01*
X565829Y334457D01*
X567692Y333872D01*
X569540Y333243D01*
X571372Y332568D01*
X573187Y331849D01*
X574984Y331086D01*
X576762Y330279D01*
X578520Y329430D01*
X580257Y328538D01*
X581971Y327604D01*
X583662Y326629D01*
X585329Y325612D01*
X586971Y324556D01*
X588587Y323459D01*
X590175Y322324D01*
X591735Y321151D01*
X593267Y319940D01*
X589088Y478117D02*
X593267Y480060D01*
X589088Y478117D02*
X587187Y477204D01*
X585308Y476246D01*
X583454Y475241D01*
X581624Y474191D01*
X579821Y473097D01*
X578045Y471960D01*
X576298Y470779D01*
X574580Y469555D01*
X572892Y468290D01*
X571236Y466985D01*
X569612Y465639D01*
X568022Y464253D01*
X566466Y462830D01*
X564945Y461368D01*
X563460Y459870D01*
X562013Y458336D01*
X560603Y456767D01*
X559233Y455164D01*
X557902Y453528D01*
X556611Y451860D01*
X555362Y450161D01*
X554154Y448431D01*
X552989Y446673D01*
X551868Y444887D01*
X550790Y443074D01*
X549757Y441235D01*
X548770Y439371D01*
X547828Y437484D01*
X546933Y435574D01*
X546085Y433643D01*
X545284Y431692D01*
X544531Y429722D01*
X543827Y427734D01*
X543171Y425729D01*
X542565Y423709D01*
X542008Y421675D01*
X541501Y419628D01*
X541045Y417569D01*
X540639Y415499D01*
X540283Y413420D01*
X539979Y411333D01*
X539726Y409239D01*
X539524Y407140D01*
X539373Y405036D01*
X539274Y402929D01*
X539227Y400820D01*
X539231Y398711D01*
X539286Y396603D01*
X539394Y394497D01*
X539552Y392393D01*
X539762Y390295D01*
X540024Y388202D01*
X540336Y386116D01*
X540700Y384039D01*
X541114Y381971D01*
X541579Y379913D01*
X542093Y377868D01*
X542658Y375836D01*
X543272Y373818D01*
X543936Y371816D01*
X544648Y369831D01*
X545408Y367864D01*
X546217Y365915D01*
X547072Y363988D01*
X547975Y362082D01*
X548924Y360198D01*
X549919Y358338D01*
X550959Y356503D01*
X552043Y354695D01*
X553172Y352913D01*
X554344Y351159D01*
X555558Y349434D01*
X556814Y347740D01*
X558111Y346077D01*
X559449Y344446D01*
X560826Y342849D01*
X562241Y341285D01*
X563695Y339757D01*
X565185Y338264D01*
X566711Y336809D01*
X568273Y335391D01*
X569869Y334012D01*
X571498Y332673D01*
X573159Y331373D01*
X574852Y330115D01*
X576574Y328898D01*
X578327Y327724D01*
X580107Y326593D01*
X581914Y325506D01*
X583748Y324464D01*
X585606Y323466D01*
X587488Y322515D01*
X589393Y321610D01*
X591320Y320751D01*
X593267Y319940D01*
X586842Y477423D02*
X589088Y478117D01*
X586842Y477423D02*
X584794Y476818D01*
X582731Y476263D01*
X580656Y475759D01*
X578569Y475306D01*
X576471Y474904D01*
X574365Y474553D01*
X572250Y474254D01*
X570129Y474007D01*
X568002Y473812D01*
X565871Y473669D01*
X563737Y473578D01*
X561602Y473539D01*
X559466Y473553D01*
X557332Y473619D01*
X555199Y473737D01*
X553070Y473907D01*
X550946Y474130D01*
X548828Y474404D01*
X546717Y474730D01*
X544615Y475107D01*
X542523Y475536D01*
X540442Y476016D01*
X538373Y476546D01*
X536318Y477127D01*
X534278Y477758D01*
X532254Y478439D01*
X530247Y479169D01*
X528258Y479949D01*
X526289Y480776D01*
X524341Y481651D01*
X522415Y482574D01*
X520512Y483544D01*
X518634Y484560D01*
X516781Y485622D01*
X514954Y486728D01*
X513155Y487879D01*
X511385Y489074D01*
X509644Y490311D01*
X507934Y491591D01*
X506256Y492912D01*
X504611Y494274D01*
X503000Y495676D01*
X501424Y497117D01*
X499883Y498596D01*
X498379Y500112D01*
X496912Y501664D01*
X495484Y503252D01*
X494095Y504875D01*
X492746Y506531D01*
X491438Y508219D01*
X490172Y509939D01*
X488948Y511689D01*
X487768Y513469D01*
X486631Y515277D01*
X485539Y517113D01*
X484492Y518974D01*
X483491Y520861D01*
X482537Y522771D01*
X481629Y524705D01*
X480770Y526660D01*
X479958Y528635D01*
X479195Y530630D01*
X478480Y532642D01*
X477816Y534672D01*
X477201Y536717D01*
X476636Y538777D01*
X476122Y540850D01*
X475659Y542935D01*
X475247Y545030D01*
X474886Y547135D01*
X474577Y549248D01*
X474320Y551369D01*
X474114Y553494D01*
X473961Y555625D01*
X473860Y557758D01*
X473811Y559893D01*
X473814Y562029D01*
X473870Y564164D01*
X473978Y566297D01*
X474138Y568426D01*
X474350Y570551D01*
X474614Y572671D01*
X474930Y574783D01*
X475297Y576887D01*
X475716Y578981D01*
X476185Y581064D01*
X476706Y583136D01*
X477277Y585194D01*
X477899Y587237D01*
X478570Y589264D01*
X479290Y591275D01*
X480060Y593267D01*
X477194Y586199D01*
X477193Y586198D02*
X476406Y584322D01*
X475573Y582466D01*
X474696Y580631D01*
X473773Y578818D01*
X472807Y577027D01*
X471798Y575261D01*
X470746Y573520D01*
X469651Y571805D01*
X468516Y570117D01*
X467339Y568457D01*
X466122Y566827D01*
X464866Y565226D01*
X463572Y563657D01*
X462239Y562119D01*
X460870Y560615D01*
X459464Y559144D01*
X458023Y557709D01*
X456547Y556308D01*
X455038Y554944D01*
X453495Y553617D01*
X451921Y552329D01*
X450316Y551078D01*
X448681Y549868D01*
X447017Y548697D01*
X445325Y547568D01*
X443606Y546480D01*
X441861Y545434D01*
X440091Y544431D01*
X438297Y543472D01*
X436480Y542556D01*
X434642Y541685D01*
X432783Y540859D01*
X430904Y540079D01*
X429007Y539344D01*
X427092Y538656D01*
X425161Y538015D01*
X423216Y537421D01*
X421256Y536875D01*
X419283Y536377D01*
X417299Y535927D01*
X415305Y535525D01*
X413301Y535172D01*
X411290Y534868D01*
X409271Y534613D01*
X407247Y534407D01*
X405219Y534251D01*
X403187Y534144D01*
X401154Y534087D01*
X399119Y534079D01*
X397085Y534121D01*
X395053Y534212D01*
X393024Y534353D01*
X390998Y534543D01*
X388978Y534783D01*
X386964Y535071D01*
X384958Y535409D01*
X382960Y535796D01*
X380973Y536231D01*
X378997Y536714D01*
X377033Y537245D01*
X375083Y537824D01*
X373147Y538450D01*
X371227Y539124D01*
X369325Y539844D01*
X367440Y540610D01*
X365574Y541421D01*
X363729Y542278D01*
X361906Y543180D01*
X360104Y544126D01*
X358327Y545115D01*
X356574Y546148D01*
X354846Y547222D01*
X353146Y548339D01*
X351473Y549497D01*
X349829Y550695D01*
X348214Y551933D01*
X346630Y553209D01*
X345078Y554524D01*
X343558Y555877D01*
X342072Y557266D01*
X340620Y558691D01*
X339203Y560151D01*
X337822Y561645D01*
X336478Y563172D01*
X335171Y564731D01*
X333903Y566322D01*
X332674Y567943D01*
X331485Y569594D01*
X330336Y571273D01*
X329229Y572980D01*
X328163Y574713D01*
X327140Y576471D01*
X326161Y578254D01*
X325224Y580060D01*
X324333Y581889D01*
X323486Y583739D01*
X322684Y585609D01*
X321928Y587497D01*
X321219Y589404D01*
X320556Y591328D01*
X319940Y593266D01*
X210378Y321272D02*
X206733Y319940D01*
X211156Y477902D02*
X206733Y480060D01*
X211156Y477902D02*
X213044Y476952D01*
X214908Y475957D01*
X216748Y474917D01*
X218562Y473832D01*
X220349Y472703D01*
X222107Y471531D01*
X223837Y470316D01*
X225537Y469060D01*
X227205Y467763D01*
X228842Y466425D01*
X230445Y465048D01*
X232014Y463632D01*
X233549Y462179D01*
X235047Y460689D01*
X236509Y459162D01*
X237933Y457600D01*
X239319Y456005D01*
X240665Y454375D01*
X241971Y452714D01*
X243237Y451021D01*
X244461Y449298D01*
X245642Y447546D01*
X246781Y445765D01*
X247876Y443957D01*
X248926Y442123D01*
X249931Y440264D01*
X250891Y438381D01*
X251805Y436475D01*
X252672Y434548D01*
X253492Y432600D01*
X254264Y430632D01*
X254988Y428647D01*
X255663Y426644D01*
X256289Y424625D01*
X256866Y422592D01*
X257394Y420545D01*
X257871Y418487D01*
X258298Y416417D01*
X258674Y414337D01*
X259000Y412249D01*
X259275Y410153D01*
X259498Y408051D01*
X259671Y405945D01*
X259792Y403835D01*
X259861Y401723D01*
X259879Y399609D01*
X259846Y397496D01*
X259761Y395384D01*
X259625Y393275D01*
X259437Y391170D01*
X259198Y389070D01*
X258908Y386976D01*
X258568Y384891D01*
X258176Y382814D01*
X257734Y380747D01*
X257242Y378691D01*
X256700Y376649D01*
X256108Y374620D01*
X255467Y372606D01*
X254777Y370608D01*
X254039Y368628D01*
X253252Y366666D01*
X252418Y364724D01*
X251537Y362803D01*
X250610Y360904D01*
X249637Y359028D01*
X248618Y357176D01*
X247554Y355350D01*
X246446Y353550D01*
X245295Y351777D01*
X244101Y350034D01*
X242864Y348319D01*
X241587Y346636D01*
X240268Y344984D01*
X238910Y343365D01*
X237513Y341779D01*
X236077Y340227D01*
X234605Y338712D01*
X233095Y337232D01*
X231550Y335790D01*
X229971Y334386D01*
X228357Y333020D01*
X226711Y331695D01*
X225034Y330409D01*
X223325Y329165D01*
X221586Y327964D01*
X219819Y326804D01*
X218024Y325689D01*
X216203Y324617D01*
X214355Y323590D01*
X212484Y322608D01*
X210589Y321672D01*
X208672Y320782D01*
X206733Y319940D01*
X213885Y476480D02*
X211156Y477902D01*
X213885Y476479D02*
X215656Y475584D01*
X217448Y474731D01*
X219260Y473923D01*
X221091Y473159D01*
X222941Y472440D01*
X224807Y471766D01*
X226689Y471137D01*
X228586Y470555D01*
X230497Y470018D01*
X232420Y469529D01*
X234354Y469086D01*
X236298Y468691D01*
X238252Y468343D01*
X240214Y468042D01*
X242182Y467790D01*
X244156Y467585D01*
X246134Y467429D01*
X248115Y467320D01*
X250099Y467260D01*
X252083Y467249D01*
X254067Y467285D01*
X256049Y467370D01*
X258029Y467503D01*
X260005Y467684D01*
X261976Y467913D01*
X263941Y468190D01*
X265899Y468515D01*
X267848Y468887D01*
X269788Y469306D01*
X271716Y469773D01*
X273633Y470286D01*
X275537Y470846D01*
X277426Y471452D01*
X279300Y472104D01*
X281158Y472801D01*
X282999Y473544D01*
X284820Y474330D01*
X286622Y475161D01*
X288404Y476036D01*
X290163Y476953D01*
X291900Y477913D01*
X293612Y478916D01*
X295300Y479959D01*
X296962Y481043D01*
X298597Y482168D01*
X300205Y483331D01*
X301783Y484534D01*
X303332Y485774D01*
X304850Y487052D01*
X306336Y488367D01*
X307791Y489717D01*
X309211Y491102D01*
X310598Y492521D01*
X311950Y493974D01*
X313266Y495459D01*
X314546Y496976D01*
X315788Y498523D01*
X316992Y500101D01*
X318158Y501707D01*
X319284Y503340D01*
X320370Y505001D01*
X321415Y506688D01*
X322419Y508400D01*
X323381Y510135D01*
X324300Y511894D01*
X325177Y513674D01*
X326009Y515475D01*
X326798Y517296D01*
X327542Y519135D01*
X328242Y520993D01*
X328896Y522866D01*
X329504Y524755D01*
X330066Y526658D01*
X330581Y528574D01*
X331050Y530502D01*
X331471Y532441D01*
X331846Y534390D01*
X332173Y536347D01*
X332452Y538312D01*
X332683Y540283D01*
X332866Y542259D01*
X333001Y544238D01*
X333088Y546221D01*
X333127Y548205D01*
X333117Y550189D01*
X333059Y552173D01*
X332953Y554154D01*
X332799Y556133D01*
X332596Y558107D01*
X332346Y560075D01*
X332048Y562037D01*
X331702Y563991D01*
X331308Y565936D01*
X330868Y567871D01*
X330380Y569794D01*
X329846Y571705D01*
X329266Y573603D01*
X328639Y575486D01*
X327967Y577353D01*
X327250Y579203D01*
X326488Y581035D01*
X325681Y582848D01*
X324831Y584641D01*
X323937Y586413D01*
X323001Y588162D01*
X322022Y589888D01*
X321001Y591590D01*
X319940Y593267D01*
D44*
X330200Y381000D02*
X330200Y266700D01*
X355600Y241300D01*
X330200Y381000D02*
X328158Y382039D01*
X355600Y241300D02*
X355976Y240602D01*
D45*
X283786Y226063D02*
X270736Y205988D01*
X331316Y179703D01*
X338286Y202770D01*
X338285Y202769D02*
X338672Y203994D01*
X339088Y205209D01*
X339534Y206413D01*
X340009Y207606D01*
X340513Y208787D01*
X341045Y209956D01*
X341606Y211111D01*
X342195Y212252D01*
X342812Y213379D01*
X343456Y214490D01*
X344127Y215585D01*
X344824Y216663D01*
X345548Y217724D01*
X346297Y218767D01*
X347072Y219791D01*
X347871Y220796D01*
X348695Y221781D01*
X349542Y222746D01*
X350413Y223690D01*
X351306Y224613D01*
X352222Y225513D01*
X353159Y226391D01*
X354118Y227245D01*
X355097Y228076D01*
X356096Y228883D01*
X357115Y229665D01*
X358152Y230422D01*
X359207Y231154D01*
X360280Y231859D01*
X361370Y232538D01*
X362476Y233191D01*
X363598Y233816D01*
X364735Y234413D01*
X365886Y234983D01*
X367050Y235524D01*
X368228Y236037D01*
X369417Y236521D01*
X370618Y236976D01*
X371830Y237401D01*
X373052Y237796D01*
X374283Y238162D01*
X375522Y238497D01*
X376770Y238803D01*
X378024Y239077D01*
X379285Y239321D01*
X380551Y239534D01*
X381822Y239716D01*
X383098Y239867D01*
X384376Y239987D01*
X385657Y240075D01*
X386940Y240132D01*
X388224Y240158D01*
X389508Y240153D01*
X390792Y240116D01*
X392074Y240048D01*
X393355Y239949D01*
X394632Y239818D01*
X395906Y239656D01*
X397176Y239463D01*
X398440Y239240D01*
X399699Y238985D01*
X400951Y238700D01*
X402196Y238384D01*
X403433Y238038D01*
X404660Y237662D01*
X405879Y237256D01*
X407087Y236821D01*
X408284Y236356D01*
X409469Y235862D01*
X410642Y235339D01*
X411802Y234788D01*
X412948Y234209D01*
X414080Y233601D01*
X415196Y232967D01*
X416297Y232305D01*
X417381Y231617D01*
X418448Y230902D01*
X419497Y230162D01*
X420528Y229396D01*
X421540Y228605D01*
X422532Y227790D01*
X423504Y226951D01*
X424455Y226088D01*
X425385Y225202D01*
X426293Y224294D01*
X427179Y223364D01*
X428041Y222413D01*
X428881Y221441D01*
X429696Y220449D01*
X430486Y219437D01*
X431252Y218406D01*
X431993Y217357D01*
X432707Y216290D01*
X433395Y215206D01*
X434057Y214105D01*
X434692Y212989D01*
X435299Y211857D01*
X435878Y210711D01*
X436429Y209551D01*
X436952Y208378D01*
X437446Y207193D01*
X437911Y205996D01*
X438346Y204787D01*
X438752Y203569D01*
X439128Y202341D01*
X439474Y201104D01*
X439789Y199860D01*
X440075Y198608D01*
X440329Y197349D01*
X440553Y196084D01*
X440746Y194815D01*
X573937Y283786D02*
X591031Y272120D01*
X591031Y274802D01*
X593265Y277035D01*
X594960Y278771D01*
X596613Y280545D01*
X598224Y282359D01*
X599792Y284210D01*
X601316Y286097D01*
X602794Y288020D01*
X604227Y289977D01*
X605614Y291968D01*
X606953Y293991D01*
X608243Y296044D01*
X609485Y298128D01*
X610678Y300240D01*
X611820Y302380D01*
X612911Y304547D01*
X613951Y306738D01*
X614939Y308953D01*
X615875Y311191D01*
X616757Y313451D01*
X617586Y315731D01*
X618361Y318029D01*
X619081Y320346D01*
X619746Y322678D01*
X620356Y325026D01*
X620911Y327388D01*
X621409Y329762D01*
X616942Y331102D01*
X616941Y331102D02*
X608372Y333763D01*
X599855Y336587D01*
X591393Y339573D01*
X582990Y342720D01*
X582989Y342720D02*
X581840Y343179D01*
X580702Y343666D01*
X579577Y344181D01*
X578464Y344722D01*
X577365Y345291D01*
X576280Y345887D01*
X575210Y346508D01*
X574155Y347156D01*
X573116Y347829D01*
X572094Y348527D01*
X571090Y349250D01*
X570103Y349997D01*
X569135Y350768D01*
X568186Y351562D01*
X567256Y352380D01*
X566347Y353219D01*
X565459Y354081D01*
X564591Y354964D01*
X563746Y355867D01*
X562923Y356791D01*
X562122Y357735D01*
X561345Y358698D01*
X560591Y359680D01*
X559862Y360680D01*
X559157Y361697D01*
X558477Y362732D01*
X557823Y363782D01*
X557194Y364848D01*
X556592Y365929D01*
X556016Y367025D01*
X555467Y368134D01*
X554945Y369256D01*
X554450Y370391D01*
X553984Y371537D01*
X553545Y372694D01*
X553135Y373862D01*
X552754Y375039D01*
X552401Y376226D01*
X552077Y377420D01*
X551782Y378622D01*
X551517Y379831D01*
X551281Y381046D01*
X551075Y382266D01*
X550899Y383491D01*
X550753Y384720D01*
X550636Y385953D01*
X550550Y387187D01*
X550494Y388424D01*
X550468Y389661D01*
X550472Y390899D01*
X550506Y392136D01*
X550571Y393372D01*
X550665Y394606D01*
X550790Y395837D01*
X550944Y397065D01*
X551129Y398289D01*
X551343Y399508D01*
X551587Y400721D01*
X551860Y401928D01*
X552163Y403128D01*
X552495Y404321D01*
X552855Y405504D01*
X553245Y406679D01*
X553663Y407844D01*
X554109Y408999D01*
X554583Y410142D01*
X555085Y411273D01*
X555615Y412392D01*
X556171Y413497D01*
X556754Y414589D01*
X557364Y415666D01*
X558000Y416728D01*
X558661Y417774D01*
X559348Y418803D01*
X560060Y419816D01*
X560796Y420811D01*
X561556Y421788D01*
X562339Y422745D01*
X563146Y423684D01*
X563976Y424603D01*
X564827Y425501D01*
X565700Y426378D01*
X566595Y427233D01*
X567509Y428067D01*
X568444Y428878D01*
X569399Y429666D01*
X570372Y430430D01*
X571364Y431171D01*
X572373Y431887D01*
X573400Y432578D01*
X574443Y433244D01*
X575502Y433885D01*
X576576Y434499D01*
X577665Y435088D01*
X578768Y435649D01*
X579884Y436183D01*
X581013Y436690D01*
X582154Y437170D01*
X583307Y437621D01*
X584470Y438044D01*
X585643Y438439D01*
X586825Y438805D01*
X588016Y439142D01*
X589214Y439450D01*
X590420Y439729D01*
X591633Y439978D01*
X592851Y440198D01*
X594074Y440388D01*
X595301Y440548D01*
X596532Y440678D01*
X597765Y440778D01*
X599001Y440848D01*
X600238Y440888D01*
X601475Y440898D01*
X602713Y440877D01*
X603949Y440826D01*
X605184Y440746D01*
X605185Y440746D02*
X624968Y443932D01*
X624223Y446911D01*
X624224Y446912D02*
X620274Y462115D01*
X616040Y477242D01*
X611525Y492287D01*
X606729Y507245D01*
X606729Y507244D02*
X582534Y493092D01*
X581413Y492455D01*
X580276Y491845D01*
X579126Y491263D01*
X577961Y490709D01*
X576783Y490183D01*
X575593Y489686D01*
X574391Y489219D01*
X573178Y488781D01*
X571954Y488373D01*
X570721Y487994D01*
X569479Y487646D01*
X568229Y487328D01*
X566972Y487040D01*
X565708Y486784D01*
X564438Y486558D01*
X563163Y486363D01*
X561884Y486199D01*
X560601Y486067D01*
X559315Y485966D01*
X558027Y485896D01*
X556738Y485857D01*
X555448Y485850D01*
X554159Y485875D01*
X552870Y485930D01*
X551584Y486017D01*
X550299Y486136D01*
X549018Y486286D01*
X547741Y486467D01*
X546469Y486679D01*
X545202Y486921D01*
X543942Y487195D01*
X542689Y487499D01*
X541443Y487834D01*
X540206Y488199D01*
X538978Y488594D01*
X537760Y489019D01*
X536553Y489473D01*
X535358Y489957D01*
X534174Y490469D01*
X533003Y491010D01*
X531846Y491580D01*
X530703Y492178D01*
X529575Y492803D01*
X528463Y493456D01*
X527367Y494135D01*
X526287Y494841D01*
X525225Y495573D01*
X524182Y496331D01*
X523157Y497114D01*
X522151Y497921D01*
X521166Y498753D01*
X520201Y499609D01*
X519257Y500488D01*
X518334Y501390D01*
X517434Y502314D01*
X516557Y503259D01*
X515703Y504226D01*
X514873Y505213D01*
X514067Y506220D01*
X513286Y507246D01*
X512531Y508291D01*
X511801Y509355D01*
X511097Y510435D01*
X510419Y511533D01*
X509769Y512646D01*
X509145Y513776D01*
X508550Y514920D01*
X507982Y516078D01*
X507443Y517250D01*
X506933Y518434D01*
X506452Y519631D01*
X505999Y520839D01*
X505577Y522057D01*
X505184Y523286D01*
X504822Y524523D01*
X504489Y525770D01*
X504187Y527023D01*
X503916Y528284D01*
X503675Y529551D01*
X503466Y530824D01*
X503287Y532101D01*
X503140Y533383D01*
X503024Y534667D01*
X502939Y535954D01*
X502886Y537243D01*
X502864Y538532D01*
X502873Y539822D01*
X502914Y541111D01*
X502986Y542399D01*
X503090Y543685D01*
X503225Y544967D01*
X503391Y546246D01*
X503588Y547521D01*
X503816Y548790D01*
X504075Y550054D01*
X504365Y551311D01*
X504685Y552560D01*
X505036Y553801D01*
X505416Y555033D01*
X505827Y556256D01*
X506267Y557468D01*
X506737Y558669D01*
X507236Y559859D01*
X507764Y561036D01*
X508320Y562199D01*
X508904Y563349D01*
X509516Y564484D01*
X510156Y565604D01*
X510823Y566708D01*
X511516Y567796D01*
X512236Y568866D01*
X512982Y569919D01*
X513753Y570952D01*
X514549Y571967D01*
X515369Y572962D01*
X516213Y573937D01*
X440746Y194815D02*
X444502Y175605D01*
X449863Y176498D01*
X449862Y176499D02*
X454770Y177379D01*
X459655Y178379D01*
X464514Y179499D01*
X469344Y180737D01*
X474142Y182094D01*
X478905Y183568D01*
X483631Y185158D01*
X488316Y186864D01*
X492958Y188684D01*
X497555Y190617D01*
X502102Y192662D01*
X506598Y194819D01*
X506598Y194818D02*
X492302Y220735D01*
X491700Y221859D01*
X491125Y222997D01*
X490579Y224149D01*
X490061Y225314D01*
X489571Y226492D01*
X489110Y227681D01*
X488679Y228881D01*
X488276Y230091D01*
X487904Y231311D01*
X487561Y232539D01*
X487249Y233775D01*
X486967Y235019D01*
X486715Y236269D01*
X486494Y237525D01*
X486304Y238786D01*
X486145Y240051D01*
X486016Y241320D01*
X485919Y242591D01*
X485852Y243865D01*
X485817Y245139D01*
X485813Y246414D01*
X485840Y247689D01*
X485899Y248963D01*
X485988Y250235D01*
X486108Y251505D01*
X486260Y252771D01*
X486442Y254033D01*
X486655Y255290D01*
X486899Y256542D01*
X487173Y257787D01*
X487478Y259026D01*
X487812Y260256D01*
X488177Y261478D01*
X488572Y262691D01*
X488995Y263893D01*
X489449Y265085D01*
X489931Y266266D01*
X490442Y267434D01*
X490981Y268590D01*
X491548Y269732D01*
X492144Y270859D01*
X492766Y271972D01*
X493416Y273070D01*
X494092Y274151D01*
X494794Y275215D01*
X495522Y276262D01*
X496276Y277291D01*
X497054Y278301D01*
X497857Y279292D01*
X498684Y280263D01*
X499534Y281213D01*
X500407Y282142D01*
X501303Y283050D01*
X502220Y283935D01*
X503159Y284798D01*
X504119Y285638D01*
X505099Y286454D01*
X506099Y287246D01*
X507117Y288013D01*
X508154Y288755D01*
X509209Y289471D01*
X510281Y290162D01*
X511370Y290826D01*
X512475Y291463D01*
X513594Y292073D01*
X514729Y292655D01*
X515877Y293210D01*
X517038Y293736D01*
X518212Y294234D01*
X519398Y294703D01*
X520595Y295143D01*
X521802Y295554D01*
X523019Y295935D01*
X524245Y296286D01*
X525479Y296607D01*
X526721Y296898D01*
X527969Y297158D01*
X529224Y297388D01*
X530483Y297587D01*
X531747Y297755D01*
X533015Y297892D01*
X534286Y297999D01*
X535559Y298074D01*
X536833Y298118D01*
X538108Y298131D01*
X539383Y298113D01*
X540658Y298063D01*
X541930Y297983D01*
X543201Y297871D01*
X544468Y297729D01*
X545731Y297555D01*
X546990Y297351D01*
X548243Y297116D01*
X549490Y296850D01*
X550731Y296554D01*
X551964Y296228D01*
X553188Y295872D01*
X554403Y295486D01*
X555609Y295071D01*
X556804Y294626D01*
X557988Y294152D01*
X559160Y293649D01*
X560319Y293118D01*
X561465Y292558D01*
X562597Y291971D01*
X563714Y291356D01*
X564816Y290715D01*
X565902Y290046D01*
X566971Y289351D01*
X568023Y288630D01*
X569057Y287884D01*
X570073Y287113D01*
X571069Y286317D01*
X572045Y285497D01*
X573002Y284653D01*
X573937Y283787D01*
X516214Y573937D02*
X527993Y591680D01*
X522097Y595435D01*
X516477Y598928D01*
X510781Y602296D01*
X505012Y605538D01*
X499173Y608653D01*
X493267Y611638D01*
X487297Y614492D01*
X481265Y617214D01*
X475175Y619803D01*
X469030Y622256D01*
X469030Y622257D02*
X462061Y594362D01*
X462062Y594362D02*
X461737Y593127D01*
X461382Y591901D01*
X460998Y590683D01*
X460584Y589476D01*
X460140Y588278D01*
X459667Y587093D01*
X459166Y585919D01*
X458636Y584757D01*
X458077Y583609D01*
X457491Y582475D01*
X456877Y581356D01*
X456236Y580251D01*
X455568Y579163D01*
X454874Y578092D01*
X454153Y577038D01*
X453407Y576002D01*
X452636Y574984D01*
X451841Y573986D01*
X451021Y573007D01*
X450177Y572049D01*
X449311Y571111D01*
X448421Y570195D01*
X447510Y569301D01*
X446577Y568430D01*
X445622Y567582D01*
X444648Y566757D01*
X443653Y565956D01*
X442640Y565180D01*
X441607Y564429D01*
X440557Y563704D01*
X439489Y563004D01*
X438404Y562331D01*
X437303Y561684D01*
X436187Y561065D01*
X435056Y560473D01*
X433910Y559909D01*
X432752Y559373D01*
X431580Y558865D01*
X430397Y558387D01*
X429202Y557937D01*
X427996Y557517D01*
X426781Y557126D01*
X425556Y556766D01*
X424323Y556435D01*
X423082Y556134D01*
X421834Y555864D01*
X420580Y555625D01*
X419321Y555416D01*
X418056Y555239D01*
X416788Y555092D01*
X415517Y554976D01*
X414243Y554891D01*
X412967Y554838D01*
X411691Y554816D01*
X410414Y554825D01*
X409138Y554865D01*
X407863Y554936D01*
X406591Y555039D01*
X405321Y555173D01*
X404055Y555337D01*
X402793Y555533D01*
X401537Y555759D01*
X400286Y556016D01*
X399042Y556304D01*
X397806Y556622D01*
X396578Y556970D01*
X395358Y557348D01*
X394148Y557755D01*
X392949Y558192D01*
X391760Y558659D01*
X390583Y559154D01*
X389419Y559678D01*
X388268Y560230D01*
X387131Y560810D01*
X386008Y561418D01*
X384901Y562053D01*
X383809Y562716D01*
X382734Y563404D01*
X381676Y564119D01*
X380636Y564859D01*
X379614Y565624D01*
X378611Y566415D01*
X377628Y567229D01*
X376665Y568068D01*
X375723Y568929D01*
X374803Y569814D01*
X373904Y570720D01*
X373027Y571649D01*
X372174Y572598D01*
X371344Y573568D01*
X370538Y574559D01*
X369756Y575568D01*
X369000Y576596D01*
X368269Y577643D01*
X367563Y578707D01*
X366884Y579788D01*
X366232Y580886D01*
X365606Y581999D01*
X365008Y583126D01*
X364438Y584269D01*
X363896Y585425D01*
X363382Y586593D01*
X362897Y587774D01*
X362441Y588967D01*
X362014Y590170D01*
X361617Y591383D01*
X361250Y592606D01*
X360912Y593837D01*
X360605Y595077D01*
X360328Y596323D01*
X360082Y597576D01*
X359867Y598834D01*
X359682Y600097D01*
X359528Y601365D01*
X359406Y602636D01*
X359314Y603909D01*
X359254Y605184D01*
X359254Y605185D02*
X355095Y626011D01*
X349288Y625117D01*
X344790Y624369D01*
X340310Y623515D01*
X335852Y622555D01*
X331418Y621488D01*
X327011Y620316D01*
X322633Y619040D01*
X318286Y617659D01*
X313974Y616176D01*
X309698Y614590D01*
X305462Y612903D01*
X301266Y611116D01*
X297115Y609229D01*
X293009Y607243D01*
X293009Y607244D02*
X305962Y582221D01*
X305963Y582222D02*
X306545Y581063D01*
X307099Y579890D01*
X307623Y578703D01*
X308119Y577505D01*
X308585Y576294D01*
X309022Y575072D01*
X309428Y573841D01*
X309804Y572599D01*
X310150Y571349D01*
X310465Y570091D01*
X310749Y568825D01*
X311002Y567553D01*
X311223Y566275D01*
X311414Y564991D01*
X311573Y563704D01*
X311700Y562413D01*
X311796Y561120D01*
X311860Y559824D01*
X311893Y558527D01*
X311893Y557230D01*
X311862Y555933D01*
X311800Y554638D01*
X311705Y553344D01*
X311579Y552053D01*
X311421Y550765D01*
X311232Y549482D01*
X311012Y548204D01*
X310760Y546931D01*
X310478Y545665D01*
X310164Y544407D01*
X309820Y543156D01*
X309445Y541914D01*
X309040Y540682D01*
X308605Y539460D01*
X308140Y538249D01*
X307646Y537049D01*
X307122Y535863D01*
X306570Y534689D01*
X305989Y533529D01*
X305380Y532384D01*
X304743Y531254D01*
X304079Y530140D01*
X303387Y529042D01*
X302669Y527962D01*
X301925Y526900D01*
X301155Y525856D01*
X300359Y524831D01*
X299539Y523826D01*
X298694Y522842D01*
X297826Y521878D01*
X296934Y520936D01*
X296020Y520016D01*
X295083Y519119D01*
X294124Y518245D01*
X293145Y517395D01*
X292145Y516568D01*
X291125Y515767D01*
X290086Y514991D01*
X289028Y514240D01*
X287952Y513516D01*
X286858Y512818D01*
X285748Y512147D01*
X284622Y511503D01*
X283480Y510887D01*
X282324Y510299D01*
X281154Y509740D01*
X279970Y509210D01*
X278774Y508708D01*
X277565Y508236D01*
X276346Y507794D01*
X275116Y507382D01*
X273876Y507000D01*
X272628Y506648D01*
X271371Y506327D01*
X270107Y506037D01*
X268836Y505778D01*
X267559Y505550D01*
X266276Y505353D01*
X264990Y505188D01*
X263700Y505054D01*
X262406Y504952D01*
X261111Y504882D01*
X259815Y504843D01*
X258518Y504836D01*
X257221Y504861D01*
X255925Y504918D01*
X254630Y505006D01*
X253339Y505126D01*
X252051Y505277D01*
X250766Y505460D01*
X249487Y505674D01*
X248213Y505920D01*
X246946Y506196D01*
X245686Y506504D01*
X244434Y506842D01*
X243190Y507211D01*
X241956Y507610D01*
X240732Y508039D01*
X239518Y508498D01*
X238317Y508986D01*
X237127Y509504D01*
X235951Y510051D01*
X234788Y510626D01*
X233640Y511230D01*
X232507Y511861D01*
X231390Y512520D01*
X230289Y513207D01*
X229205Y513919D01*
X228139Y514659D01*
X227092Y515424D01*
X226063Y516214D01*
X194815Y359254D02*
X145325Y349039D01*
X145846Y338686D01*
X145845Y338686D02*
X148195Y330800D01*
X150725Y322969D01*
X153433Y315199D01*
X156318Y307492D01*
X159378Y299854D01*
X162612Y292287D01*
X166018Y284796D01*
X169595Y277386D01*
X169595Y277385D02*
X219998Y303900D01*
X221160Y304424D01*
X222334Y304919D01*
X223520Y305386D01*
X224717Y305823D01*
X225925Y306231D01*
X227142Y306609D01*
X228368Y306957D01*
X229602Y307274D01*
X230844Y307562D01*
X232092Y307819D01*
X233346Y308045D01*
X234606Y308240D01*
X235870Y308405D01*
X237137Y308538D01*
X238407Y308640D01*
X239680Y308711D01*
X240954Y308751D01*
X242228Y308759D01*
X243503Y308736D01*
X244776Y308682D01*
X246048Y308597D01*
X247317Y308480D01*
X248583Y308333D01*
X249845Y308154D01*
X251102Y307945D01*
X252353Y307704D01*
X253599Y307433D01*
X254837Y307132D01*
X256068Y306800D01*
X257290Y306438D01*
X258503Y306047D01*
X259705Y305625D01*
X260898Y305175D01*
X262078Y304695D01*
X263247Y304186D01*
X264403Y303649D01*
X265545Y303084D01*
X266673Y302490D01*
X267786Y301870D01*
X268883Y301222D01*
X269965Y300547D01*
X271029Y299846D01*
X272076Y299119D01*
X273105Y298367D01*
X274115Y297590D01*
X275106Y296788D01*
X276076Y295962D01*
X277026Y295112D01*
X277955Y294240D01*
X278863Y293345D01*
X279748Y292428D01*
X280604Y291496D01*
X281437Y290543D01*
X282247Y289570D01*
X283034Y288578D01*
X283795Y287567D01*
X284532Y286538D01*
X285243Y285491D01*
X285929Y284427D01*
X286589Y283347D01*
X287222Y282251D01*
X287828Y281140D01*
X288407Y280014D01*
X288959Y278875D01*
X289482Y277723D01*
X289977Y276558D01*
X290444Y275381D01*
X290882Y274194D01*
X291291Y272996D01*
X291670Y271788D01*
X292020Y270572D01*
X292340Y269347D01*
X292630Y268115D01*
X292891Y266876D01*
X293120Y265632D01*
X293320Y264382D01*
X293489Y263127D01*
X293627Y261869D01*
X293735Y260608D01*
X293812Y259345D01*
X293858Y258080D01*
X293873Y256814D01*
X293857Y255548D01*
X293811Y254283D01*
X293734Y253020D01*
X293626Y251759D01*
X293487Y250501D01*
X293318Y249246D01*
X293118Y247997D01*
X292887Y246752D01*
X292627Y245513D01*
X292336Y244281D01*
X292016Y243057D01*
X291665Y241841D01*
X291286Y240633D01*
X290876Y239435D01*
X290438Y238248D01*
X289971Y237071D01*
X289476Y235907D01*
X288952Y234754D01*
X288400Y233615D01*
X287821Y232490D01*
X287214Y231379D01*
X286581Y230283D01*
X285921Y229203D01*
X285235Y228139D01*
X284523Y227093D01*
X283786Y226064D01*
D44*
X317500Y330200D02*
X317500Y355600D01*
X317500Y330200D02*
X279400Y292100D01*
X317500Y355600D02*
X310197Y364079D01*
X279748Y292428D02*
X279400Y292100D01*
M02*
