G04 EAGLE Gerber RS-274X export*
G75*
%MOMM*%
%FSLAX34Y34*%
%LPD*%
%INBottom Copper*%
%IPPOS*%
%AMOC8*
5,1,8,0,0,1.08239X$1,22.5*%
G01*
%ADD10P,1.429621X8X292.500000*%
%ADD11P,1.429621X8X281.300000*%
%ADD12P,1.429621X8X270.000000*%
%ADD13P,1.429621X8X258.800000*%
%ADD14P,1.429621X8X247.500000*%
%ADD15P,1.429621X8X236.300000*%
%ADD16P,1.429621X8X225.000000*%
%ADD17P,1.429621X8X213.800000*%
%ADD18P,1.429621X8X202.500000*%
%ADD19P,1.429621X8X191.300000*%
%ADD20P,1.429621X8X180.000000*%
%ADD21P,1.429621X8X168.800000*%
%ADD22P,1.429621X8X157.500000*%
%ADD23P,1.429621X8X146.300000*%
%ADD24P,1.429621X8X135.000000*%
%ADD25P,1.429621X8X123.800000*%
%ADD26P,1.429621X8X112.500000*%
%ADD27P,1.429621X8X101.300000*%
%ADD28P,1.429621X8X90.000000*%
%ADD29P,1.429621X8X78.800000*%
%ADD30P,1.429621X8X67.500000*%
%ADD31P,1.429621X8X56.300000*%
%ADD32P,1.429621X8X45.000000*%
%ADD33P,1.429621X8X33.800000*%
%ADD34P,1.429621X8X22.500000*%
%ADD35P,1.429621X8X371.300000*%
%ADD36P,1.429621X8X360.000000*%
%ADD37P,1.429621X8X348.800000*%
%ADD38P,1.429621X8X337.500000*%
%ADD39P,1.429621X8X326.300000*%
%ADD40P,1.429621X8X315.000000*%
%ADD41P,1.429621X8X303.800000*%
%ADD42C,1.320800*%
%ADD43C,1.524000*%
%ADD44C,0.406400*%
%ADD45C,0.254000*%


D10*
X400000Y777700D03*
X400000Y752300D03*
D11*
X473667Y770458D03*
X468733Y745542D03*
D12*
X544560Y748933D03*
X534840Y725467D03*
D13*
X609847Y714066D03*
X595753Y692934D03*
D14*
X667080Y667080D03*
X649120Y649120D03*
D15*
X714054Y609865D03*
X692946Y595735D03*
D16*
X748933Y544560D03*
X725467Y534840D03*
D17*
X770454Y473689D03*
X745546Y468711D03*
D18*
X777700Y400000D03*
X752300Y400000D03*
D19*
X770458Y326333D03*
X745542Y331267D03*
D20*
X748933Y255440D03*
X725467Y265160D03*
D21*
X714066Y190153D03*
X692934Y204247D03*
D22*
X667080Y132920D03*
X649120Y150880D03*
D23*
X609865Y85946D03*
X595735Y107054D03*
D24*
X544560Y51067D03*
X534840Y74533D03*
D25*
X473689Y29546D03*
X468711Y54454D03*
D26*
X400000Y22300D03*
X400000Y47700D03*
D27*
X326333Y29542D03*
X331267Y54458D03*
D28*
X255440Y51067D03*
X265160Y74533D03*
D29*
X190153Y85934D03*
X204247Y107066D03*
D30*
X132920Y132920D03*
X150880Y150880D03*
D31*
X85946Y190135D03*
X107054Y204265D03*
D32*
X51067Y255440D03*
X74533Y265160D03*
D33*
X29546Y326311D03*
X54454Y331289D03*
D34*
X22300Y400000D03*
X47700Y400000D03*
D35*
X29542Y473667D03*
X54458Y468733D03*
D36*
X51067Y544560D03*
X74533Y534840D03*
D37*
X85934Y609847D03*
X107066Y595753D03*
D38*
X132920Y667080D03*
X150880Y649120D03*
D39*
X190135Y714054D03*
X204265Y692946D03*
D40*
X255440Y748933D03*
X265160Y725467D03*
D41*
X326311Y770454D03*
X331289Y745546D03*
D26*
X400000Y609200D03*
X400000Y710800D03*
D27*
X440833Y605167D03*
X460567Y704833D03*
D28*
X480060Y593267D03*
X518940Y687133D03*
D29*
X516214Y573937D03*
X572586Y658463D03*
D30*
X547879Y547879D03*
X619721Y619721D03*
D31*
X573986Y516140D03*
X658414Y572660D03*
D32*
X593267Y480060D03*
X687133Y518940D03*
D33*
X605185Y440746D03*
X704815Y460654D03*
D34*
X609200Y400000D03*
X710800Y400000D03*
D35*
X605167Y359167D03*
X704833Y339433D03*
D36*
X593267Y319940D03*
X687133Y281060D03*
D37*
X573937Y283786D03*
X658463Y227414D03*
D38*
X547879Y252121D03*
X619721Y180279D03*
D39*
X516140Y226014D03*
X572660Y141586D03*
D40*
X480060Y206733D03*
X518940Y112867D03*
D41*
X440746Y194815D03*
X460654Y95185D03*
D10*
X400000Y190800D03*
X400000Y89200D03*
D11*
X359167Y194833D03*
X339433Y95167D03*
D12*
X319940Y206733D03*
X281060Y112867D03*
D13*
X283786Y226063D03*
X227414Y141537D03*
D14*
X252121Y252121D03*
X180279Y180279D03*
D15*
X226014Y283860D03*
X141586Y227340D03*
D16*
X206733Y319940D03*
X112867Y281060D03*
D17*
X194815Y359254D03*
X95185Y339346D03*
D18*
X190800Y400000D03*
X89200Y400000D03*
D19*
X194833Y440833D03*
X95167Y460567D03*
D20*
X206733Y480060D03*
X112867Y518940D03*
D21*
X226063Y516214D03*
X141537Y572586D03*
D22*
X252121Y547879D03*
X180279Y619721D03*
D23*
X283860Y573986D03*
X227340Y658414D03*
D24*
X319940Y593267D03*
X281060Y687133D03*
D25*
X359254Y605185D03*
X339346Y704815D03*
D42*
X449212Y512433D02*
X458551Y503093D01*
X440591Y485133D02*
X431251Y494472D01*
X413291Y476512D02*
X422630Y467172D01*
X404670Y449212D02*
X395330Y458551D01*
X377370Y440591D02*
X386709Y431251D01*
X368749Y413291D02*
X359409Y422630D01*
X341449Y404670D02*
X350788Y395330D01*
X332828Y377370D02*
X323488Y386709D01*
X305528Y368749D02*
X314867Y359409D01*
X296907Y341449D02*
X287567Y350788D01*
X341449Y296907D02*
X350788Y287567D01*
X368749Y305528D02*
X359409Y314867D01*
X377370Y332828D02*
X386709Y323488D01*
X404670Y341449D02*
X395330Y350788D01*
X413291Y368749D02*
X422630Y359409D01*
X440591Y377370D02*
X431251Y386709D01*
X449212Y404670D02*
X458551Y395330D01*
X476512Y413291D02*
X467172Y422630D01*
X485133Y440591D02*
X494472Y431251D01*
X512433Y449212D02*
X503093Y458551D01*
D43*
X301668Y412893D02*
X290892Y423670D01*
X308853Y441630D02*
X319629Y430854D01*
X337589Y448814D02*
X326813Y459591D01*
D44*
X339346Y704815D02*
X331289Y745546D01*
X141537Y572586D02*
X107066Y595753D01*
X95185Y339346D02*
X54454Y331289D01*
X227414Y141537D02*
X204247Y107066D01*
X460654Y95185D02*
X468711Y54454D01*
X658463Y227414D02*
X692934Y204247D01*
X704815Y460654D02*
X745546Y468711D01*
X572586Y658463D02*
X595753Y692934D01*
X281060Y687133D02*
X265160Y725467D01*
X112867Y518940D02*
X74533Y534840D01*
X112867Y281060D02*
X74533Y265160D01*
X281060Y112867D02*
X265160Y74533D01*
X518940Y112867D02*
X534840Y74533D01*
X687133Y281060D02*
X725467Y265160D01*
X687133Y518940D02*
X725467Y534840D01*
X518940Y687133D02*
X534840Y725467D01*
X227340Y658414D02*
X204265Y692946D01*
X95167Y460567D02*
X54458Y468733D01*
X141586Y227340D02*
X107054Y204265D01*
X339433Y95167D02*
X331267Y54458D01*
X572660Y141586D02*
X595735Y107054D01*
X704833Y339433D02*
X745542Y331267D01*
X658414Y572660D02*
X692946Y595735D01*
X460567Y704833D02*
X468733Y745542D01*
X180279Y619721D02*
X150880Y649120D01*
X89200Y400000D02*
X47700Y400000D01*
X180279Y180279D02*
X150880Y150880D01*
X400000Y89200D02*
X400000Y47700D01*
X619721Y180279D02*
X649120Y150880D01*
X710800Y400000D02*
X752300Y400000D01*
X619721Y619721D02*
X649120Y649120D01*
X400000Y710800D02*
X400000Y752300D01*
X667080Y667080D02*
X714054Y609865D01*
X748933Y544560D01*
X770454Y473689D01*
X537867Y363488D02*
X471842Y417961D01*
X537867Y363488D02*
X558712Y358274D01*
X560945Y363860D01*
X560945Y363861D02*
X561716Y365855D01*
X562439Y367868D01*
X563114Y369897D01*
X563741Y371941D01*
X564319Y374000D01*
X564849Y376072D01*
X565330Y378155D01*
X565761Y380250D01*
X566142Y382354D01*
X566474Y384466D01*
X566756Y386586D01*
X566988Y388712D01*
X567169Y390843D01*
X567300Y392977D01*
X567380Y395114D01*
X567410Y397252D01*
X567389Y399390D01*
X567318Y401527D01*
X567196Y403662D01*
X567024Y405794D01*
X566801Y407921D01*
X566529Y410042D01*
X566528Y410041D02*
X777208Y437601D01*
X770454Y473689D01*
D45*
X520700Y228600D02*
X516140Y226014D01*
D44*
X374765Y377109D02*
X346118Y400000D01*
X374765Y377109D02*
X416048Y383010D01*
X540969Y272506D01*
X516140Y226014D01*
X473667Y770458D02*
X400000Y777700D01*
X473667Y770458D02*
X544560Y748933D01*
X609847Y714066D01*
X489803Y435921D02*
X542760Y389710D01*
X552797Y389710D01*
X553059Y395432D01*
X553181Y399063D01*
X553217Y402697D01*
X553165Y406330D01*
X553026Y409961D01*
X552800Y413587D01*
X552487Y417207D01*
X552087Y420819D01*
X551601Y424419D01*
X551028Y428008D01*
X550369Y431581D01*
X549625Y435137D01*
X548796Y438675D01*
X547882Y442192D01*
X546884Y445686D01*
X545802Y449154D01*
X544637Y452596D01*
X543391Y456009D01*
X542062Y459391D01*
X540653Y462740D01*
X539164Y466055D01*
X537595Y469332D01*
X535949Y472571D01*
X534225Y475770D01*
X532425Y478926D01*
X530550Y482039D01*
X528600Y485105D01*
X526578Y488124D01*
X524483Y491093D01*
X522318Y494011D01*
X520084Y496876D01*
X517781Y499687D01*
X515412Y502442D01*
X512977Y505139D01*
X510479Y507777D01*
X507917Y510354D01*
X505295Y512869D01*
X502613Y515321D01*
X637724Y686064D01*
X609847Y714066D01*
X777700Y400000D02*
X770458Y326333D01*
X748933Y255440D01*
X729593Y219226D02*
X714066Y190153D01*
X729593Y219226D02*
X748933Y255440D01*
X529306Y337418D02*
X453882Y400000D01*
X529306Y337418D02*
X729593Y219226D01*
X667080Y132920D02*
X609865Y85946D01*
X544560Y51067D01*
X473689Y29546D01*
X515363Y315420D02*
X435921Y382039D01*
X515363Y315420D02*
X685363Y153955D01*
X667080Y132920D01*
X400000Y22300D02*
X358785Y26352D01*
X326333Y29542D01*
X255440Y51067D01*
X190153Y85934D01*
X417961Y364079D02*
X498738Y295035D01*
X527055Y269496D01*
X519869Y262092D01*
X516272Y259235D01*
X512607Y256466D01*
X508876Y253786D01*
X505082Y251197D01*
X501225Y248702D01*
X497310Y246300D01*
X493337Y243994D01*
X489309Y241785D01*
X485230Y239674D01*
X481100Y237662D01*
X476923Y235751D01*
X472701Y233942D01*
X468436Y232236D01*
X464131Y230633D01*
X459788Y229136D01*
X455411Y227744D01*
X451001Y226458D01*
X446561Y225279D01*
X442094Y224209D01*
X437603Y223247D01*
X433089Y222394D01*
X428556Y221650D01*
X424006Y221017D01*
X419443Y220494D01*
X414868Y220082D01*
X410284Y219781D01*
X405695Y219590D01*
X401102Y219511D01*
X396508Y219544D01*
X391917Y219687D01*
X387331Y219942D01*
X382752Y220308D01*
X378183Y220785D01*
X358785Y26352D01*
X51067Y255440D02*
X29546Y326311D01*
X85946Y190135D02*
X132920Y132920D01*
X85946Y190135D02*
X51067Y255440D01*
X400000Y346118D02*
X500653Y263378D01*
X489071Y254694D01*
X485202Y252551D01*
X481282Y250503D01*
X477313Y248551D01*
X473298Y246696D01*
X469239Y244939D01*
X465138Y243282D01*
X460998Y241725D01*
X456822Y240269D01*
X452611Y238916D01*
X448368Y237665D01*
X444097Y236518D01*
X439798Y235475D01*
X435476Y234538D01*
X431132Y233706D01*
X426769Y232980D01*
X422390Y232360D01*
X417997Y231847D01*
X413592Y231441D01*
X409179Y231143D01*
X404760Y230952D01*
X400338Y230869D01*
X395915Y230894D01*
X391494Y231026D01*
X387078Y231266D01*
X382669Y231613D01*
X378269Y232067D01*
X373882Y232629D01*
X369510Y233297D01*
X365155Y234072D01*
X360821Y234952D01*
X356509Y235937D01*
X352222Y237027D01*
X347964Y238222D01*
X343735Y239519D01*
X339540Y240920D01*
X335380Y242421D01*
X331257Y244024D01*
X327175Y245727D01*
X323136Y247528D01*
X319141Y249428D01*
X315194Y251424D01*
X311297Y253515D01*
X307452Y255701D01*
X303661Y257980D01*
X299927Y260351D01*
X296252Y262811D01*
X292638Y265361D01*
X292637Y265361D02*
X157666Y111577D01*
X132920Y132920D01*
X22300Y400000D02*
X25462Y432166D01*
X25901Y436635D01*
X29542Y473667D01*
X51067Y544560D01*
X85934Y609847D01*
X382039Y328158D02*
X470412Y260950D01*
X456564Y254694D01*
X453244Y253186D01*
X449887Y251759D01*
X446497Y250414D01*
X443075Y249153D01*
X439623Y247976D01*
X436144Y246883D01*
X432639Y245876D01*
X429110Y244954D01*
X425560Y244119D01*
X421990Y243371D01*
X418404Y242710D01*
X414802Y242137D01*
X411187Y241652D01*
X407562Y241255D01*
X403928Y240947D01*
X400287Y240728D01*
X396643Y240598D01*
X392996Y240557D01*
X389349Y240605D01*
X385705Y240742D01*
X382065Y240968D01*
X378431Y241283D01*
X374806Y241686D01*
X371193Y242178D01*
X367592Y242757D01*
X364007Y243425D01*
X360438Y244180D01*
X356890Y245021D01*
X353363Y245949D01*
X349860Y246963D01*
X346382Y248063D01*
X342933Y249246D01*
X339513Y250514D01*
X336125Y251865D01*
X332772Y253298D01*
X329454Y254812D01*
X326174Y256407D01*
X322934Y258082D01*
X319736Y259835D01*
X316582Y261666D01*
X313474Y263573D01*
X310413Y265556D01*
X307401Y267613D01*
X304440Y269742D01*
X301532Y271944D01*
X298679Y274215D01*
X295882Y276556D01*
X293144Y278964D01*
X290464Y281439D01*
X287846Y283978D01*
X285291Y286580D01*
X282800Y289244D01*
X280375Y291968D01*
X278017Y294750D01*
X275728Y297589D01*
X273508Y300483D01*
X271360Y303430D01*
X269285Y306429D01*
X267283Y309478D01*
X265357Y312575D01*
X263506Y315717D01*
X261733Y318904D01*
X260039Y322134D01*
X258423Y325404D01*
X256888Y328712D01*
X255434Y332057D01*
X254063Y335436D01*
X252774Y338848D01*
X251569Y342290D01*
X250448Y345760D01*
X249412Y349257D01*
X248462Y352778D01*
X247598Y356322D01*
X246821Y359885D01*
X246132Y363466D01*
X245530Y367063D01*
X245015Y370674D01*
X244590Y374296D01*
X244252Y377927D01*
X244004Y381566D01*
X243844Y385209D01*
X243774Y388856D01*
X243792Y392503D01*
X243900Y396148D01*
X244096Y399790D01*
X244382Y403426D01*
X244756Y407054D01*
X245218Y410671D01*
X245769Y414276D01*
X246407Y417867D01*
X247133Y421441D01*
X247134Y421441D02*
X25901Y436635D01*
X132920Y667080D02*
X161342Y690415D01*
X190135Y714054D01*
X255440Y748933D01*
X326311Y770454D01*
X360553Y771688D01*
X364079Y310197D02*
X426564Y255644D01*
X415569Y254661D01*
X412005Y254386D01*
X408436Y254199D01*
X404864Y254098D01*
X401290Y254085D01*
X397716Y254160D01*
X394146Y254321D01*
X390580Y254570D01*
X387022Y254905D01*
X383473Y255328D01*
X379936Y255837D01*
X376411Y256432D01*
X372903Y257113D01*
X369412Y257880D01*
X365941Y258732D01*
X362492Y259668D01*
X359066Y260688D01*
X355667Y261792D01*
X352295Y262978D01*
X348954Y264247D01*
X345645Y265596D01*
X342369Y267026D01*
X339129Y268536D01*
X335928Y270124D01*
X332766Y271790D01*
X329645Y273533D01*
X326568Y275351D01*
X323537Y277244D01*
X320552Y279211D01*
X317617Y281249D01*
X314732Y283359D01*
X311899Y285539D01*
X309121Y287787D01*
X306399Y290103D01*
X303733Y292484D01*
X301127Y294930D01*
X298581Y297438D01*
X296098Y300008D01*
X293677Y302638D01*
X291322Y305327D01*
X289033Y308072D01*
X286812Y310872D01*
X284660Y313725D01*
X282578Y316630D01*
X280568Y319586D01*
X278631Y322589D01*
X276767Y325639D01*
X274979Y328733D01*
X273267Y331870D01*
X271631Y335048D01*
X270074Y338266D01*
X268596Y341520D01*
X267198Y344809D01*
X265881Y348131D01*
X264645Y351485D01*
X263492Y354868D01*
X262421Y358278D01*
X261434Y361713D01*
X260532Y365171D01*
X259714Y368650D01*
X258981Y372149D01*
X258334Y375664D01*
X257773Y379193D01*
X257298Y382736D01*
X256910Y386289D01*
X256609Y389850D01*
X256395Y393418D01*
X256269Y396989D01*
X256229Y400563D01*
X256277Y404137D01*
X256412Y407709D01*
X256634Y411276D01*
X256944Y414836D01*
X257340Y418388D01*
X257823Y421930D01*
X258392Y425458D01*
X259047Y428972D01*
X259788Y432468D01*
X260614Y435945D01*
X261525Y439401D01*
X262520Y442834D01*
X263598Y446242D01*
X264760Y449622D01*
X266003Y452973D01*
X267328Y456292D01*
X268734Y459578D01*
X270219Y462829D01*
X271784Y466042D01*
X273426Y469216D01*
X275146Y472350D01*
X276942Y475440D01*
X278812Y478485D01*
X280757Y481484D01*
X282774Y484435D01*
X284862Y487335D01*
X287021Y490184D01*
X289248Y492978D01*
X291544Y495718D01*
X293905Y498401D01*
X296332Y501025D01*
X298821Y503589D01*
X301373Y506092D01*
X303985Y508532D01*
X306656Y510907D01*
X309384Y513216D01*
X161342Y690415D01*
D45*
X355600Y444500D02*
X381000Y444500D01*
X355600Y444500D02*
X330200Y419100D01*
X304800Y419100D01*
X382039Y435921D02*
X381000Y444500D01*
X304800Y419100D02*
X296280Y418281D01*
X431800Y457200D02*
X508000Y457200D01*
X431800Y457200D02*
X406400Y431800D01*
X381000Y431800D01*
X507763Y453882D02*
X508000Y457200D01*
X382039Y435921D02*
X381000Y431800D01*
M02*
