G04 EAGLE Gerber RS-274X export*
G75*
%MOMM*%
%FSLAX34Y34*%
%LPD*%
%IN*%
%IPPOS*%
%AMOC8*
5,1,8,0,0,1.08239X$1,22.5*%
G01*
%ADD10C,0.254000*%


D10*
X800000Y395091D02*
X800000Y404909D01*
X799759Y414724D01*
X799277Y424530D01*
X798555Y434322D01*
X797593Y444092D01*
X796391Y453836D01*
X794950Y463548D01*
X793272Y473221D01*
X791356Y482851D01*
X789205Y492430D01*
X786820Y501954D01*
X784201Y511416D01*
X781351Y520811D01*
X778271Y530134D01*
X774964Y539378D01*
X771430Y548538D01*
X767673Y557609D01*
X763695Y566584D01*
X759497Y575460D01*
X755083Y584229D01*
X750454Y592888D01*
X745615Y601431D01*
X740568Y609852D01*
X735315Y618146D01*
X729861Y626310D01*
X724207Y634337D01*
X718359Y642223D01*
X712318Y649963D01*
X706090Y657552D01*
X699677Y664986D01*
X693084Y672261D01*
X686314Y679372D01*
X679372Y686314D01*
X672261Y693084D01*
X664986Y699677D01*
X657552Y706090D01*
X649963Y712318D01*
X642223Y718359D01*
X634337Y724207D01*
X626310Y729861D01*
X618146Y735315D01*
X609852Y740568D01*
X601431Y745615D01*
X592888Y750454D01*
X584229Y755083D01*
X575460Y759497D01*
X566584Y763695D01*
X557609Y767673D01*
X548538Y771430D01*
X539378Y774964D01*
X530134Y778271D01*
X520811Y781351D01*
X511416Y784201D01*
X501954Y786820D01*
X492430Y789205D01*
X482851Y791356D01*
X473221Y793272D01*
X463548Y794950D01*
X453836Y796391D01*
X444092Y797593D01*
X434322Y798555D01*
X424530Y799277D01*
X414724Y799759D01*
X404909Y800000D01*
X395091Y800000D01*
X385276Y799759D01*
X375470Y799277D01*
X365679Y798555D01*
X355908Y797593D01*
X346164Y796391D01*
X336452Y794950D01*
X326779Y793272D01*
X317149Y791356D01*
X307570Y789205D01*
X298046Y786820D01*
X288584Y784201D01*
X279189Y781351D01*
X269866Y778271D01*
X260622Y774964D01*
X251462Y771430D01*
X242391Y767673D01*
X233416Y763695D01*
X224540Y759497D01*
X215771Y755083D01*
X207112Y750454D01*
X198569Y745615D01*
X190148Y740568D01*
X181854Y735315D01*
X173690Y729861D01*
X165663Y724207D01*
X157777Y718359D01*
X150037Y712318D01*
X142448Y706090D01*
X135014Y699677D01*
X127739Y693084D01*
X120628Y686314D01*
X113686Y679372D01*
X106916Y672261D01*
X100323Y664986D01*
X93910Y657552D01*
X87682Y649963D01*
X81641Y642223D01*
X75793Y634337D01*
X70139Y626310D01*
X64685Y618146D01*
X59432Y609852D01*
X54385Y601431D01*
X49546Y592888D01*
X44917Y584229D01*
X40503Y575460D01*
X36305Y566584D01*
X32327Y557609D01*
X28570Y548538D01*
X25036Y539378D01*
X21729Y530134D01*
X18649Y520811D01*
X15799Y511416D01*
X13180Y501954D01*
X10795Y492430D01*
X8644Y482851D01*
X6728Y473221D01*
X5050Y463548D01*
X3609Y453836D01*
X2407Y444092D01*
X1445Y434322D01*
X723Y424530D01*
X241Y414724D01*
X0Y404909D01*
X0Y395091D01*
X241Y385276D01*
X723Y375470D01*
X1445Y365679D01*
X2407Y355908D01*
X3609Y346164D01*
X5050Y336452D01*
X6728Y326779D01*
X8644Y317149D01*
X10795Y307570D01*
X13180Y298046D01*
X15799Y288584D01*
X18649Y279189D01*
X21729Y269866D01*
X25036Y260622D01*
X28570Y251462D01*
X32327Y242391D01*
X36305Y233416D01*
X40503Y224540D01*
X44917Y215771D01*
X49546Y207112D01*
X54385Y198569D01*
X59432Y190148D01*
X64685Y181854D01*
X70139Y173690D01*
X75793Y165663D01*
X81641Y157777D01*
X87682Y150037D01*
X93910Y142448D01*
X100323Y135014D01*
X106916Y127739D01*
X113686Y120628D01*
X120628Y113686D01*
X127739Y106916D01*
X135014Y100323D01*
X142448Y93910D01*
X150037Y87682D01*
X157777Y81641D01*
X165663Y75793D01*
X173690Y70139D01*
X181854Y64685D01*
X190148Y59432D01*
X198569Y54385D01*
X207112Y49546D01*
X215771Y44917D01*
X224540Y40503D01*
X233416Y36305D01*
X242391Y32327D01*
X251462Y28570D01*
X260622Y25036D01*
X269866Y21729D01*
X279189Y18649D01*
X288584Y15799D01*
X298046Y13180D01*
X307570Y10795D01*
X317149Y8644D01*
X326779Y6728D01*
X336452Y5050D01*
X346164Y3609D01*
X355908Y2407D01*
X365679Y1445D01*
X375470Y723D01*
X385276Y241D01*
X395091Y0D01*
X404909Y0D01*
X414724Y241D01*
X424530Y723D01*
X434322Y1445D01*
X444092Y2407D01*
X453836Y3609D01*
X463548Y5050D01*
X473221Y6728D01*
X482851Y8644D01*
X492430Y10795D01*
X501954Y13180D01*
X511416Y15799D01*
X520811Y18649D01*
X530134Y21729D01*
X539378Y25036D01*
X548538Y28570D01*
X557609Y32327D01*
X566584Y36305D01*
X575460Y40503D01*
X584229Y44917D01*
X592888Y49546D01*
X601431Y54385D01*
X609852Y59432D01*
X618146Y64685D01*
X626310Y70139D01*
X634337Y75793D01*
X642223Y81641D01*
X649963Y87682D01*
X657552Y93910D01*
X664986Y100323D01*
X672261Y106916D01*
X679372Y113686D01*
X686314Y120628D01*
X693084Y127739D01*
X699677Y135014D01*
X706090Y142448D01*
X712318Y150037D01*
X718359Y157777D01*
X724207Y165663D01*
X729861Y173690D01*
X735315Y181854D01*
X740568Y190148D01*
X745615Y198569D01*
X750454Y207112D01*
X755083Y215771D01*
X759497Y224540D01*
X763695Y233416D01*
X767673Y242391D01*
X771430Y251462D01*
X774964Y260622D01*
X778271Y269866D01*
X781351Y279189D01*
X784201Y288584D01*
X786820Y298046D01*
X789205Y307570D01*
X791356Y317149D01*
X793272Y326779D01*
X794950Y336452D01*
X796391Y346164D01*
X797593Y355908D01*
X798555Y365679D01*
X799277Y375470D01*
X799759Y385276D01*
X800000Y395091D01*
X382627Y498191D02*
X382554Y497725D01*
X382408Y497276D01*
X382193Y496855D01*
X381916Y496473D01*
X381582Y496139D01*
X381200Y495861D01*
X380779Y495647D01*
X380330Y495501D01*
X379864Y495427D01*
X379391Y495427D01*
X378925Y495501D01*
X378476Y495647D01*
X378055Y495861D01*
X377673Y496139D01*
X377339Y496473D01*
X377062Y496855D01*
X376847Y497276D01*
X376701Y497725D01*
X376627Y498191D01*
X376627Y498663D01*
X376701Y499130D01*
X376847Y499579D01*
X377062Y500000D01*
X377339Y500382D01*
X377673Y500716D01*
X378055Y500993D01*
X378476Y501207D01*
X378925Y501353D01*
X379391Y501427D01*
X379864Y501427D01*
X380330Y501353D01*
X380779Y501207D01*
X381200Y500993D01*
X381582Y500716D01*
X381916Y500382D01*
X382193Y500000D01*
X382408Y499579D01*
X382554Y499130D01*
X382627Y498663D01*
X382627Y498191D01*
X433811Y708574D02*
X433737Y708108D01*
X433591Y707659D01*
X433377Y707238D01*
X433099Y706856D01*
X432765Y706522D01*
X432383Y706245D01*
X431962Y706030D01*
X431513Y705884D01*
X431047Y705811D01*
X430575Y705811D01*
X430108Y705884D01*
X429659Y706030D01*
X429238Y706245D01*
X428856Y706522D01*
X428523Y706856D01*
X428245Y707238D01*
X428031Y707659D01*
X427885Y708108D01*
X427811Y708574D01*
X427811Y709047D01*
X427885Y709513D01*
X428031Y709962D01*
X428245Y710383D01*
X428523Y710765D01*
X428856Y711099D01*
X429238Y711376D01*
X429659Y711591D01*
X430108Y711737D01*
X430575Y711811D01*
X431047Y711811D01*
X431513Y711737D01*
X431962Y711591D01*
X432383Y711376D01*
X432765Y711099D01*
X433099Y710765D01*
X433377Y710383D01*
X433591Y709962D01*
X433737Y709513D01*
X433811Y709047D01*
X433811Y708574D01*
M02*
