G04 EAGLE Gerber RS-274X export*
G75*
%MOMM*%
%FSLAX34Y34*%
%LPD*%
%INSoldermask Top*%
%IPPOS*%
%AMOC8*
5,1,8,0,0,1.08239X$1,22.5*%
G01*
%ADD10C,0.803200*%
%ADD11P,1.649562X8X292.500000*%
%ADD12P,1.649562X8X281.300000*%
%ADD13P,1.649562X8X270.000000*%
%ADD14P,1.649562X8X258.800000*%
%ADD15P,1.649562X8X247.500000*%
%ADD16P,1.649562X8X236.300000*%
%ADD17P,1.649562X8X225.000000*%
%ADD18P,1.649562X8X213.800000*%
%ADD19P,1.649562X8X202.500000*%
%ADD20P,1.649562X8X191.300000*%
%ADD21P,1.649562X8X180.000000*%
%ADD22P,1.649562X8X168.800000*%
%ADD23P,1.649562X8X157.500000*%
%ADD24P,1.649562X8X146.300000*%
%ADD25P,1.649562X8X135.000000*%
%ADD26P,1.649562X8X123.800000*%
%ADD27P,1.649562X8X112.500000*%
%ADD28P,1.649562X8X101.300000*%
%ADD29P,1.649562X8X90.000000*%
%ADD30P,1.649562X8X78.800000*%
%ADD31P,1.649562X8X67.500000*%
%ADD32P,1.649562X8X56.300000*%
%ADD33P,1.649562X8X45.000000*%
%ADD34P,1.649562X8X33.800000*%
%ADD35P,1.649562X8X22.500000*%
%ADD36P,1.649562X8X371.300000*%
%ADD37P,1.649562X8X360.000000*%
%ADD38P,1.649562X8X348.800000*%
%ADD39P,1.649562X8X337.500000*%
%ADD40P,1.649562X8X326.300000*%
%ADD41P,1.649562X8X315.000000*%
%ADD42P,1.649562X8X303.800000*%
%ADD43C,1.524000*%
%ADD44C,1.727200*%


D10*
X379627Y498427D03*
X430811Y708811D03*
D11*
X400000Y777700D03*
X400000Y752300D03*
D12*
X473667Y770458D03*
X468733Y745542D03*
D13*
X544560Y748933D03*
X534840Y725467D03*
D14*
X609847Y714066D03*
X595753Y692934D03*
D15*
X667080Y667080D03*
X649120Y649120D03*
D16*
X714054Y609865D03*
X692946Y595735D03*
D17*
X748933Y544560D03*
X725467Y534840D03*
D18*
X770454Y473689D03*
X745546Y468711D03*
D19*
X777700Y400000D03*
X752300Y400000D03*
D20*
X770458Y326333D03*
X745542Y331267D03*
D21*
X748933Y255440D03*
X725467Y265160D03*
D22*
X714066Y190153D03*
X692934Y204247D03*
D23*
X667080Y132920D03*
X649120Y150880D03*
D24*
X609865Y85946D03*
X595735Y107054D03*
D25*
X544560Y51067D03*
X534840Y74533D03*
D26*
X473689Y29546D03*
X468711Y54454D03*
D27*
X400000Y22300D03*
X400000Y47700D03*
D28*
X326333Y29542D03*
X331267Y54458D03*
D29*
X255440Y51067D03*
X265160Y74533D03*
D30*
X190153Y85934D03*
X204247Y107066D03*
D31*
X132920Y132920D03*
X150880Y150880D03*
D32*
X85946Y190135D03*
X107054Y204265D03*
D33*
X51067Y255440D03*
X74533Y265160D03*
D34*
X29546Y326311D03*
X54454Y331289D03*
D35*
X22300Y400000D03*
X47700Y400000D03*
D36*
X29542Y473667D03*
X54458Y468733D03*
D37*
X51067Y544560D03*
X74533Y534840D03*
D38*
X85934Y609847D03*
X107066Y595753D03*
D39*
X132920Y667080D03*
X150880Y649120D03*
D40*
X190135Y714054D03*
X204265Y692946D03*
D41*
X255440Y748933D03*
X265160Y725467D03*
D42*
X326311Y770454D03*
X331289Y745546D03*
D27*
X400000Y609200D03*
X400000Y710800D03*
D28*
X440833Y605167D03*
X460567Y704833D03*
D29*
X480060Y593267D03*
X518940Y687133D03*
D30*
X516214Y573937D03*
X572586Y658463D03*
D31*
X547879Y547879D03*
X619721Y619721D03*
D32*
X573986Y516140D03*
X658414Y572660D03*
D33*
X593267Y480060D03*
X687133Y518940D03*
D34*
X605185Y440746D03*
X704815Y460654D03*
D35*
X609200Y400000D03*
X710800Y400000D03*
D36*
X605167Y359167D03*
X704833Y339433D03*
D37*
X593267Y319940D03*
X687133Y281060D03*
D38*
X573937Y283786D03*
X658463Y227414D03*
D39*
X547879Y252121D03*
X619721Y180279D03*
D40*
X516140Y226014D03*
X572660Y141586D03*
D41*
X480060Y206733D03*
X518940Y112867D03*
D42*
X440746Y194815D03*
X460654Y95185D03*
D11*
X400000Y190800D03*
X400000Y89200D03*
D12*
X359167Y194833D03*
X339433Y95167D03*
D13*
X319940Y206733D03*
X281060Y112867D03*
D14*
X283786Y226063D03*
X227414Y141537D03*
D15*
X252121Y252121D03*
X180279Y180279D03*
D16*
X226014Y283860D03*
X141586Y227340D03*
D17*
X206733Y319940D03*
X112867Y281060D03*
D18*
X194815Y359254D03*
X95185Y339346D03*
D19*
X190800Y400000D03*
X89200Y400000D03*
D20*
X194833Y440833D03*
X95167Y460567D03*
D21*
X206733Y480060D03*
X112867Y518940D03*
D22*
X226063Y516214D03*
X141537Y572586D03*
D23*
X252121Y547879D03*
X180279Y619721D03*
D24*
X283860Y573986D03*
X227340Y658414D03*
D25*
X319940Y593267D03*
X281060Y687133D03*
D26*
X359254Y605185D03*
X339346Y704815D03*
D43*
X449212Y512433D02*
X458551Y503093D01*
X440591Y485133D02*
X431251Y494472D01*
X413291Y476512D02*
X422630Y467172D01*
X404670Y449212D02*
X395330Y458551D01*
X377370Y440591D02*
X386709Y431251D01*
X368749Y413291D02*
X359409Y422630D01*
X341449Y404670D02*
X350788Y395330D01*
X332828Y377370D02*
X323488Y386709D01*
X305528Y368749D02*
X314867Y359409D01*
X296907Y341449D02*
X287567Y350788D01*
X341449Y296907D02*
X350788Y287567D01*
X368749Y305528D02*
X359409Y314867D01*
X377370Y332828D02*
X386709Y323488D01*
X404670Y341449D02*
X395330Y350788D01*
X413291Y368749D02*
X422630Y359409D01*
X440591Y377370D02*
X431251Y386709D01*
X449212Y404670D02*
X458551Y395330D01*
X476512Y413291D02*
X467172Y422630D01*
X485133Y440591D02*
X494472Y431251D01*
X512433Y449212D02*
X503093Y458551D01*
D44*
X301668Y412893D02*
X290892Y423670D01*
X308853Y441630D02*
X319629Y430854D01*
X337589Y448814D02*
X326813Y459591D01*
M02*
