M48
;GenerationSoftware,Autodesk,EAGLE,9.4.2*%
;CreationDate,2019-08-11T23:21:54Z*%
FMAT,2
ICI,OFF
METRIC,TZ,000.000
T3C0.600
T2C0.813
T1C1.016
%
G90
M71
T1
X33220Y45420
X29628Y41828
X31424Y43624
T2
X40000Y77770
X40000Y75230
X47367Y77046
X46873Y74554
X54456Y74893
X53484Y72547
X60985Y71407
X59575Y69293
X66708Y66708
X64912Y64912
X71405Y60986
X69295Y59574
X74893Y54456
X72547Y53484
X77045Y47369
X74555Y46871
X77770Y40000
X25544Y5107
X77046Y32633
X74554Y33127
X74893Y25544
X72547Y26516
X71407Y19015
X69293Y20425
X66708Y13292
X64912Y15088
X60986Y8595
X59574Y10705
X54456Y5107
X53484Y7453
X47369Y2955
X46871Y5445
X40000Y2230
X40000Y4770
X32633Y2954
X33127Y5446
X26516Y7453
X19015Y8593
X20425Y10707
X13292Y13292
X15088Y15088
X8595Y19014
X10705Y20426
X5107Y25544
X7453Y26516
X2955Y32631
X5445Y33129
X2230Y40000
X4770Y40000
X2954Y47367
X5446Y46873
X5107Y54456
X7453Y53484
X8593Y60985
X10707Y59575
X13292Y66708
X15088Y64912
X19014Y71405
X20426Y69295
X25544Y74893
X26516Y72547
X32631Y77045
X33129Y74555
X40000Y60920
X40000Y71080
X44083Y60517
X46057Y70483
X48006Y59327
X51894Y68713
X51621Y57394
X57259Y65846
X54788Y54788
X61972Y61972
X57399Y51614
X65841Y57266
X59327Y48006
X68713Y51894
X60518Y44075
X70482Y46065
X60920Y40000
X71080Y40000
X60517Y35917
X70483Y33943
X59327Y31994
X68713Y28106
X57394Y28379
X65846Y22741
X54788Y25212
X61972Y18028
X51614Y22601
X57266Y14159
X48006Y20673
X51894Y11287
X44075Y19482
X46065Y9518
X40000Y19080
X40000Y8920
X35917Y19483
X33943Y9517
X31994Y20673
X28106Y11287
X28379Y22606
X22741Y14154
X25212Y25212
X18028Y18028
X22601Y28386
X14159Y22734
X20673Y31994
X11287Y28106
X19482Y35925
X9518Y33935
X8920Y40000
X19483Y44083
X9517Y46057
X20673Y48006
X11287Y51894
X22606Y51621
X14154Y57259
X25212Y54788
X18028Y61972
X28386Y57399
X22734Y65841
X31994Y59327
X28106Y68713
X35925Y60518
X33935Y70482
X45388Y50776
X43592Y48980
X41796Y47184
X19080Y40000
X38204Y43592
X36408Y41796
X34612Y40000
X32816Y38204
X31020Y36408
X29224Y34612
X34612Y29224
X36408Y31020
X38204Y32816
X40000Y34612
X41796Y36408
X43592Y38204
X45388Y40000
X47184Y41796
X48980Y43592
X50776Y45388
X75230Y40000
X40000Y45388
T3
X37963Y49843
X43081Y70881
M30